<?xml version="1.0" encoding="utf-8"?>
<!-- Generator: Adobe Illustrator 22.0.1, SVG Export Plug-In . SVG Version: 6.00 Build 0)  -->
<svg version="1.1" id="Layer_1" xmlns="http://www.w3.org/2000/svg" xmlns:xlink="http://www.w3.org/1999/xlink" x="0px" y="0px"
	 viewBox="0 0 1920 1080" style="enable-background:new 0 0 1920 1080;" xml:space="preserve">
<style type="text/css">
	.st0{fill-rule:evenodd;clip-rule:evenodd;}
</style>
<path class="st0" d="M1464.1,380.1c-3.2-0.4-5-1.6-6.4-3.4c-2.4-3.1-1.7-6.3,2.1-7.2c3.7-0.9,5.8-2.9,6.8-6.4c0.2-0.8,0.6-1.7,1-2.4
	c0.5-0.9,2.3-1.2,3-0.4c2,2.4,4,4.7,5.6,7.3c1.4,2.3,0.4,5.5-2.1,6.9c-2.3,1.3-4.6,2.5-6.5,4.4
	C1466.6,379.9,1464.8,379.9,1464.1,380.1z"/>
<path class="st0" d="M1855.3,728.2c-1.4,0.9-2.6,1.4-3.5,2.2c-0.9,0.8-1.6,1.9-2.7,3.3c-3.3-2.8-6.6-5.5-9.7-8.5
	c-2.5-2.4-3-5-1.8-6.4c1.7-2,4-1.5,6.1-1.1C1849.6,718.7,1853.2,722.4,1855.3,728.2z"/>
<path class="st0" d="M1482.2,494c-0.7-0.1-1-0.1-1.1-0.2c-1.9-1.8-4.1-3.2-6.5-4.3c-1.4-0.7-1.8-2.6-1.2-4.1
	c1.8-4.5,9.3-7.9,13.9-6.3c1.2,0.4,1.6,1.5,1.3,2.7c-0.3,1-0.7,2.1-1.4,2.9c-2,2.3-4.3,4.4-3.5,8
	C1483.8,493.1,1482.6,493.7,1482.2,494z"/>
<path class="st0" d="M1639.3,463.3c-4.9-0.7-8-3.7-8.5-7.7c-0.3-2.7,1.3-4.8,4-4.9c4.3-0.2,7.6,1.8,10,5.2c2,3,0.6,6.2-2.9,7.1
	C1640.9,463.3,1639.8,463.3,1639.3,463.3z"/>
<path class="st0" d="M1628.1,527.5c5.3-6.8,9.1-7.1,14.3-1.8c0.5,0.5,0.9,1,1.3,1.5c0.9,1.2,2.1,2.4,1.5,4.1
	c-0.7,1.9-2.5,2.5-4.2,2.6c-1.5,0.1-3.2-0.1-4.4-0.8C1633.8,531.5,1631.2,529.6,1628.1,527.5z"/>
<path class="st0" d="M1438.6,300.1c3.2-0.9,5.7-0.7,7.7,0.6c4.8,3.1,10.6,4,15.7,6.5c0.6,0.3,1.1,0.6,1.6,0.9
	c-0.3,1.6-1.5,1.7-2.5,1.6c-2.6-0.4-5.1-1-7.6-1.8c-2.1-0.7-4-1.1-6.3-0.4c-3.7,1-5.1,0.2-6.9-3.1
	C1439.7,303.2,1439.3,301.9,1438.6,300.1z"/>
<path class="st0" d="M1432.3,583.8c-6.6,2.4-12.3,3.2-18,0.1c-1-0.5-2-1.4-1.5-2.6c0.4-0.9,1.4-1.5,2.2-2.1c0.3-0.2,0.8-0.2,1.3-0.3
	C1422,577.9,1427.1,579.1,1432.3,583.8z"/>
<path class="st0" d="M1505.7,833.1c2.3,0.5,3.9,0.7,5.3,1.1c1.3,0.4,2.3,1.3,2.3,2.8c-0.1,1.5-1,2.4-2.3,2.9
	c-0.6,0.2-1.3,0.5-1.9,0.4c-3.2-0.3-6.5-0.7-9.7-1.3c-1.3-0.2-2.2-1.4-2.3-2.9c-0.1-1.4,1.2-2.9,2.9-3.1
	C1502.2,832.9,1504.4,833.1,1505.7,833.1z"/>
<path class="st0" d="M1495.9,390.8c0.7,0.3,2,0.8,3,1.5c2,1.5,2.7,4,1.8,5.8c-1,1.9-3.3,3.2-5.5,2.7c-1.4-0.3-2.9-1-4-2
	c-1.8-1.5-2.1-4.3-0.9-6C1491.5,391,1493.3,390.5,1495.9,390.8z"/>
<path class="st0" d="M1384.8,786.7c-0.7-0.4-2.2-1.2-3.5-2.3c-1.2-1-1.9-2.5-1.2-4.1c0.7-1.6,2.2-2,3.8-2.2c1.9-0.2,3.5,0.4,4.9,1.5
	c1.6,1.3,3.1,2.6,2.7,4.9C1391.2,786.2,1388.4,787.2,1384.8,786.7z"/>
<path class="st0" d="M1681.6,408.8c3,0.8,5.9,2,8,4.4c0.9,1.1,0.4,2.8-0.9,3.2c-3.9,1-7.4-0.2-10.5-2.6c-0.7-0.5-1.1-2.1-0.8-2.9
	c0.3-0.8,1.4-1.5,2.3-2C1680.2,408.7,1681,408.8,1681.6,408.8z"/>
<path class="st0" d="M1556.5,405.5c-0.9-0.7-1.9-1.2-2.5-2c-0.5-0.6-0.7-1.7-0.5-2.4c0.3-1.2,1.1-2.3,1.6-3.6c1.4-4,2.5-4.9,6.5-4.7
	c1.3,0.1,2.6,0.2,3.4,1.6c0.5,1-0.3,2.2-2.5,3.3c-1.2,0.6-2.4,1-3.8,1.6C1559,401.8,1559.2,404.2,1556.5,405.5L1556.5,405.5z"/>
<path class="st0" d="M1517.5,384.9c-0.3,2.2-2.4,3.8-4.8,3.7c-2.9-0.2-5.2-2.6-4.9-5.2c0.2-2.3,2.7-3.9,5.5-3.6
	C1516,380.2,1517.8,382.4,1517.5,384.9z"/>
<path class="st0" d="M1519.2,400.6c-0.5,2.2-3.4,3.8-5.8,3.3c-2.6-0.6-4.2-3.1-3.4-5.5c0.7-2.4,2.9-3.6,5.1-3
	C1517.8,396.1,1519.7,398.5,1519.2,400.6z"/>
<path class="st0" d="M1494.4,329.1c-2.5-0.4-4.5-1.2-5.2-3.7c-0.2-0.9,0.1-2.3,0.8-2.9c1.8-1.6,4.1-1.4,6.2-0.5
	c0.6,0.3,1.1,0.7,1.6,1.1c1,0.9,1.7,2.1,1.3,3.5c-0.4,1.4-1.6,2.1-2.9,2.3C1495.6,329.1,1494.9,329.1,1494.4,329.1z"/>
<path class="st0" d="M1483.2,539.5c-0.4,1.8-2.1,3-4,3.2c-2.3,0.2-4.3-1.2-5-3.4c-0.6-2,0.9-4.1,3-4.2c2.4-0.1,4.3,0.8,5.6,2.8
	C1483.2,538.4,1483.1,539.1,1483.2,539.5z"/>
<path class="st0" d="M1579,536.2c0.7,0.4,2,1.1,3.1,2.1c1.6,1.5,1.9,3.5,0.9,4.6c-1,1.2-3,1.5-4.8,0.7c-1.7-0.7-2.8-2-3.2-3.8
	C1574.5,537.7,1576.1,535.8,1579,536.2z"/>
<path class="st0" d="M1577.2,396.7c-2.1-0.5-3.4-2.3-2.9-4.4c0.3-1.1,0.6-2.2,1.1-3.1c0.5-0.8,1.4-1.8,2.2-2.1c1.4-0.4,2.6,0.6,3,2
	c0.4,1.4,0.7,3,0.7,4.5C1581.4,395.7,1579.3,397.2,1577.2,396.7z"/>
<path class="st0" d="M1386.4,682.7c-1-0.5-2.2-1-3.2-1.8c-0.4-0.3-0.6-1.2-0.4-1.7c0.1-0.5,0.9-1.3,1.3-1.2
	c3.6,0.1,7.3,0.4,10.9,0.8c0.5,0.1,1.3,1.3,1.2,1.9c-0.1,0.6-1.1,1.4-1.8,1.5C1391.8,682.5,1389.2,682.6,1386.4,682.7z"/>
<path class="st0" d="M1567.6,418.5c-2.2-0.4-4-2.6-3.7-4.6c0.2-1.8,2.3-3.1,4.5-2.8c2.7,0.4,4.7,2.8,4,4.9
	C1571.9,417.7,1569.7,418.9,1567.6,418.5z"/>
<path class="st0" d="M1698.6,818c1.3,0.7,2.3,1.1,3.2,1.7c0.8,0.6,0.8,1.6,0.1,2.3c-2.2,2.2-5,3-7.9,1.9c-0.9-0.3-1.9-1.5-1.9-2.3
	c-0.1-0.8,0.8-2.1,1.6-2.5C1695.3,818.4,1697.1,818.3,1698.6,818z"/>
<path class="st0" d="M1404.8,749.3c1.8,0.2,3.1,1.7,3.1,3.6c-0.1,2.4-2,4.3-4.1,4.1c-2-0.2-3.6-2.1-3.5-4
	C1400.4,750.7,1402.5,749.1,1404.8,749.3z"/>
<path class="st0" d="M1747.1,430.7c-1.3-0.6-3.1-1.4-4.7-2.4c-0.5-0.3-0.8-1.7-0.6-2.3c0.2-0.6,1.2-1.3,2-1.4c3-0.3,5.6,0.8,7.6,3
	c0.4,0.4,0.5,1.3,0.3,1.8c-0.2,0.5-0.9,1-1.4,1.1C1749.5,430.7,1748.6,430.7,1747.1,430.7z"/>
<path class="st0" d="M1410.3,789.1c0.3-1.6,2.1-2.6,4.1-2.3c2.6,0.3,4,2.2,3.5,4.4c-0.5,2.1-2.5,3.4-4.3,2.9
	C1411.5,793.5,1410,791.1,1410.3,789.1z"/>
<path class="st0" d="M1599.4,890.3c-1-0.4-1.8-0.7-2.6-1.1c-1.2-0.6-1.4-2.5-0.5-3.4c1.7-1.6,3.7-2.4,6-1.8c1.4,0.4,2.5,1.3,2.3,2.8
	c-0.1,0.9-0.8,2.1-1.6,2.6C1602,890,1600.6,890,1599.4,890.3z"/>
<path class="st0" d="M1361.8,220c2.2,0.2,4.1,1.7,4.2,3.4c0.1,1.8-1.9,3.5-4.1,3.4c-2.4-0.1-4.4-2.1-4.1-4.2
	C1358.2,221.1,1359.9,219.9,1361.8,220z"/>
<path class="st0" d="M1595,488.5c-3.4,0.1-6.2-1-8.5-3.7c-0.7-0.9-1-2.1-0.1-3c0.6-0.5,1.7-0.8,2.4-0.7c3.1,0.8,5.4,2.7,6.6,5.8
	C1595.6,487.3,1595.2,487.7,1595,488.5z"/>
<path class="st0" d="M1745.9,441c-4.7,1.2-8,0.8-10.7-1.8c-0.5-0.5-0.8-1.7-0.5-2.3c0.3-0.6,1.3-1.2,2-1.2
	C1740.2,435.7,1742.9,437.4,1745.9,441z"/>
<path class="st0" d="M1628.6,163c0.3,0.6,0.9,1.4,1.3,2.3c0.1,0.3-0.1,0.9-0.3,1.2c-1.5,2.7-5,4.2-7.1,2.9c-0.6-0.4-1-1.5-0.9-2.2
	C1622.2,164.4,1625.1,162.6,1628.6,163z"/>
<path class="st0" d="M1798.6,653.7c0.8-0.7,1.2-1.3,1.7-1.5c0.6-0.3,1.3-0.4,1.9-0.2c2.9,0.6,6.3-0.1,8.4,2.9c0.1,0.1,0,0.5-0.1,0.6
	c-3.1,2.5-6.3,0.9-9.4,0.2C1800.3,655.5,1799.6,654.5,1798.6,653.7z"/>
<path class="st0" d="M1372.9,637.3c-0.2,0.7-0.2,1-0.3,1.1c-1.2,2.4-6.9,3.2-8.6,1.2c-0.6-0.8-0.4-2.3,0.4-2.9
	c2.1-1.5,4.4-1.9,6.8-1.3C1372,635.5,1372.5,636.8,1372.9,637.3z"/>
<path class="st0" d="M1449.8,559.1c-3.8,1.9-6.7,2.4-9.6,0.9c-1-0.5-1.9-1.3-1.5-2.5c0.3-0.7,1.1-1.5,1.8-1.6
	C1443.8,555.3,1446.9,555.8,1449.8,559.1z"/>
<path class="st0" d="M1247,794.7c3.3,0.5,5.6,3.9,4.7,6.5c-0.2,0.7-1.2,1.4-1.9,1.5c-3.1,0.3-5.8-3.2-4.7-6.2
	C1245.4,795.6,1246.5,795.1,1247,794.7z"/>
<path class="st0" d="M1848.2,502.8c-4.4,1.1-7.1,0.5-9.5-1.3c-0.9-0.7-1.6-1.7-0.8-2.8c0.4-0.6,1.4-1.1,2.1-1.1
	C1843.2,497.8,1845.5,499.5,1848.2,502.8z"/>
<path class="st0" d="M1374.9,506.8c0.8,0.2,1.5,0.3,2.1,0.6c1.2,0.5,2.5,1.1,2.4,2.7c-0.1,1.6-1.6,2.1-2.8,2.1c-1.5,0-3-0.2-4.4-0.7
	c-0.6-0.2-1.5-1.4-1.4-1.9c0.2-0.9,1-1.8,1.8-2.3C1373.3,506.8,1374.3,506.9,1374.9,506.8z"/>
<path class="st0" d="M1496.7,726.5c1,0.2,1.4,0.2,1.8,0.4c2.3,1.1,3.5,3.2,2.9,5.3c-0.3,1.2-1.3,1.8-2.5,1.7
	c-2.6-0.3-4.6-2.3-4.3-4.8C1494.8,728,1496.1,727.2,1496.7,726.5z"/>
<path class="st0" d="M1724,557.9c-0.2,1.8-1.8,3.4-3.4,3.3c-1.8-0.1-3.4-2.1-3.3-4.2c0.1-1.8,1.7-3.3,3.4-3.3
	C1722.6,553.9,1724.2,555.8,1724,557.9z"/>
<path class="st0" d="M1623,840.4c2.9,0.4,4.3,1.4,4.5,2.6c0.2,1.3-1.6,2.7-3.8,2.9c-1.6,0.2-3.1-0.1-4.3-1.1c-1-0.8-1-2.9,0.2-3.4
	C1620.9,840.8,1622.4,840.6,1623,840.4z"/>
<path class="st0" d="M1384.4,575.1c-3.3,2.9-6.9,2.3-10.5,1c-0.6-0.2-1.4-1.3-1.4-1.9c0-0.6,0.9-1.6,1.6-1.8
	c1.2-0.3,2.6-0.3,3.9-0.1c1.7,0.2,3.4,0.7,5.2,1.1C1383.5,573.9,1383.9,574.5,1384.4,575.1z"/>
<path class="st0" d="M1402.7,642c-0.5,1.6-2.8,2.3-5,1.5c-1.9-0.6-3-2.4-2.5-3.9c0.1-0.4,0.3-0.8,0.6-1.1c1.3-1.1,2.8-1.1,4.2-0.4
	c1.4,0.6,2.6,1.5,2.8,3.3C1402.8,641.6,1402.7,641.8,1402.7,642z"/>
<path class="st0" d="M1546.4,399.1c-0.3,1.8-2,3-3.8,2.6c-2.1-0.4-3.5-2.4-3.1-4.2c0.4-1.6,2.4-2.7,4.1-2.2
	C1545.4,395.7,1546.6,397.4,1546.4,399.1z"/>
<path class="st0" d="M1354.5,750.7c-0.3,1.9-1.9,3.3-3.7,3.1c-1.7-0.2-2.9-2.1-2.5-4c0.3-1.6,1.7-2.8,3.3-2.7
	C1353.4,747.1,1354.8,748.8,1354.5,750.7z"/>
<path class="st0" d="M1311.9,448c-0.1,1.6-1.8,2.9-3.7,2.8c-1.9-0.1-3.4-1.6-3.3-3.3c0.1-1.7,1.8-2.9,3.7-2.8
	C1310.4,444.9,1311.9,446.4,1311.9,448z"/>
<path class="st0" d="M1306.9,569.1c-0.5-0.3-1.9-0.9-3.1-1.7c-1-0.7-0.6-2.7,0.6-3.3c1.5-0.7,2.9-0.6,4.4,0c1.8,0.7,2.9,2,2.7,3.3
	C1311.4,568.6,1309.8,569.4,1306.9,569.1z"/>
<path class="st0" d="M1409.5,249.4c0-7.1,2.2-13.1,0.6-19.2c0.8-0.1,1.5-0.3,1.6-0.2c0.4,0.7,0.9,1.6,0.9,2.4c0.1,3.8,0,7.5,0,11.3
	C1412.4,245.6,1412.3,247.6,1409.5,249.4z"/>
<path class="st0" d="M1400,567.4c-2.9,1.9-5.7,1.5-8.4-0.2c-0.9-0.5-1-2.5-0.1-2.8c1.4-0.4,2.9-0.8,4.3-0.6
	C1397.6,564.1,1399.6,564.7,1400,567.4z"/>
<path class="st0" d="M1559.2,876.2c-3.5,1.2-6.1,0.8-8.6,0.4c-0.6-0.1-1.4-1.2-1.4-1.9c0-0.7,0.7-1.5,1.4-2c0.4-0.4,1.3-0.5,1.9-0.5
	C1554.9,872.5,1557,873.5,1559.2,876.2z"/>
<path class="st0" d="M1517.3,869.8c-0.2,0.8-0.2,1.3-0.4,1.6c-1.2,1.9-3.7,2.5-5.7,1.3c-0.3-0.2-0.8-0.6-0.8-0.9
	c0-0.8-0.1-1.8,0.3-2.4c1.3-1.7,3.5-2.2,5.2-1.2C1516.6,868.4,1516.9,869.3,1517.3,869.8z"/>
<path class="st0" d="M1315.2,256.1c-0.4,1.6-2.3,2.5-4.2,2c-1.9-0.5-3-2.4-2.4-3.9c0.5-1.4,2.1-2.1,3.7-1.8
	C1314.4,252.9,1315.6,254.5,1315.2,256.1z"/>
<path class="st0" d="M1312.4,634c0.6,0.3,1.8,0.8,2.8,1.6c0.5,0.5,0.9,1.6,0.7,2.2c-0.2,0.6-1.3,1.3-2,1.3c-1.2,0-2.5-0.4-3.7-0.8
	c-1.2-0.5-2.2-1.4-2.2-2.9C1308,634.2,1310,633.4,1312.4,634z"/>
<path class="st0" d="M1698.2,845.5c-0.4,0.7-0.6,1.3-0.9,1.4c-1.4,0.6-2.8,1.2-4.2,1.4c-1.1,0.1-2.2-0.5-2.4-1.7
	c-0.3-1.3,0.6-2.2,1.6-2.5c1.4-0.3,3-0.4,4.5-0.2C1697.3,843.9,1697.7,845,1698.2,845.5z"/>
<path class="st0" d="M1446.7,502.3c-0.2-0.5-0.8-1.4-0.6-1.9c0.8-2.4,3.7-4,6.2-3.4c0.5,0.1,1.2,1.4,1,1.9
	C1452.4,501.3,1449.6,502.8,1446.7,502.3z"/>
<path class="st0" d="M1446.7,336.1c-0.3-0.6-1-1.5-1.1-2.4c0-0.7,0.6-1.7,1.3-2.2c1.3-1.2,2.9-2.3,4.8-1.3c0.4,0.2,0.8,1.2,0.6,1.7
	C1451.6,334.7,1449.5,336.4,1446.7,336.1z"/>
<path class="st0" d="M1607.7,518.8c0.2,0,0.4,0,0.6,0c1.9,0.4,3.1,1.8,3.1,3.6c0,1.3-0.9,2-2,2.1c-2,0.2-3.8-1.2-4.1-3.3
	C1605.2,520,1606.4,518.7,1607.7,518.8z"/>
<path class="st0" d="M1656.8,368c2.3,0.2,3.9,0.8,4.6,2.6c0.2,0.5-0.1,1.4-0.4,1.7c-1.6,1.2-3.3,0.8-4.8-0.2
	c-0.7-0.5-1.5-1.8-1.4-2.5C1655,368.8,1656.3,368.3,1656.8,368z"/>
<path class="st0" d="M1347.5,626.3c-0.3,1.7-2.3,3.1-3.8,2.7c-1.5-0.4-2.7-2.7-2.3-4.2c0.3-1,1.8-1.7,3.3-1.5
	C1346.6,623.6,1347.8,624.9,1347.5,626.3z"/>
<path class="st0" d="M1270.7,238.4c-2.8-0.5-4.2-1.7-3.6-2.7c0.7-1.5,2.1-1.5,3.4-1.3c1.1,0.1,2.2,0.4,3.1,0.8
	c0.5,0.2,0.9,1.1,0.8,1.6c0,0.5-0.6,1.3-1.1,1.4C1272.3,238.5,1271.2,238.4,1270.7,238.4z"/>
<path class="st0" d="M1546.4,252.3c-0.4,0.6-0.7,1.3-1.2,1.5c-1,0.4-2.1,0.7-3,0.6c-1.3-0.2-2.4-0.9-2.4-2.5c0-1.2,1.2-2.2,2.7-2.1
	c1,0.1,2.1,0.4,3,0.9C1545.9,250.9,1546.1,251.7,1546.4,252.3z"/>
<path class="st0" d="M1657.3,494.4c1.6,0.4,2.6,2,2.1,3.4c-0.5,1.5-2,2.2-3.6,1.9c-1.4-0.3-2.4-1.5-2.3-2.7
	C1653.7,495.2,1655.4,494,1657.3,494.4z"/>
<path class="st0" d="M1456.6,552.2c-0.3-0.2-1.2-0.4-1.8-0.9c-0.4-0.3-0.5-1.1-0.5-1.7c0-0.3,0.5-0.8,0.8-0.9
	c0.8-0.2,1.7-0.5,2.5-0.4c1.5,0.1,3.2,0.1,3.7,2.1C1461.6,551.6,1459.5,552.5,1456.6,552.2z"/>
<path class="st0" d="M1808.4,499.5c-0.4,0.3-0.9,0.9-1.4,0.9c-2.1,0.2-3.8-0.5-5.1-2.1c-0.3-0.4-0.4-1.3-0.2-1.7
	c0.2-0.5,0.9-1,1.5-1c2.3,0,4.1,1,5.2,3.1C1808.4,498.9,1808.4,499.1,1808.4,499.5z"/>
<path class="st0" d="M1649.3,539.6c2.6,0.5,3.9,1.7,4,3.4c0,0.5-0.5,1.3-0.9,1.6c-1.5,0.8-3.2,0.3-4.5-1.5c-0.4-0.6-0.6-1.8-0.3-2.4
	C1647.9,540,1649,539.8,1649.3,539.6z"/>
<path class="st0" d="M1604.5,850.4c1.8,2,3,3,3.6,4.2c1.1,1.9-0.4,3.8-2.7,3.7c-1.2-0.1-2.1-0.8-2-2
	C1603.5,854.8,1603.9,853.4,1604.5,850.4z"/>
<path class="st0" d="M1352.1,932c1.6,0.4,2.6,1.9,2.3,3.5c-0.3,1.3-1.7,2.1-3.1,1.8c-1.7-0.4-2.7-1.9-2.3-3.4
	C1349.3,932.5,1350.7,931.7,1352.1,932z"/>
<path class="st0" d="M1352.1,615.6c2.7,0.2,4.2,1.2,4.3,2.9c0.1,0.5-0.3,1.3-0.8,1.6c-1.7,1.1-3.4,0.7-4.7-0.6
	c-0.5-0.5-1-1.7-0.8-2.2C1350.6,616.4,1351.6,616,1352.1,615.6z"/>
<path class="st0" d="M1449.4,235.9c0,2.2-1.4,3.4-3,3.4c-1.4,0-2.5-1.2-2.5-2.5c0.1-1.6,1.5-3.1,3-2.7
	C1447.9,234.3,1448.8,235.4,1449.4,235.9z"/>
<path class="st0" d="M1420.5,565.7c-0.6,0.4-1.4,1.2-2.2,1.4c-2.1,0.3-3.9-0.9-4-2.4c-0.1-1.1,1.3-2.4,2.6-2.5
	C1418.8,562.1,1420.5,563.5,1420.5,565.7z"/>
<path class="st0" d="M1513.7,300.5c-0.4,2.1-2.1,3.1-3.6,2.7c-1.3-0.3-2.2-1.7-2-3c0.2-1.5,2-2.7,3.5-2
	C1512.5,298.6,1513.1,299.9,1513.7,300.5z"/>
<path class="st0" d="M1723.4,185.8c-0.6,0.5-1.3,1.3-2.2,1.7c-1.2,0.6-2.5,0.6-3.5-0.5c-0.1-0.2-0.3-0.3-0.4-0.5
	c-0.5-1.1,0.3-2.5,1.6-3.1c2-0.8,3.9-0.2,4.3,1.3C1723.4,184.9,1723.4,185.1,1723.4,185.8z"/>
<path class="st0" d="M1535,364.2c2.2,0.3,3.4,2,3.1,3.4c-0.3,1.2-1.7,2.1-3.1,1.9c-1.6-0.2-3.1-1.9-2.4-3.3
	C1533.2,365.3,1534.4,364.7,1535,364.2z"/>
<path class="st0" d="M1742.9,622.6c-0.1,0.7,0,1-0.2,1.1c-0.7,0.5-1.3,1.2-2.1,1.3c-1.7,0.3-3-0.4-3.7-2c-0.2-0.5,0-1.2,0.1-1.8
	c0-0.2,0.2-0.5,0.4-0.5c1-0.2,2.2-0.7,3-0.3C1741.5,620.8,1742.2,622,1742.9,622.6z"/>
<path class="st0" d="M1305.8,655.2c-0.5,2.4-3.5,4.1-5.5,3c-0.4-0.2-0.9-1.1-0.8-1.6c0.3-2.2,3.6-3.6,5.7-2.5
	C1305.5,654.2,1305.6,654.8,1305.8,655.2z"/>
<path class="st0" d="M1568.3,875c-0.9,0.6-1.7,1.5-2.6,1.7c-0.9,0.1-2.1-0.3-2.9-0.9c-0.4-0.3-0.4-1.8,0-2.3c1-1.5,3.2-1.7,4.7-0.5
	C1567.8,873.3,1567.9,874,1568.3,875z"/>
<path class="st0" d="M1674.4,419.8c-0.3,0.6-0.4,1-0.6,1.3c-1.8,1.8-3.6,2.5-5.1,1.6c-0.4-0.2-0.7-1.2-0.6-1.6
	c0.6-1.9,2.8-3,5.2-2.5C1673.7,418.7,1674.1,419.5,1674.4,419.8z"/>
<path class="st0" d="M1706.5,860.5c-0.3-0.5-1.2-1.3-1.3-2.1c-0.1-0.5,0.9-1.4,1.6-1.7c1.4-0.6,3-0.6,4.1,0.8
	c0.3,0.4,0.4,1.3,0.1,1.7C1710.3,860.4,1708.8,860.8,1706.5,860.5z"/>
<path class="st0" d="M1530.2,839.8c-0.1,0.4-0.2,0.9-0.4,1.2c-1.2,1.5-3.3,1.8-4.6,0.6c-0.5-0.5-0.8-1.8-0.5-2.2
	c0.6-0.7,1.7-1.5,2.6-1.5c0.9,0,1.8,0.8,2.7,1.3C1530.2,839.3,1530.2,839.6,1530.2,839.8z"/>
<path class="st0" d="M1583.9,475.7c-0.4,0.2-1.1,0.8-1.8,1c-1.4,0.3-2.5-0.4-3.3-1.6c-0.3-0.5-0.5-1.4-0.3-1.8
	c0.4-0.6,1.2-1.4,1.9-1.4C1582.7,471.7,1584.5,473.5,1583.9,475.7z"/>
<path class="st0" d="M1360.9,777.9c-0.3,0.3-0.9,0.9-1.3,0.9c-1,0-2.1-0.2-3-0.7c-1-0.6-1.5-1.6-0.9-2.8c0.6-1.1,1.7-1.3,2.8-0.9
	C1360.3,775,1361.3,776.4,1360.9,777.9z"/>
<path class="st0" d="M1527.9,747.5c2.5,0.4,3.7,1.7,4.5,3.3c0.3,0.6,0.2,1.9-0.2,2.3c-0.5,0.4-1.8,0.3-2.4-0.1
	C1528.1,751.8,1527.1,750.2,1527.9,747.5z"/>
<path class="st0" d="M1444.8,527.4c-0.3-0.4-1.1-1-1.2-1.7c-0.3-1.9,1.8-3.6,4-3.1c0.6,0.1,1.4,1.2,1.4,1.8
	C1448.9,526.3,1447.2,527.5,1444.8,527.4z"/>
<path class="st0" d="M1309.4,772.4c-0.6,0.3-1.5,1-2.4,1.1c-1.7,0.1-3-1.5-2.7-2.9c0.3-1.2,1.2-1.8,2.4-1.7
	C1308.5,769.1,1309.8,770.5,1309.4,772.4z"/>
<path class="st0" d="M1397.7,558.1c0.9-0.3,1.9-1.1,2.6-0.9c2.5,0.5,3.1,1.4,4.5,5c-3,0.5-4.2-3.1-7.3-1.9
	C1397.6,559.6,1397.7,558.9,1397.7,558.1z"/>
<path class="st0" d="M1641.3,471.3c-0.6,0.3-1.5,1.1-2.3,1.1c-1.7,0-3-1.4-2.7-2.9c0.2-1.2,1.2-1.8,2.4-1.7
	C1640.3,467.9,1641.6,469.3,1641.3,471.3z"/>
<path class="st0" d="M1546.8,299.7c0,2-1.6,3.4-3.1,2.9c-0.8-0.2-1.8-1.2-2-2c-0.3-1.4,1.4-2.7,3-2.4
	C1545.6,298.4,1546.3,299.3,1546.8,299.7z"/>
<path class="st0" d="M1525.4,589.9c-0.7-0.4-1.3-0.7-1.8-1c-0.9-0.6-0.7-2.2,0.2-2.7c1.9-1,3.8-0.7,5.1,1c0.3,0.4-0.1,1.8-0.6,2
	C1527.5,589.7,1526.3,589.7,1525.4,589.9z"/>
<path class="st0" d="M1395.5,763.9c0,2.2-1.2,3.4-2.8,3.4c-1.3,0-2.4-1.3-2.2-2.6c0.2-1.6,1.6-2.9,3.1-2.5
	C1394.5,762.5,1395.1,763.5,1395.5,763.9z"/>
<path class="st0" d="M1714.7,382c-0.6-0.3-1.6-0.6-2.5-1.2c-0.4-0.3-0.7-1.2-0.5-1.6c0.1-0.5,0.9-1.2,1.3-1.1
	c1.4,0.2,2.8,0.6,4.1,1.2c0.4,0.2,0.7,1.1,0.6,1.6c-0.1,0.5-0.8,0.8-1.4,1.1C1716,382.1,1715.5,382,1714.7,382z"/>
<path class="st0" d="M1589.4,864.6c-0.4,0.3-0.9,0.9-1.3,0.9c-1.8,0.1-3.4-0.7-4.5-2.2c-0.2-0.4-0.1-1.5,0.3-1.7
	C1585.9,860.4,1589.1,862.1,1589.4,864.6z"/>
<path class="st0" d="M1739.1,867.8c-1.4,0.9-2.1,1.7-3,1.8c-1.6,0.2-3-1.4-2.6-2.8c0.3-1.2,1.3-1.9,2.4-1.5
	C1736.9,865.7,1737.7,866.7,1739.1,867.8z"/>
<path class="st0" d="M1364.2,963.7c-1.4-0.1-2.4-1.3-2.3-2.6c0.1-1.3,1.6-2.4,2.8-1.8c0.8,0.4,1.7,1.3,2,2.2
	C1367.1,962.6,1365.5,963.8,1364.2,963.7z"/>
<path class="st0" d="M1335.4,571.1c0.6,0.3,1.3,0.4,1.7,0.8c0.4,0.4,0.6,1.1,0.6,1.7c0,0.3-0.4,0.7-0.8,0.9
	c-1.5,0.7-2.9,0.5-4.2-0.4c-0.4-0.3-0.7-1.2-0.5-1.6c0.1-0.5,0.8-0.9,1.3-1.1C1334.1,571,1334.8,571.1,1335.4,571.1z"/>
<path class="st0" d="M1408.2,225c-2.2-2.2-5.1-3.8-6.5-7.2C1405.6,218.7,1405.9,219.1,1408.2,225z"/>
<path class="st0" d="M1456.5,569.2c1.1,0.6,2,0.8,2.6,1.4c0.4,0.3,0.6,1.2,0.4,1.7c-0.4,1.1-2,1.7-3.4,1c-0.8-0.4-1.3-1.5-2-2.3
	C1454.9,570.4,1455.7,569.8,1456.5,569.2z"/>
<path class="st0" d="M1471.1,261c-0.3-0.5-1.1-1.3-1.2-2.2c-0.1-1.3,1.3-2.3,2.6-2c1.2,0.2,1.8,1,1.8,2.2
	C1474.2,260.3,1472.9,261.2,1471.1,261z"/>
<path class="st0" d="M1553.3,836.3c0.8,1.1,1.7,1.8,1.9,2.7c0.3,1.3-1,2.6-2.2,2.7c-1.4,0.1-2.8-1.7-2.2-3.2
	C1551.2,837.7,1552.3,837.2,1553.3,836.3z"/>
<path class="st0" d="M1436.9,498c2.1,0.2,3.1,1.2,3,2.5c-0.1,1.3-1,1.8-2.2,1.8c-1.5,0-2.7-1.1-2.4-2.4
	C1435.5,499.1,1436.4,498.5,1436.9,498z"/>
<path class="st0" d="M1606.8,506.3c-1.1-0.8-2.2-1.3-2.7-2.1c-0.3-0.5,0-1.8,0.5-2.2c1.6-1.3,4.2-0.1,4.1,2
	C1608.7,504.7,1607.6,505.4,1606.8,506.3z"/>
<path class="st0" d="M1613.6,638c-0.6,0.3-1.4,1.1-2.3,1.2c-1.4,0.1-2.4-0.8-2.7-2.2c-0.2-1,0.9-2.1,2-2.2
	C1612.3,634.6,1613.7,635.9,1613.6,638z"/>
<path class="st0" d="M1384.4,575.1c-0.4-0.6-0.9-1.2-1.3-1.7c1.5-1.5,3.1-2.6,5.2-1.2c0.4,0.3,0.7,1,0.8,1.6c0,0.3-0.5,0.9-0.8,0.9
	C1387,574.9,1385.7,574.9,1384.4,575.1z"/>
<path class="st0" d="M1302,754.3c0.8,1.3,1.7,2,1.8,2.9c0.2,1.2-0.6,2-1.8,2.2c-1.3,0.2-2.6-1.1-2.2-2.4
	C1300.1,756.2,1301,755.5,1302,754.3z"/>
<path class="st0" d="M1531.8,554.4c-0.4,0.4-0.7,1.2-1.2,1.3c-1,0.1-2.1,0.1-3.1-0.2c-0.4-0.1-0.9-1.1-0.9-1.5
	c0.1-0.5,0.8-1.2,1.3-1.2c1,0,2.1,0.2,3.1,0.5C1531.3,553.3,1531.5,553.9,1531.8,554.4z"/>
<path class="st0" d="M1346.8,254.5c0.8,1.2,1.6,2,1.7,2.9c0.2,1.2-1.4,2.3-2.7,1.8c-1.1-0.4-1.9-1.3-1.4-2.4
	C1344.7,255.9,1345.7,255.4,1346.8,254.5z"/>
<path class="st0" d="M1540.2,872.5c-0.1,1.7-1.3,2.7-2.8,2.3c-0.6-0.2-1.4-1-1.5-1.6c-0.2-1.2,1.2-2.1,2.7-1.8
	C1539.2,871.6,1539.8,872.3,1540.2,872.5z"/>
<path class="st0" d="M1655.8,844.8c0.4,0.2,1.1,0.3,1.5,0.8c0.4,0.4,0.5,1.1,0.5,1.7c0,0.3-0.5,0.8-0.9,0.8
	c-0.8,0.1-1.8,0.2-2.5-0.1c-0.6-0.3-1-1.2-1.4-1.8c0.6-0.5,1.3-0.9,1.9-1.4C1655.1,844.7,1655.4,844.8,1655.8,844.8z"/>
<path class="st0" d="M1653.9,853.8c-0.1,1.7-1.4,2.7-2.9,2.2c-0.6-0.2-1-1.2-1.4-1.8c0.9-0.5,1.7-1.2,2.6-1.4
	C1652.7,852.7,1653.4,853.5,1653.9,853.8z"/>
<path class="st0" d="M1347.2,720c-2.4-0.1-3.3,0-4.1-0.2c-1.3-0.3-2.5-0.7-2.7-2.4c0-0.2,0.1-0.4,0.2-0.6c1.3-1,2.5-0.3,3.6,0.4
	C1345,717.7,1345.5,718.4,1347.2,720z"/>
<path class="st0" d="M1641.9,481.5c-0.7,1.7-3.7,2.1-4.9,0.6c-0.2-0.3-0.1-1.4,0.3-1.6c1.3-0.9,2.8-1.1,4.2-0.1
	C1641.8,480.5,1641.8,481.1,1641.9,481.5z"/>
<path class="st0" d="M1569.3,645.6c-1-0.3-1.7-0.4-2.2-0.8c-0.5-0.3-1-1.1-1-1.5c0.1-0.5,0.8-1,1.4-1.2c0.6-0.2,1.4-0.1,1.9,0.2
	c0.7,0.4,1.1,1.2,1.6,1.8C1570.4,644.7,1569.8,645.2,1569.3,645.6z"/>
<path class="st0" d="M1848.4,780.2c0.7,0.5,1.6,0.8,2.1,1.4c0.3,0.4,0.2,1.2,0.1,1.7c-0.1,0.3-0.7,0.6-1,0.5
	c-0.8-0.2-1.7-0.4-2.3-0.9c-0.4-0.3-0.6-1.2-0.4-1.7C1847,780.8,1847.8,780.6,1848.4,780.2z"/>
<path class="st0" d="M1484.6,653.7c-0.8,0.8-1.3,1.6-1.7,1.5c-1-0.2-2-0.6-2.8-1.2c-0.3-0.2-0.4-1.3-0.1-1.7c0.2-0.4,1.2-1,1.5-0.8
	C1482.6,652,1483.4,652.9,1484.6,653.7z"/>
<path class="st0" d="M1463.2,597c0.9,0.6,1.8,1.1,2.5,1.9c0.3,0.3,0.1,1.2-0.1,1.8c-0.1,0.3-0.8,0.6-1.1,0.6c-1-0.3-2-0.6-2.8-1.2
	c-0.3-0.2-0.4-1.3-0.2-1.7C1461.7,597.8,1462.4,597.6,1463.2,597z"/>
<path class="st0" d="M1833.6,853.5c-0.3,0.3-0.5,0.9-0.8,0.9c-1.2,0.1-2.5,0-3.7-0.2c-0.3,0-0.7-1.2-0.5-1.6c0.9-1.6,4-1.5,4.9,0.2
	C1833.7,853.1,1833.6,853.3,1833.6,853.5z"/>
<path class="st0" d="M1334,580.5c-0.3,1.5-2.3,2.8-3.9,2.5c-0.3-0.1-0.8-0.7-0.7-0.9c0.5-0.9,0.9-1.9,1.7-2.5
	c0.5-0.4,1.6-0.2,2.4-0.1C1333.6,579.5,1333.8,580.2,1334,580.5z"/>
<path class="st0" d="M1831.7,837.1c-0.4-1.1-1.1-1.9-0.9-2.5c0.4-1.2,1.6-1.4,2.7-1.1c0.9,0.2,1.7,1,1.1,1.8
	C1834.1,836.1,1833,836.4,1831.7,837.1z"/>
<path class="st0" d="M1578.5,625.9c-0.3,0.3-0.6,0.8-0.9,0.8c-1.2-0.1-2.5-0.3-3.7-0.7c-0.2,0-0.3-1.4,0-1.6c1.4-1,3.7-0.5,4.5,0.8
	C1578.5,625.4,1578.5,625.7,1578.5,625.9z"/>
<path class="st0" d="M1364.3,756.9c-0.7-1.2-1.4-1.8-1.5-2.5c-0.2-1.3,1.4-2.5,2.6-1.9c0.6,0.3,1.3,1.5,1.1,1.9
	C1366.3,755.2,1365.3,755.8,1364.3,756.9z"/>
<path class="st0" d="M1706.9,550.3c0.7,0.7,1.6,1.6,2.4,2.5c0.1,0.1-0.2,0.9-0.5,1.1c-1,0.7-2.5,0.4-3.4-1c-0.3-0.4-0.2-1.2,0-1.8
	C1705.5,550.8,1706.1,550.7,1706.9,550.3z"/>
<path class="st0" d="M1716.2,584.9c-0.3,1.5-1.7,2.2-2.7,1.6c-0.6-0.4-1.1-1.3-1.2-2c0-1,1.5-1.7,2.5-1.1
	C1715.5,583.7,1715.9,584.5,1716.2,584.9z"/>
<path class="st0" d="M1681.7,499.8c-0.8-1.2-1.7-2-1.8-2.8c-0.1-1,1-1.4,1.9-1.2c1.1,0.2,2.2,0.9,1.9,2.2
	C1683.7,498.5,1682.7,499,1681.7,499.8z"/>
<path class="st0" d="M1336.2,239.6c0.8,1.1,1.6,1.9,1.9,2.7c0.1,0.3-1.1,1.3-1.8,1.4c-1.1,0.2-2.4-1.1-2-2
	C1334.6,241.1,1335.3,240.6,1336.2,239.6z"/>
<path class="st0" d="M1538.1,518.2c0.9,0,1.8-0.2,2.6,0c1.2,0.3,1.8,1.2,1.4,2.5c-0.4,1.3-2.2,1.9-3.2,1c-0.7-0.7-1-1.8-1.5-2.8
	C1537.7,518.6,1537.9,518.4,1538.1,518.2z"/>
<path class="st0" d="M1424.2,553.9c-1.5,0.8-2.3,1.4-3.3,1.6c-1.2,0.2-2.3-1-2-1.9c0.4-1.2,1.5-1.6,2.6-1.3
	C1422.3,552.3,1422.9,553,1424.2,553.9z"/>
<path class="st0" d="M1335.1,906c1.7,0,2.7,1.1,2.3,2.2c-0.2,0.7-1.1,1.4-1.7,1.5c-1.1,0.2-2.2-1-1.8-2.1
	C1334.1,906.9,1334.8,906.4,1335.1,906z"/>
<path class="st0" d="M1431.7,603.5c-1.5,0.6-2.2,1.1-2.9,1.1c-1.2,0-2.3-1.2-1.8-2.1c0.4-0.6,1.4-1.3,2-1.2
	C1429.8,601.5,1430.4,602.4,1431.7,603.5z"/>
<path class="st0" d="M1432,294c0.5,0.4,1.4,0.8,1.8,1.4c0.3,0.4,0.3,1.4,0.1,1.7c-0.3,0.4-1.3,0.6-1.7,0.4c-0.7-0.4-1.3-1.1-1.8-1.7
	c-0.2-0.2-0.1-0.9,0.2-1.2C1430.8,294.4,1431.3,294.3,1432,294z"/>
<path class="st0" d="M1369.9,592.2c-0.9,0-1.9,0.2-2.6-0.1c-0.6-0.3-1.3-1.1-1.4-1.8c-0.1-1,1.4-1.4,2.7-0.7
	C1369.2,589.9,1369.2,589.9,1369.9,592.2z"/>
<path class="st0" d="M1356,807.1c-1.3,0.8-2.1,1.4-2.9,1.6c-0.3,0.1-1-0.7-1.1-1.2c-0.3-1.1,0.7-2.3,1.7-2.1
	C1354.3,805.6,1354.9,806.3,1356,807.1z"/>
<path class="st0" d="M1588.3,302.4c0.8,1,1.6,1.6,1.6,2.3c0.1,1-0.9,1.6-1.8,1.2c-0.7-0.2-1.2-1.1-1.8-1.6
	C1586.9,303.8,1587.5,303.3,1588.3,302.4z"/>
<path class="st0" d="M1581.1,636.3c1.5-0.6,2.3-1.2,3-1.1c0.7,0.2,1.2,1,1.8,1.6c-0.6,0.5-1.2,1.6-1.7,1.5
	C1583.3,638.1,1582.6,637.3,1581.1,636.3z"/>
<path class="st0" d="M1573.8,859.6c-0.4-1.1-0.9-2-0.7-2.5c0.4-1.2,1.6-1.4,2.7-1c0.9,0.3,1.7,1.1,1.1,1.9
	C1576.3,858.6,1575.2,858.9,1573.8,859.6z"/>
<path class="st0" d="M1497,555.8c-1.6,0.3-2.4,0.8-3,0.6c-0.6-0.3-1-1.2-1.5-1.8c0.6-0.4,1.4-1.3,1.8-1.2
	C1495.2,553.7,1495.7,554.6,1497,555.8z"/>
<path class="st0" d="M1600,613.8c0.8,1,1.5,1.7,2,2.5c0.2,0.3,0,1.1-0.2,1.1c-0.5,0.2-1.3,0.3-1.7,0.1c-0.6-0.5-1.1-1.3-1.4-2
	C1598.7,615.2,1599.4,614.6,1600,613.8z"/>
<path class="st0" d="M1303.9,576.1c-1.6,0.6-2.5,1.1-3.4,1.1c-0.4,0-1.1-1.5-0.9-1.9c0.3-0.6,1.3-1.1,2-1.1
	C1302.1,574.2,1302.7,575.1,1303.9,576.1z"/>
<path class="st0" d="M1405.5,549.2c-0.5-1-1.1-1.6-1-2c0.4-1.5,1.6-2.1,3-1.8c0.4,0.1,1,1.3,1,1.3
	C1407.6,547.5,1406.6,548.2,1405.5,549.2z"/>
<path class="st0" d="M1242.7,781c-1.5,0.7-2.3,1.4-3.1,1.3c-0.5,0-1.3-1-1.5-1.7c-0.3-1,0.9-2.2,2-1.9
	C1240.8,779,1241.4,779.9,1242.7,781z"/>
<path class="st0" d="M1577.7,704.2c0.9,1.3,1.5,2,2.1,2.8c-0.6,0.5-1.3,1.3-1.9,1.2c-0.6-0.1-1.5-0.9-1.6-1.6
	C1576.2,706.1,1576.9,705.4,1577.7,704.2z"/>
<path class="st0" d="M1549.7,457.1c-1.2,0.7-1.9,1.4-2.6,1.4c-1.2,0.1-2.1-0.8-1.9-2c0.1-0.6,1.2-1.5,1.6-1.4
	C1547.7,455.3,1548.4,456.2,1549.7,457.1z"/>
<path class="st0" d="M1724.2,669.1c-0.3,0.3-0.6,0.8-0.8,0.8c-1.2-0.2-2.3-0.5-3.5-0.9c-0.1,0,0-1.4,0.3-1.5c1.5-0.7,3-0.2,3.9,1.1
	C1724.2,668.6,1724.2,668.9,1724.2,669.1z"/>
<path class="st0" d="M1411,654c-0.3,0.2-0.7,0.7-1,0.7c-1-0.1-2.1-0.3-3-0.7c-0.3-0.1-0.5-1.3-0.3-1.6c0.9-1.2,3.6-0.6,4.3,0.9
	C1411.1,653.5,1411,653.7,1411,654z"/>
<path class="st0" d="M1633.1,568.3c-0.8,0.7-1.2,1.4-1.7,1.4c-1.4,0.2-2.6-1.2-2.2-2.5c0.1-0.5,1.1-1.1,1.4-1
	C1631.5,566.8,1632.2,567.5,1633.1,568.3z"/>
<path class="st0" d="M1402.6,513.6c-1.3,0.5-2.2,0.9-3.1,1.1c-0.1,0-0.8-1.3-0.7-1.4c0.6-0.5,1.3-1,2.1-1.2
	C1401.2,512,1401.7,512.7,1402.6,513.6z"/>
<path class="st0" d="M1716.8,830.9c-1.5,0.3-2.4,0.7-3.3,0.7c-0.2,0-0.7-1.4-0.6-1.4c0.7-0.4,1.4-0.9,2.2-0.9
	C1715.5,829.2,1715.9,830,1716.8,830.9z"/>
<path class="st0" d="M1353.2,379.8c-1.4,0.7-2,1.4-2.7,1.4c-1,0-1.6-0.8-1.4-1.8c0.1-0.5,0.9-1.2,1.4-1.1
	C1351.2,378.4,1351.8,379,1353.2,379.8z"/>
<path class="st0" d="M1235.6,774.5c-1.5,0.1-2.4,0.4-3,0.1c-0.9-0.3-1.4-1.3-0.6-2.1c0.5-0.5,1.6-0.7,2.2-0.5
	C1234.7,772.3,1234.9,773.3,1235.6,774.5z"/>
<path class="st0" d="M1409.5,604.1c-0.8,0.2-1.7,0.6-2.4,0.4c-0.7-0.2-1.3-0.9-1.9-1.4c0,0,0.4-0.9,0.6-0.9c1.1,0.1,2.1,0.2,3.2,0.5
	C1409.2,602.7,1409.3,603.3,1409.5,604.1z"/>
<path class="st0" d="M1697,871.8c-1.4,0.7-2.1,1.3-2.7,1.3c-0.9,0.1-1.7-0.6-1.4-1.6c0.1-0.5,0.9-1.1,1.4-1
	C1694.9,870.5,1695.6,871,1697,871.8z"/>
<path class="st0" d="M1391.9,586.5c-1.4,0.5-2.2,1-2.8,0.9c-0.6-0.2-1-1.1-1.4-1.7c0.7-0.4,1.4-1.1,2-1
	C1390.3,584.6,1390.8,585.5,1391.9,586.5z"/>
<path class="st0" d="M1806.2,514.2c-0.5-1.1-1.2-2-1-2.4c0.3-0.5,1.3-1.1,1.9-1c0.5,0.1,1.3,1.2,1.2,1.7
	C1808.2,513.1,1807.2,513.5,1806.2,514.2z"/>
<path class="st0" d="M1430.9,876c0.6,1.3,1.3,2,1.2,2.6c-0.2,1.2-1.2,1.8-2.4,1.5c-0.5-0.1-1.2-1.1-1-1.3
	C1429.1,877.9,1429.8,877.2,1430.9,876z"/>
<path class="st0" d="M1359.1,653.7c-1.3,0.6-2,1.3-2.6,1.2c-0.6-0.1-1-1-1.6-1.6c0.6-0.4,1.2-1.2,1.8-1.2
	C1357.3,652.1,1357.9,652.9,1359.1,653.7z"/>
<path class="st0" d="M1537.5,518.9c-0.9-0.1-1.8,0.1-2.5-0.3c-0.6-0.3-0.8-1.3-1.1-1.9c0.7-0.3,1.7-1,2.1-0.7
	c0.9,0.5,1.5,1.5,2.2,2.3C1537.9,518.4,1537.7,518.6,1537.5,518.9z"/>
<path class="st0" d="M1518.4,579.7c-1.1,0-2,0.2-2.6-0.2c-0.9-0.5-1.1-1.6-0.2-2.1c0.5-0.4,1.6-0.2,2.3,0.1
	C1518.1,577.6,1518.1,578.6,1518.4,579.7z"/>
<path class="st0" d="M1498,295.9c0.7,1.3,1.3,1.9,1.4,2.6c0,1.1-1.3,2-2.4,1.5c-0.5-0.2-1.2-1.1-1.1-1.4
	C1496.3,297.9,1497,297.2,1498,295.9z"/>
<path class="st0" d="M1810.5,238c1.4-0.4,2.2-0.9,2.8-0.7c0.5,0.2,0.8,1.2,1.2,1.8c-0.7,0.3-1.4,1-2,0.9
	C1811.8,239.9,1811.4,239,1810.5,238z"/>
<path class="st0" d="M1314.4,595c0.6,0.9,1.1,1.4,1.2,1.9c0.1,1.1-1.1,2-2.2,1.6c-0.5-0.2-1.2-1.1-1.1-1.3
	C1312.9,596.5,1313.6,595.9,1314.4,595z"/>
<path class="st0" d="M1501.2,655.1c-1.4,0.4-2.2,1-2.8,0.8c-0.6-0.2-1.2-1.1-1.2-1.8c0-1,1-1.4,1.9-1
	C1499.7,653.4,1500.2,654.1,1501.2,655.1z"/>
<path class="st0" d="M1330.6,761.2c-0.6-1.4-1.1-2.1-1.1-2.7c0.1-1.1,1.4-1.9,2.4-1.3c0.5,0.2,1.1,1.1,0.9,1.4
	C1332.4,759.3,1331.6,760,1330.6,761.2z"/>
<path class="st0" d="M1525.5,436.2c0.6,1.1,1.1,1.7,1.2,2.4c0.1,1-1.5,1.8-2.4,1.2c-0.5-0.4-1-1.4-0.9-2
	C1523.6,437.2,1524.6,436.9,1525.5,436.2z"/>
<path class="st0" d="M1429.8,510.6c-0.6-1-1.2-1.5-1.2-2c0.1-1.3,1.1-1.9,2.3-1.6c0.4,0.1,1.1,1.1,1.1,1.3
	C1431.5,509,1430.7,509.7,1429.8,510.6z"/>
<path class="st0" d="M1505.1,812c0.1,1.3,0.1,2.6-1.4,3c-0.5,0.1-1.3-0.1-1.6-0.4c-0.3-0.4-0.2-1.4,0.1-1.6c0.8-0.6,1.9-0.8,2.8-1.2
	L1505.1,812z"/>
<path class="st0" d="M1447.1,671.8c0.6,0.8,1.1,1.4,1.3,2c0.1,0.3-1,1.1-1.1,1.1c-0.6-0.3-1.2-0.9-1.5-1.5
	C1445.7,673.2,1446.4,672.6,1447.1,671.8z"/>
<path class="st0" d="M1363,663.5c0.6,0.9,1.2,1.4,1.5,2.1c0.1,0.2-1.1,1.1-1.3,1c-0.7-0.3-1.2-1-1.8-1.6
	C1361.8,664.6,1362.2,664.2,1363,663.5z"/>
<path class="st0" d="M1415,474.5c-0.8,0.6-1.2,1.1-1.7,1.2c-1.1,0.2-2-1.1-1.5-2.1c0.2-0.4,1.1-1,1.4-0.9
	C1413.8,473,1414.3,473.7,1415,474.5z"/>
<path class="st0" d="M1329.9,906.8c-0.5-0.6-1.1-1-1.2-1.4c-0.1-1,0.6-1.6,1.5-1.3c0.4,0.1,1,0.9,0.9,1.3
	C1331.1,905.8,1330.4,906.2,1329.9,906.8z"/>
<path class="st0" d="M1420.2,286.3c-0.9,0.8-1.4,1.4-1.9,1.4c-1.1,0.1-2-1-1.8-2.1c0.1-0.3,0.6-0.9,0.8-0.9
	C1418.2,285.1,1419,285.6,1420.2,286.3z"/>
<path class="st0" d="M1483.3,453.1c-0.9,0.5-1.7,1.1-1.9,1c-0.6-0.4-0.9-1.1-1.3-1.7c0.5-0.3,1.1-1,1.4-0.9
	C1482,451.7,1482.5,452.4,1483.3,453.1z"/>
<path class="st0" d="M1324.1,704.5c-0.8,0.7-1.2,1.3-1.7,1.4c-1.1,0.2-2.2-1-1.8-1.9c0.2-0.4,1-1,1.4-0.9
	C1322.7,703.2,1323.3,703.9,1324.1,704.5z"/>
<path class="st0" d="M1461.9,342.7c0.4,0.9,1,1.8,0.9,1.9c-0.7,0.5-1.4,0.9-2.2,1.1c-0.2,0-1-1.2-0.9-1.3
	C1460.2,343.8,1460.9,343.3,1461.9,342.7z"/>
<path class="st0" d="M1702.6,827.4c-1.2,0.3-1.8,0.6-2.5,0.6c-0.2,0-0.7-1.1-0.5-1.4c0.2-0.4,1-0.8,1.4-0.8
	C1701.4,825.9,1701.8,826.6,1702.6,827.4z"/>
<path class="st0" d="M1671.5,643.6c0.9,0.1,1.7,0.1,2.4,0.4c0.2,0.1,0.4,0.9,0.2,1.1c-0.6,0.9-1.5,0.8-2.2,0.2
	C1671.7,645,1671.7,644.4,1671.5,643.6z"/>
<path class="st0" d="M1312.8,238.4c0.5,1,1,1.5,1,2c-0.1,1-1,1.4-1.8,1c-0.4-0.2-1.1-1.1-0.9-1.4
	C1311.4,239.5,1312.1,239.1,1312.8,238.4z"/>
<path class="st0" d="M1463.8,614.6c-0.6-0.8-1.1-1.4-1.4-2c-0.1-0.2,0.8-1,1.3-1c0.9-0.1,1.7,0.5,1.6,1.5
	C1465.3,613.5,1464.6,613.8,1463.8,614.6z"/>
<path class="st0" d="M1691.1,712.8c-0.6-0.9-1.2-1.5-1.3-2.1c-0.1-0.3,0.7-1.1,1.2-1.1c1-0.1,1.7,0.5,1.6,1.5
	C1692.5,711.5,1691.8,711.9,1691.1,712.8z"/>
<path class="st0" d="M1786.4,784.7c0.5,0.9,1,1.8,0.9,1.8c-0.6,0.5-1.3,0.9-2.1,1.1c-0.2,0-1-1.2-0.9-1.3
	C1784.9,785.7,1785.6,785.3,1786.4,784.7z"/>
<path class="st0" d="M1310.5,726c0.7,0.9,1.3,1.5,1.6,2.2c0.1,0.2-1,1.2-1.2,1.1c-0.7-0.4-1.3-0.9-1.7-1.6
	C1309.1,727.5,1309.8,726.8,1310.5,726z"/>
<path class="st0" d="M1272.5,296.4c0.5,0.8,1.1,1.4,1,1.8c-0.1,0.4-0.9,1.1-1.3,1c-0.4-0.1-1-0.9-1-1.4
	C1271.2,297.4,1271.9,297,1272.5,296.4z"/>
<path class="st0" d="M1453,235.4c0.4,0.7,1,1.3,0.9,1.7c-0.1,0.4-0.9,1-1.3,1c-0.4,0-1-0.9-1-1.3
	C1451.7,236.4,1452.4,236,1453,235.4z"/>
<path class="st0" d="M1461,317.7c-0.6-0.6-1.2-0.9-1.5-1.4c-0.4-0.8,0.6-1.7,1.5-1.4c0.5,0.2,1.1,0.8,1.1,1.3
	C1462.2,316.6,1461.5,317.1,1461,317.7z"/>
<path class="st0" d="M1411.1,843.8c-0.3-0.8-0.6-1.4-0.6-1.9c0-1,0.7-1.5,1.6-1.2c0.4,0.2,0.9,0.9,0.8,1.4
	C1412.8,842.5,1412.1,842.8,1411.1,843.8z"/>
<path class="st0" d="M1540.5,574.7c-0.9,0.6-1.6,1.3-1.8,1.1c-0.6-0.4-1-1.1-1.5-1.7c0.4-0.4,1-1.1,1.3-1
	C1539.1,573.4,1539.6,574,1540.5,574.7z"/>
<path class="st0" d="M1730.1,232.2c-0.4-0.8-1-1.3-0.9-1.7c0.1-0.4,0.9-1,1.3-1c0.4,0,1,0.9,1,1.3
	C1731.5,231.2,1730.7,231.6,1730.1,232.2z"/>
<path class="st0" d="M1323.5,910.8c-1.4,0.3-2.3,0.8-2.7,0.5c-0.5-0.3-0.7-1.3-0.7-2c0-0.3,1.1-0.8,1.4-0.7
	C1322.1,909,1322.5,909.7,1323.5,910.8z"/>
<path class="st0" d="M1858.1,195.8c-1,0.7-1.4,1.2-1.9,1.3c-1,0.1-1.7-0.6-1.5-1.6c0.1-0.4,0.9-1.1,1.3-1.1
	C1856.6,194.6,1857.2,195.2,1858.1,195.8z"/>
<path class="st0" d="M1353.2,636.9c-0.5,0.5-0.9,1.2-1.3,1.2c-1,0.2-1.6-0.5-1.5-1.4c0.1-0.4,0.8-1,1.3-1
	C1352.2,635.8,1352.6,636.4,1353.2,636.9z"/>
<path class="st0" d="M1824.9,813.1c0.7,0.5,1.2,0.9,1.7,1.3c-0.4,0.4-0.8,1.2-1.2,1.2c-0.5,0-1-0.6-1.5-0.9
	C1824.1,814.2,1824.5,813.8,1824.9,813.1z"/>
<path class="st0" d="M1218.8,111c0.5,0.8,1.1,1.4,1,1.8c-0.1,0.4-0.9,0.7-1.3,1.1c-0.4-0.5-1-1-1-1.4
	C1217.5,112,1218.2,111.6,1218.8,111z"/>
<path class="st0" d="M1367.5,954.1c-1.4,0.3-2.3,0.9-2.7,0.6c-0.5-0.3-0.7-1.3-0.7-2c0-0.3,1.1-0.9,1.4-0.7
	C1366.1,952.3,1366.5,953,1367.5,954.1z"/>
<path class="st0" d="M1564.9,809.2c-1.1,0.4-1.8,0.9-2.6,0.9c-0.3,0-0.6-0.9-1-1.4c0.7-0.4,1.3-0.9,2-1.1
	C1563.7,807.6,1564.1,808.4,1564.9,809.2z"/>
<path class="st0" d="M1458.8,518.4c-0.8,0.5-1.3,1-1.8,1c-0.4,0-0.7-0.7-1-1.1c0.3-0.2,0.6-0.7,0.9-0.7
	C1457.4,517.6,1457.9,518,1458.8,518.4z"/>
<path class="st0" d="M1930.2,578.3c-0.7,0.4-1.3,1-1.7,0.9c-0.4-0.1-0.7-0.8-1.1-1.3c0.5-0.3,0.9-0.9,1.4-0.9
	C1929.2,577,1929.6,577.7,1930.2,578.3z"/>
<path class="st0" d="M1314.3,574.1c0.2,0.9,0.4,1.4,0.5,2c-0.6,0.1-1.1,0.3-1.7,0.3c-0.2,0-0.6-0.9-0.4-1
	C1313,574.9,1313.6,574.7,1314.3,574.1z"/>
<path class="st0" d="M1424,288.6c0.5,0.6,1,1.2,1.4,1.8c0,0-0.3,0.4-0.3,0.4c-0.7-0.4-1.4-0.7-2-1.2c-0.1-0.1,0.1-0.7,0.3-1
	C1423.4,288.6,1423.8,288.6,1424,288.6z"/>
<path class="st0" d="M1463.1,815.4c-0.3-0.9-0.5-1.4-0.7-1.9c0.6-0.2,1.1-0.5,1.7-0.5c0.2,0,0.7,0.8,0.6,1
	C1464.3,814.4,1463.8,814.8,1463.1,815.4z"/>
<path class="st0" d="M1593.9,586.7c-0.4-0.9-0.9-1.5-0.7-1.9c0.2-0.4,1-0.6,1.5-0.6c0.2,0,0.7,0.8,0.6,1
	C1595.1,585.6,1594.6,586,1593.9,586.7z"/>
<path class="st0" d="M1400.4,681.2c0.4,0.4,0.8,0.8,1.2,1.1c-0.4,0.4-0.8,0.7-1.2,1.1c-0.4-0.4-0.8-0.9-1-1.3
	C1399.4,682,1399.9,681.5,1400.4,681.2z"/>
<path class="st0" d="M1677.5,616.8c-0.9,0.4-1.6,0.9-1.9,0.7c-0.4-0.2-0.6-1-0.6-1.5c0-0.2,0.8-0.6,1-0.5
	C1676.5,615.7,1676.8,616.2,1677.5,616.8z"/>
<path class="st0" d="M1368,664.5c-0.4-0.7-1-1.3-0.9-1.7c0.1-0.4,0.9-1,1.3-1c0.4,0,1,0.9,1,1.3
	C1369.3,663.5,1368.6,663.9,1368,664.5z"/>
<path class="st0" d="M1652.5,251.4c-0.7,0.4-1.3,1-1.7,0.9c-0.4-0.1-1-0.9-1-1.3c0-0.4,0.8-1,1.3-1
	C1651.5,250.1,1651.9,250.8,1652.5,251.4z"/>
<path class="st0" d="M1681.1,681.7c-0.7,0.4-1.2,1-1.6,0.9c-0.4-0.1-1-0.8-0.9-1.3c0-0.4,0.8-1,1.2-1
	C1680.2,680.4,1680.5,681.1,1681.1,681.7z"/>
<path class="st0" d="M1386.4,864.5c-0.3-0.9-0.5-1.4-0.7-1.9c0.5-0.2,1.1-0.5,1.6-0.5c0.2,0,0.7,0.8,0.6,1
	C1387.6,863.5,1387.1,863.8,1386.4,864.5z"/>
<path class="st0" d="M1383.5,363.7c-0.3-0.9-0.4-1.4-0.6-1.9c0.6-0.2,1.1-0.4,1.7-0.4c0.2,0,0.6,0.9,0.5,1
	C1384.8,362.9,1384.2,363.2,1383.5,363.7z"/>
<path class="st0" d="M1616.9,625.3c0.4,0.7,1,1.3,0.9,1.7c-0.1,0.4-0.9,1-1.2,1c-0.4-0.1-1-0.8-1-1.3
	C1615.6,626.3,1616.3,625.9,1616.9,625.3z"/>
<path class="st0" d="M1507.3,262.5c0.4,0.7,1,1.2,0.9,1.6c-0.1,0.4-0.9,1-1.3,0.9c-0.4-0.1-1-0.8-1-1.2
	C1506,263.5,1506.7,263.1,1507.3,262.5z"/>
<path class="st0" d="M1550.6,564.4c-0.8-0.1-1.7-0.1-2.5-0.4c-0.4-0.2-0.7-0.9-0.9-1.4c0-0.1,0.2-0.5,0.4-0.5c0.6,0,1.4-0.2,1.8,0.1
	C1549.9,562.8,1550.2,563.7,1550.6,564.4L1550.6,564.4z"/>
<path class="st0" d="M1479.9,352.2c0.2,0.9,0.3,1.4,0.4,2c-0.6,0.1-1.1,0.3-1.7,0.3c-0.2,0-0.5-0.9-0.4-1.1
	C1478.6,353,1479.1,352.7,1479.9,352.2z"/>
<path class="st0" d="M1344.5,865.4c-0.4-0.9-0.9-1.5-0.7-1.9c0.1-0.4,0.9-0.6,1.5-0.6c0.2,0,0.7,0.8,0.6,1
	C1345.7,864.4,1345.2,864.7,1344.5,865.4z"/>
<path class="st0" d="M1327.8,395.2c-0.4-0.4-0.9-0.6-1-1c-0.2-0.8,0.9-1.6,1.7-1.2c0.3,0.2,0.6,0.8,0.5,1
	C1328.7,394.5,1328.2,394.8,1327.8,395.2z"/>
<path class="st0" d="M1251,938.2c-0.8,0.4-1.3,1-1.7,0.9c-0.4-0.1-0.7-0.8-1.1-1.3c0.5-0.3,0.9-1,1.4-1
	C1249.9,936.9,1250.3,937.6,1251,938.2z"/>
<path class="st0" d="M1312.6,781.5c0.4,0.8,1,1.3,1,1.8c-0.1,0.4-0.9,1-1.3,1c-0.4-0.1-1-0.9-1-1.3
	C1311.3,782.5,1312,782.1,1312.6,781.5z"/>
<path class="st0" d="M1600.4,630.4c-0.4,0.4-0.8,1-1,0.9c-0.5-0.2-1-0.6-1.5-0.9c0.4-0.4,0.8-1.1,1.1-1.1
	C1599.5,629.4,1599.9,630,1600.4,630.4z"/>
<path class="st0" d="M1301.7,267c-0.3,0.3-0.6,0.5-0.9,0.8c-0.2-0.5-0.5-0.9-0.7-1.4c0.4-0.1,0.8-0.4,1.1-0.3
	C1301.5,266.2,1301.6,266.8,1301.7,267z"/>
<path class="st0" d="M1577.9,408.6c-0.4,0.5-0.6,0.8-0.9,1.1c-0.4-0.3-0.9-0.7-1.2-1.1c0,0,0.5-0.9,0.7-0.8
	C1576.9,407.9,1577.4,408.3,1577.9,408.6z"/>
<path class="st0" d="M1751.7,483.8c-0.6,0-1.1,0.1-1.6-0.1c-0.2-0.1-0.2-0.7-0.2-1.1c0.5-0.1,1.1-0.2,1.6-0.2
	C1751.5,482.5,1751.5,483.2,1751.7,483.8z"/>
<path class="st0" d="M1313.8,444.1c0.2-0.3,0.5-0.6,0.7-0.8c0.3,0.4,0.7,0.7,1,1.1c-0.3,0.2-0.7,0.6-1,0.5
	C1314.4,444.8,1314.1,444.3,1313.8,444.1z"/>
<path class="st0" d="M1389.2,457.9c-0.4,0.1-0.8,0.3-1.1,0.4c-0.1-0.5-0.2-1-0.3-1.6c0.4,0,0.9-0.2,1.2,0
	C1389.1,457,1389.1,457.5,1389.2,457.9z"/>
<path class="st0" d="M1381.5,475.9c0.3,0.2,0.6,0.4,0.9,0.7c-0.2,0.3-0.4,0.8-0.7,0.9c-0.3,0.1-0.6-0.4-0.9-0.6
	C1381,476.6,1381.2,476.3,1381.5,475.9z"/>
<path class="st0" d="M1549.3,511.9c-0.4,0.5-0.6,1-0.8,1c-0.6,0-1.1-0.3-1.6-0.5c0.3-0.4,0.6-1.2,0.9-1.2
	C1548.2,511.1,1548.8,511.6,1549.3,511.9z"/>
<path class="st0" d="M1589.9,542.6c-0.2,0.3-0.4,0.6-0.7,0.9c-0.3-0.4-0.7-0.7-1-1.1c0.3-0.2,0.7-0.6,0.9-0.6
	C1589.4,541.8,1589.6,542.3,1589.9,542.6z"/>
<path class="st0" d="M1614.3,544.7c0.2,0.5,0.5,1,0.5,1.5c0,0.2-0.9,0.6-0.9,0.5c-0.3-0.4-0.6-0.9-0.8-1.3
	C1613.4,545.1,1613.8,545,1614.3,544.7z"/>
<path class="st0" d="M1562.5,558.5c0.3,0.2,0.6,0.5,1,0.7c-0.2,0.3-0.4,0.8-0.7,0.9c-0.3,0-0.6-0.4-1-0.6
	C1562.1,559.1,1562.3,558.8,1562.5,558.5z"/>
<path class="st0" d="M1621.3,571.8c-0.2-0.3-0.4-0.6-0.6-0.9c0.4-0.2,0.9-0.4,1.3-0.6c0.1,0.4,0.4,0.8,0.2,1
	C1622.1,571.6,1621.6,571.7,1621.3,571.8z"/>
<path class="st0" d="M1403.2,554.8c-0.4,0.1-0.8,0.4-1.1,0.3c-0.3-0.1-0.3-0.7-0.5-1c0.4-0.1,0.8-0.4,1.1-0.3
	C1403,553.8,1403,554.4,1403.2,554.8z"/>
<path class="st0" d="M1420.2,558.3c-0.4,0.2-0.8,0.5-1.1,0.5c-0.3-0.1-0.4-0.6-0.6-1c0.4-0.2,0.8-0.5,1-0.4
	C1419.8,557.4,1420,558,1420.2,558.3z"/>
<path class="st0" d="M1593.8,810.3c-0.3,0.1-0.8,0.4-1,0.3c-0.2-0.1-0.3-0.6-0.4-1c0.3-0.1,0.8-0.4,1-0.3
	C1593.7,809.5,1593.7,810,1593.8,810.3z"/>
<path class="st0" d="M1463.4,586.4c-0.2,0.3-0.4,0.6-0.6,0.9c-0.4-0.3-0.7-0.7-1.1-1c0.3-0.2,0.6-0.6,0.9-0.6
	C1462.8,585.7,1463.1,586.1,1463.4,586.4z"/>
<path class="st0" d="M1488.6,589.5c-0.2,0.3-0.5,0.6-0.7,0.8c-0.4-0.4-0.7-0.7-1.1-1.1c0.3-0.2,0.7-0.5,1-0.5
	C1488,588.8,1488.3,589.2,1488.6,589.5z"/>
<path class="st0" d="M1692.4,622.9c-0.9,0.2-1.4,0.3-1.9,0.4c-0.1-0.5-0.3-1-0.3-1.5c0-0.2,0.8-0.5,1-0.3
	C1691.6,621.7,1691.9,622.2,1692.4,622.9z"/>
<path class="st0" d="M1357.2,589c-0.3,0.2-0.5,0.5-0.8,0.7c-0.3-0.4-0.5-0.8-0.8-1.2c0.3-0.1,0.7-0.4,1-0.4
	C1356.9,588.2,1357,588.6,1357.2,589z"/>
<path class="st0" d="M1565.1,621.9c-0.2-0.3-0.3-0.7-0.5-1c0.3-0.2,0.7-0.5,1-0.4c0.3,0.1,0.4,0.6,0.5,0.9
	C1565.8,621.6,1565.4,621.8,1565.1,621.9z"/>
<path class="st0" d="M1502.8,616.4c0.3,0.3,0.8,0.5,0.8,0.8c0,0.3-0.5,0.6-0.7,0.8c-0.3-0.3-0.8-0.5-0.7-0.8
	C1502.1,617,1502.6,616.7,1502.8,616.4z"/>
<path class="st0" d="M1384.5,604.7c-0.1-0.5-0.2-1.1-0.2-1.6c0-0.1,0.9-0.3,1-0.2c0.3,0.4,0.4,1,0.5,1.5
	C1385.5,604.4,1385.1,604.5,1384.5,604.7z"/>
<path class="st0" d="M1426,616c0.9-0.3,1.4-0.4,2-0.6c0.2,0.5,0.4,1,0.4,1.5c0,0.2-0.8,0.6-1,0.5C1427,617.1,1426.6,616.6,1426,616z
	"/>
<path class="st0" d="M1333.2,618.7c-0.3-0.5-0.6-1-0.9-1.5c0.4-0.1,0.9-0.5,1.1-0.3c0.4,0.3,0.7,0.9,1.1,1.3
	C1334.2,618.4,1333.8,618.5,1333.2,618.7z"/>
<path class="st0" d="M1562.7,669.9c-0.6,0.3-1.2,0.7-1.2,0.6c-0.3-0.4-0.6-0.9-0.8-1.4c0.3-0.2,0.9-0.6,1-0.5
	C1562.1,669,1562.3,669.5,1562.7,669.9z"/>
<path class="st0" d="M1660.9,687.2c-0.3,0.2-0.6,0.5-0.9,0.7c-0.2-0.3-0.5-0.6-0.7-0.9c0.3-0.2,0.6-0.7,0.9-0.6
	C1660.5,686.5,1660.7,687,1660.9,687.2z"/>
<path class="st0" d="M1467.5,664.1c0.2,0.3,0.4,0.7,0.5,1c-0.5,0.2-0.9,0.3-1.4,0.5c-0.1-0.4-0.3-0.8-0.1-1.1
	C1466.6,664.2,1467.1,664.2,1467.5,664.1z"/>
<path class="st0" d="M1662.3,701.4c-0.5,0.3-1,0.7-1.5,0.8c-0.2,0-0.5-0.5-0.8-0.8c0.4-0.4,0.8-0.8,1.3-1
	C1661.5,700.3,1661.9,700.9,1662.3,701.4z"/>
<path class="st0" d="M1793.1,782.2c0.5,0.5,0.8,0.7,1.1,1c-0.5,0.3-0.9,0.7-1.4,0.9c-0.2,0.1-0.5-0.5-0.8-0.8
	C1792.3,782.9,1792.7,782.6,1793.1,782.2z"/>
<path class="st0" d="M1441.1,761.3c0.3,0.3,0.7,0.5,0.8,0.8c0,0.3-0.5,0.5-0.7,0.8c-0.3-0.3-0.7-0.5-0.8-0.8
	C1440.4,761.9,1440.8,761.6,1441.1,761.3z"/>
<path class="st0" d="M1587.7,806.6c-0.2,0.3-0.5,0.6-0.7,0.9c-0.3-0.4-0.7-0.7-1-1.1c0.3-0.2,0.7-0.6,1-0.6
	C1587.2,805.8,1587.5,806.3,1587.7,806.6z"/>
<path class="st0" d="M1487.1,811.6c-0.3-0.8-0.6-1.3-0.8-1.8c0.5-0.2,1.1-0.5,1.6-0.6c0.2,0,0.7,0.8,0.6,0.9
	C1488.3,810.6,1487.8,811,1487.1,811.6z"/>
<path class="st0" d="M1508.3,829.8c-0.3,0.2-0.7,0.6-0.9,0.6c-0.3,0-0.7-0.6-0.6-0.9c0-0.3,0.5-0.5,0.8-0.7
	C1507.8,829.1,1508,829.4,1508.3,829.8z"/>
<path class="st0" d="M1773.8,873.1c-0.2-0.3-0.4-0.6-0.6-0.9c0.5-0.2,0.9-0.4,1.4-0.6c0.1,0.4,0.4,0.8,0.2,1
	C1774.7,872.9,1774.2,872.9,1773.8,873.1z"/>
<path class="st0" d="M1701.5,865c-0.3,0.2-0.6,0.4-0.9,0.6c-0.2-0.4-0.4-0.9-0.6-1.3c0.4-0.1,0.8-0.3,1.1-0.2
	C1701.3,864.2,1701.4,864.7,1701.5,865z"/>
<path class="st0" d="M1522.9,853.8c0.3,0.5,0.6,1,0.7,1.5c0,0.1-0.8,0.6-0.9,0.6c-0.4-0.4-0.7-0.9-1-1.3
	C1522,854.4,1522.4,854.2,1522.9,853.8z"/>
<path class="st0" d="M1395.5,846.8c-0.3,0.2-0.6,0.4-0.9,0.6c-0.2-0.4-0.4-0.8-0.7-1.3c0.3-0.1,0.8-0.4,1-0.3
	C1395.2,845.9,1395.3,846.4,1395.5,846.8z"/>
<path class="st0" d="M1398.2,215.3c0.2,0.3,0.4,0.6,0.5,0.9c-0.5,0.2-0.9,0.3-1.4,0.5c-0.1-0.4-0.3-0.8-0.1-1
	C1397.4,215.4,1397.9,215.4,1398.2,215.3z"/>
<path class="st0" d="M1618.5,269.9c-0.3,0.3-0.5,0.7-0.8,0.7c-0.3,0-0.5-0.4-0.8-0.7c0.3-0.3,0.5-0.7,0.8-0.7
	C1617.9,269.2,1618.2,269.7,1618.5,269.9z"/>
<path class="st0" d="M1396.1,941.9c-0.1-0.6-0.3-1.1-0.3-1.6c0-0.1,0.9-0.5,1-0.4c0.3,0.4,0.5,1,0.7,1.5
	C1397.1,941.5,1396.7,941.7,1396.1,941.9z"/>
<path class="st0" d="M1345.8,241.5c-0.2-0.3-0.5-0.6-0.7-0.9c0.3-0.2,0.7-0.6,0.9-0.6c0.3,0,0.5,0.5,0.7,0.8
	C1346.4,241,1346.1,241.3,1345.8,241.5z"/>
<path class="st0" d="M1446.3,256.2c0.3-0.2,0.6-0.3,1-0.5c0.2,0.5,0.3,0.9,0.5,1.4c-0.4,0.1-0.8,0.3-1.1,0.1
	C1446.4,257.1,1446.4,256.6,1446.3,256.2z"/>
<path class="st0" d="M1625.6,297.7c-0.2,0.2-0.5,0.5-0.7,0.8c-0.3-0.4-0.6-0.8-0.9-1.2c0.3-0.2,0.7-0.5,1-0.4
	C1625.2,296.9,1625.4,297.4,1625.6,297.7z"/>
<path class="st0" d="M1520.1,815.7c-0.2-0.3-0.3-0.7-0.5-1c0.3-0.1,0.8-0.5,1-0.4c0.3,0.1,0.4,0.6,0.5,0.9
	C1520.8,815.4,1520.4,815.6,1520.1,815.7z"/>
<path class="st0" d="M1329.6,420.8c-0.2-0.3-0.3-0.6-0.5-0.9c0.3-0.2,0.7-0.5,0.9-0.4c0.2,0,0.5,0.6,0.5,0.8
	C1330.3,420.6,1329.9,420.7,1329.6,420.8z"/>
<path class="st0" d="M1401.9,444c-0.1-0.4-0.2-0.7-0.3-1.1c0.4,0,0.8-0.1,1.1-0.1c0.1,0,0.2,0.5,0.1,0.6
	C1402.6,443.7,1402.3,443.9,1401.9,444z"/>
<path class="st0" d="M1693.5,589.9c0.3-0.2,0.7-0.6,0.9-0.6c0.3,0,0.5,0.5,0.7,0.8c-0.3,0.2-0.6,0.7-0.9,0.6
	C1694,590.8,1693.8,590.2,1693.5,589.9z"/>
<path class="st0" d="M1770.4,797.3c-0.1-0.4-0.2-0.7-0.3-1.1c0.4,0,0.7,0,1.1,0c0.1,0,0.2,0.5,0.1,0.6
	C1771.1,797,1770.7,797.1,1770.4,797.3z"/>
<path class="st0" d="M1360.5,659.9c0.3,0.2,0.6,0.4,0.9,0.6c-0.2,0.3-0.4,0.7-0.7,0.8c-0.2,0-0.6-0.3-0.9-0.5
	C1360,660.5,1360.3,660.2,1360.5,659.9z"/>
<path class="st0" d="M1402,572.2c-0.3,0.2-0.7,0.6-0.9,0.6c-0.3-0.1-0.5-0.5-0.7-0.8c0.3-0.2,0.7-0.6,0.9-0.6
	C1401.6,571.4,1401.8,571.9,1402,572.2z"/>
<path class="st0" d="M1363.9,647.8c-0.3-0.2-0.6-0.5-0.9-0.7c0.3-0.2,0.6-0.5,0.9-0.6c0.1,0,0.5,0.3,0.4,0.4
	C1364.3,647.2,1364.1,647.5,1363.9,647.8z"/>
<path class="st0" d="M1666,872.7c-0.3,0.2-0.6,0.4-0.9,0.6c-0.1-0.3-0.3-0.7-0.4-1c0-0.1,0.4-0.4,0.5-0.3
	C1665.5,872.2,1665.7,872.5,1666,872.7z"/>
<path class="st0" d="M1357.7,948.9c-0.1-0.4-0.2-0.7-0.4-1.1c0.4-0.1,0.8-0.4,1-0.2c0.2,0.1,0.3,0.7,0.4,1
	C1358.5,948.7,1358.1,948.8,1357.7,948.9z"/>
<path class="st0" d="M1274.8,933.9c-0.2,0.3-0.4,0.7-0.5,1c-0.4-0.3-0.9-0.7-1.3-1c0.3-0.3,0.6-0.7,0.9-0.7
	C1274.2,933.2,1274.5,933.7,1274.8,933.9z"/>
<path class="st0" d="M1775.6,471.7c-0.4,0.1-0.8,0.3-1,0.1c-0.2-0.1-0.1-0.6-0.2-1c0.4-0.1,0.8-0.2,1.1-0.1
	C1775.6,470.8,1775.6,471.3,1775.6,471.7z"/>
<path class="st0" d="M1452.8,264.4c0.1,0.3,0.5,0.7,0.4,0.9c-0.1,0.3-0.6,0.3-0.9,0.5c-0.1-0.3-0.5-0.7-0.4-0.9
	C1452,264.7,1452.5,264.6,1452.8,264.4z"/>
<path class="st0" d="M1438.5,862.1c0.3,0.2,0.7,0.4,1,0.5c-0.3,0.4-0.6,0.8-1,1.2c-0.2-0.3-0.7-0.6-0.7-0.9
	C1437.9,862.7,1438.3,862.4,1438.5,862.1z"/>
<path class="st0" d="M1346.1,578.5c-0.3,0.1-0.8,0.3-1,0.2c-0.2-0.1-0.3-0.6-0.4-0.9c0.3-0.1,0.8-0.3,1-0.2
	C1346,577.7,1346,578.2,1346.1,578.5z"/>
<path class="st0" d="M1804,477.6c-0.3-0.2-0.6-0.5-0.9-0.7c0.3-0.2,0.6-0.5,0.9-0.6c0.1,0,0.5,0.3,0.4,0.4
	C1804.4,476.9,1804.1,477.2,1804,477.6z"/>
<path class="st0" d="M1308,832.7c-0.3,0.2-0.6,0.4-1,0.6c-0.2-0.5-0.4-1-0.6-1.4c0.4-0.1,0.8-0.3,1.1-0.2
	C1307.8,831.9,1307.9,832.4,1308,832.7z"/>
<path class="st0" d="M1682.2,878.3c0.3,0.2,0.6,0.4,0.9,0.6c-0.2,0.3-0.4,0.7-0.6,0.8c-0.3,0-0.6-0.3-0.9-0.5
	C1681.7,878.8,1681.9,878.6,1682.2,878.3z"/>
<path class="st0" d="M1507.6,855.6c0.3,0.2,0.6,0.5,0.8,0.7c-0.3,0.3-0.5,0.7-0.8,0.8c-0.2,0-0.6-0.4-0.8-0.7
	C1507.1,856.2,1507.4,855.9,1507.6,855.6z"/>
<path class="st0" d="M1617,354.2c-0.3,0.2-0.6,0.4-0.9,0.5c-0.1,0-0.4-0.3-0.4-0.4c0.1-0.3,0.4-0.6,0.6-0.9
	C1616.5,353.7,1616.8,353.9,1617,354.2z"/>
<path class="st0" d="M1825.6,892.7c-0.3,0.2-0.6,0.4-0.9,0.6c-0.2-0.3-0.4-0.7-0.5-1c0,0,0.4-0.3,0.5-0.3
	C1825.1,892.2,1825.3,892.5,1825.6,892.7z"/>
<path class="st0" d="M1751.9,879.2c0.3,0.3,0.5,0.5,0.8,0.7c-0.3,0.3-0.5,0.7-0.8,0.7c-0.3,0-0.5-0.4-0.8-0.7
	C1751.4,879.7,1751.6,879.5,1751.9,879.2z"/>
<path class="st0" d="M1554.1,844.9c0.3-0.2,0.6-0.5,0.9-0.7c0.2,0.3,0.4,0.6,0.7,0.8c-0.3,0.2-0.6,0.6-0.9,0.6
	C1554.5,845.7,1554.3,845.2,1554.1,844.9z"/>
<path class="st0" d="M1382.1,487.8c-0.1-0.1-0.2-0.3-0.3-0.4c0.3-0.1,0.5-0.2,0.8-0.3c0,0.2,0.1,0.4,0,0.5
	C1382.5,487.8,1382.2,487.8,1382.1,487.8z"/>
<path class="st0" d="M1341.4,567.9c-0.1,0.1-0.2,0.2-0.4,0.3c-0.1-0.2-0.2-0.5-0.3-0.7c0.2,0,0.4-0.1,0.5-0.1
	C1341.4,567.5,1341.4,567.8,1341.4,567.9z"/>
<path class="st0" d="M1607.3,509.6c-0.3,0.2-0.6,0.4-0.8,0.6c-0.1-0.3-0.3-0.6-0.4-1c0-0.1,0.4-0.3,0.4-0.3
	C1606.9,509.1,1607.1,509.4,1607.3,509.6z"/>
<path class="st0" d="M1400.8,578.7c0.1-0.2,0.2-0.4,0.3-0.4c0.1,0,0.3,0.2,0.5,0.3c-0.1,0.2-0.2,0.4-0.3,0.4
	C1401.1,579,1401,578.8,1400.8,578.7z"/>
<path class="st0" d="M1388.9,688c-0.1,0.2-0.1,0.4-0.3,0.4c-0.1,0.1-0.3-0.1-0.5-0.1c0.1-0.2,0.3-0.5,0.4-0.7
	C1388.6,687.8,1388.8,687.9,1388.9,688z"/>
<polygon class="st0" points="1611.1,574.6 1611.1,575.2 1610.7,574.9 "/>
<path class="st0" d="M1417.5,714.6c0.3,0.2,0.5,0.5,0.8,0.7c-0.1,0.1-0.3,0.4-0.4,0.4c-0.2,0-0.4-0.1-0.6-0.1
	C1417.4,715.3,1417.5,714.9,1417.5,714.6z"/>
<path class="st0" d="M1554.1,581.2c-0.2,0-0.4,0.1-0.5,0.1c-0.1,0-0.2-0.3-0.2-0.4c0.3-0.1,0.5-0.1,0.8-0.2
	C1554.1,580.9,1554.1,581.1,1554.1,581.2z"/>
<path class="st0" d="M1474.7,733c0.1-0.1,0.2-0.4,0.3-0.4c0.1,0,0.3,0.2,0.4,0.2c-0.1,0.1-0.2,0.3-0.3,0.4
	C1475,733.2,1474.9,733.1,1474.7,733z"/>
<path class="st0" d="M1469.8,735c-0.3,0.1-0.4,0.1-0.6,0.1c0-0.2-0.1-0.3-0.1-0.5C1469.3,734.7,1469.5,734.8,1469.8,735z"/>
<path class="st0" d="M1822.2,803.7c0.1-0.1,0.2-0.4,0.3-0.4c0.1,0,0.3,0.2,0.4,0.2c-0.1,0.1-0.2,0.3-0.3,0.4
	C1822.5,803.9,1822.4,803.8,1822.2,803.7z"/>
<path class="st0" d="M1570.7,775c-0.1,0.1-0.3,0.2-0.4,0.3c-0.1-0.3-0.2-0.5-0.3-0.8c0.2,0,0.4-0.1,0.5,0
	C1570.6,774.6,1570.6,774.8,1570.7,775z"/>
<path class="st0" d="M1527.1,464.4c0.2,0.1,0.3,0.2,0.5,0.3c-0.1,0.2-0.2,0.4-0.3,0.5c-0.1,0-0.3-0.2-0.5-0.3
	C1526.9,464.8,1527,464.6,1527.1,464.4z"/>
<path class="st0" d="M1775.8,803.7c0.1,0.3,0.1,0.5,0.1,0.7c-0.2,0-0.4,0.1-0.5,0.1C1775.5,804.2,1775.6,804,1775.8,803.7z"/>
<path class="st0" d="M1770,616.9c0.2,0,0.4-0.1,0.5-0.1c0.1,0,0.2,0.3,0.3,0.4c-0.3,0.1-0.5,0.1-0.8,0.2
	C1769.9,617.2,1769.9,617.1,1770,616.9z"/>
<path class="st0" d="M1569.8,613.4c0.1,0.3,0.2,0.6,0.1,0.7c-0.1,0.1-0.3,0.1-0.5,0.2C1569.5,614,1569.6,613.7,1569.8,613.4z"/>
<path class="st0" d="M1528.6,447.6c-0.3,0.1-0.5,0.1-0.6,0.2c0-0.2-0.1-0.4-0.1-0.5C1528.1,447.4,1528.3,447.5,1528.6,447.6z"/>
<path class="st0" d="M1377.5,557.8c0.3,0.2,0.6,0.4,0.8,0.5c-0.2,0.2-0.5,0.5-0.7,0.7c-0.1,0-0.4-0.2-0.4-0.3
	C1377.3,558.4,1377.4,558.1,1377.5,557.8z"/>
<path class="st0" d="M1654.2,810.8c0.1,0.3,0.1,0.5,0.2,0.7c-0.2,0-0.4,0.1-0.5,0.1C1653.9,811.3,1654,811.1,1654.2,810.8z"/>
<path class="st0" d="M1578.7,585.9c-0.1-0.1-0.4-0.2-0.4-0.3c0-0.1,0.1-0.4,0.3-0.4c0.1,0,0.3,0.2,0.4,0.3
	C1578.9,585.6,1578.8,585.7,1578.7,585.9z"/>
<path class="st0" d="M1323.2,591.2c0.2-0.4,0.4-0.8,0.7-1.1c0.2-0.1,0.6,0.1,0.9,0.2c-0.1,0.2-0.2,0.4-0.4,0.5
	C1324,590.9,1323.6,591,1323.2,591.2L1323.2,591.2z"/>
<path class="st0" d="M1307.9,589c-0.1,0.1-0.3,0.2-0.4,0.4c-0.1-0.3-0.2-0.5-0.3-0.8c0.2,0,0.4-0.1,0.5-0.1
	C1307.8,588.6,1307.8,588.8,1307.9,589z"/>
<path class="st0" d="M1758.4,839.3c0.1,0.3,0.3,0.6,0.4,0.9c0,0.1-0.4,0.3-0.4,0.3c-0.3-0.2-0.5-0.4-0.7-0.6
	C1757.9,839.6,1758.1,839.5,1758.4,839.3z"/>
<path class="st0" d="M1504.9,811.8c0.4-0.4,0.8-0.8,1.3-1.2c0.2,0.3,0.4,0.5,0.5,0.8c-0.5,0.2-1.1,0.4-1.6,0.6L1504.9,811.8z"/>
<path class="st0" d="M1608.6,823.8c-0.1,0.1-0.2,0.4-0.3,0.4c-0.1,0.1-0.3-0.1-0.5-0.1c0.1-0.2,0.3-0.5,0.4-0.7
	C1608.4,823.5,1608.5,823.7,1608.6,823.8z"/>
<path class="st0" d="M1323.1,591.1c-0.2,0.3-0.4,0.8-0.7,1c-0.2,0.1-0.6-0.1-0.8-0.2c0.1-0.1,0.2-0.4,0.4-0.4
	C1322.4,591.3,1322.8,591.3,1323.1,591.1L1323.1,591.1z"/>
<path class="st0" d="M1574.6,554.1c-0.3,0-0.7,0-1-0.1c0.1-0.3,0.2-0.7,0.3-1c0-0.1,0.5,0,0.5,0
	C1574.5,553.4,1574.6,553.8,1574.6,554.1z"/>
<path class="st0" d="M1586.9,554c0,0.2,0.1,0.3,0.1,0.5c-0.2,0-0.4,0.2-0.5,0.1c-0.1-0.1-0.1-0.3-0.1-0.5
	C1586.6,554,1586.8,554,1586.9,554z"/>
<path class="st0" d="M1647,835.3c0,0.2,0.2,0.5,0.1,0.6c-0.1,0.1-0.4,0.1-0.6,0.2c0-0.2-0.2-0.5-0.1-0.6
	C1646.5,835.3,1646.8,835.3,1647,835.3z"/>
<path class="st0" d="M1342.2,382.2c0-0.2-0.1-0.4-0.1-0.6c0.2,0,0.5-0.2,0.6-0.1c0.1,0.1,0.1,0.4,0.2,0.6
	C1342.6,382.1,1342.4,382.2,1342.2,382.2z"/>
<path class="st0" d="M1758.1,434c0.1,0.3,0.1,0.4,0.1,0.6c-0.2,0-0.3,0.1-0.5,0.1C1757.9,434.5,1758,434.3,1758.1,434z"/>
<path class="st0" d="M1556.5,405.5c0.2,0.4,0.5,0.7,0.6,1.1c0.1,0.4,0.1,0.8-0.1,1.2c-0.1,0.1-0.9,0.2-1,0c-0.2-0.3-0.2-0.8-0.1-1.1
	C1556.1,406.3,1556.3,405.9,1556.5,405.5L1556.5,405.5z"/>
<path class="st0" d="M1447.7,564.5c-0.2,0-0.4,0.2-0.5,0.1c-0.1-0.1-0.2-0.4-0.1-0.5c0.1-0.1,0.3-0.1,0.5-0.1
	C1447.6,564.1,1447.7,564.3,1447.7,564.5z"/>
<path class="st0" d="M1408,382.7c-0.2-0.1-0.3-0.2-0.5-0.3c0.1-0.2,0.2-0.4,0.3-0.5c0.1,0,0.3,0.2,0.5,0.3
	C1408.2,382.4,1408.1,382.6,1408,382.7z"/>
<path class="st0" d="M1342.3,601.8c-0.2,0-0.4,0.2-0.6,0.1c-0.1-0.1-0.1-0.4-0.1-0.5c0.2,0,0.4-0.1,0.6-0.1
	C1342.2,601.4,1342.3,601.6,1342.3,601.8z"/>
<path class="st0" d="M1590.3,400.2c0.2,0,0.3-0.1,0.5-0.1c0.1,0,0.2,0.3,0.2,0.4c-0.2,0.1-0.5,0.1-0.8,0.2
	C1590.2,400.5,1590.2,400.4,1590.3,400.2z"/>
<path class="st0" d="M1802,663.3c-0.1-0.1-0.3-0.3-0.4-0.4c0.3-0.1,0.6-0.2,0.9-0.4c0,0.2,0.1,0.4,0.1,0.6
	C1802.4,663.3,1802.2,663.3,1802,663.3z"/>
<path class="st0" d="M1529.1,392.6c-0.1,0.1-0.3,0.2-0.4,0.3c-0.1-0.3-0.2-0.5-0.3-0.8c0.2,0,0.4-0.1,0.5,0
	C1529,392.2,1529,392.4,1529.1,392.6z"/>
<path class="st0" d="M1226.9,802.4c0.2,0,0.4-0.2,0.6-0.1c0.1,0.1,0.2,0.3,0.3,0.5c-0.3,0.1-0.6,0.1-0.9,0.2
	C1226.9,802.8,1226.9,802.6,1226.9,802.4z"/>
<path class="st0" d="M1612.1,378.8c0.2,0.1,0.4,0.2,0.4,0.3c0,0.1-0.2,0.3-0.3,0.5c-0.2-0.1-0.4-0.2-0.4-0.3
	C1611.8,379.1,1612,379,1612.1,378.8z"/>
<path class="st0" d="M1443,348.7c0.1,0.1,0.4,0.2,0.4,0.3c0.1,0.1-0.1,0.3-0.1,0.5c-0.2-0.1-0.5-0.3-0.7-0.4
	C1442.8,349,1442.9,348.9,1443,348.7z"/>
<path class="st0" d="M1427,330.6c0,0.3,0,0.6-0.1,0.9c0,0-0.3,0-0.5,0c0-0.3,0-0.6,0.1-1C1426.5,330.6,1426.8,330.6,1427,330.6z"/>
<path class="st0" d="M1471.7,562c-0.3,0-0.7,0-1,0c0,0,0-0.4-0.1-0.6c0.4,0,0.7,0,1.1,0C1471.7,561.4,1471.7,561.8,1471.7,562z"/>
<path class="st0" d="M1656,871.6c0.2,0,0.4,0.1,0.6,0.1c-0.1,0.3-0.2,0.7-0.3,1c0,0-0.4-0.1-0.6-0.1
	C1655.8,872.3,1655.9,871.9,1656,871.6z"/>
<path class="st0" d="M1657.5,319.5c-0.2,0.3-0.4,0.5-0.6,0.8c-0.2-0.3-0.5-0.5-0.6-0.8c0-0.1,0.2-0.5,0.3-0.4
	C1656.9,319.2,1657.2,319.4,1657.5,319.5z"/>
<path class="st0" d="M1502.7,859.6c0.2,0.1,0.4,0.2,0.4,0.3c0,0.1-0.2,0.3-0.3,0.5c-0.2-0.1-0.3-0.2-0.5-0.3
	C1502.5,859.9,1502.6,859.8,1502.7,859.6z"/>
<path class="st0" d="M1673.4,888c-0.1-0.1-0.2-0.2-0.3-0.4c0.2-0.1,0.5-0.2,0.7-0.3c0,0.2,0.1,0.4,0,0.5
	C1673.8,887.9,1673.6,887.9,1673.4,888z"/>
<path class="st0" d="M1423.8,280.2c-0.1-0.1-0.2-0.2-0.3-0.4c0.2-0.1,0.5-0.2,0.7-0.3c0,0.2,0.1,0.4,0,0.5
	C1424.2,280.1,1424,280.1,1423.8,280.2z"/>
<path class="st0" d="M1589.3,881.7c0.1,0.3,0.3,0.6,0.4,0.9c0,0.1-0.4,0.3-0.4,0.3c-0.3-0.2-0.5-0.4-0.8-0.7
	C1588.7,882,1589,881.9,1589.3,881.7z"/>
<path class="st0" d="M1483.5,267.7c-0.2,0-0.3,0-0.5,0c0.1-0.2,0.2-0.5,0.3-0.7c0.1,0.1,0.3,0.2,0.4,0.3
	C1483.7,267.4,1483.6,267.5,1483.5,267.7z"/>
<path class="st0" d="M1413,251.7c-0.2,0-0.3,0-0.5-0.1c0.1-0.2,0.2-0.5,0.3-0.7c0.1,0.1,0.3,0.2,0.4,0.3
	C1413.3,251.4,1413.1,251.6,1413,251.7z"/>
<path class="st0" d="M1458.9,878.8c-0.2-0.1-0.4-0.2-0.4-0.3c0-0.1,0.2-0.3,0.3-0.5c0.2,0.1,0.4,0.2,0.4,0.3
	C1459.2,878.5,1459,878.6,1458.9,878.8z"/>
<path class="st0" d="M1342.1,612.7c-0.1,0-0.3,0.1-0.5,0.1c-0.1-0.1-0.2-0.3-0.2-0.4c0.3-0.1,0.5-0.1,0.8-0.2
	C1342.1,612.4,1342.1,612.5,1342.1,612.7z"/>
<path class="st0" d="M1339.2,873.1c0,0.2,0.1,0.4,0.1,0.5c-0.1,0.1-0.3,0.2-0.4,0.3c-0.1-0.3-0.1-0.5-0.2-0.8
	C1338.9,873,1339.1,873.1,1339.2,873.1z"/>
<path class="st0" d="M1397.3,519.1c-0.3,0.1-0.4,0.1-0.6,0.1c0-0.2-0.1-0.3-0.1-0.5C1396.8,518.8,1397.1,518.9,1397.3,519.1z"/>
<path class="st0" d="M1407,898.6c-0.2,0-0.4,0.2-0.5,0.1c-0.1-0.1-0.1-0.4-0.1-0.5c0.2,0,0.4-0.1,0.6-0.1
	C1406.9,898.2,1407,898.4,1407,898.6z"/>
<path class="st0" d="M1320.2,613.2c0.1,0.1,0.4,0.2,0.4,0.3c0,0.1-0.1,0.3-0.2,0.4c-0.1-0.1-0.4-0.2-0.4-0.3
	C1319.9,613.5,1320.1,613.3,1320.2,613.2z"/>
<path class="st0" d="M1517.5,921.2c0-0.2-0.1-0.4-0.1-0.4c0.1-0.1,0.3-0.1,0.4-0.1c0,0.2,0.1,0.4,0.1,0.4
	C1517.9,921.1,1517.7,921.1,1517.5,921.2z"/>
<path class="st0" d="M1635.3,256.6c-0.2,0-0.4,0.1-0.5,0.1c-0.1-0.1-0.2-0.3-0.3-0.4c0.3-0.1,0.5-0.1,0.8-0.2
	C1635.3,256.2,1635.3,256.4,1635.3,256.6z"/>
<path class="st0" d="M1367.6,621.6c-0.2-0.1-0.4-0.2-0.4-0.3c0-0.1,0.2-0.3,0.3-0.5c0.2,0.1,0.4,0.2,0.5,0.3
	C1367.9,621.2,1367.7,621.4,1367.6,621.6z"/>
<path class="st0" d="M1330.1,194.8c0.2,0,0.4-0.2,0.6-0.1c0.1,0.1,0.2,0.3,0.3,0.5c-0.3,0.1-0.6,0.1-0.9,0.2
	C1330.1,195.2,1330.1,195,1330.1,194.8z"/>
<path class="st0" d="M1450,925c0.2,0.1,0.3,0.2,0.5,0.3c-0.1,0.2-0.2,0.4-0.3,0.4c-0.1,0-0.3-0.2-0.5-0.3
	C1449.8,925.3,1449.9,925.2,1450,925z"/>
<path class="st0" d="M1529.2,936.6c0.1,0.3,0.2,0.6,0.1,0.7c-0.1,0.1-0.4,0.1-0.6,0.1C1528.9,937.2,1529,936.9,1529.2,936.6z"/>
<path class="st0" d="M1377.7,926.4c0,0.2,0.1,0.3,0.1,0.5c-0.2-0.1-0.4-0.3-0.6-0.4C1377.3,926.5,1377.5,926.5,1377.7,926.4z"/>
<path class="st0" d="M1370,964c-0.2-0.3-0.3-0.5-0.5-0.8c0.2-0.1,0.4-0.3,0.5-0.2c0.2,0.2,0.3,0.5,0.5,0.8
	C1370.4,963.9,1370.2,964,1370,964z"/>
<path class="st0" d="M1349.1,967.7c0-0.2-0.1-0.4-0.1-0.6c0.2,0,0.5-0.2,0.6-0.1c0.1,0.1,0.1,0.4,0.2,0.6
	C1349.5,967.6,1349.3,967.6,1349.1,967.7z"/>
<path class="st0" d="M1341.8,620.5c0.1-0.2,0.2-0.4,0.3-0.5c0.1,0,0.3,0.2,0.5,0.3c-0.1,0.2-0.2,0.5-0.3,0.5
	C1342.2,620.9,1342,620.6,1341.8,620.5z"/>
<path class="st0" d="M1513.2,642.9c0.1-0.2,0.2-0.5,0.3-0.5c0.1,0,0.4,0.2,0.5,0.3c0,0.1-0.2,0.3-0.3,0.5
	C1513.5,643.1,1513.4,643,1513.2,642.9z"/>
<path class="st0" d="M1326.3,621.2c-0.2,0-0.4,0.2-0.5,0.1c-0.1-0.1-0.1-0.3-0.1-0.5c0.2,0,0.4-0.2,0.5-0.1
	C1326.3,620.8,1326.3,621.1,1326.3,621.2z"/>
<path class="st0" d="M1783.7,562.7c0.1-0.2,0.2-0.4,0.3-0.5c0.1,0,0.3,0.2,0.5,0.3c-0.1,0.2-0.2,0.4-0.3,0.5
	C1784.1,563,1783.9,562.8,1783.7,562.7z"/>
<path class="st0" d="M1501.1,649.4c-0.2,0-0.4,0.1-0.5,0.1c-0.1-0.1-0.2-0.3-0.3-0.4c0.3-0.1,0.5-0.1,0.8-0.2
	C1501.1,649,1501.1,649.2,1501.1,649.4z"/>
<path class="st0" d="M1462.2,515.5c-0.1-0.3-0.2-0.6-0.3-1c0-0.1,0.4-0.3,0.5-0.2c0.3,0.2,0.5,0.5,0.7,0.7
	C1462.9,515.2,1462.5,515.4,1462.2,515.5z"/>
<path class="st0" d="M1409.5,505c-0.3,0.1-0.7,0.2-1,0.2c0-0.3-0.1-0.6-0.1-0.9c0-0.1,0.4-0.2,0.5-0.1
	C1409.1,504.4,1409.3,504.7,1409.5,505z"/>
<path class="st0" d="M1712,542.4c-0.1,0.2-0.2,0.4-0.3,0.4c-0.1,0-0.3-0.2-0.5-0.3c0.1-0.2,0.2-0.4,0.3-0.4
	C1711.7,542,1711.9,542.3,1712,542.4z"/>
<path class="st0" d="M1527.7,664.8c0.1-0.2,0.2-0.4,0.3-0.4c0.1,0,0.3,0.2,0.5,0.3c-0.1,0.1-0.2,0.4-0.3,0.4
	C1528.1,665.1,1527.9,664.9,1527.7,664.8z"/>
<path class="st0" d="M1802.7,607.4c0,0.2,0.1,0.3,0.1,0.5c0,0.1-0.3,0.2-0.4,0.3c-0.1-0.3-0.1-0.5-0.2-0.8
	C1802.4,607.3,1802.6,607.3,1802.7,607.4z"/>
<path class="st0" d="M1375.2,651.7c0.1-0.1,0.2-0.4,0.3-0.4c0.1,0,0.3,0.1,0.4,0.2c-0.1,0.1-0.2,0.4-0.3,0.4
	C1375.5,652,1375.4,651.8,1375.2,651.7z"/>
<path class="st0" d="M1503.8,669.7c-0.1,0.1-0.3,0.2-0.4,0.3c-0.1-0.2-0.2-0.5-0.3-0.8c0.2,0,0.4-0.1,0.5,0
	C1503.7,669.3,1503.7,669.6,1503.8,669.7z"/>
<path class="st0" d="M1477.1,506.3c0.1,0.3,0.3,0.6,0.4,0.9c0,0.1-0.4,0.3-0.4,0.3c-0.3-0.2-0.5-0.4-0.7-0.6
	C1476.6,506.7,1476.9,506.5,1477.1,506.3z"/>
<path class="st0" d="M1425.5,571c-0.1,0.1-0.2,0.2-0.4,0.3c-0.1-0.2-0.2-0.5-0.3-0.7c0.2,0,0.4-0.1,0.5,0
	C1425.4,570.6,1425.4,570.9,1425.5,571z"/>
<path class="st0" d="M1492.7,579.8c-0.2,0-0.4,0.2-0.5,0.1c-0.1-0.1-0.1-0.3-0.1-0.5c0.2,0,0.4-0.2,0.5-0.1
	C1492.6,579.3,1492.6,579.6,1492.7,579.8z"/>
<path class="st0" d="M1623.1,413.3c-0.2,0-0.3,0.1-0.5,0.1c0-0.2-0.1-0.4-0.1-0.5c0.1-0.1,0.3-0.1,0.5-0.1
	C1623.1,413,1623.1,413.2,1623.1,413.3z"/>
<path class="st0" d="M1554,572.2c0,0.2,0.1,0.3,0.1,0.5c-0.2,0-0.4,0.1-0.5,0.1c-0.1-0.1-0.1-0.3-0.1-0.5
	C1553.7,572.3,1553.9,572.2,1554,572.2z"/>
<polygon class="st0" points="1634.2,379.3 1633.7,379.3 1633.9,378.9 "/>
<path class="st0" d="M1474.1,837.5c-0.1,0.1-0.1,0.3-0.3,0.4c-0.1,0-0.3-0.1-0.4-0.2c0.1-0.1,0.1-0.4,0.2-0.4
	C1473.8,837.3,1474,837.5,1474.1,837.5z"/>
<path class="st0" d="M1604,794.1c-0.1,0.1-0.2,0.3-0.3,0.4c-0.1-0.1-0.4-0.2-0.4-0.3c0-0.1,0.2-0.3,0.3-0.4
	C1603.7,793.9,1603.8,794,1604,794.1z"/>
<path class="st0" d="M1691.7,647.8c0,0.2,0.1,0.3,0.1,0.5c-0.2,0-0.4,0.1-0.5,0.1c-0.1-0.1-0.1-0.3-0.1-0.5
	C1691.4,647.9,1691.5,647.8,1691.7,647.8z"/>
<path class="st0" d="M1770.1,787c0-0.2,0-0.5,0.1-0.5c0.1-0.1,0.4,0.1,0.6,0.1c0,0.2,0,0.5-0.1,0.5
	C1770.5,787.1,1770.3,787,1770.1,787z"/>
<path class="st0" d="M1389.3,536.6c-0.2,0-0.3,0.1-0.4,0.1c0-0.1-0.1-0.3-0.1-0.4c0.1-0.1,0.3-0.1,0.4-0.1
	C1389.2,536.3,1389.3,536.4,1389.3,536.6z"/>
<path class="st0" d="M1240.5,216.9c0.1,0.1,0.3,0.2,0.4,0.3c-0.1,0.1-0.2,0.4-0.3,0.4c-0.1,0-0.3-0.2-0.4-0.3
	C1240.3,217.2,1240.4,217,1240.5,216.9z"/>
<path class="st0" d="M1331.4,627.7c0-0.2-0.1-0.4-0.1-0.5c0.2,0,0.4-0.1,0.5-0.1c0.1,0.1,0.1,0.3,0.1,0.5
	C1331.8,627.7,1331.6,627.7,1331.4,627.7z"/>
<path class="st0" d="M1451.9,467.8c0-0.2-0.2-0.4-0.1-0.5c0.1-0.1,0.4-0.1,0.5-0.2c0,0.2,0.1,0.4,0.1,0.6
	C1452.3,467.7,1452.1,467.7,1451.9,467.8z"/>
<polygon class="st0" points="1594.1,726.1 1594.1,725.6 1594.5,725.8 "/>
<path class="st0" d="M1556.5,519.4c-0.2,0-0.4,0.1-0.5,0.1c-0.1,0-0.2-0.3-0.2-0.4c0.3-0.1,0.5-0.1,0.8-0.2
	C1556.5,519.1,1556.5,519.3,1556.5,519.4z"/>
<path class="st0" d="M1485.9,867.1c0.1,0.1,0.3,0.2,0.4,0.3c-0.1,0.1-0.2,0.4-0.3,0.4c-0.1,0-0.3-0.2-0.4-0.3
	C1485.7,867.4,1485.8,867.2,1485.9,867.1z"/>
<path class="st0" d="M1883.1,925.5c-0.1-0.1-0.3-0.2-0.4-0.3c0.1-0.1,0.2-0.3,0.3-0.4c0.1,0,0.3,0.2,0.4,0.2
	C1883.2,925.2,1883.2,925.4,1883.1,925.5z"/>
<path class="st0" d="M1424.6,707.4c0.1-0.1,0.2-0.4,0.3-0.4c0.1,0,0.3,0.2,0.5,0.3c-0.1,0.2-0.2,0.3-0.3,0.4
	C1424.9,707.6,1424.7,707.5,1424.6,707.4z"/>
<polygon class="st0" points="1646.7,556.8 1646.3,556.4 1646.8,556.2 "/>
<path class="st0" d="M1299.9,595.6c0.1,0.1,0.4,0.1,0.4,0.3c0,0.1-0.1,0.3-0.2,0.4c-0.1-0.1-0.4-0.1-0.4-0.3
	C1299.7,595.9,1299.8,595.7,1299.9,595.6z"/>
<path class="st0" d="M1371.9,680c0.1,0,0.3-0.1,0.5-0.1c0.1,0.1,0.2,0.3,0.2,0.4c-0.3,0-0.5,0.1-0.8,0.1
	C1371.8,680.4,1371.9,680.2,1371.9,680z"/>
<path class="st0" d="M1362.4,681.1c0.1-0.1,0.2-0.4,0.3-0.4c0.1,0,0.3,0.2,0.4,0.2c-0.1,0.1-0.2,0.4-0.3,0.4
	C1362.7,681.4,1362.5,681.2,1362.4,681.1z"/>
<path class="st0" d="M1417.6,947.2c0.1-0.2,0.2-0.4,0.3-0.4c0.1,0,0.3,0.2,0.4,0.2c-0.1,0.2-0.2,0.4-0.3,0.4
	C1418,947.4,1417.8,947.3,1417.6,947.2z"/>
<path class="st0" d="M1350,406.3c0.1,0.1,0.4,0.1,0.4,0.3c0,0.1-0.1,0.3-0.2,0.4c-0.1-0.1-0.4-0.1-0.4-0.3
	C1349.8,406.6,1349.9,406.4,1350,406.3z"/>
<path class="st0" d="M1792.4,622.4c0.1-0.2,0.2-0.4,0.3-0.4c0.1,0,0.3,0.2,0.4,0.3c-0.1,0.1-0.2,0.3-0.3,0.4
	C1792.7,622.6,1792.6,622.5,1792.4,622.4z"/>
<path class="st0" d="M1383.5,470.2c0,0.2,0.1,0.3,0.1,0.5c-0.2-0.1-0.4-0.3-0.6-0.4C1383.2,470.3,1383.4,470.2,1383.5,470.2z"/>
<path class="st0" d="M1413.4,522.5c0-0.2-0.2-0.4-0.1-0.5c0.1-0.1,0.3-0.1,0.5-0.1c0,0.2,0.2,0.4,0.1,0.5
	C1413.9,522.5,1413.6,522.5,1413.4,522.5z"/>
<path class="st0" d="M1550.6,564.4c0.1,0.2,0.2,0.4,0.3,0.5C1550.8,564.7,1550.7,564.5,1550.6,564.4L1550.6,564.4z"/>
</svg>
