<?xml version="1.0" encoding="utf-8"?>
<!-- Generator: Adobe Illustrator 22.0.1, SVG Export Plug-In . SVG Version: 6.00 Build 0)  -->
<svg version="1.1" id="Layer_1" xmlns="http://www.w3.org/2000/svg" xmlns:xlink="http://www.w3.org/1999/xlink" x="0px" y="0px"
	 viewBox="0 0 490 226" style="enable-background:new 0 0 490 226;" xml:space="preserve">
<style type="text/css">
	.st0{fill-rule:evenodd;clip-rule:evenodd;}
	.st1{fill-rule:evenodd;clip-rule:evenodd;fill:url(#SVGID_1_);}
</style>
<path class="st0" d="M1226.2,138.3c-0.7,0.4-1.3,1-1.7,0.9c-0.4-0.1-0.7-0.8-1.1-1.3c0.5-0.3,0.9-0.9,1.4-0.9
	C1225.2,137,1225.6,137.7,1226.2,138.3z"/>
<path class="st0" d="M1179.1,485.5c-0.1-0.1-0.3-0.2-0.4-0.3c0.1-0.1,0.2-0.3,0.3-0.4c0.1,0,0.3,0.2,0.4,0.2
	C1179.2,485.2,1179.2,485.4,1179.1,485.5z"/>
<linearGradient id="SVGID_1_" gradientUnits="userSpaceOnUse" x1="8.7695" y1="110.1746" x2="475.755" y2="110.1746">
	<stop  offset="0" style="stop-color:#1B4520"/>
	<stop  offset="0.3863" style="stop-color:#0E2411"/>
	<stop  offset="0.7717" style="stop-color:#040A05"/>
	<stop  offset="1" style="stop-color:#000000"/>
</linearGradient>
<path class="st1" d="M468.1,9.1c-2.7,1.5-5.8,2.1-8.7,3.3c-3.4,1.4-3.4,2.9-4.6,6.2c-1.1,2.8-2.3,5.5-3.1,8.5
	c-0.9,3.3-3.2,6.3-5,9.2c-1.9,3.2-3.9,6.5-6.6,9c-1.2,1.1-1.9,0.6-3.6,0.2c-3-0.7-6-1.4-9-1.8c-2.4-0.4-10.2,0.7-10,1.4
	c0.2,0.5,10.3,1.6,14.8,7c0.4,0.4,1.2,0.5,1.5,0.9c-1.3,0.4-2.7-0.3-3.9-0.6c-1.2-0.3-2.4-0.2-3.7-0.4c-3.2-0.5-6-2-9-3
	c-3.4-1.2-6.9-2.1-10.4-2.6c-1.2-0.2-12.8,0-12.2,2.7c0.2,0.9,7.9,1.1,9,1.4c4.6,1.2,8.7,3.5,13,5.5c3,1.3,5.9,3,9.2,3.5
	c0.3,0,0.7,0.2,1.2,0.3c-0.7,0.7-1.3,1.2-1.8,1.7c-4.2-2.1-8.6-3.5-13.2-4.4c-3.5-0.7-7-1.4-10.5-1.9c-3.5-0.5-7-1-10.4-1.8
	c-8.2-1.8-14.8-7.2-20.7-13c-0.9-0.9-5.2-3.2-5.2-2.9c-0.1,2.1,4.2,10.9,10.3,16.3c-0.4-0.1-0.5-0.1-0.7-0.2
	c-7.8-2.1-13.1-10.8-18.6-16c-4-3.7-8.3-7.3-13.3-9.5c-0.7-0.3-6.7-2.8-7-1.8c-0.2,0.6,2.2,2.8,2.6,3.3c1.3,1.5,2.4,3.2,3.6,4.8
	c3.3,4.8,6.5,9.7,9.1,15c3.8,7.7,10,13.3,16.9,18.1c1.6,1.1,3.5,2.1,5.3,2.9c5.7,2.7,11.5,5.3,17.5,6.9c4.4,1.2,8.8,2.3,13.2,3.4
	c0,0.1,0,0.3,0.1,0.4c-1.3,1.1-3.9,3.5-5,4.5c-1.3,1.1-9.6-1.4-11.3-1.8c-7.4-1.8-16.5-6.3-22.3-11.2c-3.6-3-6.5-6.8-9.8-10
	c-2.8-2.7-5.4-5.7-8.3-8.4c-5.8-5.5-13.4-9.4-20-13.5c-0.2-0.1-0.4-0.3-0.7-0.4c-2.3-0.9-8-3.6-8.1-3c-0.2,0.7,4.3,7.2,5.3,8.7
	c2.1,3.3,4.2,6.6,6.2,10c4,7.2,7.7,14.4,12.9,20.8c6.3,7.6,13.1,15.7,21.6,21c2.4,1.5,4.7,3.1,7.4,4c1.1,0.3,2.1,0.6,3.3,0.9
	c-1.2,0.9-1.2,0.8-2.9,0.5c-3.2-0.5-6.3-1.7-9.2-3.3c-0.7-0.4-1.4-0.8-2.1-1.2c-9.1-5.4-16.4-13.2-23.1-21.3
	c-5.5-6.6-10.5-14.2-17.9-18.9c-2.7-1.7-5.4-3.6-8.2-5.2c-2.8-1.6-5.7-2-8.7-3c-3.1-1.1-10.5-3.6-10.9-2.8
	c-0.4,0.7,10.3,12.6,12.6,15.1c1,1.1,1.8,2.5,2.8,3.7c-0.6-0.8-3.4-1.6-4.4-2.1c-1.3-0.6-2.5-1.3-3.8-2c-3-1.6-6.1-3.1-9.2-4.4
	c-6.3-2.5-12.9-4.6-19.4-6.3c-3.1-0.8-6.3-1.7-9.6-2c-2.7-0.2-4.8-1.3-7.4-1.8c-1-0.2-4.6-1.4-5-0.6c-0.4,0.8,8.2,7.6,10.1,8.9
	c0.9,0.7,1.8,1.5,2.7,2.2c2.7,2.6,5.9,4.8,7.9,8.2c0.8,1.3,2,2.4,2.7,3.7c2.6,4.5,5,9,7.6,13.4c1.7,2.8,3.6,5.6,5.5,8.3
	c1.6,2.2,3.2,4.3,5,6.4c2.1,2.3,4.2,4.6,6.5,6.7c2.8,2.6,5.7,5,8.6,7.5c3.5,3,7,6.1,10.8,8.6c1.9,1.2,3.9,2.3,5.8,3.4
	c0.7,0.4,5,3.5,5.5,3.3c-0.8,0.3-3.3,2-4.1,1.9c-1.1,0-9.2-4.9-10-5.4c-5.1-3.2-10-6.5-14.6-10.3c-4.6-3.8-9.1-8.2-13.1-12.5
	c-4.1-4.5-8.1-9.2-13.1-12.7c-4.9-3.5-9.5-7.3-14.6-10.4c-5.4-3.3-11-6.3-16.9-8.6c-3.6-1.5-7.5-2-11.3-2.5c-4.7-0.7-9.3-0.5-14-0.3
	c-6.9,0.3-14.5,1.5-21.3-0.2c-2-0.5-3.9-1.1-5.9-1.6c-0.5-0.2-2.8-1.2-3.3-0.8c-0.7,0.5,4.7,5.2,5.2,5.5c6.4,5.4,14.2,8.8,20.6,14.2
	c5.1,4.2,9.6,9,13.8,14.1c3,3.7,6.2,7.2,9.4,10.7c4.1,4.4,8.2,8.8,12.5,13c2.1,2,4.3,3.9,6.5,5.7c0.6,0.4,6.6,4.5,6.5,4.7
	c0,0.1-0.1,0.2-0.1,0.4c-11.7-3.5-20.4-10-29.1-18.5c-7.1-7-14.1-14-21.3-20.9c-1.3-1.2-2.5-2.6-3.8-3.8c-3.1-2.6-6.4-5.1-9.6-7.6
	c-4.5-3.4-9.3-5.7-14.8-7.4c-1.6-0.5-3.3-1-5-1.2c-3.4-0.3-6.9-0.3-10.3-0.5c-1-0.1-2-0.4-3-0.4c-1.5,0,8.9,7,11.6,8.6
	c2.6,1.6,5.2,3,7.6,5.1c1.9,1.7,4,3,5.7,4.9c5.1,5.7,9.4,11.8,13.7,18.2c0.5,0.8,1.1,1.5,1.8,2.5c-6.3-3.1-10.7-9.4-15.8-14.1
	c-6.5-5.9-14.3-11.9-22.5-15c-1.9-0.7-7.7-1.2-7.9-0.7c-0.2,0.6,3.1,3.1,4,3.9c3.9,3.3,7.9,6.5,11.5,10.2c3.1,3.2,5.8,6.7,8.6,10.2
	c1.7,2.1,3.4,4.2,5.2,6.3c0.4,0.5-3.2-1.5-5.2-3c-2.3-1.7-4.5-3.5-6.6-5.4c-4.4-3.7-8.5-7.7-13-11.3c-4.6-3.7-9.1-6.9-14.5-9.4
	c-0.8-0.4-1.7-0.9-2.6-1.1c-3.8-0.8-7.9-1.9-11.8-1.8c-3.8,0-7.5,1.1-11.3,1.9c-1.3,0.3-9.8,1.9-9.4,4c0.2,1.1,0.8,0.8,1.5,0.9
	c1.8,0.3,3.5,0.6,5.2,1.1c8.2,2.4,25.8,16.2,29.1,19c3.9,3.3,7.6,6.9,11.1,10.6c3,3.2,5.7,6.6,8.6,10c2.2,2.6,4.3,5.2,6.4,7.8
	c2.2,2.8,4.3,5.7,6.5,8.6c2.2,2.8,4.4,5.4,6.7,8.2c-1.2-0.1-2.3-0.1-3.4-0.3c-0.3,0-0.7-0.3-1-0.6c-1.8-2.4-3.5-4.8-5.5-7.1
	c-7.9-9.4-16.1-18.5-24.7-27.2c-1.9-2-3.9-4-5.9-5.8c-8.3-7.4-18.5-17-29.8-19.1c-1.7-0.3-21.9-2.5-21.7,1.8c0,0.8,10,3.9,16.5,8
	c6.6,4.2,27.7,23,30.3,25.6c6.1,6.2,11,13.9,16.9,20.2c0.5,0.5,1,1,1.7,1.7c-1.6-0.3-3-0.5-4.4-0.8c-0.2,0-1.3-1.4-1.7-1.8
	c-5.3-5.2-10-10.9-15.2-16.2c-4.7-4.8-9.8-9.3-14.9-13.6c-6.7-5.6-14.2-11-22.2-14.7c-1.2-0.5-21.7-7.4-21.6-3.1
	c0,1,2.9,2.2,3.6,2.6c1.9,1.1,3.6,2.3,5.4,3.6c7.6,5.7,13.2,13.6,19.2,20.9c-0.5-0.1-0.9-0.3-1.4-0.5c-8.4-3.7-14.2-11.3-21.6-16.5
	c-3.4-2.4-7-4.2-10.9-5.6c-2.5-0.9-5.8-2.4-8.5-2.4c-1.7,0-7.8-0.8-7.9-0.6c0.8,0.8,6.8,5.9,8.2,7.3c3.7,3.6,7,7.5,9.8,11.9
	c0.8,1.3,7.7,12.4,6.9,13.2c-0.1,0.1-0.2,0.2-0.3,0.3c-1-0.3-2.1-0.5-3-1.1c-1-0.6-1.7-4.3-2.3-5.4c-1.1-2-2.6-3.9-4.2-5.6
	c-7.4-8.1-11.6-12.8-20.7-18.6c-0.7-0.5-9.7-8.2-10.7-7.1c-0.7,0.8,13.2,20.2,9.6,22.8c0.2,0.4-0.4-0.3,0,0
	C48,111,35.2,92.4,18.1,94.7c-1.6,0.2,17.5,8.8,24.7,29.3c0.7,2-11.6,11-27.5,11.2c-0.5,0-6.7-0.9-6.5-0.1
	c0.9,4.5,15.6,4.8,20.9,4.8c5.5,0,19.3-6.9,19.7-6.4c0,0.1-9,16.1-37.5,8.1c-1.4-0.4,0.5,2,0.6,2.2c0.9,0.7,2,1,2.9,1.5
	c9.5,5.2,21.1,10.8,32.2,8.8c4.4-0.8,8.4-2.7,12.5-4.4c5.6-2.4,17.2-8.8,17.5-9.4c1,0.4,2.1,0.7,3.4,1.2c-0.6,0.4-1,0.8-1.4,1.1
	c-2.1,1.4-4.2,2.7-6.3,4.1c-8.1,5.2-17.9,12-27.6,12.9c-1.1,0.1-7.9-0.3-8.6,0.6c-0.2,0.3,1.9,1,2.2,1.3c0.6,0.6,8.4,1.8,11.5,2.1
	c6.8,0.7,13.9-1.8,20.6-3.2c0.8-0.2,1.7-0.5,2.5-0.7c-9.3,7.6-29.6,7.6-29.5,9c0.1,1,15,9,29.5,7.6c9.4-0.9,18.8-3.5,27-8.1
	c3.4-1.9,6.3-4.7,8.9-7.5c0.9-1,6.7-9.2,7.3-9.1c0.9,0.2,1.8,0.4,2.8,0.6c-0.3-0.1-5.4,6.5-6,7.2c-6.4,6.5-13.5,13-22,16.5
	c-4.1,1.7-7.7,3.1-11.9,4.1c-0.9,0.2-7.8,1.8-8,2.6c0.4,2,19.6,5.3,20.4,5.5c1.2,0.4,2.5,0.6,3.7,0.8c2.6,0.5,5.2,1.2,7.9,1.6
	c2.5,0.3,5,0.3,7.5,0.3c5.6,0,10.7-1.5,15.4-4.5c3.4-2.2,6.1-3.7,8.9-6.8c1.7-1.9,3.4-3.8,5.1-5.7c0.4-0.5,0.8-1,1.2-1.5
	c1.1-1.5,2.2-2.9,3.3-4.4c0.5-0.7,5.7-9.7,6.7-9.7c0.8,0,1.7,0.2,2.6,0.3c-1.1-0.1-5.8,7.7-6.4,8.7c-2.3,3.3-4.4,6.6-6.7,9.9
	c-4.8,7.1-14.2,12.4-21.9,15.6c-1.4,0.6-13.1,3.2-12.9,5c0.1,1.1,10.3,1,12.3,0.8c10.1-0.7,19.4-2.6,28.4-6.7
	c-1.6,0.7-2.2,3-3.3,4.2c-1.1,1.2-2.3,2.3-3.5,3.5c-0.9,0.9-5.8,5.2-4.7,6.7c1,1.5,9.2-1.8,11.6-2.7c2.4-0.9,4.9-1.8,7.2-3
	c4.8-2.5,9.3-5.5,14.1-7.8c4.9-2.3,31.5-21.7,33.5-24.7c1-1.5,3.5-3.4,2.7-5.4c2.1-0.1,4.1-0.1,6.2-0.2
	c-6.6,10.3-17.6,16.3-27.1,23.5c-3.2,2.4-6.3,5-9.2,7.8c-1.9,1.8-3.7,4-5.2,6.2c-2.3,3.3-6.5,11.7-6.1,12c0.5,0.5,5.3-3,6.7-4.8
	c1-1.2,11.8-11.2,12.6-10.3c0.1,0.1,0.1,0.2,0.2,0.3c0.2,0.3-2.2,3.2-2.5,3.7c-1.1,1.5-10.9,14.8-8.1,14.9c1.3,0.1,6.9-5.6,8.3-6.6
	c2.7-1.9,5.5-4.2,8.5-5.7c11.8-5.9,25-8.1,37.3-12.7c6.8-2.5,13.4-5.4,19.5-9.4c3.9-2.6,8-5.1,11.1-8.7c3.2-3.6,6.3-7.6,8.9-11.7
	c0.7-1.2,0.9-2.9,1.8-3.9c0.7-0.7,3.8-0.5,4-1c-2.4,5.6-5.6,11.3-9.3,16c-2.8,3.6-6.9,6.5-10.6,9.3c-8.8,6.6-19.8,10.3-29,15.9
	c-2.8,1.7-5.5,3.5-8.1,5.5c-5.7,4.2-8.2,12.3-7.6,12.6c1.5,0.6,6.6-3.3,7.8-4c3.6-2,7.2-3.6,11.2-4.6c6.8-1.6,13.6-3.1,20.6-4
	c3.5-0.5,6.9-1.6,10.4-2.3c3.5-0.6,6.8-1.4,10.1-2.8c2.2-0.9,4.3-2,6.4-3.1c2.9-1.4,5-3.2,7.5-5.3c2.8-2.5,5.4-4.6,7.7-7.7
	c2.4-3.2,4.7-6.6,7.1-9.9c3.1-4.2,6.2-8.6,8.7-13.1c0.8-1.5,7.1-12.1,7.7-14.4c1.2-0.4,4.7-1.6,5.9-2c-0.9,1.9-1.4,6.1-2.4,7.8
	c-2,3.6-24,31.6-28,38.2c-2.1,3.5-9.4,15.2-7.6,16.9c1.5,1.4,9.1-6.8,9.6-7.8c1.6-3.3,3.9-6.1,6.2-9c3.5-4.3,8.8-7.8,13.2-11.1
	c-0.2,1.2-0.5,2.2-0.8,3.2c-2.2,6.3-5.4,12.1-9.3,17.4c-2.3,3.1-7.8,10.3-7.3,11c0.6,0.9,4-1.3,4.8-1.9c3.6-2.6,7.8-4.4,11.5-6.7
	c8-4.9,16.7-10,23.5-16.5c2.2-2.1,4.3-4.2,6.2-6.5c2.8-3.2,5.6-6.4,7.6-10.3c1.6-3.1,3.7-6,4.9-9.3c2.4-6.5,4.3-13.1,6.5-19.6
	c1.1-3.3,5-14.3,4.9-16.3c0.9-0.5,4.1-2.2,4.9-2.6c-0.9,2.5-2.2,6.3-3,8.8c-2.2,6.6-2.8,13.7-4.6,20.4c-2.6,9.2-7.9,18.4-13.9,25.7
	c-3.9,4.8-8,10.1-12.6,14.3c-1.8,1.6-6.8,6.9-6.3,7.7c0.6,0.8,9.9-2.5,11.4-3.5c1.5-1,3.2-1.6,4.6-2.7c1.7-1.2,3.2-2.7,4.8-4.1
	c7-6,12.4-12.8,18.2-19.9c0.1-0.1,0.2-0.2,0.4-0.3c-0.6,0.5-1,3.9-1.4,4.9c-0.5,1.3-6,15.4-5.1,15.7c1.3,0.5,4.1-2.9,4.5-3.4
	c3.6-4,7.3-7.9,10.3-12.3c7.3-10.8,15.5-22.2,19.3-34.8c2.6-8.5,2.9-17.3,4.7-26c0.8-4.1,0.3-10.3,2-14.1c0.2-0.4,4.4-4.1,4.5-3.9
	c0.1,0.3-0.5,2-0.5,2.2c-0.4,2.7-0.9,5.5-1.2,8.2c-0.6,4.8-0.8,9.6-0.7,14.5c0.2,4.7,0.4,9.6-1.1,14.1c-1.8,5.3-4.1,10.5-6,15.8
	c-0.8,2.2-0.9,13.8-0.6,13.9c1.3,0.4,2-4.7,2.4-5.6c0.9-2.6,2.3-4.9,3.6-7.3c3.3-6.1,7.5-11.7,11.1-17.6c2.3-3.8,5.1-7.8,6.6-12
	c2.6-7.4,3.4-15,3.9-22.7c0.2-3.5,0.5-6.9,0.3-10.4c-0.1-2.1-1.3-5.2,0.2-6.7c-0.4,0.5,1.4,5.6,1.6,6.4c0.5,2.1,0.8,4.2,1.1,6.3
	c0.6,4.3,0.8,8.7,0.1,13c-1.3,8.8-5.2,17.6-5,26.5c0,0.1-1.6,6.1-1.4,5.6c0.1,0.7,0.1,2.7,0.3,3c0.7,0.7,4.4-7.3,4.7-8.2
	c1.8-5.5,5-10.3,7.8-15.4c1.8-3.3,2.7-7,2.9-10.7c0.2-3.2,0.5-6.4,0.2-9.6c-0.4-3.5-1.9-13.9-1.6-14.1c-1.2-3.2-0.7-6.5-0.4-9.9
	c0.7,3.3,2.4,6.1,4.1,8.9c1.5,2.4,3.1,4.7,4.8,7c3.3,4.6,5.7,10.1,6.9,15.5c0.2,1,1.3,4.1,2.1,3.9c0.5-0.1,1.1-5.4,1.2-7.6
	c0.1-6.2-1.2-12.1-3.9-17.7c-2.1-4.3-5-8.1-6.7-12.6c-0.4-1.2-0.8-2.4-1.2-3.5c5.7,4.4,13.8,8,16.9,14.8c0.4,1,2.3-5.6-2.5-12.9
	c-3.6-4.2-8-6.5-10.1-11.9c-0.6-1.6,4.8-6.8,5.8-8c2.3-2.8,4.7-5.6,6.8-8.5c3.9-5.3,7.6-10.8,10.8-16.7c2.8-5.2,5.4-10.5,7.9-15.9
	c0.1-0.2,0-0.5-0.1-0.7C474.1,2.9,469.5,8.3,468.1,9.1z M467.7,17.5c-5,9.2-11.2,18.3-17.7,26.3c-6.5,8-13.2,16-20.2,23.7
	c-7.7,8.5-17.2,16.1-26.1,23.1c-8.4,6.7-16.7,13.4-25.6,19.5c-3.7,2.6-7.4,5.7-11.5,7.6c-7.6,3.5-15,7.3-22.5,10.9
	c-4.3,2.1-8.7,4.1-13.1,6c-15.3,6.6-31.6,12.1-47.7,16.2c-4.1,1.1-8.3,2-12.5,2.9c-5.8,1.2-11.6,2.1-17.4,2.9
	c-20.2,2.7-41,3.8-61.3,3.1c-12-0.4-24-2.1-35.9-3.8c-13-1.9-26.2-4.2-39-7.3c-8.7-2.1-17.5-4.3-26.1-6.9c-3.6-1.1-7.1-2.2-10.6-3.4
	c-2.5-0.9-5-2-7.5-3c-1.8-0.7-3.5-1.5-5.4-2.1c-2.3-0.7-4.7-1.2-7-1.8c-0.4-0.1-0.8-0.2-1.2-0.4c-2.4-0.8-4.9-1.5-7.3-2.4
	c-1.8-0.6-3.5-1.4-5.3-2.2c0-0.1,0.1-0.2,0.1-0.3c1.5,0.5,3.1,0.9,4.6,1.4c2.5,0.7,4.9,1.5,7.4,2.2c1.5,0.5,3.1,0.8,4.7,1.2
	c1.2,0.3,2.3,0.6,3.5,0.9c2.7,0.7,5.3,1.5,8,2.3c12,3.5,23.5,6,35.4,9.2c3.2,0.9,7.2,1.8,10.5,2.5c11.2,2.3,23,4.3,34.4,5.9
	c9.8,1.4,19.5,3,29.5,3.6c3.2,0.2,6.4,0.3,9.6,0.3c12.2,0.1,22.4,0.2,34.5-1c3.9-0.4,10.3-0.8,14.2-1.3c12.6-1.5,24.6-4.2,37-6.9
	c8.7-1.9,17.4-4.2,25.8-7.2c6.2-2.2,12.4-4.4,18.5-6.8c5.2-2.1,10.2-4.5,15.3-6.9c7.7-3.9,15.3-8,23-12c2.7-1.4,5.4-2.8,8-4.3
	c9.4-5.7,18.3-12.2,26.8-19.2c13.8-11.2,27.4-22.9,39.2-36.2c3-3.4,5.8-7,8.4-10.7c2.3-3.2,4.3-6.7,6.5-10c3.3-5,4.6-11.3,6.9-16.8
	c0.7-1.6,3.7-1.9,5.2-2.5c2.4-0.9,4.7-1.9,7-2.9C469.7,13.2,468.8,15.4,467.7,17.5z"/>
</svg>
