<?xml version="1.0" encoding="utf-8"?>
<!-- Generator: Adobe Illustrator 22.0.1, SVG Export Plug-In . SVG Version: 6.00 Build 0)  -->
<svg version="1.1" xmlns="http://www.w3.org/2000/svg" xmlns:xlink="http://www.w3.org/1999/xlink" x="0px" y="0px"
	 viewBox="0 0 467 380" style="enable-background:new 0 0 467 380;" xml:space="preserve">
<style type="text/css">
	.st0{fill:#1B1818;}
</style>
<g id="Layer_1">
</g>
<g id="Layer_2">
	<path class="st0" d="M260.2,291.9c-0.3-0.3-0.9-0.8-1.3-1.2c-1-0.9-1.9-2.2-1.8-2.4c0.1-0.2,0.4-0.3,0.6-0.4c1,1.1,2,2.3,3,3.5
		l-2.8-3.6c0,0,0,0,0,0c3.6,4.4,7.5,9.1,10.9,14.2c1.6,2.1,5.2,2.3,5.9,6.5c-4.5-4.9-9.3-9.9-13.9-14.9
		C261,293.3,260.7,292.5,260.2,291.9z"/>
	<path class="st0" d="M278.5,328.1l0.7,1c1.2,1.6,2.4,3.2,3.6,4.9c1,1.5,1.7,3.2,2.3,4.9c-1.3-2.2-2.7-4.3-4-6.5
		c0.3,0.7,0.5,1.4,0.6,2.1l-12.5-17.8c3.2,3.9,6.5,7.7,9.6,11.9L278.5,328.1z"/>
	<path class="st0" d="M282.3,326.8c-2.9-3.6-5.8-7-8.6-10.4l-0.8-1.6C276.7,318.2,279.1,322.8,282.3,326.8z"/>
	<path class="st0" d="M271.6,313.9c0.7,0.8,1.4,1.7,2.1,2.5c1,1.9,2.2,3.5,3.9,5.5c-1.3-0.8-2.6-2.2-4.1-3.7l-4.9-6.2
		c2.3,3.3,4.5,6.7,6,10c-3.7-4-7.1-8.5-10.7-12.6c-0.3-0.4-0.6-0.8-0.8-1.1c1,0.8,1.9,1.5,3,2.2C268,311.5,269.8,312.7,271.6,313.9z
		"/>
	<path class="st0" d="M286.3,339.5c3.2,3.6,4.8,8.6,8.3,12.8c0.9,1.1,1.8,2.9,2.5,4.8c0.4,0.4,0.5,0.7,0.4,1.1l0.5,1.3l-0.5-1.1
		c-0.1,0.4-0.2,0.7,0.1,1.3c-3.5-6.7-7.8-13.3-12-20C285.5,339,285.6,338.7,286.3,339.5z"/>
	<path class="st0" d="M321.3,199.2c0,0,0.1-0.1,0.1-0.1l0.1-0.2c0.1,0,0.1,0.1,0.2,0.1c-0.1,0.1-0.1,0.2-0.2,0.3
		C321.5,199.3,321.4,199.2,321.3,199.2z"/>
	<path class="st0" d="M321.9,199.4c0.1-0.1,0.1-0.1,0.1-0.2c0.2,0.2,0.5,0.3,0.7,0.5c0,0,0,0,0,0.1
		C322.5,199.7,322.2,199.5,321.9,199.4z"/>
	<path class="st0" d="M322.9,199.8c0.1,0,0.1,0.1,0.2,0.1C323,199.9,322.9,199.9,322.9,199.8C322.9,199.8,322.9,199.8,322.9,199.8z"
		/>
	<path class="st0" d="M322.7,199.8C322.7,199.8,322.8,199.7,322.7,199.8C322.8,199.7,322.8,199.7,322.7,199.8
		C322.8,199.8,322.8,199.8,322.7,199.8C322.8,199.8,322.8,199.8,322.7,199.8z"/>
	<path class="st0" d="M316.1,197L316.1,197L316.1,197L316.1,197l0.1-0.3l0.1-0.5c0.1-0.2,0.1-0.4,0.2-0.6c1.5,0.6,2.9,1.7,4.4,2.7
		c-0.2,0.1-0.4,0.2-0.6,0.3C317.9,197.8,315.4,196.8,316.1,197z"/>
	<polygon class="st0" points="303.3,200.1 303.3,200.1 303.3,200.1 	"/>
	<path class="st0" d="M305.6,201.6c-0.1,0.2-0.5,0-1.5-0.8c0,0,0,0,0,0c0.8,0.1,1.3,0.3,1.7,0.7
		C305.8,201.5,305.7,201.5,305.6,201.6z"/>
	<path class="st0" d="M320.9,204.8c0.1,0,0.1,0.1,0.2,0.1l0,0C321,204.8,321,204.8,320.9,204.8L320.9,204.8z"/>
	<path class="st0" d="M308.4,199.7c0.1,0.4,0.2,0.7,0.1,0.9c-0.6-0.7-1.1-1.4-1.4-2.2C308,199,308.2,199.2,308.4,199.7z"/>
	<path class="st0" d="M306,201.7c0-0.1-0.1-0.1-0.1-0.1c0.2,0.2,0.3,0.3,0.5,0.5C306.3,202,306.1,201.9,306,201.7z"/>
	<path class="st0" d="M315.6,198L315.6,198L315.6,198c-0.2-0.1-0.5-0.2-0.6-0.2c0.1-0.5,0.4-1.2,0.7-2.3c0.2,0.1,0.5,0.2,0.7,0.3
		C316.1,196.4,315.7,197.6,315.6,198L315.6,198z"/>
	<path class="st0" d="M285.9,341.2l-0.8-2.3l0.5,0.8C285.7,340.2,285.9,340.9,285.9,341.2z"/>
	<path class="st0" d="M320.9,204.8c-0.1,0-0.1,0-0.2-0.1h0C320.8,204.7,320.8,204.8,320.9,204.8
		C320.9,204.8,320.9,204.8,320.9,204.8z"/>
	<path class="st0" d="M321.6,203.2c0,0.1-0.3,0.7-0.6,1.4c0,0.1-0.1,0.1-0.1,0.2c0,0-0.1,0-0.2-0.1
		C321.1,204,321.7,203.1,321.6,203.2z"/>
	<path class="st0" d="M302,199.4c0.3,0,0.8,0.4,1.3,0.8c-0.3,0.6-0.6,1.2-0.9,1.8c-0.1,0.2-0.2,0.4-0.3,0.6c-0.3-0.6-0.6-1.3-0.7-2
		C301.3,199.4,301.4,199.3,302,199.4z"/>
	<path class="st0" d="M320.9,204.8C320.9,204.8,320.9,204.8,320.9,204.8L320.9,204.8l0.1,0.1l-0.1,0.3c-0.1,0.1-0.2,0.3-0.3,0.3
		C320.4,205.8,320.4,205.7,320.9,204.8z"/>
	<path class="st0" d="M318.9,203.7c0.2-0.2,0.4-0.4,0.5-0.5c0-0.1-0.1,0-0.3,0.1c-0.2,0.2-0.4,0.4-0.4,0.5c-0.5-0.2-1.1-0.5-1.8-0.8
		c1.4-0.7-0.1-2.4-2.1-4.1c0,0,0-0.1,0-0.1c0-0.1,0.1-0.3,0.3-1c0.2,0.1,1.2,0.5,3.9,1.6c-0.4,0.2-0.7,0.5-0.8,0.9
		c-0.1,0.3-0.1,0.6,0.1,0.7c0.2,0.2,1-0.1,2.2-1c0.6,0.2,1.2,0.5,1.9,0.8v0l0,0l0,0l0,0l0,0c0,0,0.1-0.1,0.1-0.3
		c0.1-0.2,0.1-0.4,0.2-0.7l0-0.1l0,0l0,0l0,0h0c0,0,0,0,0.1,0c0,0.1-0.1,0.2-0.1,0.3c0,0.1,0,0.2,0,0.1c0-0.1,0.1-0.2,0.1-0.4
		c0,0,0,0,0.1,0c0,0,0,0.1,0,0.1c-0.1,0.3-0.2,0.6-0.3,0.9c-0.1,0.2-0.2,0.2-0.1,0.1c-0.1-0.3,0,0.4-1.9,2.6
		c-0.2,0.3-0.4,0.5-0.6,0.8c-0.3-0.1-0.7-0.3-1.1-0.5C318.7,203.8,318.8,203.8,318.9,203.7z"/>
	<path class="st0" d="M315.3,188.6c0,0,0.1-0.1,0.1-0.1C315.4,188.6,315.4,188.6,315.3,188.6z"/>
	<path class="st0" d="M324.7,174.1c-0.3,0.2-0.5,0.3-0.8,0.4c2.9,2.2,5.8,4.4,8.6,6.6c-0.5-0.4-0.6-0.8-0.6-1.2l1,0.9l-0.9-0.9
		c0,0-0.1-0.1-0.1-0.1l0,0c-0.1-0.3-0.3-0.6-0.9-0.9c-1.6-1.6-3.1-3.1-4.5-3.9C325.8,174.8,325.3,174.4,324.7,174.1z M330,178.9
		c0.1-0.1,0.4-0.1,0.5,0.1c0.2,0.2,0.1,0.3-0.2,0.3C330,179.1,329.8,179,330,178.9z"/>
	<path class="st0" d="M361.9,225.8c-1.8-2.7-3.8-5.4-4.7-8.6c2.4,3,5,6.1,7.5,8.9c1.3,1.2,2.4,2,3.4,2.7c-0.8,0.2-1.5,1.3-1.8,2
		c-0.2-0.2-0.4-0.5-0.7-0.8C364.6,229.1,362.8,227.3,361.9,225.8z"/>
	<path class="st0" d="M368.4,228.8c-0.1,0-0.2,0-0.4,0c0,0,0,0,0,0C368.1,228.7,368.3,228.7,368.4,228.8z"/>
	<path class="st0" d="M317.4,185c0.1,0,0.2-0.1,0.3-0.1c0.1,0,0.1,0.1,0.2,0.1c0,0,0,0-0.1,0.1C317.7,185.1,317.6,185.1,317.4,185
		C317.4,185,317.4,185,317.4,185z"/>
	<path class="st0" d="M322.7,173.1c-0.1,0.1-0.2,0.2-0.3,0.3l0,0c-0.1-0.1-0.3-0.2-0.4-0.3c0.2-0.1,0.3-0.2,0.5-0.3
		C322.6,173,322.7,173,322.7,173.1z"/>
	<path class="st0" d="M323.2,173.4L323.2,173.4c-1.2-1,1.6,1.3-0.4-0.4c0,0,0.1-0.1,0.1-0.1c0.5,0.3,1,0.7,1.5,1
		c-0.3,0.1-0.5,0.3-0.8,0.4c-0.3-0.2-0.6-0.4-0.9-0.6C322.9,173.6,323,173.5,323.2,173.4L323.2,173.4z"/>
	<path class="st0" d="M316.7,187.3c0,0.1-0.1,0.1-0.1,0.1c0,0,0,0,0,0c0,0-0.1,0.1-0.1,0.2c-0.3,0.4-0.6,0.7-1,0.9
		c0-0.1,0.1-0.1,0.1-0.2c0.1-0.2,0.2-0.4,0.2-0.4c0,0,0.5-0.8,1.2-1.7c0.3-0.5,0.6-0.8,0.8-1.1c0.1,0,0.2,0,0.2,0.1
		c0,0,0.1,0.1,0.1,0.1c-0.1,0.2-0.1,0.5-0.2,0.9C317.5,186.3,317.2,186.5,316.7,187.3z"/>
	<path class="st0" d="M327.4,171.3c-0.1,0-0.1-0.1-0.2-0.1c0.1,0,0.2-0.1,0.2-0.1C327.5,171.1,327.5,171.2,327.4,171.3z"/>
	<path class="st0" d="M335.3,183.5c-0.8-0.8-1.6-1.8-2.5-2.6C333.7,181.6,334.6,182.5,335.3,183.5z"/>
	<path class="st0" d="M315.3,188.6c0,0-0.1,0-0.1,0.1C315.3,188.6,315.3,188.6,315.3,188.6C315.3,188.6,315.3,188.6,315.3,188.6z"/>
	<path class="st0" d="M314.8,188.9c0.1-0.1,0.3-0.1,0.4-0.2c-0.2,0.2-0.8,0.9-1.5,1.7c-0.7,0.9-1.3,1.6-1.4,1.8
		c-0.1,0-0.1-0.1-0.2-0.1c0.6-0.7,1-1.4,1.2-1.6C313.7,189.6,314,189.3,314.8,188.9z"/>
	<path class="st0" d="M311.7,188.3c0,0,0.1,0,0.2,0c0.3,0.3,0.6,0.5,0.8,0.7c-0.1,0.2-0.1,0.3-0.1,0.3l0.1-0.1
		c0,0.4,0.1,0.7,0.1,0.9c0.1,0.4,0,0.6-0.3,1.1c-0.2,0.3-0.4,0.5-0.6,0.7c-0.8-0.6-1.5-1.2-2.3-1.8c0.1-0.2,0.2-0.3,0.3-0.4
		C310.7,188.9,311.3,188.4,311.7,188.3z"/>
	<path class="st0" d="M312.7,188.9C312.7,188.9,312.7,189,312.7,188.9C312.7,189,312.7,189,312.7,188.9
		C312.7,189,312.6,189,312.7,188.9C312.6,189,312.6,189,312.7,188.9z"/>
	<path class="st0" d="M177.1,276.8c0.3-0.1,0.3-0.1,0.2,0.1c-0.2,0.2-0.1,0.3,0.3,0.6l0.5,0.3l-0.5,0.6c-0.5,0.6-0.5,0.6-1.4,1
		c-0.1,0-0.1,0-0.2,0.1c-0.1-0.1-0.1-0.2,0-0.3c0.1-0.1,0-0.2-0.1-0.2c-0.1,0-0.1-0.4,0.1-0.9c0.2-0.4,0.4-0.9,0.5-1.3
		C176.7,276.8,176.9,276.8,177.1,276.8z"/>
	<path class="st0" d="M273.6,140.6l-1-0.4c0,0.1-0.1,0.2-0.1,0.3c-0.7-0.2-1.5-0.3-2.2-0.5c-0.4-0.3-0.9-0.5-1.3-0.7
		c0.1,0.2,0.3,0.4,0.4,0.5c-1.7-0.4-3.4-0.7-5.2-1.1c-1.3-0.8-2.6-1.6-3.9-2.3c0.1,0,0.2,0.1,0.4,0.1l-0.4-0.1
		c-0.1,0-0.1-0.1-0.2-0.1c4.4,1.1,9,2.4,13.5,4.1L273.6,140.6z"/>
	<path class="st0" d="M249.3,135.5c-1.8-0.4-3.5-0.7-5.2-1c-1-0.4-2.1-0.8-3.1-1.2c2.7,0.8,5.5,1.5,8.2,2.1
		C249.3,135.5,249.3,135.5,249.3,135.5z"/>
	<path class="st0" d="M264.7,143.2c-0.4,0-0.9,0-1.3,0c0.7,0.2,1.4,0.4,2.1,0.6c0.4,0.3,0.7,0.5,1.1,0.8c1.1,0.8,3.1,0.1,4.3,1.4
		c-0.5-0.1-1-0.3-1.5-0.4c0,0,0,0,0,0.1c0,0-0.1-0.1-0.1-0.1c0,0,0.1,0,0.1,0.1c0,0.1-0.1,0.3-0.2,0.4c-4-2-8.1-3.8-12-5.8
		c1.6,0.4,3.3,0.8,4.9,1.2C263,141.9,263.9,142.5,264.7,143.2z"/>
	<path class="st0" d="M340.7,73.7c0,0.1,0,0.1,0,0.2c-0.2,0-0.4-0.1-0.6-0.1L340.7,73.7z"/>
	<path class="st0" d="M317.4,98.5c-0.4,0.7-0.6,0.7-2.9-0.3c1,0,2,0,3,0C317.5,98.3,317.4,98.4,317.4,98.5z"/>
	<path class="st0" d="M304.2,139.9c0,0,0.2-0.2,0.3-0.5c0.1-0.3,0.3-0.4,0.3-0.4c0,0.1,0.2,0.2,0.3,0.3c0.2,0.2,0.2,0.2,0,0.5
		c-0.1,0.1-0.3,0.2-0.5,0.2c-0.1,0-0.3,0.2-0.5,0.6c-0.1,0-0.3-0.1-0.4-0.1C304,140.2,304.1,139.9,304.2,139.9z"/>
	<path class="st0" d="M317.6,98.1C317.6,98.2,317.6,98.2,317.6,98.1l-3.3,0c0,0,0,0,0,0C315.5,98.2,316.5,98.2,317.6,98.1z"/>
	<path class="st0" d="M259.1,284.2c1.5,1.7,2.3,2.7,3,3.6c-1.2-1.4-2.5-2.8-3.8-4.3C258.6,283.6,258.8,283.8,259.1,284.2z"/>
	<path class="st0" d="M300.7,139.5c-0.2-0.1-0.4-0.2-0.6-0.2c0-0.5-0.1-0.5-0.2-0.1c-0.8-0.3-1.7-0.6-2.5-0.9c0-1.7,0-2.3-0.3-2.1
		c-0.2,0.2-0.2,0.3-0.4,0.8c-0.1,0.3-0.1,0.6-0.1,0.7c0,0,0.1,0.2,0.1,0.4c-3.1-1.2-6.3-2.5-9.4-3.6c6.6,0.9,13.2,1.9,19.8,3.1
		c0,0,0,0.1-0.1,0.1c-0.1,0.2-0.3,0.3-0.4,0.3c-0.1,0-0.3,0.1-0.4,0.3c-0.1,0.3-0.4,0.3-0.7,0.2c-0.4-0.2-0.6-0.1-0.9,0.3
		c-0.3,0.4-0.5,0.4-0.7,0.2c-0.2-0.2-0.4-0.2-0.5-0.1c-0.2,0.2-0.2,0.2-0.3,0.7c0,0.3,0,0.5,0,0.5c0.1,0,0.1,0.2,0,0.3c0,0,0,0,0,0
		c-0.7-0.2-1.5-0.5-2.2-0.8C300.9,139.1,300.8,139.1,300.7,139.5z"/>
	<path class="st0" d="M361.9,61.4c-0.1-0.1-0.2-0.2,0-0.3c0.1-0.1,0.4-0.1,0.6,0c0.2,0.1,0.1,0.3,0,0.3l0,0c3.8,0,7.6-0.1,11.4-0.3
		c0.2,0,0.4,0.1,0.4,0.2c0,0.1-0.2,0.3-0.4,0.3c-5.3,0.3-10.6,0.3-15.8,0.2c-0.8-0.2-1.5-0.4-2.2-0.6
		C357.8,61.3,359.8,61.3,361.9,61.4z"/>
	<path class="st0" d="M349,95.4c-2.6-0.5-5.3-0.8-8-1.1c0,0.4-0.1,0.8-0.2,1.2C343.6,95.4,346.3,95.4,349,95.4z M342,94.9
		c0,0.2-0.1,0.4-0.1,0.5c-0.1,0.1-0.1,0,0-0.3C342,94.7,342,94.7,342,94.9z"/>
	<path class="st0" d="M255.9,301.4c2.3,1.9,4.4,4,6.5,6.3c-1.1-0.9-2.1-1.7-3.2-2.5C258.1,303.9,257,302.6,255.9,301.4z"/>
	<path class="st0" d="M257.8,287.9c-0.2,0.1-0.5,0.3-0.6,0.4c-0.1,0.2,0.8,1.5,1.8,2.4c0.4,0.4,1,0.9,1.3,1.2
		c0.5,0.5,0.8,1.4,0.6,1.6c-1.9-2.1-3.8-4.3-5.7-6.4c0.2-1-1.8-2.7-2.2-4C254.7,284.7,256.3,286.2,257.8,287.9z"/>
	<path class="st0" d="M98.4,100.6C98.4,100.6,98.4,100.6,98.4,100.6L98.4,100.6C98.4,100.6,98.4,100.6,98.4,100.6z"/>
	<path class="st0" d="M255.7,285.1c0.7,0.9,1.4,1.8,2.2,2.7c0,0,0,0,0,0L255.7,285.1z"/>
	<path class="st0" d="M345.6,73.9c4.3,0.4,8.4,0.9,12.6,1.2c-2.1-1.2-6.4-2.2-9.3-3c0,0,0,0,0,0c-0.1,0.1-0.4,0-0.6-0.2
		c-0.2,0-0.3-0.1-0.4-0.1c0-0.2,0.1-0.4,0.2-0.7c-10.1-0.8-20.1-1.1-30.4-0.1c3.3,0.3,7.1,0.8,11.1,1.6c4.1,0.2,8,0.4,12,0.8
		l0.2-0.8l0.4,0.4c0.1,0.1,0.2,0.3,0.3,0.5c0.3,0,0.6,0,0.9,0.1l-0.8,0.1c0.1,0.2,0.1,0.4,0.1,0.6c0,0,0,0,0.1,0
		c0.3-0.3,0.7-0.5,1.1-0.7C343.8,73.7,344.7,73.8,345.6,73.9z M345.4,72.5c0,0.1-0.1,0.3-0.2,0.4c-0.1,0.1-0.1,0,0-0.2
		c0.1-0.2,0.2-0.4,0.2-0.4C345.4,72.3,345.4,72.4,345.4,72.5z"/>
	<path class="st0" d="M99.5,96.1c0,0,0.1,0.4,0.3,0.7c0.4,0.6,0.4,0.6,0.2,0.1c-0.1-0.3-0.1-0.6,0-0.5c0.3,0.2,0.7,1,0.7,1.3
		c0,0.2-0.2,0.1-0.8-0.5c-0.3-0.3-0.6-0.6-0.8-0.6c0.1-0.3,0.1-0.5,0.2-0.8C99.4,96,99.5,96.1,99.5,96.1z"/>
	<path class="st0" d="M146.8,273.6c-0.2-0.1-0.5-0.2-0.7-0.2c-0.2-0.1-0.4-0.1-0.5-0.2c0,0,0-0.1-0.1-0.1c0.1,0,0.4,0,0.8,0
		c0.1,0,0.3,0,0.4,0c0,0.1,0,0.1,0,0.2C146.7,273.4,146.7,273.5,146.8,273.6z"/>
	<path class="st0" d="M98.7,100.7c0,0-0.1,0-0.1-0.1C98.7,100.7,98.7,100.7,98.7,100.7z"/>
	<path class="st0" d="M265.3,307.4c1,0.6,1.7,1.6,2.6,2.4c0.4,0.4,0.8,0.7,1.2,1.1c0.8,1,1.7,2,2.5,3c-1.8-1.1-3.6-2.3-5.5-3.5
		c-1-0.6-2-1.4-3-2.2c-1.2-1.6-2.4-3.2-3.6-4.8c0.8,0.6,1.5,1.2,2.3,1.7C263,305.9,264.2,306.6,265.3,307.4z"/>
	<path class="st0" d="M265.2,303.9c0.7,1,1.4,1.9,2.1,2.9c-0.1-0.1-0.4-0.2-0.6-0.3c-0.3-0.1-0.7-0.4-1-0.6c0,0,0,0,0,0
		c-0.9-1.1-1.7-2.3-2.6-3.5c0.2,0.1,0.3,0.2,0.5,0.3C264.1,303.1,264.8,303.6,265.2,303.9z"/>
	<path class="st0" d="M6.7,150.4c6.7-2,14.1-1.1,20.8,0.7c3.2,0.8,6.5,2,9.4,3.6c2.8,2.7,5.1,5.7,6.8,9.4c2.7,5.8,4.3,12.2,5.9,18.3
		c0.8,2.9,1.3,5.8,1.3,8.8c0,3.2-0.4,6.4-0.2,9.5c0.3,7.2,3.8,12.8,8.6,18c4.9,5.2,10,10.2,15.9,14.3c2.5,1.7,5.1,3.2,7.4,5.2
		c2.5,2.2,4.5,4.9,6.9,7.3c2.9,2.8,6.3,5.2,10.1,6.6c2.4,0.9,5.6,1.1,7.5,3c2.3,2.3,2.9,5.9,5.3,8.2c0.6,0.6,1.2,1,1.9,1.4
		c-1.1,3.6-1.2,7.1-0.4,10.7c-0.1,0.1-0.1,0.1-0.2,0.2c-0.9,1-1.6,2.2-2.3,3.4c-1.2,2.1-2.3,4.3-3.3,6.6c-0.5,1.1-1.2,2.3-1.8,3.4
		c-0.6,1-1,1.5-1.8,1.6c0,0-0.1,0-0.2-0.1c-0.3-0.1-0.6,0-0.9,0c-0.6,0-1.1,0-1.7,0c-0.7,0-1.3,0.1-2,0.1c-0.3,0-0.6-0.1-0.9-0.2
		c-0.1-0.1-0.3-0.2-0.4-0.3c-0.3-0.3-0.6-0.8-1-1c-0.2-0.1-0.4-0.2-0.6-0.1c0,0,0,0-0.1-0.1c0,0,0,0,0,0.1c-0.3,0-0.6,0.2-0.8,0.3
		c-0.1,0.1-0.3,0.3-0.3,0.5c0,0.1,0.1,0.1,0.1,0.1c-0.1,0.3-0.1,0.6,0.3,0.4c0.1,0,0.2-0.1,0.3-0.1c0.2,0.1,0.4,0.2,0.6,0.4
		c0,0.1,0.1,0.2,0.1,0.3c-3,0.1-6,0.9-8.9-0.1c-0.4-0.2-2.7-1.4-3.1-0.8c0,0,0,0.1,0,0.1c0,0-0.1,0.1-0.1,0.2
		c-0.1,0.2-0.3,0.4-0.3,0.6c-0.1,0.2-0.1,0.5-0.1,0.8c0,0.2,0.1,0.2,0.1,0.3c0,0.1,0,0.1-0.1,0.2c0,0.1,0,0.3,0,0.4
		c0,0.1,0.1,0.1,0.1,0.2c0,0,0,0.1,0.1,0.2c0.1-0.1,0-0.3,0.1-0.4c0-0.1,0.1-0.2,0.2-0.2c0.4,0.2,0.8,0.4,1.2,0
		c0.2-0.1,0.3-0.2,0.4-0.3c0.1,0,0.2,0.1,0.2,0.1c2.5,1.2,5.8,0.3,8.4,0.2c3,0,6-0.6,9-0.7c-0.6,0.9-1.1,2-2,2.6
		c-1,0.8-2.3,0.8-3.5,0.8c-1.3,0-2.6,0.1-3.9,0.1c-0.5,0-2.1,0-1.9,0.7c0,0,0,0.1-0.1,0.1c0,0,0,0.1-0.1,0.1c0,0-0.1,0-0.1,0.1
		c-0.3,0.2-0.3,0.6-0.3,0.9c0.2-0.1,0.3-0.3,0.5-0.4c0.1,0,0.2-0.1,0.3-0.1c0.1,0.1,0.1,0.2,0.2,0.3c0.2,0.1,0.5,0.1,0.7,0.1
		c0,0,0.1-0.1,0.1-0.1c0.1,0,0.1,0,0.2,0c0.1,0,0.2-0.1,0.3-0.2c0.7,0,1.5-0.2,2-0.3c1.3-0.3,2.5-0.3,3.8-0.5
		c1.5-0.2,2.7-1.1,3.7-2.2c0.1-0.1,0.2-0.1,0.3-0.2c0.4-0.2,0.8-0.4,1.3-0.4c0,1.4-0.3,2.8-0.3,4.2c0,1.4-0.5,3.1-0.9,4.4
		c-0.1,0.5-0.4,0.9-0.5,1.3c-0.1,0.2-0.1,0.5-0.1,0.8c-0.2,0-0.4,0.1-0.5,0.2c-0.8,0.4-1.6,0.8-2.4,1c-0.7,0.2-1.5,0.2-2.2,0.3
		c-0.8,0.1-1.5,0.4-2.2,0.8c-0.1,0.1-0.3,0.1-0.4,0.2c0,0,0,0,0,0c-1.6,0-3.2-0.4-4.8-0.9c-0.6-0.2-1.1-0.1-1,0.4
		c-0.1,0.1-0.3,0.3-0.4,0.3c0,0-0.1,0.2-0.1,0.2c0,0.1,0.1,0.1,0.1,0.2c0.1,0.1,0.1,0.3,0.2,0.3c0-0.2,0.2-0.4,0.4-0.6
		c0.4,0.5,1.2,0.3,1.4,1c0,0.1,0,0.1,0,0.1c-0.2,0.1-0.4,0.3-0.5,0.3c-0.1,0.1-0.2,0.1-0.4,0.2c-0.3,0-0.6,0-0.9,0
		c-0.4,0-0.8,0.1-1.1,0.4c-0.1,0.2-0.2,0.4-0.3,0.5c-0.4,0.2-0.8,0.2-1.3,0.3c-0.6,0.1-1.3,0.2-1.9,0.2c-0.4,0-0.9,0.1-1.3,0.2
		c-0.3,0.1-0.5,0.2-0.6,0.4c-0.1,0-0.2,0-0.3,0.1c-0.2,0.1-0.3,0.2-0.3,0.4c0,0.1,0,0.3,0,0.4c-0.1,0.1-0.2,0.2-0.2,0.4
		c-0.2,0.5,0,0.9,0.1,1.4c0-0.1,0.2-0.3,0.2-0.5c0.1-0.2,0.2-0.3,0.3-0.4c0.2-0.1,0.4-0.3,0.6-0.4c0,0,0,0,0,0
		c1.3,0.2,3.6-0.7,4.1-0.9c0.7-0.3,1.3-0.7,2-1c0.8-0.3,1.7-0.4,2.5-0.8c0.3-0.1,0.6-0.3,0.9-0.5c0,0,0,0,0,0
		c0.2,0.2,0.6,0.3,0.8,0.4c0.3,0.1,0.7,0.1,1,0.2c0.3,0.1,0.6,0.1,0.9,0.1c0.8,0,1.6-0.7,2.3-1.1c0.3-0.3,0.7-0.5,1-0.8
		c0.5,0,1.1,0.1,1.6,0.1c0.2,0,0.4,0,0.5,0c0,0.1,0,0.2,0,0.3c-0.1,0.1-0.3,0.2-0.4,0.4c-0.2,0.3-0.4,0.5-0.6,0.8
		c-0.1,0.3-0.2,0.5-0.4,0.6c-0.5,0.3-0.9,0.7-1.4,1c-0.3,0.2-0.5,0.4-0.8,0.5c-0.1,0.1-0.3,0.1-0.4,0.2c-0.1,0.1-0.2,0.1-0.4,0.2
		c-0.2,0.1-0.3,0.1-0.5,0.2c-0.2,0.1-0.3,0.1-0.5,0.2c-0.1,0-0.2,0.1-0.2,0.2c-0.4,0.1-0.8,0.3-1.2,0.5c0,0,0,0,0-0.1l-0.1,0.1
		c-0.7,0.3-1.1,0.8-1.2,1.3c0,0.3,0.1,0.5,0.3,0.5c0,0,0,0.1,0,0.1c0,0,0.1,0.1,0.1,0.1c-0.1,0.3-0.2,0.6-0.2,0.9
		c0,0.2,0.1,0.3,0.2,0.4c0.1,0.1,0.1,0.3,0.2,0.3c0.1,0,0.2-0.3,0.3-0.4c0.2-0.2,0.4-0.4,0.6-0.6c0.4,0,0.8-0.3,1.2-0.4
		c0.5-0.2,0.9-0.5,1.2-0.9c0.2-0.3,0.2-0.7,0.4-1c0.7-0.4,1.2-0.8,1.3-0.9c1.9-1.4,3.6-2.7,5.3-4.4c2.1-2.2,4-1.2,6.7-1.1
		c2.2,0.1,4.8-0.6,6.9-1.4c0.3-0.1,0.6-0.3,0.9-0.4c0.2,0.1,0.5,0.2,0.7,0.2c0.2-0.1,0.4-0.2,0.5-0.3c0.2-0.1,0.4-0.2,0.5-0.4
		c0.1-0.1,0.1-0.3,0.2-0.4c0.1,0,0.2,0,0.3,0.1c0.1,0,0.2,0.1,0.2,0.2c0.1,0.1,0.1,0.2,0.1,0.2c0-0.1,0-0.3,0-0.4
		c0-0.2,0-0.2-0.1-0.4c-0.2-0.1-0.3-0.2-0.5-0.3c0,0,0,0,0,0c0,0,0-0.1,0-0.1c-0.1-0.1-0.1-0.2-0.2-0.2c0.1-0.7-0.3-1.2-1.2-1.1
		c-1,0.1-1.9,1.1-2.7,1.7c-0.9,0.7-1.7,1.1-2.8,1.2c-2,0.2-5.9,0.9-5.7-2c0.2-2.6,0.7-5.3,1.1-7.9c1.9,0.3,3.8,0.3,5.7,0.3
		c1,0,4.3,0.4,5.2-0.9c0.1,0.1,0.2,0.1,0.4,0.2c0.1,0.1,0.2,0.3,0.3,0.2c0.1,0,0.2-0.3,0.2-0.4c0.1-0.4,0-0.8-0.3-1
		c-0.1-0.1-0.3-0.1-0.5-0.2c-0.1-0.1-0.1-0.1-0.2-0.1c-0.1,0-0.2-0.1-0.5-0.1c0,0,0,0,0,0c-1.2-0.1-3.2,0.8-3.7,0.8
		c-1.5,0.2-4.1,0-4.5-1.7c-0.4-1.7-0.1-4.2,0.4-5.9c0.6-1.7,1.5-3.1,2.7-4.4c1.3-1.5,2.6-2.8,4.1-4c0.1,0.2,0.2,0.5,0.2,0.6
		c0.2,0.5,0,1.4,0.7,1.6c0.8-1,0.7-2,0.7-3.2c0.7,0.6,0.9,2,1.2,2.8c0.4,1.2,0.4,2.4,0.8,3.5c0.8-0.6,0.3-3.8,0.3-4.8
		c0.8,1.8,2,3.3,2.4,5.3c0.1,0.7,0.5,1.3,0.7,2c0.1,0.5,0,1,0.2,1.5c0.2,0.7,0.3,1.5,0.7,2.2c0,0,0,0,0-0.1c-0.1-1.5,0-3,0-4.5
		c0-0.8,0.1-1.5-0.3-2.2c-0.3-0.6-0.7-1.2-0.4-1.9c0,0,0.1,0,0.1,0.1c0-0.1,0.1-0.1,0.1-0.1c0.3-0.1,0.2-0.4-0.4-0.9
		c-0.1-0.1-0.3-0.3-0.4-0.4c-0.1-0.1-0.3-0.3-0.5-0.4c-0.2-0.1-0.3-0.1-0.2-0.2c0.3-0.1-0.1-0.8-2-2c-0.2-0.1-0.5-0.3-0.6-0.5
		c-0.2-0.1-0.5-0.4-0.8-0.6c-0.3-0.2-0.5-0.3-0.4-0.4c0.1,0,0.3,0,0.4,0.1c0.1,0.1,0.5,0.2,0.9,0.4c1,0.5,2.4,1.2,3.6,2.3
		c1.1,0.9,1.6,1.2,2.5,1.4c0.3,0,0.6,0.2,0.7,0.3c0.6,0.5,1,0.8,1.6,0.9c0.1,0,0.2,0,0.3,0c-0.1-0.3-0.2-0.7-0.4-1
		c-0.2-0.3-0.5-0.6-0.7-1c-0.2-0.2-0.3-0.2-0.4-0.3c-0.1-0.3-2.5-2.1-4.3-3.1c-0.2-0.1-0.7-0.3-1.3-0.5c-0.5-0.2-1.2-0.4-1.5-0.5
		c-0.6-0.2-1.5-0.5-2.3-0.6c-0.3-0.1-0.5-0.1-0.4-0.1c0.2-0.1,0.9,0,1.4,0.2c1,0.3,1.2,0.1,0.4-0.3c-0.5-0.2-1-0.5-1.3-0.6
		c-0.5-0.2-0.8-0.5-0.5-0.5c0.3-0.1,2.8,0.9,3,1.1c0,0,0.3,0.1,0.5,0.2c0.2,0.1,0.5,0.2,0.6,0.3c1.2,0.9,2.6,1.7,3.5,1.9
		c0.2,0,0.4,0.1,0.6,0.3c0.4,0.3,1.2,0.6,1.6,0.7c0.2,0,0.3,0,0.3-0.1c-0.2-0.2-0.7-0.7-1-0.8c-0.2-0.1-0.3-0.3-0.3-0.4
		c0-0.3-0.2-0.4-1.1-1c-0.3-0.2-0.6-0.5-0.6-0.5c0,0,0-0.2,0-0.3c0-0.4-0.3-0.7-1-1c-0.4-0.2-0.7-0.3-0.8-0.4
		c-0.1-0.1-2-0.8-2.2-0.8c-0.1,0-0.2-0.1-0.3-0.1c-0.1-0.1-0.8-0.3-1.5-0.3c-0.2,0-0.3,0-0.3-0.1c0,0-0.1-0.1-0.1-0.1
		c-0.4-0.1,0.7,0,1.9,0.2c0.8,0.1,1.6,0.2,1.9,0.2c0.2,0,0.7,0.1,1.1,0.2c0.4,0.1,0.8,0.2,1,0.2c0.3,0,0.3,0,0.7,0
		c0.3-0.1,0.5,0,0.8,0.1c0.2,0.1,0.8,0.2,1.3,0.3c0.2,0,0.3,0.1,0.5,0.1c0-0.1,0-0.2,0.1-0.3c-0.2,0-0.3-0.1-0.5-0.1
		c-0.9-0.2-1.6-0.4-1.6-0.5c0.1,0,0.4,0,0.8,0.1c0.4,0.1,0.8,0.2,1,0.2c0.1,0,0.3,0.1,0.6,0.1c0.4-0.2,1.4,0.1,1.8,0.1
		c0.5,0,1-0.1,1.5,0c0.5,0.2,1,0.6,1.3,1.1c0.2,0.1,0.4,0.1,0.6,0.2c0.1,0.1,0.3,0.1,0.5,0.1c0-0.3-0.1-0.5-0.2-0.8
		c-0.6-0.4-1.4-0.9-1.6-0.9c-0.4-0.1-0.3-0.2,0.2-0.2c0.1,0,0.5,0.2,1,0.4c-0.2-0.5-0.5-0.9-0.8-1.3c1.2,0.1,2.3,0.3,3.4,0.7
		c0.2,0.1,0.3,0.1,0.5,0.2c0,0,0,0,0,0c0,0,0.2,0,0.3,0c0.1,0,0.2,0.1,0.2,0.1c0,0-0.2,0-0.3,0c0,0-0.1,0-0.1,0
		c0.4,0.2,0.9,0.5,1.3,0.7c0.1,0,0.2,0.1,0.4,0.1c0.3,0.1,0.8,0.3,1.1,0.3c0.1,0,0.3,0,0.4,0.1c0.1-0.4,0.1-0.9,0-1.3
		c0-0.5-0.4-1-0.3-1.5c0.9,0.1,2.4,2.4,2.8,3c0.3,0.5,0.6,1,0.9,1.5c0.2,0.1,0.4,0.1,0.6,0.1c0.3,0,0.6,0,0.6,0c0,0,0,0,0.1,0
		c-0.1-0.5-0.1-0.9-0.2-1.4c-0.4-1.6-1.6-2.3-2.4-3.6c1.3,0.3,2.6,0.6,4,0.7c-0.2-0.1-0.4-0.2-0.6-0.4c-0.3-0.2-0.7-0.3-1-0.4
		c-0.6-0.3-1.4-0.7-1.6-1.4c0.7-0.7,1.6-0.6,2.5-1c0.4-0.2,0.5-0.4,0.9-0.6c0.4-0.2,0.7-0.1,1.2-0.1c1-0.1,2-0.3,3-0.5
		c0.1,0.7,0.3,1.4,0.3,1.6c0.1,0.3,0,0.7-0.1,0.9c-0.1,0.2,0.1,1,0.6,2.1c0.7,1.5,0.8,1.9,0.7,3c-0.1,1.4-0.1,1.5,0.2,1.2
		c0.1-0.1,0.3-0.5,0.4-0.8c0.1-0.3,0.2-0.7,0.2-0.7c0,0,0.1,0.2,0.2,0.4c0.1,0.5,0.2,0.5,0.8-0.1c1.1-0.9,1.3-1,1.4-0.6
		c0.1,0.3,0.3,0.3,0.6,0.2c0.3-0.1,0.5,0,0.7,0.3c0.3,0.6,0.5,0.6,1-0.3c0.2-0.4,0.3-0.9,0.3-1.5c0-0.8,0-1,0.5-1.8
		c0.9-1.4,1.2-1.7,1.4-1.1c0.2,0.6,0.4,2,0.4,2.5c0,0.3,0,0.7,0.1,0.8c0.1,0.2,0.2,0.2,0.6-0.2c0.6-0.6,0.7-0.8,0.6-1.8
		c-0.1-0.4,0-0.8,0.2-1c0.2-0.3,0.4-0.1,0.8,1.1c0.3,0.8,0.5,1.3,0.4,1.1c0-0.4,0.6-1.7,0.7-1.4c0,0.1,0.3,0,0.5-0.2
		c0.3-0.2,0.5-0.3,0.5-0.2c0.1,0.1,0,0.2-0.3,0.3c-0.3,0.1-0.4,0.1-0.5,0.6c-0.2,0.5,0.6,2.4,0.9,2.1c0.3-0.3,0.3-0.1,0,0.4
		c-0.3,0.4,0.1,2.9,0.7,4.7c0.1,0,0.2,0,0.3,0c0.8-0.1,1.5,0,2.2,0.1c0.8,0.2,1.4,0.2,1.9,0.1c0.2,0,0.5-0.1,0.8-0.1
		c0.6,0,1.5-0.5,2.2-1c-0.1-0.2-0.2-0.5-0.3-0.8c-0.3-0.9-0.5-1.8-0.5-2c0.1-0.2,0-0.2-0.1-0.1c-0.1,0.1-0.2,0.1-0.2,0
		c0-0.1,0.1-0.4,0.1-0.6c0-0.2,0.1-0.4,0.3-0.6c0.2-0.1,0.2-0.2,0.1-0.2c-0.1,0-0.1-0.1,0-0.2c0.1-0.1,0.2-0.2,0.1-0.2
		c-0.2,0.1-0.1-0.4,0.2-0.7c0.1-0.1,0.2-0.1,0.2,0.1c0,0.2,0.1,0.2,0.2,0.1c0.2-0.1,0.2-0.1,0,0.1c-0.1,0.2-0.2,0.4-0.2,0.5
		c0.1,0.2,0.2,0.1,0.5-0.3c0.4-0.4,0.5-0.5,1.1-0.3c0.4,0.1,0.6,0.3,0.6,0.6c0,0.3,0.3,1.2,0.7,2c0.2-0.1,0.4-0.1,0.5-0.1
		c0.1,0,0.1,0.2-0.2,0.4c0,0-0.1,0.1-0.1,0.1c0.3,0.6,0.5,1,0.6,1.2c0.2,0.2,0.4,0.2,0.6-0.1c0.3-0.4,0.3-0.4-0.5-1.8
		c-0.6-1-0.6-2-0.1-1.5l0.3,0.2l-0.1-0.4c-0.1-0.2,0-0.5,0.1-0.5c0.1-0.1,0.1-0.5,0.1-1c-0.1-0.5-0.2-1.4-0.3-2.1
		c-0.1-1.1-0.2-1.2-0.6-1.1c-0.5,0.2-0.4,0,0.2-0.3c0.3-0.2,0.4-0.2,0.4-0.6c-0.1-1.9-0.1-3-0.1-3.7c0.1,0,0.3,0,0.4,0
		c4.3,0.1,9,0.6,13.2-0.7l-0.1,0.1c1.9,1.5,4.7,2.1,6.4,4.1c0.4,0.4,0.6,1,1,1.4c0,0,0.1,0.1,0.1,0.1c0.1-0.2,0.3-0.4,0.5-0.6
		c0.3-0.3,0.2-0.1-0.2,0.5c0,0.1-0.1,0.1-0.1,0.2c0.4,0.3,0.8,0.5,1.2,0.8c1.1,1,2,2,2.9,3.1c0.7,0.8,2,1,2.7,1.8c0,0,0,0,0,0
		c0.2-0.4,0.3-0.7,0.3-1c0-0.3,0.2-0.7,0.3-0.9c0.1-0.3,0.3-0.7,0.4-1c0.1-0.5,0.1-0.5,0.3,0.1c0.1,0.4,0,1.1,0,1.7
		c-0.1,1.1-0.1,1.8,0,2.3c0.5,0.5,1,0.9,1.4,1.4c0.4,0.4,0.8,0.7,1.2,1c0.6-1.3,1-2.4,1-2.8c-0.1-0.8,0-0.9,0.3-1.8
		c0.2-0.4,0.1-0.8-0.1-0.8c-0.2,0-0.6,0.3-0.9,0.7c-0.6,0.8-1.2,0.9-0.8,0.2c0.9-2.1,0.9-2.2,0.9-3.1c0-0.3,0.2-0.5,0.4-0.6
		c0.2,0,0.6-0.3,0.9-0.7c0.8-1.1,0.9-1.4,0.6-1.6c-0.2-0.1-0.2-0.2-0.1-0.2c0.1,0,0.4,0,0.5,0.1c0.2,0.1,0.5-0.2,1.1-1
		c0.8-1.1,0.8-1.1,0.7-0.5c-0.1,0.3,0,0.9,0.1,1.3c0.2,0.5-0.1,1.2-1.2,2.8c-1.3,2-1.7,2.8-1.1,2.8c0.2,0,0.2,0.3,0.1,0.7
		c-0.1,0.4-0.2,1-0.1,1.4c0.1,0.4-0.1,1.1-0.4,1.6c-0.2,0.5-0.4,1-0.4,1.2c0,0.1-0.2,0.7-0.5,1.3c0.1,0.1,0.2,0.2,0.3,0.3
		c0.7,0.9,1.6,1.6,2.4,2.5c0.7,0.8,1.4,1.7,2.1,2.5c0.4,0.4,0.8,0.8,1.2,1.2c0.6-1.2,1-2.4,1-3c0-0.7,1-2,1.6-2.1
		c0.4,0,0.6-0.8,0.4-1.2c0-0.1-0.1-0.5-0.1-0.9c0-0.4,0-0.9-0.1-1.2c-0.1-0.2-0.1-0.9,0-1.4c0.1-0.6,0.1-1.1,0-1.1
		c-0.1,0,0-0.4,0.1-0.8c0.2-0.4,0.2-0.8,0-0.9c-0.4-0.2-0.5-1.4-0.2-1.4c0.1,0,0.3,0.1,0.3,0.3c0,0.2,0.2,0.4,0.4,0.4
		c0.3,0.1,0.6,0.7,0.7,2.3c0.1,1.3,0.3,2.9,0.5,3.7c0.4,2.3-0.5,6-2.8,9.7c0.8,1.1,1.8,2.1,2.8,3c1.4,1.3,2.5,3,3.8,4.4
		c0.7,0.7,1.9,1.3,2.9,1.6c0.5,0.1,0.9,0.1,1.4,0.4c0.4,0.2,0.5,0.4,0.9,0.7c0.9,0.7,1.9,1.1,2.8,1.8c0.8,0.7,1.6,1.4,2.3,2.1
		c0.8,0.9,1.2,1.8,1.6,3c0.3,0.7,0.6,2.4,1.2,2.8c0.2-1.2,0.6-2.1,0.5-3.5c-0.1-1.1-0.5-2.3-0.8-3.3c2.3,1.9,4.4,4.8,5.5,7.7
		c0.1,0.2,0.2,0.5,0.2,0.7c1.9,2.8,5,5.9,7,8.7l-0.1,0c-2.3-2.9-4.5-5.6-6.8-8.4c0.2,1,0.1,2,0.5,3c0.5,1.4,1.8,2.4,2.6,3.6
		c0.4,0.7,0.8,3.2,1.8,3.4c0.8,0.2,2.6-1.3,3-1.9c0.1-0.1,0.1-0.2,0.2-0.3c-0.8-0.9-1.5-1.8-2.3-2.7c-2.3-3.3-4.4-6.3-5.5-8.1
		c-1.1-2.3,6.4,1.5,6.7,0.5c0.8-4.3-3.5-7.2-6.7-13.5c-1-1.7,1.3,0.7,1.8,0.3c0-0.4,0-0.9-0.1-1.4l-2.5-3.2l0.4,0.4
		c0.8,0.9,1.5,1.8,2,2.7c-0.3-1.4-1-3.1-1.4-4.6c5.4,5.2,10.3,11,14.9,17c0-0.2,0.1-0.5,0-0.7c0-0.2-0.1-0.4-0.2-0.6
		c0.6,0.5,1.3,0.9,1.7,1.1c0.4,0.2,1,0.6,1.3,0.9c0.3,0.3,0.9,0.7,1.3,0.9c0.4,0.2,0.7,0.4,1.1,0.7c-1.9-2.3-3.7-4.6-5.6-6.9
		c0.7,0.4,1.4,0.9,2,1.6c0.2,0,0.5,0,0.8,0.2c0.2,0.1,0.5,0.3,0.8,0.4c-0.6-0.7-1.2-1.5-1.8-2.2c-0.2-0.2-0.4-0.3-0.5-0.3
		c-0.1,0-0.2-0.2-0.2-0.3c0-0.2-0.1-0.2-0.2,0c-0.2,0.2-0.2,0.3-0.4,0.2c-0.1-0.1,0-0.2,0.1-0.3c0.2-0.1,0.1-0.2-0.2-0.1
		c-0.4,0.1-0.4,0-0.3-0.2c0.1-0.2,0.2-0.3,0.1-0.3c-0.1,0-0.2-0.1-0.3-0.3c-0.4-0.7-1-1.1-1.2-0.8c-0.3,0.4-0.6,0.2-0.5-0.3
		c0.1-0.3,0-0.4-0.4-0.3c-0.2,0.1-0.4,0.1-0.5,0c0-0.1,0.1-0.1,0.3-0.1c0.4,0,0.3-0.1-0.4-0.6c-0.3-0.2-0.6-0.3-0.6-0.2
		c0,0.1,0,0.2-0.1,0.2c-0.9-0.5-1.9-0.9-2.1-0.9c-0.2,0-0.2-0.1-0.2-0.2c0.1-0.1,0.1-0.1,0.2-0.1c0,0.1,0.2,0,0.4-0.1
		c0.2-0.1,0.4-0.3,0.4-0.4c0-0.1-0.1-0.1-0.2,0c-0.1,0.1-0.4,0.2-0.6,0.3c-0.3,0.1-0.3,0.1,0.1-0.1c0.2-0.2,0.4-0.3,0.4-0.4
		c0-0.1-0.2,0-0.3,0.1c-0.2,0.1-0.5,0.1-0.7,0c-0.5-0.3-0.8-1.2-0.6-1.4c0.1-0.1,0.1-0.2,0-0.2c-0.2-0.1-0.2-0.1-0.4,0.2
		c-0.1,0.3-0.2,0.3-0.2,0.1c0-0.1,0.1-0.3,0.2-0.4c0.2-0.2,0.1-0.2-0.3-0.1c-0.6,0.2-0.8,0.1-0.3-0.2c0.2-0.2,0.2-0.2,0-0.1
		c-0.2,0.1-0.4,0-0.4-0.4c0-0.3-0.1-0.5-0.2-0.5c-0.1,0-0.2-0.2-0.2-0.5c0-0.3-0.1-0.4-0.2-0.4c-0.1,0.1-0.2,0-0.3-0.2
		c-0.1-0.2-0.3-0.4-0.5-0.5c-0.2-0.1-0.5-0.3-0.7-0.6c-0.2-0.2-0.6-0.6-0.8-0.8c-0.3-0.3-0.3-0.4-0.1-0.7c0.2-0.3,0.2-0.3,0-0.1
		c-0.2,0.1-0.3,0.1-0.2,0c0-0.1,0.4-0.4,0.7-0.6c0.4-0.2,0.6-0.4,0.5-0.5c-0.1,0,0-0.2,0.2-0.2c0.1,0,0.1-0.1,0.2-0.1
		c-4.5-5.3-8.9-10.7-12.7-16.2c4.3,4.2,8.5,8.5,13.1,12.6c-0.9-0.8-1.6-1.9-2.4-2.9c2.7,3.2,5.5,6,8.2,9.4l0-0.1
		c-3.3-4-6.6-8-9.4-12.4c-0.1,0-0.2,0-0.3-0.1c-0.8-0.5-0.9-0.6-0.5-0.8c0.1,0,0.1,0,0.2-0.1c-0.1-0.1-0.1-0.2-0.2-0.2c0,0,0,0,0,0
		c-0.2,0.3-0.3,0.4-0.6,0.1c-0.2-0.2-0.2-0.3,0.1-0.4c0.1,0,0.1-0.1,0.2-0.1c-0.3-0.5-0.6-0.9-0.7-1.3c-0.1,0-0.2-0.1-0.2-0.2
		c0-0.1,0-0.2,0-0.3c-0.1-0.3-0.1-0.5-0.1-0.7c0,0,0,0,0,0c-0.4,0.2-0.5,0-0.4-0.4c0.1-0.3,0.1-0.3-0.2-0.1c-0.5,0.3-0.7,0.2-1-0.5
		c-0.1-0.3-0.5-0.7-0.8-0.7c-0.3-0.1-0.6-0.2-0.6-0.3c-0.1-0.2-0.9,0-1.4,0.4c-0.3,0.2-0.5,0.4-0.4,0.5c0,0,0.2-0.1,0.4-0.2
		c0.3-0.3,0.3-0.2,0.1,0.1l-0.2,0.5l-0.4-0.1c-0.4-0.1-0.7-0.4-1.1-0.9c-0.1-0.1-0.2-0.2-0.2-0.2c0,0-0.2-0.2-0.3-0.4l-0.2-0.5
		l0.4,0.2c0.2,0.1,0.5,0.3,0.5,0.4c0.1,0.1,0.3,0.2,0.5,0.1c0.2-0.1,0.3-0.1,0.3,0c-0.1,0.1-0.2,0.2-0.4,0.3
		c-0.2,0.1-0.2,0.1-0.1,0.1c0.1,0,0.4-0.2,0.5-0.3c0.2-0.2,0.4-0.3,0.4-0.2c0,0.1,0.2,0,0.4-0.2c0.6-0.6,0.3-0.7-0.5-0.2
		c-0.8,0.5-1.1,0.4-0.5-0.1c0.2-0.2,0.3-0.4,0.1-0.6c-0.3-0.3-0.7-0.3-1,0c-0.3,0.3-0.6-0.3-0.3-0.6c0.4-0.5,0.4-0.5-0.2-0.3
		c-0.2,0.1-0.5,0-0.9-0.4c0.3,0.5,0.5,1,0.7,1.6c-7.2-6.2-15-12.2-22.2-18.7c0.1-1.1-2.2-2.4-2.7-3.7c3.5,2.2,6,4.5,8.9,7.2
		l-5.8-5.6c4.8,4.6,10.4,9.5,15.1,15c1.2,1.2,3.1,1.6,4.7,2.8c-0.7-0.8-1.4-1.2-1.6-1.1c-0.2,0.1-0.2,0.1,0-0.1
		c0.2-0.2,0.1-0.4-0.4-0.8c-0.4-0.3-0.8-0.8-0.9-1c-0.1-0.3-0.5-0.7-0.8-1c-0.3-0.3-0.8-0.9-1.1-1.3c-1-1.3-1.1-1.3-1.3-1.2
		c-0.1,0.1-0.2,0.3-0.1,0.5l0.1,0.3l-0.3-0.1c-0.2,0-0.3-0.2-0.3-0.4c0-0.4,0-0.4,0.3-0.3c0.6,0.1,0.5-0.3-0.4-1.4
		c-0.5-0.6-1-1.3-1.1-1.5c-0.2-0.7-3.9-5-4.1-4.9c-0.1,0-0.3,0.2-0.5,0.4c-0.5,0.5-0.9,0.7-0.7,0.3c0.1-0.2,0-0.6-0.2-1
		c-0.2-0.4-0.3-0.7-0.1-0.8c0.2-0.1,0.1-0.4-0.3-0.9c-0.3-0.4-0.6-0.8-0.6-0.8c0-0.1-0.2,0-0.4,0.2c-0.4,0.3-0.5,0.1-0.2-0.3
		c0.1-0.1,0.1-0.4,0-0.6c-0.2-0.3-0.2-0.3-0.2,0c0,0.3-0.1,0.4-0.3,0.5c-0.3,0.1-0.6-0.2-0.5-0.6c0.1-0.2,0.1-0.3,0.4-0.3
		c0.2,0,0.2-0.3-0.2-0.7c-0.4-0.6-1.1-1-1-0.6c0,0.2-0.3,0.4-0.4,0.2l-0.1,0c0,0-0.2-0.1-0.4-0.3c-0.2-0.3-0.2-0.5,0-0.8
		c0.3-0.5,0.2-1-0.2-0.8c-0.2,0.1-0.2,0.2-0.1,0.1c0.2,0,0.1,0-0.1,0.2c-0.5,0.4-0.9,0-1.1-0.8c-0.1-0.6-0.2-0.7-0.4-0.6
		c-0.1,0.1-0.3,0.2-0.3,0.1c0-0.1,0.1-0.2,0.3-0.4c0.3-0.2,0.3-0.3,0.2-0.5c-0.1-0.2-0.1-0.1-0.2,0c0,0.4-0.3,0.6-0.8,0.6
		c-0.6,0-0.9,0.5-0.6,0.8c0,0-0.1,0.1-0.3,0.2c-0.2,0.1-0.5,0.2-0.6,0.3c-0.2,0.2-0.4,0.2-0.5-0.2c0-0.1-0.1-0.1-0.1,0
		c-0.1,0.1-0.3,0.2-0.5,0.2c-0.5,0-0.5,0-0.2-0.2c0.1-0.1,0.2-0.2,0.2-0.3c0-0.1,0.1-0.1,0.4-0.1c0.4,0,0.4,0,0.5-0.3
		c0-0.3,0.2-0.5,0.5-0.7c0.5-0.4,0.9-1.3,0.5-1c-0.1,0.1-0.3,0-0.3-0.2c0-0.2-0.1-0.3-0.2-0.2c-0.3,0.3-1,0.7-1,0.6
		c0,0,0.2-0.3,0.4-0.5c0.5-0.5,0.7-0.9,0.3-0.6c-0.2,0.1-0.2,0.1-0.1-0.2c0.1-0.4,0-0.4-0.4-0.2c-0.5,0.2-0.5,0.1-0.3-0.2
		c0.4-0.5,0.3-0.7-0.1-0.4c-0.2,0.2-0.2,0.1,0-0.1c0.2-0.2,0.2-0.3,0-0.2c-0.2,0.1-0.3,0-0.2-0.1c0.1-0.1,0.2-0.2,0.4-0.3
		c0.2,0,0.3-0.1,0.2-0.2c0-0.1-0.2-0.1-0.4,0.1c-0.2,0.1-0.4,0.2-0.5,0c-0.1-0.2-0.1-0.2,0.1-0.3c0.2,0,0.2-0.2,0.1-0.4
		c-0.1-0.3-0.2-0.3-0.3-0.1c-0.1,0.3-0.2,0.4-0.7,0.6c-0.1,0-0.2,0.1-0.3,0.1c0,0-0.1-0.1-0.1-0.1c0.1,0,0.1-0.1,0.2-0.2
		c0.3-0.2,0.3-0.3,0.1-0.4c-0.5-0.3-0.5-0.4-0.2-0.7c0.2-0.2,0.2-0.2,0.2,0c0,0.2,0.1,0.2,0.2,0c0.2-0.2,0.2-0.3,0-0.4
		c-0.1-0.1-0.4-0.3-0.6-0.4c-0.2-0.2-0.4-0.2-0.5,0c-0.1,0.2-0.2,0-0.2-0.3c-0.1-0.5-0.2-0.5-0.5-0.2c-0.3,0.3-0.5,0.3-0.6,0
		c0-0.1-0.2,0.1-0.3,0.2c0,0,0,0,0,0c-0.1-0.2-0.1-0.3-0.2-0.4c-0.2-0.3-0.2-0.6-0.1-0.8c0,0,0.1,0,0.2-0.1c0.1-0.1,0.2-0.2,0.2-0.2
		c0-0.1-0.2,0-0.3,0.1c-0.1,0-0.1,0.1-0.1,0.1c0-0.1,0-0.2-0.2-0.4c0,0,0,0,0-0.1c0-0.1,0-0.2-0.1-0.2c0,0,0,0,0,0.1
		c-0.5-0.7-1.5-2.1-2.8-3.6c-0.2-0.2-0.4-0.5-0.5-0.7c0,0,0.1,0,0.1-0.1c0-0.1,0-0.2-0.1-0.2c-0.1,0-0.1,0.1-0.1,0.2
		c-1.5-2-2.9-3.9-3.2-4.3c-0.3-0.4-0.7-0.8-0.8-0.7c-0.1,0-1.1-1-2.1-2.5c0.4-0.5,0.7-0.9,1.1-1.5c0.2-0.3,0.3-0.5,0.5-0.7
		c1.6,2.3,3.5,5,3.8,5.2c0.5,0.5,1.5,1.5,2.1,2.2c0.6,0.7,2.2,2.8,3.6,4.7c1.5,2.2,2.9,3.7,3.6,4c0.9,0.5,1.4,1.1,2.2,2.6
		c0.5,1.1,1.1,2.1,1.3,2.5c0.2,0.4,0.5,1,0.6,1.4c0.1,0.5,0.3,0.6,0.5,0.3c0.2-0.2,0.2-0.5,0.1-0.7c-0.1-0.1-0.1-0.5,0.2-0.8
		c0.2-0.3,0.3-1,0.1-1.7c-0.2-0.6-0.3-1.2-0.2-1.3c0.1-0.2,1.4,1.4,2.4,2.9c-0.1-0.1-0.3-0.3-0.4-0.5c-0.5-0.6-1.1-0.9-0.9-0.4
		c0.1,0.4,1.3,1.4,1.5,1.3c0,0,0,0,0.1-0.1c0,0,0.1,0.1,0.1,0.1c-0.1,0.1-0.1,0.3,0.1,0.4c0.2,0.1,0.3,0.4,0.4,0.5
		c0,0.1,0.1,0.1,0.2,0.1c0.2,0.4,0.4,0.7,0.4,0.9c0.2,0.7,0.5,1.2,0.7,1.3c0.2,0.1,0.1-0.3,0-0.9c0,0,0.1-0.1,0.2-0.2
		c0.3-0.3,0.1-0.8-0.2-0.6c0,0-0.1,0-0.2,0.1c-0.3-0.8-0.6-1.9-0.8-2.7c-0.2-0.9-0.6-2-0.8-2.5c0.2-0.1,0.1-0.1-0.1-0.2
		c-0.1-0.1-0.1-0.3-0.1-0.4c0.2-0.2,0.3-0.3,0.3-0.4c0-0.1-0.2,0-0.3,0.1c0-0.2,0-0.4,0-0.5c0.1-0.3,0.2-0.3,0.3,0
		c0.3,1.4,1.3,3.3,2.3,4.6c0.6,0.8,1.6,2.7,2,4.1c0.8,2.5,0.9,2.7,1.1,2.4c0.1-0.1-0.1-0.8-0.3-1.6c-0.5-1.8-0.9-4.5-0.6-5.1
		c0.1-0.3,0.1-0.7,0-1.1l-0.2-0.6l0.5,0.5c0.8,0.7,1.8,1.1,2.1,0.8c0.2-0.1,0.2-0.3,0.1-0.4c-0.2-0.1-2.2-2.7-4.4-5.9
		c-1.5-2.1-2.4-4.1-2.3-4.5c0.2-0.6-1.8-3.2-5.3-7.4c-1.6-2-2.6-3.6-2.3-3.6c0.3,0-0.7-1.6-2.1-3.7c-0.9-1.3-1.5-2.3-1.8-3l-0.2-0.5
		c0.5,0.9,0.1,0,0.2,0.2c0-0.2,0-0.3,0-0.4c0.4-0.4-0.4-1.5-1.3-2c-0.4-0.2-0.4-0.3-0.1-0.4c0.3-0.1,0.3-0.4-0.1-0.9
		c-0.3-0.5-0.4-0.8-0.3-1c0.1-0.1,0.3-0.4,0.3-0.6c-0.1-0.8,1.6,1.5,4.1,4.9c1.7,2.4,3.8,5.2,4.8,6.3c1,1.1,1.6,2.1,1.5,2.2
		c-0.1,0.1-0.4,0.1-0.6,0.1c-0.2-0.1,0.3,0.9,1.2,1.9c0.9,1.2,1.7,1.9,1.9,1.8c0.2-0.1,1.4,1.2,2.8,2.9c1.3,1.6,2.5,2.8,2.5,2.6
		c0-0.3,0.2-0.2,0.5,0l0.4,0.4l0.1-0.6c0.1-0.3-0.8-1.7-1.9-3.1c-1.4-1.7-1.9-2.8-1.7-3.2c0.1-0.3,0.1-0.7,0-0.9
		c-0.1-0.2-0.1-0.6,0.1-1c0.4-0.6,0.4-0.6,0.7,0c0.2,0.4,0.5,0.6,0.7,0.4c0.5-0.5-0.5-1.3-1.4-1.1c-0.5,0.1-1,0.3-1.1,0.4
		c-0.2,0.3-0.6-0.3-0.9-1.7c-0.1-0.4,0.1-1,0.4-1.5c0.6-0.9,0.5-0.9-2.7-5.1c-1.1-1.6-2-2.9-2.7-4c-0.2-0.2-0.9-1.5-1.2-1.8
		c-0.6-1.1-0.7-1.4-0.6-1.6c0.2-0.2,0.4-0.1,0.6,0.3c0.2,0.4,0.6,0.6,0.8,0.4c0.2-0.1,0-0.9-0.5-1.9c-0.3-0.6-0.5-1.1-0.5-1.4
		c0.4,0.2,0.7,0.5,1,0.7c0.2,0.4,0.5,0.8,0.6,0.7c0.1-0.1,0.5,0,0.7,0.3c0.2,0.2,0.2,0,0-0.4c0.9-0.2,2.1-1.3,1.3-2.7
		c0.1,0,0.3,0,0.4,0c1,0,3.1,0.1,3-0.1c-0.1-0.2-2.7-0.2-3.6-0.1c0,0,0,0,0,0c-0.5-0.9-1.1-1.7-1.7-2.3c0,0,0,0,0,0
		c0.2,0,0.6,0.3,1,0.7c0.4,0.3,0.8,0.5,1,0.4c0.2-0.1,0.3-0.4,0.2-0.5c-0.1-0.1-0.1-0.2,0-0.2c0.5,0.2,0.9,0.4,1.4,0.6
		c0.3,0.2,0.6,0.4,0.9,0.5c0.5,0.3,1,0.6,1.5,0.9c-0.2-0.3-0.3-0.6-0.5-0.8c0.2,0,0.3-0.1,0.2-0.2c-0.1-0.2,0.7-0.7,0.8-0.5
		c0,0.1,0.3,0.1,0.5,0c0.2-0.1,0.3-0.1,0.2,0.1c-0.1,0.2,0,0.3,0.3,0.2c0.3,0,0.4-0.2,0.3-0.6l0-0.6l0.9,0.1c1.2,0.2,3,0.8,3.7,1.3
		c0.5,0.3,0.6,0.3,0.5,0c-0.1-0.2,0-0.6,0.1-0.8c0.2-0.4,0.2-0.4,0.6-0.3c0.2,0,1.5,0.3,2.5-0.1c0.2,0,0.4,0,0.7,0
		c0.9,0.7,1.9,1.4,2.8,2.1c-0.2,0-0.5,0-0.7,0c-5.8-0.2-8.9,0.2-9.1,0.3c-0.1,0.1-0.1,0.1,0.1,0.2c0.3-0.3,7.3-0.2,10-0.3
		c0.9,0.6,1.8,1.3,2.6,1.9l-2.4-1.9c0.5,0,0.8-0.1,0.8-0.1c0.1,0-0.4-0.1-1.1-0.1l-2.5-2c0.8,0,1.5,0,1.8,0c0.4,0,2.3,0,4.1-0.1
		c3.5-0.2,4.7-0.5,1.6-0.4c-3.6,0-6.1,0.1-7.8,0.1l-1-0.8c1.1,0,2.9-0.2,4.9-0.1c5.1,0,6.5-0.2,6.8-0.5c0.2-0.1-3.2-0.2-5.2-0.2
		c-0.7,0.1-2.4-0.2-3.4,0.1c-1.2,0-2.7-0.1-3.2-0.1c-0.3,0-0.5,0-0.8,0l-1.4-1.1c0.8,0.3,1.7,0.6,2.7,0.6c-0.5-0.3-1-0.5-1.5-0.8
		c0.7,0,1.6,0,2.7,0.1c1.2,0.1,6.9-0.1,7.5,0c0.3,0,0.6,0,0.6-0.1c0.1-0.1-0.7-0.2-1.7-0.2c-1.1-0.1-2.6,0.1-3.7-0.1
		c-1.1-0.1-3.3-0.2-5-0.2c-0.4,0-0.9,0-1.5,0c-0.9-0.4-1.7-0.9-2.6-1.3l-1.4-1.1c0.3-0.1,0.2-0.2-0.3-0.3l-1.7-1.4c0,0,0,0,0,0
		c-0.1-0.1,0-0.2,0.6-0.3c0.5-0.1,0.6-0.1,0.4-0.1c-0.2,0-0.5,0-0.6,0c-0.1,0-0.4,0.1-0.6,0.2c0,0-0.1,0-0.1,0l-2.5-2
		c0.4-0.1,1,0,0.8-0.5c0-0.1-0.1-0.1-0.1-0.2c0.1,0,0.4-0.1,0.8-0.2c1-0.4,3.9-0.8,3.9-0.6c0,0,0.1,0,0.3-0.1c0.2-0.1,0.6-0.1,1-0.1
		c1,0.1,3.9-0.3,4.4-0.5c0.2-0.1,0.4-0.1,0.4,0c0,0.1,0.3,0.1,0.5,0c0.2-0.1,0.8-0.2,1.2-0.2c0.4,0,1.1,0,1.5,0
		c3.8-0.1,4.7-0.1,5.5-0.1c0.5,0,0.8,0.1,0.7,0.2c-0.1,0.1-3.4,0.3-5,0.4c-3.6,0-9,0.6-9.2,0.8c-0.2,0,9.3-0.5,13-0.6
		c0.6,0,1.4-0.1,2.1-0.1l5.1,5.1c-0.4,0.1-0.7,0.1-0.6,0.2c0,0,0.4,0,0.7,0c0,0,0,0,0.1,0l2.4,2.4c-2.8,0.4-3.6,0.5-3.5,0.6
		c0,0.1,1.8-0.1,3.7-0.4l17.8,17.8c-6-6-11.3-11.3-16-18.2c1.6-0.3,2.9-0.6,3-0.6c0.1-0.1-1.3,0.2-3.1,0.5c-0.3-0.5-0.7-1-1-1.5
		c0.1,0,0.2,0,0.3,0c0.3,0,0.6-0.1,0.7-0.2c0.1-0.1-0.5-0.1-1.1,0c-0.5-0.8-1-1.6-1.5-2.4c0.2,0,0.4,0,0.6,0c0.6-0.1,1-0.2,0.8-0.2
		c-0.2,0-0.9,0-1.5,0.1c-0.1-0.3-0.3-0.5-0.5-0.8c-0.4-0.7-0.8-1.4-1.1-2.1c0,0,0,0,0,0c0.3,0,0.5,0,0.7-0.3
		c0.2-0.2,0.3-0.3,0.4-0.2c0,0.1,2.2,0,4.7-0.3c2.6-0.2,5.6-0.7,6.8-0.9c1.8-0.3,3-0.6,2.9-0.7c0,0-0.8,0.1-1.7,0.2
		c-0.9,0.1-1.7,0.2-1.7,0.2c0-0.1,6.6-1.4,8.4-1.8c4.1-0.8,6.1-1.5,6.5-1.7c0.3-0.2,0.3-0.2,0.1-0.1c-0.4,0.1-2.2,0.3-2,0.2
		c0.3-0.2,1.9-0.8,2.6-0.9c0.4-0.1,0.7-0.2,0.9-0.3c0,0-0.1-0.1-0.1-0.1c0,0,0,0,0,0c-0.1-0.1-0.1-0.1-0.2-0.2c-1,0.3-2.2,0.7-3.2,1
		c-2,0.6-4.1,1.2-4.5,1.3c-3.9,0.9-4.9,1-5.6,1.2c-0.9,0.2-0.7,0.4-5.8,0.8c-2.1,0.2-4.8,0.4-6.1,0.4c-1.3,0.1-2.4,0.1-2.6,0.1
		c-0.2,0-0.4,0-0.6,0.1c-0.2,0.1-0.4,0.1-0.4,0.1c0,0-0.1,0-0.3-0.1c-0.5-0.9-0.9-1.8-1.4-2.6c0.6,0,1.2-0.1,1.1-0.2
		c0-0.1-0.3-0.1-0.5,0c-0.2,0.1-0.5,0.1-0.5-0.1c0-0.1-0.2-0.1-0.3-0.1c-1.1-2.2-2.3-4.4-3.5-6.5c0.5,0.4,0.9,0.8,1.4,1.1
		c-0.1-0.5-0.5-0.8-0.8-1c-0.1-0.5,1.3-0.4,1.2-1c-0.5-0.8-1.7-1.2-2.4-1.7l0.4-0.6c1,0.7,1.7,1.2,2.7,1.9c1.2,0.4,2.2-0.2,2.1-0.8
		c-0.9-1.5-2.8-2.4-4.2-3.4c0.3,0.2,0.5-0.1,0.8-0.4c-1.5-1-2.8-2-4.4-3.1l0.3-0.5l11.2,7.8c-3.7-2.6-7.4-5.2-11.1-7.8l0.1-0.1
		l0.7,0.5c0.2-0.3,0.6-0.9,0.8-1.2c-1.5-1.5-5.4-3.8-3.3-5.4l0.7,0.5c0.2-0.3,0.6-0.9,0.6-0.9c1.6,0.6,3.5,1.5,5,2.2
		c0,0,0.4-0.6,0.6-0.9l-1-0.7c0.9,0.6,1.8,0.2,2.3,0c-0.6-0.3-1.1-0.6-1.7-0.9c0.7,0.1,1.4,0,2.2-0.2c0.1,0.4,0.3,0.7,0.5,1
		c1.6,0.1,3.4,2,5.4,3c0.2,0.1,0.4,0,0.6-0.2c-0.2-0.1-0.5-0.2-0.7-0.4c-1.9-1.4-3.6-2.8-4.4-3.7c-0.3-0.4,0-0.7,0.6-1
		c-2.4-1.6-4.7-3.4-6.6-5.7c-0.7-0.5,0.3-1.1-0.4-1.6l-1-0.7c0.2-0.1,0.4-0.3,0.5-0.5c0.5,0.1,1,0.2,1.2,0.1
		c0.3-0.2,0.5-0.1,0.5,0.2c0,0.3,0.3,0.4,0.7,0.2c0.9-0.4,2.8,0.2,2.6,0.8c-0.1,0.3,0.2,0.4,0.8,0.4c0.5,0,1.8,0.1,2.9,0.3
		c0.2,0,0.3,0,0.4,0.1c-1-0.7-2.2-1.6-3.3-2.9c-0.7-0.7,0.4-0.3,1-0.4c-0.6-0.2-1.1-0.5-1.7-0.7c-1.7-0.6,0.8-0.4,1.5-0.7l-1.8-1.3
		l0.3,0.2c0.6,0.3,1.1,0.7,1.5,1.1c0,0,0.1,0,0.1-0.1c0-0.1-0.1-0.2-0.1-0.3c-0.2-0.3-0.5-0.6-0.8-0.8l-4.2-1.1l0.6,0.1
		c1.2,0.3,2.5,0.6,3.5,1c-1.2-1-2.9-1.9-4.3-2.8c5.4,0.6,10.8,1.6,16,2.9c0.1,0,0.1,0,0.2,0c-3.9-2.3-8-4.4-11.9-6.7
		c-7.9-1.7-15.7-3.3-23-5.4c5.7,0.6,11.4,1.3,17.2,1.8c-0.2-0.1-0.4-0.2-0.5-0.4c-0.4-0.1-0.8-0.2-1.2-0.3c0.3,0.1,0.6,0.1,1,0.2
		c-0.5-0.3-1-0.7-1.4-1c-1.2-0.4-2.5-0.7-3.7-1.1c-2-0.5-3.1-1.1-3.5-1.6c-3.7-0.8-7.4-1.7-11-2.8c-0.2-0.9-1.9-0.9-2.5-1.7
		c2.6,0.1,4.8,0.6,7.1,1.5c-0.9-0.3-1.9-0.7-2.8-1c-0.7-0.2-1.3-0.5-2-0.7c0.7,0.2,1.3,0.5,2,0.7c2.9,1,6,1.9,8.9,3.3
		c0.2-0.8,2.3-1.4,4-1.1c3,0.5,6,1,8.9,1.5c0.6-0.4,1.6-0.5,2.3-0.1c0.5,0.3,1.1,0.5,1.6,0.8c4.8,0.8,9.5,1.7,14.1,2.8
		c-0.1-0.1-0.2-0.1-0.2-0.2c-0.3-0.6,0.6-1.3,2.2-1c1.4,0.7,2.4,1.1,3.8,1.8l0.3-0.7c-0.9-0.5-2.5-0.8-3.3-1.6
		c-0.3-0.6,1.4-0.5,1.1-1.1c-0.5-0.2-0.9-0.5-1.2-1c1.4,0.7,3.1,1.9,4.7,2.3c0.6-0.1,1.3-0.2,1.6-0.9c1.3,0.9,2.6,1.2,4,1.1
		c-0.2-0.2-0.4-0.4-0.6-0.6l-0.8-1l0.9,0.1c0.5,0,1.3,0.4,1.8,0.7c0.4,0.3,0.7,0.4,0.8,0.4c0,0,0.1,0,0.1-0.1
		c0.1-0.1,0.1-0.1,0.2-0.2c0.2-0.4,0.5-0.4,1.1,0c0.4,0.1,0.9,0.3,1.4,0.5c0.1-0.1,0-0.3-0.3-0.6c-0.8-0.7-0.7-1.9,0.2-1.4
		c0.4,0.2,1,0.5,1.4,0.7c0.8,0.4,0.8,0.4,0-0.4l-0.8-0.8l0.9-0.2c1-0.2,3.5,0.7,5.2,1.9c0.8,0.5,1.6,0.8,2.2,0.7l1-0.2l-1.3-0.8
		c-2.6-1.6-2.5-1.5-1.6-1.8c0.5-0.2,0.4-0.3-0.5-0.2c-0.7,0.1-1.6-0.1-2-0.3l-0.7-0.4l0.8-0.3c0.6-0.2,0.3-0.3-0.8-0.5
		c-0.9-0.1-2.1-0.7-2.6-1.1c-0.6-0.5-1.9-1.2-2.9-1.6c-1-0.4-2.1-0.8-2.4-0.9c-0.3-0.1-1.2-0.4-2-0.7c-0.1,0-0.1,0-0.2-0.1
		c1.3-0.5,2.4-2.3-0.7-3.2c-2.4-0.9-4.9-1.5-7.4-1.8c0.1,0,0.3,0,0.4,0c1.6,0.1,3.2,0.2,4.8,0.4c-0.8-0.2-1.5-0.4-2.2-0.3
		c3.6-0.4,7.1-0.3,10.7-0.1c-2-0.7-4-1.3-6.1-1.7c0.1,0,0.2-0.1,0.3-0.1c0.4-0.1,0.9,0,1.2-0.4c-0.8-0.9-2.1-1.4-3.2-2
		c0.1,0,0.2,0,0.2,0c0,0.1,0.2,0.2,0.4,0.2c0.2,0,0.3-0.1,0.3-0.2c0.2,0,0.4,0,0.5-0.1c0.5-0.1,1.9-0.1,3.3,0.2
		c0.6,0.2,1.2,0.4,1.8,0.5c-0.3,0-0.5,0-0.5,0.1c-0.2,0.2-1.1,0.3-2,0.4c-0.9,0,0.5,0.2,3.1,0.5c2.1,0.3,3.7,0.4,4.5,0.4
		c0.8,0.1,1.5,0.2,2.1,0.3l1.8,0.1l-1-0.6c-0.6-0.3-0.9-0.7-0.7-0.9c0.6-0.6,3-0.1,4.6,0.9c0.9,0.6,1.8,1,2.1,1
		c0.4,0,0.3-0.2-0.2-0.6c-0.9-0.6-0.7-0.8,0.5-0.7c0.4,0,0.9-0.1,1.1-0.3c0.2-0.2,0.6-0.5,0.9-0.7c0.4-0.2,0.5-0.4,0.3-0.5
		c-0.1-0.1-0.4,0-0.6,0.1c-0.2,0.2-0.7,0.2-1.1,0c-0.4-0.2-1.8-0.5-3-0.7c-1.8-0.3-2.9-0.8-3.2-1.4c0.5-0.1,1-0.2,1.5-0.3
		c-0.5,0.1-1,0.1-1.5,0.2c-0.1-0.2,0-0.3,0.1-0.5c0.2-0.3,0.1-0.5-0.5-0.4c-0.1,0-0.3,0-0.5-0.1c1.6,0.1,3.2,0.3,4.9,0.4l11.8,4.6
		c-1.3-1-2.6-2-3.9-3c0.9,0.4,2,0.9,2.6,1.4c0.1,0.1,0.2,0.1,0.3,0.2c0.2,0,0.7,0.1,1.3,0.2c0.1,0,0.1,0,0.2,0.1
		c-0.2-0.2-0.5-0.5-1-0.8c-0.9-0.6-1.7-1.3-2.1-1.9c1.9,0.2,3.9,0.4,5.8,0.6l-6-0.8c-0.3-0.4-0.3-0.8-0.1-1c0.2-0.2,0.6-0.4,0.9-0.4
		c0.5,0,0.5,0,0.3-0.3c-0.3-0.3,0.3-1.2,1.1-1.6c0.3-0.1,1,0.1,1.6,0.5c1.3,1,1.9,0.8,0.7-0.1c-0.4-0.4-0.9-1-1.1-1.3
		c-0.3-0.7-0.2-0.7,1-2.1l1.2-1.4l-0.7-0.2c-0.6-0.2-0.6-0.4-0.4-0.9c0.2-0.5,0.1-0.8-0.3-0.9c-0.2,0-0.3-0.1-0.4-0.2
		c2.3,0.1,4.7,0.1,7,0c0,0,0,0,0,0c-0.6-0.1-0.8-0.2-0.5-0.3c0.3-0.2-0.6-0.6-2.3-1.3c0,0-0.1,0-0.1,0c0,0.1,0,0.1,0,0.2
		c0,0.2-0.1,0.4-0.2,0.5c-0.1,0.1-0.2-0.1-0.2-0.4c0-0.2,0-0.3,0.1-0.4c-0.2-0.1-0.5-0.2-0.7-0.3c0,0.1,0,0.1,0,0.2
		c-0.1,0.1-0.2,0.1-0.3-0.1c0-0.1,0-0.2,0-0.2c-0.1,0-0.3-0.1-0.4-0.1c0,0.1,0,0.1,0,0.2c-0.1,0.1-0.2,0.1-0.3,0
		c0-0.1,0-0.2,0.1-0.2c-0.7-0.3-1.3-0.5-1.5-0.6c-1.7-0.6-1.9-0.8-1.9-1.5c0-0.5,0.4-0.5,2.3,0c0.2,0.1,0.4,0.1,0.5,0.1
		c0.4,0,0.8-0.1,1.2-0.1c0-0.1,0.2-0.1,0.5,0c1-0.1,1.9-0.2,2.9-0.2c-0.2-0.2-0.5-0.5-1.1-0.8c-1.9-1-1.3-1.2,0.8-0.2
		c0.5,0.2,1.2,0.6,2,0.9c1.1-0.1,2.2-0.1,3.3-0.2c-0.7-0.3-1.3-0.6-1.6-0.9c-0.2-0.3-0.7-0.6-1-0.5c-0.3,0-0.5-0.1-0.5-0.4
		c0-0.3,0.1-0.5,0.1-0.5c0,0,1.1,0,2.3,0c1.3,0,3.5,0.4,5.4,1c3.2,1,4.5,1.2,4.5,0.4c0.1-0.5,0-0.5-4.3-1.9
		c-0.2-0.1-0.3-0.1-0.5-0.2c-2.5,0-4.9,0.1-7.3,0.1c0.3,0.1,0.4,0.2,0.1,0.3c-0.2,0-0.5-0.1-0.7-0.2c-0.9,0-1.8,0-2.7,0
		c-0.4,0.1-1.2,0.1-1.7,0c-0.2,0-0.5,0-0.7,0c0,0.1,0,0.1,0,0.2c-0.1,0.1-0.3,0-0.4-0.1c0,0,0,0,0,0c-0.5,0-1.1,0-1.6,0
		c-0.1-0.1-0.3-0.3-0.4-0.4c-0.1-0.1-0.2-0.2-0.3-0.3c2.3,0,4.5-0.1,6.3-0.9c-2.3,0-4.6,0.1-6.9,0.2c-0.9-1-1.4-2.1-1.4-2.7
		c-0.1-0.1-0.2-0.2-0.4-0.4c-0.5-0.5-0.5-0.6,0-0.4c0.3,0.1,0.5,0.3,0.6,0.4c0,0.1,0.1,0.2,0.1,0.3h1.5c-0.7-0.1-1.2-0.3-1.2-0.3
		c-0.2-0.4,0.2-0.5,1.5-0.3c7.4,0.6,7.7,0.7,7.8-0.1c0.1-0.7-0.2-0.8-4.1-1.9c-4.4-1.2-5.8-1.4-7.9-1.6c-0.7-0.1-1.8-0.2-2.6-0.3
		c-0.7-0.1-1.9-0.3-2.7-0.4c-1.4-0.2-1.4-0.2,0.4-0.2c1,0,3.1,0,4.7,0.1c5.1,0.3,7,0.3,8.4-0.1c1.6-0.4,0.9-0.6,7.9,2.3
		c1.7,0.7,4.6,1.8,7.9,2.9h6.2c-0.8-0.2-1.5-0.5-1.5-0.8l-0.1-0.3l0.5-0.9l0.4-0.6c0,0,0,0,0,0c-1.2-0.1-2.5-0.2-3.7-0.3
		c-0.5-0.2-0.9-0.5-1.2-0.8c0-0.2,0.6-0.4,1.2-0.6c-0.7-0.2-1.3-0.4-1.8-0.5c-0.7-0.2-1.5-0.5-2.5-0.7c-4.9-0.4-8.6-0.1-11-2.4
		c-2.5-0.4-4.5-0.7-5.3-0.7c-2.1,0-2.6,0-4.8-0.4c-1.1-0.2-2-0.2-2,0.1c0,0.2,0.8,0.7,1.9,1c2,0.6,2.4,1.2,0.5,0.9
		c-5.7-1-5.7-1-8.3-1.2c-0.8,0-1.4-0.2-1.5-0.4c0-0.2-0.8-0.6-1.7-0.9c-2.7-0.9-3.6-1.1-4.1-0.8c-0.3,0.2-0.6,0.2-0.6,0
		c0-0.1,0.1-0.4,0.4-0.5c0.3-0.2-0.3-0.5-2.3-1.2c-2.5-0.9-2.6-1-1.1-0.8c0.8,0.1,2.3,0.1,3.2,0c1.3-0.1,3.1,0.3,6.9,1.5
		c5.1,1.6,7.3,2,7.3,1.3c0-0.2,0.8-0.2,1.8,0c1,0.1,2.6,0.2,3.6,0.2c1,0,3,0.2,4.3,0.5c0.7,0.1,1.4,0.3,2,0.4c1.8-1.4,6.6-3.5,4.4-4
		c-0.1,0-0.1,0-0.2,0c3.9-0.6,7.9-1.1,11.9-1.5c-0.9-0.1-1.7-0.2-2.3-0.2c-3.8,0.4-7.6,0.9-11.3,1.6c-2-0.2-4.7-0.3-7.6-0.4
		c-0.4-0.3-0.8-0.6-1.2-0.8c-0.1-0.1-0.3-0.2-0.4-0.2c4.8-0.2,10.3-0.8,13.1,0.7c1-0.6,2.1-1,3.3-1.3c-5.5,0.1-11,0.3-16.6,0.4
		c-0.1-0.1-0.3-0.2-0.4-0.2c0.5-0.1,0.9-0.2,1.4-0.3c0.7-0.1,1.3-0.1,2-0.2c0.7,0,1.3-0.2,2-0.4c3.3-0.4,6.5-0.8,9.7-1.1
		c-0.6-0.2-2-0.4-2.9-0.2c-0.2,0-1.3,0-2.4,0c-1.1,0-2.4,0-3,0c-0.5,0.1-2.2,0-3.7-0.1c-1.5-0.1-2.7-0.1-2.8,0
		c-0.1,0.1-1.1,0-2.2-0.2c-1.1-0.2-2.1-0.2-2.3-0.1c-0.4,0.3-3.5,0.5-3.6,0.1c0-0.1,0.3-0.3,0.7-0.3c0.5,0,0.9-0.2,1.1-0.4
		c0.3-0.3,1.8-0.5,5.7-0.6c3.2,0,7.1-0.2,9.4-0.2c-0.1-0.1-0.2-0.2-0.3-0.3c2.1-0.3,4.3-0.8,6.5-1.1c6.2,0.2,12.3,0.6,18.9,0
		c2.3-0.2,4.5-0.6,6.7-1c-2.5-0.6-5-1.1-7.7-1.8c0.8,0.2,2.5,0.6,3.4,0.8c0.1-0.4,0.2-0.7,1-0.5c-3.4-0.8-7.7-1.3-10.9-2.8
		c-0.8-0.5,0.3-1.4,2.9-1.2c2.5,0.5,4.2,0.9,6.8,1.5l0.2-0.7c-1.7-0.4-4.3-0.6-5.9-1.3c-0.8-0.5,1.9-0.7,1.2-1.2
		c-0.9-0.2-1.7-0.4-2.5-0.9c2.6,0.5,5.9,1.6,8.5,1.9c0.9-0.2,1.9-0.3,2-1c1,0.3,2,0.6,3,0.7l3.2-0.6c1.1,0.1,2.1,0.1,3.2,0.2
		c0.4-0.1,0.9-0.3,1.3-0.4c-0.8,0-1.7-0.1-2.5-0.1l5.8-1c1.3-0.1,2.6-0.1,3.8-0.2l2.1,0.5c0.2,0,0.4-0.1,0.5-0.2
		c0.1-0.1-0.1-0.3-0.3-0.3l-0.6-0.1c1-0.1,1.8-0.5,2-1.1l10.2-1.8c-4,0.1-7.9,0.2-11.9,0.3c-0.2,0-0.4,0-0.7,0
		c-3.4-0.1-6.8-0.1-10.1,0l-1.1-0.1l-1.1-0.3c5.2-0.4,10.5-0.8,15.6-1.4c0.4,0,0.8-0.2,0.8-0.5c0-0.3-0.4-0.5-0.8-0.5
		c-9.2-0.8-18.5-1.3-27.8-1.5c-3.1-1-6.3-1.9-9.5-2.9l1.2-0.1c10.3-0.5,19,2.4,28.8,2.9c0.2,0,0.4-0.1,0.5-0.2
		c0-0.1-0.1-0.3-0.4-0.3c-4.8-0.3-9.2-1.3-14-1.9c-4-0.5-7.8-1-11.5-1.6c7.6-0.1,14.9,1.2,22.3,1.6c0.3,0.1,0.6,0,0.9-0.2
		c0,0.1,0.1,0.1,0.2,0.2c0.9,0.3,1.9,0.6,3,0.7c0.2,0.1,0.4,0,0.5-0.1c0.1-0.1,0-0.2-0.2-0.3c-1-0.2-2-0.4-2.8-0.7
		c-0.2-0.1-0.3,0-0.5,0c0.1-0.2-0.1-0.4-0.5-0.5c-7.2-1.6-15-2.2-22.8-2.8c-0.1-0.2-0.2-0.3-0.4-0.5c-0.6-0.5-1.7-0.8-2.8-0.6
		l-0.8,0.2c-2.6,0.3-5.3,0.8-7.9,1.2c-2.1-0.9-4.2-1.2-6.5-1.4c-2.7-0.3-5.4-0.6-8.2-0.8l1.6-0.3l0.5-0.1l4-0.4
		c11.9-0.7,23,0.6,33.6,2.4c0.2,0.1,0.4,0,0.6-0.1c0.1-0.1,0.1-0.3-0.1-0.3c-6.7-2.2-12.8-5-20.7-6.2c-9.5-1.2-19-1.9-29.3-1.5
		c-10.1,1.5-21.4,3.2-30.6,4.9c-5.7,1-11.5,2.4-17.2,3.9c-1.1,0.1-2.3,0.3-3.4,0.4c-11.5,1.4-22.7,3.9-33.8,6.8
		c-10.9,2.8-21.5,6.7-31.7,11.4h0.3c0.1-0.2,0.5-0.3,1.3-0.6c0.8-0.3,1.5-0.3,1.6,0c0.1,0.2-0.2,0.4-0.5,0.6h2.7
		c-0.2,0.1-0.5,0.3-0.7,0.4c-0.8,0.2-1.7,0.4-2.5,0.7c-0.4,0-0.8,0-1.1,0.2c-6.6-3.4-13-6.6-20.6-6.6c-1.1,0-2.2,0-3.3,0.1
		c0.6,0.1,1.3,0.3,1.8,0.4c3.7,0.8,5,1.3,3.3,1.2c-0.6,0-3.5-0.6-7.5-1.4c-2.9,0.3-5.9,0.9-8.8,1.5c0.3,0.1,0.7,0.2,1,0.4
		c1.8,0.6,3.4,1.2,3.7,1.3c0.3,0.1,0.9,0.4,1.3,0.5c1.6,0.6,0.8,0.8-1.4,0.3c-1.2-0.3-2.3-0.4-2.3-0.2c-0.1,0.5,0.7,1.2,1.8,1.5
		c0.6,0.2,1,0.4,1,0.6c0,0.4-2.1-0.1-3.1-0.9c-0.8-0.6-3.4-0.6-4.8-0.1c-1.2,0.5,2.2,1.9,4.6,1.9c0.9,0,1.9,0.3,2.1,0.5
		c0.2,0.2,1.1,0.6,1.9,0.8c2.5,0.6,3,0.8,3,1c0,0.1-0.3,0.1-0.7,0c-1.2-0.4-4.9-0.5-4.9-0.2c0,0.7,0.6,1.1,2.1,1.4
		c1,0.2,1.6,0.5,1.5,0.8c-0.1,0.6,0.8,1.4,2,1.8c0.5,0.1,0.9,0.5,0.9,0.8c0,0.3,0.4,0.6,0.8,0.8c1.1,0.4,0.9,0.6-0.4,0.5
		c-2.4-0.1-3.1,0-2.8,0.7c0.2,0.5,0.1,0.5-0.2,0c-0.2-0.3-0.6-0.6-0.9-0.5c-0.3,0-1.7-0.3-3-0.6c-1.4-0.4-2.6-0.5-2.6-0.3
		c0,0.6,0.4,0.7,2.4,1.1c1.1,0.2,2.1,0.5,2.1,0.7c0.1,0.2,0.1,0.4,0,0.4c-0.1,0-0.1,0.3,0,0.5c0.1,0.3,0.3,0.4,0.5,0.3
		c0.2-0.1,0.3,0,0.3,0.2c0,0.2,0.2,0.6,0.6,0.9c0.6,0.6,0.5,0.6-0.9-0.2c-0.6-0.3-1.2-0.5-1.5-0.4c-0.3,0.1-1,0-1.7,0
		c-0.6-0.1-1.8-0.2-2.6-0.2c-0.8,0-2.3-0.3-3.4-0.6c-1.1-0.3-2.3-0.5-2.7-0.6c-1-0.1-3.5-0.7-6.6-1.4c-1.3-0.3-2.6-0.4-2.8-0.3
		c-0.6,0.3-0.5,1.6,0.2,2.6c0.6,0.9,0.6,0.9-0.8,1.1c-0.7,0.1-1.6,0.4-1.9,0.5c-0.3,0.2-0.6,0.1-0.6-0.2c-0.1-0.3-0.4-0.5-0.9-0.5
		l-0.3,0c-1.5,0.7-0.6,0.2-1,0.4c-0.2,0.1-0.3,0.2-0.4,0.3c-0.2,0.3-0.4,0.3-0.5,0c-0.1-0.3-0.3-0.3-0.4-0.1
		c-0.2,0.5-2.6,0.2-4.2-0.5c-0.7-0.3-1.5-0.4-1.8-0.4c-0.3,0-1,0-1.5,0c-0.2,0-0.6,0-1.1,0.1c-1.5,1.2-3.1,2.3-4.9,3.3
		c-0.7,0.4-1.4,0.7-2.1,1.1c0,0.1,0,0.1-0.1,0.2c-0.1,0.1-0.2,0.1-0.3,0c-1.7,0.9-3.3,1.9-4.4,3.6c0,0.1-0.1,0.2-0.1,0.2
		c0.1,0.1,0.2,0.2,0.4,0.3c0.4,0.2,0.4,0.3,0.2,0.5c-0.1,0.2-0.3,0.3-0.4,0.3c-0.1,0,0,0.3,0.1,0.7c0.2,0.5,0.2,0.5-0.2,0
		c-0.2-0.3-0.4-0.8-0.3-1c0-0.1,0-0.3,0-0.4c-0.1,0.2-0.2,0.4-0.3,0.6c0,0.1,0,0.1,0.1,0.2c0.1,0.4,0.4,0.9,0.6,1.2
		c0.2,0.3,0.4,0.5,0.3,0.6c-0.1,0.1-0.3-0.1-0.6-0.4c-0.3-0.3-0.6-0.5-0.6-0.4c-0.1,0.1,0.1,0.3,0.4,0.5c0.4,0.3,0.4,0.6,0,1
		c-0.7,0.7,0.6-0.1-1,2.1c0.2,0.6,0.6,1.3,1.3,2.2c0.4,0.6,0.6,0.9,0.4,1.1l-0.3,0.2l-0.5-1.1c-0.3-0.6-0.6-1.2-0.8-1.3
		c-0.4-0.2,0.7,2.2,1.3,2.8c0.3,0.3,0.4,0.5,0.2,0.4c-0.2-0.1,0.2,0.5,0.7,1.3c0.6,0.8,1.1,1.6,1.1,1.8c0,0.2,0.1,0.6,0.3,0.8
		c0.1,0.2,0.2,0.4,0.1,0.4c-0.3-0.1-1.5-1.8-1.3-2c0.1-0.1,0-0.3-0.2-0.6c-0.2-0.3-0.4-0.3-0.4,0c0,0.3-0.1,0.3-0.4,0
		c-0.3-0.4-0.5-0.2-0.4,0.9c0,0.4,0,0.4-0.2-0.1c-0.1-0.3-0.4-0.6-0.6-0.8c-0.3-0.2-0.3-0.2-0.1,0.1c0.2,0.2,0.2,0.4,0,0.3
		c-0.2-0.1-0.1,0.2,0.2,0.6c0.5,0.6,0.5,0.6-0.1,0.2c-0.3-0.3-0.6-0.5-0.6-0.6c0,0-0.1-0.4-0.4-0.7c-0.3-0.3-0.3-0.6-0.1-0.6
		c0.2,0,0.2,0,0-0.1c-0.3-0.1-0.8-0.8-1-1.1c-0.1,0.3-0.1,0.7-0.2,1c0,0.1-0.1,0.3-0.1,0.4c0,0.1,0.1,0.2,0.2,0.2
		c0.5,0.7,1.2,1.9,1.8,2.5c0.6,0.6,1.3,1.2,1.6,1.3c0.3,0.2,0.3,0.2-0.1,0c-0.9-0.4,1.7,1.1-1.7-0.8c-0.8-0.4-1.2-0.5-1.3-0.6
		c0,0,0,0,0,0c-0.1,0-0.1,0,0,0c-0.1,0-0.3-0.1-0.7-0.3c-0.1,0-0.1,0-0.2-0.1c-0.7,3.4-1.4,6.9-1.9,10.3c-0.6,3.6-0.7,7.3-0.9,10.9
		c-0.3,4.4-0.8,8.8-1.7,13.2c-0.6,2.6-1.7,5.5-1.7,8.3c-1-0.7-2-1.6-2.9-2.5c-2.6-2.8-5-5.6-7.6-8.3c-2.6-2.7-5.2-5.7-8.5-7.4
		c-3.8-2-8.2-2.2-12.3-2c-7.5,0.3-16.2,1.7-22.1,6.9c-1.3,1.2-2,2.6-2.1,4c-0.3,0-0.6,0-1,0.1c-1,0.2-2,0.5-3,0.6
		c-3.8,0.4-7.8,1.7-11.4,3.1c-1.9,0.7-3.8,1.5-5.6,2.4c-1.7,0.9-3,2.1-4.7,3.1c-1.3,0.8-2.5,1.8-3.8,2.7c-1,0.8-2.7,1.7-3.1,2.9
		c1.4-0.2,2.8-0.4,4.2-0.5c-0.1,0.1-0.2,0.2-0.3,0.3C7.6,149.1,6.4,149.8,6.7,150.4z M151.3,66.4c0,0.1-0.1,0.2-0.3,0.3
		c-0.2,0.1-0.4-0.1-0.5-0.3c-0.1-0.2,0.1-0.4,0.3-0.3C151.1,66.2,151.3,66.4,151.3,66.4z M150.5,68c-0.6-0.1-1.2-0.3-1.2-0.5
		c0-0.3,2.5-0.2,3.2,0.1c0.3,0.1,0.3,0,0.1-0.4c-0.3-0.4-0.2-0.5,0.2-0.4C154.7,67.5,152.9,68.4,150.5,68z M293.7,77.9
		c0.3-0.1,1.1-0.2,1.8-0.1c1.6,0.2,0.5,0.6-1.2,0.4C293.4,78.2,293.2,78.1,293.7,77.9z M291.1,75.9c0.2,0,0.3,0.2,0.2,0.3
		c-0.1,0.1-0.2,0.1-0.4-0.1C290.9,75.9,290.9,75.8,291.1,75.9z M289.3,75.4c0.8,0.3,1.2,0.4,0.8,0.4c-0.4,0-1-0.2-1.5-0.5
		C288.2,75.1,288.5,75.2,289.3,75.4z M285,72.2c0.1-0.2,0.3-0.3,0.5-0.3c0.3,0.1,0.3,0.2,0.1,0.5C285.3,72.8,284.9,72.7,285,72.2z
		 M324.9,87.1c0.8,0.1,1.6,0.2,2.4,0.2c-0.6,0-1.3,0-1.9,0C325.3,87.2,325.1,87.2,324.9,87.1z M305.4,83.9c0.3,0.1,0.4,0.2,0.2,0.3
		c-0.1,0.1-0.4,0-0.5-0.1C305,83.9,305.1,83.8,305.4,83.9z M301.8,83.2c0.3,0.1,0.4,0.2,0.2,0.3c-0.1,0.1-0.4,0-0.5-0.1
		C301.4,83.2,301.5,83.1,301.8,83.2z M311.4,95.6c0.2,0.1,0.3,0.2,0.2,0.3c-0.1,0.1-0.3,0-0.4-0.1C311.1,95.6,311.2,95.6,311.4,95.6
		z M308.8,101.3c0.1-0.2,0.3-0.4,0.4-0.4c0.1,0,0.2,0.2,0.1,0.3c0,0.1-0.2,0.3-0.4,0.4C308.8,101.7,308.7,101.6,308.8,101.3z
		 M299.9,89.5c-0.1,0.1-0.2,0.1-0.4-0.1c-0.1-0.2-0.1-0.3,0.1-0.2C299.9,89.2,300,89.3,299.9,89.5z M298.3,93.2c1.2,0,2.4,0,3.6,0
		c0.2,0.3,0.4,0.5,0.6,0.7c-1.1,0-2.2,0-3.3,0C298.8,93.7,298.5,93.4,298.3,93.2z M297.6,92c0.2-0.2,0.6-0.2,0.8-0.1
		c0.2,0.1,0-0.3-0.4-0.9c-0.3-0.4-0.5-0.9-0.5-1.2h1.3c0.3,0.3,0.6,0.6,1,1c0.5,0.5,1.1,1.2,1.6,1.8c-1.2,0-2.3,0.1-3.5,0.1
		C297.4,92.3,297.4,92.1,297.6,92z M280.8,85.4c0,0.3-0.1,0.4-0.2,0.4c-0.1,0-0.2-0.1-0.2-0.2c0-0.1,0.1-0.3,0.2-0.4
		C280.8,85.1,280.9,85.2,280.8,85.4z M289.2,85.2c-0.1,0.1-0.2,0.1-0.4-0.1c-0.1-0.2-0.1-0.3,0.1-0.2
		C289.2,85,289.3,85.1,289.2,85.2z M290.1,85.1c-0.1,0.1-0.3,0-0.5-0.1c-0.1-0.2,0-0.2,0.2-0.1C290.1,84.9,290.2,85,290.1,85.1z
		 M292.4,84.7l-0.6,0.2c-0.3,0.1-0.8,0.1-1,0l-0.5-0.1l0.5-0.2c0.3-0.1,0.7-0.1,1,0L292.4,84.7z M293.9,89.6
		c0.3,0.1,0.4,0.2,0.3,0.3c-0.1,0.1-0.4,0-0.6-0.2C293.5,89.6,293.6,89.6,293.9,89.6z M291.5,88.4c0-0.2,0.5-0.1,1,0.2
		c0.8,0.4,0.9,0.5,0.4,0.6C292.2,89.3,291.4,88.8,291.5,88.4z M290.3,89.5c0-0.4,0.2-0.6,0.3-0.6c0.2,0,0.3,0.4,0.2,0.7
		c0,0.4-0.2,0.6-0.3,0.6C290.3,90.2,290.2,89.9,290.3,89.5z M286.8,109.7c0.2,0,0.4-0.1,0.6-0.1l0.7,0.3L286.8,109.7z M286.3,86.4
		c-0.5-0.5-0.4-0.5,0.5-0.1c0.6,0.3,1.9,0.8,2.8,1.2l1.7,0.7l-2.3-0.6C287.9,87.2,286.6,86.7,286.3,86.4z M286,92.7
		c-0.7-0.1-2-0.5-2.7-0.9c-0.8-0.3-0.2-0.2,1.3,0.3C286.1,92.6,286.7,92.9,286,92.7z M285.1,93c0.2,0,0.3,0.3,0.3,0.5
		c0,0.2-0.1,0.4-0.2,0.4c-0.1,0-0.2-0.3-0.3-0.5C284.8,93.1,284.9,92.9,285.1,93z M264.3,105.3c1.8,0.2,3.8,0.5,4.6,0.8
		C266,106,264.9,105.8,264.3,105.3z M258.7,102.7c0,0,0-0.1,0.1-0.2c0-0.1,0.1-0.2,0.1-0.2c0.5,0,0.9,0.1,1.4,0.1
		c0.7,0.1,1.6,0.2,2.3,0.4c0.7,0.1,1.2,0.7,1.9,0.3c0-0.3-0.4-0.7-0.7-1c1,0.1,2.2,0.3,3.5,0.4c0.5,0.2,1,0.4,1.3,0.3
		c0.7,0,1.3,0,2,0.1l15.7,6.1c-0.8,0-1.6,0-2.4,0c-0.5-0.4-1.1-0.7-1.4-0.7c-0.5-0.1-1.4-0.5-1.9-0.7c-0.5-0.2-1.2-0.5-1.5-0.5
		c-0.3-0.1-0.8-0.2-1.1-0.3c-0.3-0.1-2-0.3-3.8-0.5c-1.5-0.1-2.8-0.2-3.8-0.2c-0.1-0.1-0.2-0.2-0.4-0.3c-0.7-0.5-0.6-0.5,0.4-0.5
		c0.7,0,0.9-0.1,0.6-0.3c-0.3-0.2-4-0.7-8.6-1.1c-0.4-0.1-1.1-0.4-1.6-0.6c-0.8-0.3-1.6-0.5-1.8-0.4
		C258.8,102.9,258.7,102.8,258.7,102.7z M235.8,274.1c4.2,2.9,7.1,7.4,10.5,11c-3.3-3.2-6.4-6.4-9.6-9.4L235.8,274.1z M231.2,271.8
		c-3.2-3.2-6.7-6.1-10.2-8.6C224.7,265.6,228.2,268.5,231.2,271.8z M231.1,293.6l3.1,2.1c-0.2,0.1-0.5,0.2-0.5,0.5L231.1,293.6z
		 M224.4,287.2c0.4,0.2,0.9,0.3,1.3,0.3c0.2,0.5,0.4,1,0.7,1.5L224.4,287.2z M219.1,265.3c0.2,0,0.4,0.1,0.3,0.2
		c-0.1,0.1-0.2,0.2-0.5,0.1C218.5,265.4,218.6,265.2,219.1,265.3z M217.4,262.9c3.1,1.9,6,4.3,9,6.9c2.1,2.1,4,4.5,6,6.7
		C227.5,271.7,222.3,267.4,217.4,262.9z M215.7,267.5c0-0.2,0.2-0.4,0.4-0.6c0.2-0.2,0.2-0.1,0,0.3
		C215.8,267.5,215.6,267.7,215.7,267.5z M215.4,267.9c0.2-0.1,0.3,0,0.2,0c0,0.1-0.2,0.1-0.3,0.1C215.2,268,215.3,268,215.4,267.9z
		 M213.9,269.7c-0.2,0.6-0.5,0.2-0.5-0.5c0-0.3,0.1-0.4,0.3-0.2C213.9,269.2,213.9,269.5,213.9,269.7z M214.9,277.2
		c0.2,0.1,0.2,0.4,0.3,0.8l-2.9-3.1C213.1,275.6,214,276.4,214.9,277.2z M208.5,272.1c0.2,0,0.2,0,0.1,0.1c-0.1,0.1-0.2,0.1-0.3,0.1
		C208.3,272.3,208.3,272.2,208.5,272.1z M207.9,273.5c0.2,0,0.2,0,0.1,0.1c-0.1,0.1-0.2,0.1-0.3,0.1
		C207.7,273.6,207.7,273.5,207.9,273.5z M201.9,228.5c-0.1,0-0.3-0.1-0.3-0.2c0-0.1,0-0.2-0.1-0.3
		C201.7,228.2,201.8,228.3,201.9,228.5z M203,229.9c-0.4,0.6-0.8,1-1.2,1c-0.1-0.1-0.2-0.3-0.3-0.4c0.1-0.1,0.1-0.2,0.3-0.3
		c0.2-0.2,0.3-0.2,0.3,0c0,0.4,0.4,0.1,0.7-0.5C202.9,229.7,203,229.8,203,229.9z M206.6,268.3l0.1-0.2l0.2,0.2
		c0.1,0.1,0.2,0.3,0.1,0.4l-0.2,0.2l-0.2-0.2C206.6,268.5,206.5,268.4,206.6,268.3z M206.5,267.8c0.2-0.1,0.2,0,0.2,0.1
		c-0.1,0.1-0.2,0.1-0.3,0.1C206.3,268,206.4,267.9,206.5,267.8z M206.3,267.6c0.2-0.1,0.3,0,0.2,0c0,0.1-0.2,0.1-0.3,0.1
		C206.1,267.7,206.1,267.6,206.3,267.6z M205.2,264.6c0,0,0.1-0.1,0.2-0.1l0.4,0c0.1,0,0,0.1-0.2,0.1
		C205.4,264.6,205.2,264.6,205.2,264.6z M203.5,268.6l0.5-0.8c0.3-0.5,0.7-1,1-1.1c0.5-0.2,0.5-0.2,0.1,0.2c-0.2,0.2-0.7,0.7-1,1.1
		L203.5,268.6z M203.1,238.9c0.7,0.5,1.4,1.2,2.2,1.9L203.1,238.9z M203.2,268.7c0.2,0,0.1,0.2-0.2,0.4c-0.4,0.3-0.5,0.3-0.6,0.2
		C202.3,269,202.7,268.7,203.2,268.7z M201.3,268.4c0-0.1,0.4-0.1,0.7-0.1c0.4,0,0.6,0,0.6,0.1c0,0.1-0.4,0.1-0.7,0.1
		C201.5,268.5,201.2,268.5,201.3,268.4z M200.3,226.5C200.3,226.5,200.3,226.5,200.3,226.5c0.3,0.4,0.6,0.7,0.8,1
		c0,0-0.1-0.1-0.1-0.1C200.3,226.8,200.2,226.7,200.3,226.5z M186.1,75.3c-0.2,0.1-0.3,0-0.3-0.1c0-0.1,0-0.3,0.1-0.5
		c0.1-0.2,0.3-0.2,0.3,0.1C186.4,75,186.3,75.3,186.1,75.3z M187.5,80.9c-0.3,0.1-0.5,0.1-0.4-0.1c0.1-0.2,0.3-0.3,0.6-0.2
		C187.9,80.7,187.9,80.8,187.5,80.9z M189.1,74.9c-0.2,0.1-0.4,0-0.5-0.2c-0.1-0.2-0.2-0.4-0.1-0.5c0.1-0.1,0.3,0,0.5,0.2
		C189.2,74.7,189.3,74.8,189.1,74.9z M188.6,82.6c-0.6,0.2-0.8,0.2-0.6,0c0.3-0.2,0.7-0.4,1.1-0.3C189.4,82.2,189.2,82.4,188.6,82.6
		z M190.5,74.4c-0.2,0.1-0.3,0-0.3-0.2c0-0.2,0.2-0.2,0.4-0.2C190.7,74.2,190.7,74.3,190.5,74.4z M191.3,81c0.2,0.1,0.1,0.2-0.2,0.3
		c-0.3,0.1-0.4,0-0.3-0.2C190.9,81,191.1,80.9,191.3,81z M191.5,74.1c-0.2,0.1-0.3,0-0.3-0.2c0-0.2,0.2-0.2,0.4-0.2
		C191.7,73.9,191.7,74,191.5,74.1z M193.1,74c-0.3,0.1-0.5,0.1-0.4-0.1c0.1-0.2,0.3-0.3,0.6-0.2C193.5,73.7,193.4,73.9,193.1,74z
		 M194,79.5c-0.2,0.1-0.8,0.5-1.3,0.8c-0.5,0.4-1,0.5-1.1,0.4c-0.1-0.4,2.3-1.9,2.6-1.6C194.3,79.2,194.2,79.4,194,79.5z
		 M194.8,78.6c-0.3,0.1-0.5,0.1-0.4-0.1c0.1-0.2,0.3-0.3,0.6-0.2C195.2,78.3,195.1,78.5,194.8,78.6z M213.5,125.4l-1.7-0.5
		C212.3,124.9,212.9,125.2,213.5,125.4z M235.9,138.1c-2.7-0.9-5.4-1.7-8.1-2C230.6,136.2,233.4,137,235.9,138.1z M248.2,141.4
		c-2.7-1.1-5.4-1.9-8-2.9l-0.9-0.8C242.6,138.1,245.4,140.1,248.2,141.4z M230.1,138.3c0.8,0.2,1.5,0.4,2.3,0.6
		c1.7,0.8,3.4,1.5,5,2.4c-4-1.2-8-2.5-12-3.5c1.4-0.1,2.8,0.1,4.2,0.4l-1.6-0.6c5.4-0.1,11,1.5,16.3,2.3
		C239.4,139.3,234.7,138.8,230.1,138.3z M228.6,154.4c0.5,0.3,1,0.6,1.6,0.8l-2.9-0.2C227.8,154.9,228.3,154.7,228.6,154.4z
		 M234.3,153.5c0.2,0.3,0.4,0.6,0.6,0.9l-1.5-0.5C233.7,153.8,234,153.7,234.3,153.5z M237.3,155.9l2-0.1l-0.7-0.3
		c0.8,0,1.6,0,2.3,0.2c0,0,0,0,0,0l0.4,0c-0.1,0.2-0.3,0.4-0.1,0.7L237.3,155.9z M230.5,184.5c-0.7-0.2-1.6-0.2-2.5,0
		c-0.5,0.1-1.8,0.3-2.8,0.5c-2.4,0.4-2.5,0.5-3.5,0.8c0,0,0,0,0,0c-0.1-0.1-0.1-0.2-0.2-0.2c0.2-0.1,0.4-0.2,0.4-0.2
		c0,0-0.2,0-0.4,0.1c0,0,0,0,0,0c-0.1-0.1-0.2-0.3-0.4-0.4c0.2,0,0.4-0.1,0.5-0.2c0.2-0.1,0.5-0.3,0.9-0.4c0.3-0.1,1.2-0.3,1.9-0.6
		c0.7-0.2,1.6-0.5,2-0.5c0.4-0.1,0.7-0.2,0.8-0.3c0.1-0.1-0.6,0-1.5,0.2c-0.9,0.2-1.6,0.4-1.6,0.4c0,0-0.2,0-0.5,0.1
		c-0.2,0.1-0.3,0.1-0.2,0.1c0.1-0.1-0.1,0-0.4,0.2c-0.3,0.2-0.5,0.3-0.4,0.2c0.1-0.1,0-0.1-0.1,0c-0.4,0.2-1.2,0.5-1.5,0.5
		c0,0,0,0,0,0c-0.6-0.7-0.9-1.5-0.3-3.2c0.4-0.9,4.4-2,4.1-3c-0.4-0.7-1.3-1.6-2.2-2.6c-0.4-0.1-0.7-0.4-1.1-0.6c-0.1,0,0-0.2,0-0.4
		c-0.5-0.4-0.9-0.8-1.4-1.1c0.2-0.6,0.4-1.2,1-1.7c0.5-0.5,0.9-0.7,1.7-0.4c0.1,0.1,0.1,0.2,0.2,0.3c0.2,0.1,0.3,0.1,0.5,0
		c0.3,0.1,0.6,0.2,0.9,0.4c0.3-1,0.1-2.4,0.1-3.4c0,0,0-0.1,0-0.1c1.5,0.8,3,1.6,4.5,2.3l13.4,13.4c-0.1,0-0.2,0-0.3,0
		c-0.3,0-1.5,0-3,0.1l-1.1-1.1c0,0.2-0.1,0.5,0,0.4c0.4,0.2,0.7,0.5,1.1,0.6c-0.5,0-1,0.1-1.6,0.1c-5.4,0.2-14.3,1.6-14.2,1.7
		c0,0-0.4,0-0.8,0.1c-0.1-0.2-0.2-0.3-0.3-0.4c0.6-0.2,1.3-0.3,2-0.4c3.3-0.6,5.2-0.9,6.2-1C230.7,184.6,230.8,184.6,230.5,184.5z
		 M223.9,150.1c0.7,0.2,1.3,0.4,2,0.6c0.1,0,0.2,0.2,0.3,0.5L223.9,150.1z M222.6,190.2c-0.1,0-0.2,0-0.3-0.1c-0.2-0.1-0.6,0-1,0.1
		c0-0.3,0-0.6,0-1c0.2,0.1,0.3,0.2,0.5,0.3c0.1,0.1,0.2,0.2,0.3,0.3l0.2,0.1l-0.1-0.2C222.3,190,222.5,190.1,222.6,190.2z
		 M230.7,197.1c0.2-0.2,0.6-0.3,1.1-0.3c0.1,0,0.2,0,0.3,0c0.4,0.3,0.7,0.5,1.1,0.8C230.9,197.6,230.5,197.4,230.7,197.1z
		 M215.6,197.6L215.6,197.6C215.6,197.6,215.6,197.7,215.6,197.6C215.6,197.7,215.6,197.6,215.6,197.6z M215,192.6
		c-0.2-0.1-0.4-0.3-0.6-0.4c0,0,0,0,0,0c-0.1-0.1-0.2-0.1-0.2-0.2c0.1,0,0.1,0,0.2-0.1c0.9-0.3,2.2-0.6,2.3-0.5c0,0,0.3,0,0.6-0.2
		c0.3-0.1,0.9-0.3,1.4-0.3c0.5,0,1.1-0.1,1.4-0.1c0,0,0,0,0,0c0.5,0.2,0.9,0.4,1.4,0.6c0-0.2,0-0.5,0-0.7c0.1,0,0.2,0,0.3,0
		c0.2,0.1,0.5,0,0.7-0.1c0.1-0.1,0.4-0.1,0.8-0.2c0.5,0.3,0.9,0.6,1.4,1c-0.1,0-0.3,0-0.4,0c-1.2,0.1-2.6,0.2-3.2,0.2
		c-1.5,0.1-2.3,0.4-2.1,0.7c0.1,0.1,0.4,0.1,0.7,0c0.3-0.2,0.6-0.2,0.7-0.1c0,0.1,0.2,0.1,0.5,0c0.2-0.1,0.6-0.1,0.8,0
		c0.3,0.1,0.8,0.2,1.1,0.1c0.4,0,0.9,0.1,1.2,0.3c0.5,0.3,1.5,0.4,1.2,0.1c-0.3-0.3-0.3-0.6,0.1-0.8c0,0,0.1,0,0.1-0.1
		c1.1,0.7,2.1,1.5,3.2,2.2c-1.1,0-2.1,0-3-0.1c-1.4,0-2.3,0-3,0c-0.8-0.4-1.6-0.7-2.4-1.1c0.2,0.1,0.5,0.3,0.7,0.4
		c-0.1,0-0.2,0-0.4,0c-0.2,0-0.4,0.1-0.4,0.2c0,0,0.2,0,0.5,0c0.2,0,0.3-0.1,0.4-0.1c0.3,0.2,0.5,0.4,0.8,0.6
		c-0.3,0-0.4,0.1-0.4,0.1c0,0,0.2,0,0.5,0.1c0.8,0.6,1.5,1.2,2.6,1.3l-0.3-0.6c-0.4-0.2-0.8-0.4-1.2-0.6c1,0.1,2.1,0.1,2.3,0.1
		c0.2,0,0.7,0,1.1,0c0.4,0.1,1.2,0.1,1.8,0c0.3,0,0.5,0,0.7,0c0.7,0.5,1.4,1,2.1,1.5c-0.9,0-1.8,0-2.6-0.1c-0.6-0.2-1.1-0.5-1.6-0.8
		c0.4,0.3,0.9,0.6,1.3,0.8c-0.9,0-1.8,0-2.5,0c-1.1,0-2,0-2,0c0,0-0.5,0-1,0c-0.5,0-1.8,0-2.7,0c-0.1,0-0.2,0-0.3,0
		c-0.8-0.7-1.7-1.4-2.7-2.1l-0.1-0.2c-0.1-0.3,0-0.3,0.3-0.4c0.3,0,0.3-0.2,0.2-0.5c-0.2-0.4-0.5-0.5-1.2-0.3
		C215.6,192.5,215.3,192.5,215,192.6z M219.4,190.5c0,0,0.1,0,0.1,0.1C219.4,190.6,219.4,190.6,219.4,190.5z M215.8,188.2
		c0.1,0.1,0.2,0.1,0.3,0.2c-0.1,0.1-0.3,0.1-0.4,0.2c-0.2,0.1-0.4,0.2-0.6,0.3c0,0,0,0,0,0c0.1-0.1,0.2-0.3,0.3-0.4
		C215.5,188.3,215.6,188.2,215.8,188.2z M215.5,188.2c0-0.1,0.1-0.1,0.1-0.2c0,0,0.1,0.1,0.1,0.1
		C215.6,188.2,215.5,188.2,215.5,188.2z M216,186.7c0-0.1,0-0.2,0-0.2c0.2,0.1,0.4,0.2,0.6,0.3C216.4,186.8,216.2,186.8,216,186.7z
		 M218.9,190.3c-0.2,0-0.3,0-0.6,0.1c-0.6,0.1-1.2,0.3-1.2,0.3c0,0-1.1,0.3-2.5,0.6c-0.4,0.1-0.8,0.2-1.2,0.3
		c-0.2-0.1-0.4-0.3-0.6-0.4c0.2-0.1,0.3-0.1,0.2-0.2c0,0-0.2,0-0.3,0.1c-0.2-0.1-0.3-0.3-0.5-0.4c0.2-0.2,0.4-0.3,0.6-0.5
		c0.4,0.2,0.8,0.3,1.4,0.1c-0.3-0.2-0.5-0.3-0.8-0.5c0.2-0.1,0.5-0.3,0.7-0.5c0,0,0,0,0.1,0c0,0.1,0.2,0,0.5-0.2
		c0.2-0.2,0.9-0.4,1.6-0.6C217.3,189.3,218.1,189.8,218.9,190.3z M208.7,152.8c1.2,0,2.5,0.1,3.8,0.2c0.2,0,0.4,0.2,0.8,0.4
		L208.7,152.8z M211.9,194.2c1.1,0.5,2.1,1.1,3.1,1.8l0-0.1c0,0,0.1,0.1,0.1,0.1c0,0-0.1,0-0.1,0c0,0,0,0-0.1,0c0,0,0,0,0,0
		c-2,0.1-2,0-2.7-1.2C212.1,194.6,212,194.4,211.9,194.2z M204.9,140.2c3.9-0.4,8-0.3,12.2-0.1l9.6,1.5
		C219.4,141,212.1,140.6,204.9,140.2z M208.3,138.2c4.6-0.4,9.6-0.2,14.4,0.5C217.7,138.2,212.9,138,208.3,138.2z M193.3,130.8
		c-0.6-0.9-3.5-0.6-4.7-1.3c4.4-0.2,8-0.2,12.2,0.3c-2.8-0.3-5.7-0.6-8.5-0.8c7.1,0.6,14.9,1.2,22.7,2.5c2.8,0.3,5.6-2,9.4,0.4
		C214.1,131.4,203.6,131.5,193.3,130.8z M197.7,220.9C197.7,220.9,197.7,220.8,197.7,220.9c-0.5-0.6-1.9-2.8-1.8-2.5
		c-0.6-1-1.3-1.9-1.7-2.6c-0.7-1.1-1.2-1.9-1.8-2.7c0.3,0,0.6,0,0.9,0c0.7,0,1.4-0.2,2-0.4c0.7,1.1,1.9,2.8,3.2,4.9
		c0.3,0.4,0.6,0.8,0.9,1.3c-0.3,0.3-0.7,0.7-1.2,1.4C198.1,220.5,197.9,220.7,197.7,220.9z M197,224.5c0.1-0.1,0.2-0.2,0.5-0.3
		c0.4-0.2,0.4-0.3,0.4-0.8c0.5,0.6,0.9,1.3,1.4,1.9c0,0,0,0.1,0,0.2c0,0.1,0.1,0,0.1,0c0.1,0.1,0.2,0.2,0.2,0.3
		c-0.2,0.1-0.8,0-0.9-0.2c-0.1-0.1,0-0.3,0.1-0.4c0.2-0.2,0.1-0.3-0.4-0.8c-0.2-0.2-0.4-0.2-0.5-0.1c-0.1,0.1-0.3,0.3-0.6,0.4
		C197.2,224.5,197.1,224.6,197,224.5C197.1,224.5,197.1,224.5,197,224.5z M184.4,211.7c1.1,0.8,3,0.8,4.3,1.1c0.6,0.2,1.3,0.2,2,0.3
		c0.2,0.3,0.4,0.5,0.6,0.8c0.6,0.9,1.6,2.3,2,2.7c0.2,0.1,1.7,2.6,2.2,3.1c0.4,0.7,1,1.5,1.6,2.3c-0.6,0.9-0.6,1.1,0.2,0.3
		c0.1,0.1,0.2,0.3,0.3,0.4c-0.1,0-0.3,0.1-0.6,0.2c-0.8,0.4-1.1,0.4-0.9-0.1c0.1-0.1-0.1-0.4-0.3-0.6c-0.3-0.2-0.7-0.6-1.2-0.9
		c-0.1,0-0.1-0.1-0.2-0.1c0-0.5-0.9-2.3-0.7-1.6c-0.5-0.6,0,0.7-0.4,0.2c0.1,0.3,0.3,0.6,0.4,0.8c-0.5-0.3-1.2-0.7-3-1.8
		c-0.7-0.4-0.9-0.6-1-0.6c0,0-0.1,0-0.2,0.1c-0.1,0.1-0.2,0.1-0.3-0.1c-0.1-0.2-0.5-0.4-1-0.5c-0.2-0.4-0.5-0.7-0.6-1.2
		c-0.1-0.7,0-1-0.5-1.7c-0.2-0.3-0.5-0.6-0.7-1C185.8,213.2,185.2,212.3,184.4,211.7z M177.6,82.7c-0.2,0.1-0.3,0-0.3-0.2
		c0-0.2,0.2-0.2,0.3-0.2C177.8,82.5,177.8,82.6,177.6,82.7z M181.2,84.8c0.1-0.2,0.3-0.3,0.6-0.2c0.2,0.1,0.2,0.2-0.2,0.3
		C181.3,85,181.1,85,181.2,84.8z M180.4,66.9c0,0,0.1,0,0.1,0C180.5,66.9,180.5,66.9,180.4,66.9C180.5,66.9,180.4,66.9,180.4,66.9z
		 M179.9,85.5c-0.3,0.1-0.5,0.1-0.4-0.1c0.1-0.2,0.3-0.3,0.6-0.2C180.3,85.2,180.2,85.4,179.9,85.5z M177,129.7c0.9-0.1,2,0.1,3,0.2
		L177,129.7z M170.9,82.6c0-0.2,0.2-0.2,0.3-0.2c0.2,0.1,0.2,0.2,0,0.3C171.1,82.9,170.9,82.8,170.9,82.6z M170.3,75.1
		c0-0.1,0.1-0.2,0.3-0.3c0.2-0.1,0.4,0.1,0.5,0.3c0.1,0.2-0.1,0.4-0.3,0.3C170.6,75.3,170.4,75.2,170.3,75.1z M168.8,75.4
		c-0.2,0-0.1-0.2,0.2-0.4c0.3-0.2,0.6-0.2,0.9,0.1c0.3,0.4,0.3,0.5-0.2,0.4C169.3,75.4,168.9,75.4,168.8,75.4z M168.7,274.6
		c0.2,0,0.3,0,0.2,0C168.9,274.7,168.8,274.7,168.7,274.6C168.5,274.7,168.5,274.6,168.7,274.6z M166.7,273.8l0.2-0.3
		c0.1-0.2,0.5-0.4,0.9-0.5l0.7-0.2L168,273c-0.3,0.1-0.7,0.3-0.9,0.5L166.7,273.8z M166,75.1c-0.1-0.3,1.8-0.3,2.1,0
		c0.3,0.3-0.6,0.4-1.6,0.3C166.3,75.3,166,75.2,166,75.1z M159.1,79.6c0-0.4,2.7-0.1,3,0.3c0.1,0.2-0.1,0.3-0.6,0.2
		c-0.4-0.1-1.2-0.2-1.6-0.2C159.4,79.8,159.1,79.7,159.1,79.6z M157.4,74.6c1.5-0.3,8.5,0.2,7.7,0.5c-0.4,0.2-3.7,0.4-4.6,0.3
		c-0.5-0.1-0.5,0-0.3,0.4c0.2,0.4,0.2,0.5,0,0.4c-0.2-0.1-0.8-0.2-1.2-0.2c-0.4,0-1.1-0.1-1.5-0.3C156.4,75.4,156.3,74.8,157.4,74.6
		z M153.8,79.9c-0.4-0.2-0.4-0.2-0.2-0.5c0.1-0.1,0.5-0.1,0.7,0.1c0.4,0.3,0.5,0.4,0.2,0.5C154.3,80.1,154,80,153.8,79.9z
		 M152.8,80.8c0.1-0.2,0.3-0.3,0.5-0.2c0.2,0.1,0.2,0.2-0.1,0.3C152.9,81.1,152.7,81,152.8,80.8z M152.2,78.8c0.1,0,0.3,0.1,0.5,0.4
		c0.2,0.2,0.2,0.5,0,0.5c-0.2,0.1-0.4-0.1-0.5-0.4C152.1,79.1,152.1,78.8,152.2,78.8z M149.1,80.4c0.9,0.1,1.1,0.3,0.3,0.6
		c-0.4,0.1-0.7,0.1-0.8-0.2C148.5,80.5,148.7,80.3,149.1,80.4z M147,80.5c0.1-0.2,0.4-0.1,0.6,0.1c0.5,0.4,0.5,0.4,0.1,0.3
		c-0.2-0.1-0.5-0.1-0.6-0.1C146.9,80.8,146.9,80.7,147,80.5z M145.7,80.5c0-0.2,0.1-0.2,0.3-0.2c0.2,0.1,0.2,0.2,0,0.3
		C145.8,80.8,145.7,80.7,145.7,80.5z M142.9,82.7c0-0.2,0.1-0.3,0.3-0.2c0.2,0.1,0.2,0.2,0,0.3C143.1,82.9,142.9,82.9,142.9,82.7z
		 M140.7,83.1c0.1-0.2,0.4-0.3,0.6-0.3c0.2,0,0.1,0.2-0.2,0.3C140.7,83.3,140.6,83.3,140.7,83.1z M138.4,269.6c0.2,0,0.3,0,0.2,0
		C138.6,269.7,138.5,269.7,138.4,269.6C138.2,269.7,138.2,269.7,138.4,269.6z M133.7,76.9c0,0,0.2,0.1,0.4,0.4
		c0.2,0.2,0.2,0.4,0.1,0.5c-0.1,0-0.3-0.1-0.4-0.4C133.7,77.1,133.7,76.9,133.7,76.9z M124.1,271c0.2,0,0.3,0,0.2,0
		C124.2,271,124.1,271,124.1,271C123.9,271,123.9,271,124.1,271z M122.2,276.8c0.1,0,0.3,0,0.5,0c0.2,0,0.4,0.1,0.3,0.1
		c0,0-0.3,0-0.5,0C122.3,276.9,122.2,276.8,122.2,276.8z M103.2,96.8c0.3,0.4,0.4,0.7,0.4,0.7c-0.1,0.1-0.3-0.1-0.6-0.8
		C102.8,96.3,102.8,96.3,103.2,96.8z M103.3,96.4c-0.2,0.1-0.2,0.1-0.2-0.3c0-0.7,0.2-0.9,0.3-0.3C103.5,96,103.4,96.3,103.3,96.4z
		 M103.6,93.4c-2,2.1-0.4,0.9-1,1.5c0,0.1-0.2,0.1-0.4-0.1c-0.2-0.2-0.2-0.4-0.1-0.5l0.2,0C104.5,92.3,103.1,93.7,103.6,93.4z
		 M108,86c-0.2,0.2-0.4,0.2-0.4,0c0.1-0.2,0.3-0.3,0.4-0.3C108.3,85.6,108.3,85.8,108,86z M108.4,88.6c-0.6,0.7-0.8,0.8-1,0.3
		c-0.3-0.4-0.1-0.8,0.6-1.3C109.1,86.6,109.4,87.4,108.4,88.6z M108.5,97.1c0.1-0.1,0.3-0.1,0.4-0.1c0.1,0.1,0.1,0.3,0.1,0.5
		c0,0.2-0.2,0.2-0.4,0.1C108.4,97.4,108.4,97.2,108.5,97.1z M110,87.7c-0.1,0-0.2-0.1-0.4-0.3c-0.2-0.2-0.2-0.4-0.2-0.5
		c0.1,0,0.2,0.1,0.4,0.3C110,87.4,110,87.7,110,87.7z M110.2,93.2c0.2,0.1,0.2,0.2,0.1,0.3c-0.1,0.1-0.2,0.1-0.3-0.1
		C109.9,93.3,110,93.2,110.2,93.2z M112.1,86.3c0.2-0.1,0.4,0,0.5,0.2c0.2,0.3-0.9,0.6-2.1,0.5c-0.4,0-0.4-0.2,0-1
		c0.5-1,1.2-1,1.3,0.1C111.8,86.4,111.9,86.4,112.1,86.3z M113.1,95.8c0.2,0.4,0.1,0.4-0.1,0.1c-0.2-0.3-0.5-0.4-0.6-0.4
		c-0.1,0.1-0.2,0-0.1-0.3C112.4,94.8,112.8,95.1,113.1,95.8z M112.8,92.9c-0.1,0.1-0.2,0.1-0.3-0.1c-0.1-0.2,0-0.2,0.2-0.2
		C112.9,92.6,112.9,92.7,112.8,92.9z M112.6,85.1c0.2,0.1,0.1,0.2,0,0.3c-0.2,0.1-0.3,0.1-0.3-0.1C112.3,85.1,112.4,85,112.6,85.1z
		 M112.9,83.1c-0.2,0.3-0.4,0.3-0.5-0.2c-0.1-0.3,0-0.6,0.3-0.5C113.3,82.5,113.3,82.6,112.9,83.1z M114,82.4c-0.1,0-0.2,0-0.2-0.1
		c-0.1-0.1-0.1-0.3-0.1-0.5c0-0.2,0.1-0.1,0.2,0.1C114.1,82.1,114.1,82.3,114,82.4z M113.7,84.6c-0.5,0.3-0.7,0.3-0.6,0.1
		c0.2-0.2,0.5-0.4,0.8-0.5C114.3,84.2,114.2,84.4,113.7,84.6z M114.2,86c-0.3,0-0.7,0.3-0.7,0.7c-0.1,0.5-0.2,0.5-0.4,0.1
		c-0.4-0.7,0.9-1.8,1.4-1.2C114.7,85.8,114.6,85.9,114.2,86z M115.6,85.9c-0.2,0.1-0.3,0.1-0.3-0.1c0-0.2,0.2-0.3,0.3-0.2
		C115.8,85.6,115.8,85.8,115.6,85.9z M116.2,83.3c-0.2,0.1-0.4,0.1-0.4-0.1c0-0.2,0.2-0.3,0.4-0.2C116.5,83,116.4,83.2,116.2,83.3z
		 M130.6,78.8c-0.1-0.2,0-0.3,0.3-0.3c0.2,0,0.5,0.2,0.6,0.4c0.1,0.2,0,0.3-0.3,0.3C130.9,79.2,130.7,79,130.6,78.8z M129.8,268.2
		c0,0,0.3-0.1,0.5-0.1c0.2,0,0.4,0,0.4,0c0,0-0.3,0.1-0.5,0.1C129.9,268.2,129.8,268.2,129.8,268.2z M129.5,267.9c0.3,0,0.4,0,0.4,0
		c0,0,0,0.1,0,0.1c0.1,0.1,0,0.1-0.3,0.1C129,268.1,128.9,268,129.5,267.9z M127.6,100.6c0.1,0,0.3,0.3,0.6,0.8
		c0.2,0.5,0.3,0.8,0.2,0.7c-0.1-0.1-0.4-0.5-0.6-0.8C127.6,100.9,127.5,100.6,127.6,100.6z M123.1,91.1c0-0.2,0.4-0.1,0.8,0.1
		c0.7,0.3,0.7,0.4,0.5,0.6c-0.2,0.1-0.2,0.5-0.1,0.9c0.2,0.5,0.1,0.6-0.2,0.3C123.6,92.5,123.1,91.6,123.1,91.1z M123.5,89.2
		c0.4,0.3,0.8,0.5,1,0.5c0.2-0.1,0.3,0,0.1,0.2c-0.1,0.2-0.4,0.2-0.7,0c-0.3-0.1-0.7-0.5-0.8-0.8C122.9,88.9,123.1,88.9,123.5,89.2z
		 M123,85.8l0.8,0l-0.7-1.1c-0.6-0.9-0.7-1.1-0.4-1.2c0.2-0.1,0.7,0.3,1.3,0.8c1.2,1.2,2.1,1.6,2.3,1.1c0.5-0.4-0.5,0.3,1.8-0.3
		c0.4,0.3,1,0.4,1.3,0.3c0.5-0.2,0.6-0.2,0.5,0.3c-0.5,0.5,0.3,0.1-2.6,1.2c-0.8,0.1-1.9,0.1-2.8-0.2c-0.6-0.1-1.3-0.3-1.6-0.3
		C122.1,86.3,122.2,85.9,123,85.8z M121,87.3l0.3-0.3c0.2-0.2,0.3-0.5,0.1-0.7c-0.4-0.8,0.2-0.6,0.7,0.2c0.5,0.9,0.3,1.3-0.7,1
		L121,87.3z M120.3,84.5c-0.1-0.2,0-0.4,0.3-0.6c0.3-0.1,0.3-0.4,0.2-0.6c-0.2-0.2-0.2-0.4-0.1-0.5c0.1-0.1,0.4,0.2,0.5,0.5
		c0.2,0.4,0.1,0.8-0.2,1.1C120.7,84.6,120.4,84.7,120.3,84.5z M120.7,269.3c0.1,0.1,0,0.1-0.5,0c-0.3,0-0.6,0-0.5-0.1
		C119.7,269.2,120.6,269.2,120.7,269.3z M119.7,94.9c-0.1,0-0.2,0-0.2-0.1c-0.1-0.1-0.1-0.3-0.1-0.5c0-0.2,0.1-0.1,0.2,0.1
		C119.7,94.6,119.7,94.8,119.7,94.9z M118,270.1c0.3,0,0.8,0,1.8,0.2c0.5,0.1,1.1,0.2,1.3,0.2c0.2,0,0.5,0.1,0.7,0.2
		c0.2,0.1,0.6,0.2,0.8,0.3c0.3,0.1,0.5,0.2,0.5,0.2l0,0.1l-0.4-0.1c-1-0.2-1.8-0.4-2.1-0.5c-0.3-0.1-0.4-0.1-0.8-0.1
		c-0.3,0.1-0.3,0,0,0c0.3-0.1,0.3-0.1-0.1,0c-0.4,0.1-0.5,0.1-0.5,0c0.2-0.1,0.1-0.2-0.7-0.4C118.1,270.2,117.9,270.1,118,270.1z
		 M114.5,95.9c0.1,0.2,0.1,0.3-0.1,0.2c-0.2-0.1-0.4-0.3-0.5-0.5C113.7,95.1,114.1,95.3,114.5,95.9z M114,90.8
		c0.2-0.3,0.6-1,0.9-1.6c0.3-0.5,1-1.1,1.5-1.3c2.5-0.9,4-1.1,4.2-0.9c0.1,0.3-6.6,4.7-6.8,4.5C113.8,91.5,113.8,91.2,114,90.8z
		 M113.5,92.4c-0.3,0.2-0.4,0.1-0.5-0.3c-0.1-0.7,0.4-1,0.6-0.4C113.7,92,113.7,92.3,113.5,92.4z M113.5,96.9
		c-0.1,0.1-0.3,0-0.4-0.2c-0.1-0.2-0.2-0.4-0.1-0.4c0.1-0.1,0.3,0,0.4,0.2C113.5,96.7,113.6,96.9,113.5,96.9z M107.9,104.6
		c0.2,0.1,0.2,0.2,0.2,0.2c0,0.1-0.1,0-0.2-0.1C107.7,104.6,107.7,104.5,107.9,104.6z M107.9,103.4c0.1-0.3,0.2-0.7,0.4-1.1l0.3-0.7
		l0-0.1l0,0l0,0c3.1-2.9,0.9-0.8,1.6-1.5l0,0l0,0l0,0l0,0l0.1-0.2l0.2-0.4c0.4-1.1,0.7-2.2,0.7-2.3c-0.1-0.2,0.2-0.2,0.5,0
		c0.5,0.2,0.5,0.2,0.3-0.4c-0.2-0.4-0.3-0.8-0.2-0.8c0.1-0.1,0.2,0.1,0.3,0.4c0.1,0.5,0.2,0.5,0.5,0.5c0.3-0.1,0.7,0.5,0.5,0.6
		c-0.2,0.2-0.1,0.2,0.2,0.5c0.3,0.2,0.3,0.3,0,0.2c-0.7-0.1-1.7,0.6-2,1.5c-0.1,0.2-0.3,0.6-0.4,1l-0.1,0.1l0,0l0,0v0v0c0,0,0,0,0,0
		l0,0c-0.2,0.2-2.9,2.7-1.6,1.5l0,0l0,0l0,0l0,0.1l-0.1,0.3l-0.2,0.5c-0.3,0.6-0.4,1.3-0.4,1.5c0,0.3-0.1,0.3-0.3,0.1
		C107.7,104.3,107.6,103.8,107.9,103.4z M106.3,89.6c-0.2-1-0.7-0.9-1.8,0.3c-0.6,0.8-1.1,1.2-1.2,1.1c-0.1-0.3-0.1-0.7,1.3-2.7
		c0.4-0.7,0.7-1.4,0.6-1.7c-0.3-0.7,0.2-1,0.6-0.5c0.2,0.2,0.2,0.5,0.1,0.6c-0.1,0.1,0.1,0.2,0.5,0.1l0.7-0.1l-0.4,0.5
		c-0.5,0.5-0.7,0.9-0.9,1.2c-0.1,0.2,1.7,2.5,1.8,2.4c0.1-0.1,0-0.3-0.2-0.5c-0.2-0.2-0.2-0.3,0-0.2c0.2,0.1,0.4,0.4,0.5,0.9
		c0.3,0.9,0.2,0.9-0.8,0C106.7,90.2,106.3,89.7,106.3,89.6z M105.8,91.8c0,0.4-0.2,0.4-0.5,0c-0.3-0.3-0.4-0.7-0.2-1
		C105.5,90,106,90.8,105.8,91.8z M105.5,89.7c0-0.2,0.1-0.2,0.2,0.1c0.1,0.2,0.2,0.5,0.1,0.5C105.7,90.4,105.5,90.1,105.5,89.7z
		 M106.6,95.9c0,0.3,0,0.3-0.3-0.1c-0.2-0.3-0.3-0.8-0.3-1.1c0-0.5,0.1-0.5,0.5-0.1c0.3,0.3,0.4,0.6,0.2,0.7
		C106.7,95.4,106.6,95.7,106.6,95.9z M105.1,102.8c0.7,0.9,0.8,0.3,1.2-1.7c0-0.5,0.3-0.8,0.3-0.7c0.2,0.1,0.1,1.6-0.1,2.3
		c-0.1,0.3,0,0.9,0.1,1.4c0.1,0.5,0.4,0.8,0.3,0.8c-0.1,0.1-0.6-0.4-1.3-1.2C104.9,102.8,104.9,102.4,105.1,102.8z M105,92.4
		c-0.3-0.2-0.5-0.2-0.5,0.1c-0.1,0.4-0.2,0.4-0.4,0c-0.2-0.3-0.2-0.6,0-0.8c0.3-0.3,0.4-0.2,0.9,0.3C105.2,92.5,105.3,92.7,105,92.4
		z M104.8,93.8c-0.1,0.1-0.2,0.1-0.3-0.1c-0.1-0.1,0-0.2,0.2-0.2C104.8,93.5,104.9,93.6,104.8,93.8z M103.2,102.3
		c0.6,0.3,0.8,0.5,0.9,0.9c0.3,0.3-0.3-0.1-1-0.6C102.9,102.3,102.9,102.2,103.2,102.3z M103.5,101.1c0.7,0.8,0.8,0.9,0.3,0.7
		c-0.4-0.1-0.8-0.5-0.9-1C102.9,100.4,102.9,100.4,103.5,101.1z"/>
	<path class="st0" d="M120.5,291.6C120.5,291.6,120.5,291.6,120.5,291.6C120.5,291.6,120.5,291.6,120.5,291.6z"/>
	<path class="st0" d="M350.5,96c0.4,0.2,0.6,0.4,0.7,0.4c0.1,0.1,0.1,0.3,0.1,0.4c-0.7-0.1-1.5-0.3-2.3-0.7
		C349.5,96.1,350,96.1,350.5,96z"/>
	<path class="st0" d="M330.6,91.1C330.6,91.1,330.6,91.1,330.6,91.1c-0.7,0.1-1.3,0.1-1.9,0.1C329.3,91.1,330,91.1,330.6,91.1z"/>
	<path class="st0" d="M292,119.4l4.6,0.6c-3.8-0.5-8.1-0.8-12.3-1.6c-1.5-0.2-3.1,2.3-5.1,0.2c5.6-0.4,11.3-1,17-0.4
		c0.3,0.9,1.9,0.5,2.5,1.2C296.3,119.7,294.3,119.7,292,119.4z"/>
	<path class="st0" d="M303.4,118.9l1.7,0.2C304.5,119.1,303.9,119,303.4,118.9z"/>
	<path class="st0" d="M228.5,204.6l2,1.7c-1.7-1.4-3.6-2.7-5.3-4.5c-0.7-0.6-2.8,1.2-2.8-1.1c3.1,1,6.2,2.1,8.8,3.9
		c-0.3,0.8,0.7,0.9,0.6,1.6C230.5,205.9,229.5,205.4,228.5,204.6z"/>
	<path class="st0" d="M234.6,207l0.7,0.6C235,207.5,234.8,207.3,234.6,207z"/>
	<path class="st0" d="M222.1,174.5L222.1,174.5l5,3.2c-0.5,0-1,0.1-1.6,0.4C225.8,176.1,223.3,175.7,222.1,174.5z"/>
	<path class="st0" d="M229.6,179.2l1.1,0.6l-1.5,0C229.3,179.6,229.5,179.4,229.6,179.2z"/>
	<path class="st0" d="M233,181.6c0-0.3-0.1-0.5-0.2-0.8l0.9,0.4C233.5,181.2,233.3,181.4,233,181.6z"/>
	<path class="st0" d="M360.5,61.1c-0.2-0.1-0.2-0.2,0-0.3c0.1-0.1,0.4-0.1,0.6,0c0.1,0.1,0.1,0.3,0,0.3
		C360.9,61.2,360.7,61.2,360.5,61.1z"/>
	<path class="st0" d="M244.1,169c0.3,0.2,0.7,0.5,1,0.7C244.8,169.5,244.3,169.2,244.1,169z"/>
	<path class="st0" d="M245.1,169.7c0.1,0.1,0.2,0.2,0.3,0.2C245.3,169.9,245.2,169.8,245.1,169.7z"/>
	<path class="st0" d="M222.2,185.3c0.5-0.3,2.9-0.9,2.7-0.7c-0.1,0.1-2.2,0.6-2.9,0.8C221.9,185.4,221.9,185.4,222.2,185.3z"/>
	<path class="st0" d="M213.3,191.1c0,0,0.3-0.2,0.6-0.3c0.8-0.3,0.8-0.3,0,0.1C213.6,191,213.4,191.2,213.3,191.1z"/>
	<path class="st0" d="M228.3,182.9c-0.2,0.1-0.4,0.1-0.5,0.1c0-0.1,0-0.1,0.4-0.2C228.7,182.6,228.8,182.7,228.3,182.9z"/>
	<path class="st0" d="M225.8,184.5c-0.4,0.1-0.7,0.1-0.7,0.1c0,0,0.3-0.1,0.6-0.2c0.4-0.1,0.7-0.1,0.7-0.1
		C226.4,184.3,226.2,184.4,225.8,184.5z"/>
	<path class="st0" d="M228.8,182.8c0-0.1,0.1-0.1,0.3-0.1c0.1,0,0.4,0,0.6-0.1c0.4-0.2,1.5-0.2,1.3-0.1
		C230.7,182.7,228.8,183,228.8,182.8z"/>
	<path class="st0" d="M228.2,184.1c-0.6,0.1-1.2,0.2-1.2,0.2c0-0.1,1.7-0.4,2-0.4C229.2,183.8,228.8,183.9,228.2,184.1z"/>
	<path class="st0" d="M232,182.2c0.6-0.1,0.6-0.1,0.1,0.2c-0.2,0.1-0.4,0.1-0.5,0.1C231.6,182.3,231.6,182.3,232,182.2z"/>
	<path class="st0" d="M225.1,187.3c0,0,0.2-0.1,0.4-0.2c0.2-0.1,0.5-0.1,0.5,0c0,0-0.2,0.1-0.4,0.2
		C225.3,187.3,225.1,187.3,225.1,187.3z"/>
	<path class="st0" d="M226.7,186.9c0.4-0.1,0.7-0.2,0.7-0.1c0,0.1-0.2,0.1-0.8,0.2C226,187.1,226,187.1,226.7,186.9z"/>
	<path class="st0" d="M227.5,187c-0.1-0.1,0.2-0.2,0.6-0.2c0.2,0,0.1,0.1-0.1,0.2C227.7,187,227.5,187.1,227.5,187z"/>
	<path class="st0" d="M222.7,193.4c0.2-0.1,0.5-0.1,0.5,0.1c0.1,0.3-0.1,0.3-0.6,0.2C222.4,193.6,222.4,193.5,222.7,193.4z"/>
	<path class="st0" d="M230.6,191.7c-0.4,0.2-2.8,0.3-3.4,0.2c-0.7-0.1,0.5-0.5,1.8-0.5C230.5,191.3,231.1,191.4,230.6,191.7z"/>
	<path class="st0" d="M231.1,190c0.6-0.2,1.9-0.3,1.7-0.1c-0.1,0.1-0.4,0.2-0.7,0.2c-0.3,0-0.7,0.2-0.9,0.3c-0.4,0.3-1,0.3-0.7,0
		C230.6,190.2,230.9,190.1,231.1,190z"/>
	<path class="st0" d="M249.7,181.6c-0.8,0-1.6,0-1.7,0c-0.1,0,0-0.1,0.3-0.2c0.2-0.1,0.6-0.1,0.8,0c0.2,0.1,0.7,0,1-0.1
		c0.3-0.1,0.7-0.1,0.7,0c0,0.1,0.3,0.1,0.6,0.1c0.3,0,0.4,0,0.2,0.1C251.3,181.6,250.5,181.7,249.7,181.6z"/>
	<path class="st0" d="M232.3,190.4c0,0.1-0.2,0.1-0.4,0.2c-0.3,0-0.5,0-0.5,0c0,0,0.2-0.1,0.4-0.2
		C232,190.3,232.2,190.3,232.3,190.4z"/>
	<path class="st0" d="M251.2,182.2c0.1,0.1-1.6,0.3-2.1,0.1c-0.2,0,0.2-0.1,0.9-0.2C250.6,182.1,251.2,182.1,251.2,182.2z"/>
	<path class="st0" d="M233.2,191.7c-0.1,0.1-0.4,0.1-0.7,0.1c-0.3,0-0.8,0-1,0c-0.3,0-0.3,0-0.1-0.2
		C231.8,191.4,233.5,191.4,233.2,191.7z"/>
	<path class="st0" d="M238.4,190.2c1.5-0.1,1.8,0.1,0.5,0.2c-1.3,0.2-4.1,0.2-4.1,0c0-0.1,0.1-0.2,0.4-0.4c0.2-0.1,0.4-0.1,0.3,0
		C235.4,190.3,236,190.3,238.4,190.2z"/>
	<path class="st0" d="M252.5,181.4c-0.3,0.2-0.6,0.2-0.6,0.2c0-0.1,0.1-0.2,0.3-0.3c0.2-0.1,0.5-0.2,0.6-0.2
		C253,181.1,252.9,181.2,252.5,181.4z"/>
	<path class="st0" d="M190.1,214.4c-0.1,0.2-0.2,0.2-0.3,0.1c-0.1-0.1,0-0.2,0.1-0.2C190.1,214.1,190.2,214.2,190.1,214.4z"/>
	<path class="st0" d="M219.3,199.3c-0.1-0.1,0-0.2,0.1-0.2c0.1,0,0.2,0,0.1,0.2C219.5,199.4,219.3,199.4,219.3,199.3z"/>
	<path class="st0" d="M254,181.3c-0.3,0-0.2,0,0.2-0.2c0.3-0.1,0.5-0.1,0.3,0C254.5,181.2,254.2,181.3,254,181.3z"/>
	<path class="st0" d="M257,180.6c0.6-0.3,0.5-0.2-0.2,0.2c-0.3,0.2-0.5,0.3-0.4,0.2C256.5,180.9,256.8,180.7,257,180.6z"/>
	<path class="st0" d="M258.3,180.7c0.7-0.3,0.9-0.2,0.2,0.2c-0.3,0.1-0.4,0.2-0.2,0.1c0.1-0.1-0.1-0.1-0.4,0c-0.3,0.1-0.7,0.1-0.7,0
		l-0.1-0.2l0.3,0.1C257.6,180.9,258,180.9,258.3,180.7z"/>
	<path class="st0" d="M235.4,193.4c0,0.1,0,0.1-0.1,0.2c-0.1,0.1-0.3,0.1-0.5,0.1c-0.2,0-0.1-0.1,0.1-0.2
		C235.1,193.4,235.3,193.4,235.4,193.4z"/>
	<path class="st0" d="M236.9,193.5c0,0.1-0.3,0.1-0.6,0.2c-0.4,0-0.7,0-0.7,0c0-0.1,0.3-0.1,0.6-0.2
		C236.6,193.4,236.9,193.5,236.9,193.5z"/>
	<path class="st0" d="M260.1,180.5c1-0.3,1.3-0.4,1-0.2c-0.3,0.2-0.3,0.3,0,0.2c0.6-0.1,0.6,0,0.1,0.2c-0.2,0.1-0.4,0.2-0.5,0.1
		c0-0.1-0.2,0-0.4,0.1c-0.4,0.2-1.4,0.3-1.5,0.1C258.7,181,259.2,180.8,260.1,180.5z"/>
	<path class="st0" d="M223.5,200.2c0.3-0.2,2.4,0,2.2,0.1c-0.1,0.1-2.3,0.1-2.4,0C223.4,200.3,223.4,200.3,223.5,200.2z"/>
	<path class="st0" d="M217.9,204.4c-0.1-0.1,0-0.2,0.1-0.3c0.2,0,0.2,0.1,0.2,0.2C218.1,204.5,218,204.5,217.9,204.4z"/>
	<path class="st0" d="M192.7,218.4c0.2,0,0.2,0.2,0.2,0.3c-0.1,0.2-0.2,0.1-0.3-0.1C192.5,218.5,192.6,218.3,192.7,218.4z"/>
	<path class="st0" d="M237.9,193.6c-0.1,0.1-0.4,0.2-0.6,0.2c-0.3,0-0.2-0.1,0.2-0.2C237.9,193.5,238,193.5,237.9,193.6z"/>
	<path class="st0" d="M262.4,180.3c0-0.1,0-0.2,0.1-0.2c0.1,0,0.3-0.1,0.4-0.1c0.2,0,0.1,0.1-0.1,0.2
		C262.6,180.3,262.4,180.3,262.4,180.3z"/>
	<path class="st0" d="M216.8,205.9c-0.1-0.2-0.1-0.3,0.1-0.3c0.1,0,0.2,0.2,0.2,0.3C217,206.1,216.9,206.1,216.8,205.9z"/>
	<path class="st0" d="M263,180.2c0.1-0.1,0.3-0.1,0.5-0.2c0.2,0,0.1,0-0.1,0.2c-0.2,0.1-0.4,0.2-0.5,0.2
		C262.9,180.3,262.9,180.2,263,180.2z"/>
	<path class="st0" d="M264.6,179.8c0.7,0.2,1.7-0.1,1.5,0.2c-0.2,0.2-1.1,0.3-1.5,0.2C264.3,179.8,264.5,179.9,264.6,179.8z"/>
	<path class="st0" d="M261.7,181.9c0,0,0.2-0.1,0.4-0.2c0.2-0.1,0.5-0.1,0.5,0c0,0-0.2,0.1-0.4,0.2
		C262,181.9,261.8,181.9,261.7,181.9z"/>
	<path class="st0" d="M262.4,182.1c0.1,0.1-0.2,0.3-0.8,0.3c-0.5,0-0.5,0,0.1-0.2C262.1,182.1,262.4,182.1,262.4,182.1z"/>
	<path class="st0" d="M266.5,179.8c0.1-0.1,0.3-0.1,0.4-0.2c0.2,0,0.1,0-0.1,0.2c-0.2,0.1-0.4,0.2-0.4,0.2
		C266.3,180,266.4,179.9,266.5,179.8z"/>
	<path class="st0" d="M264.4,181.9c0.2-0.1,0.4-0.1,0.5-0.1c0,0-0.2,0.1-0.4,0.2c-0.2,0.1-0.4,0.1-0.5,0.1
		C263.9,182.1,264.1,182,264.4,181.9z"/>
	<path class="st0" d="M242.8,194.7c-0.1-0.2,0.8-0.4,1.4-0.3c0.4,0,1.3,0,2.1-0.1c0.8-0.1,1.4-0.1,1.3,0
		C247.5,194.4,242.9,194.8,242.8,194.7z"/>
	<path class="st0" d="M253.2,189.1c-0.4,0-0.8,0-0.8,0c0-0.1,3.8-0.6,5.5-0.8c2.2-0.3,3.2-0.5,2.8-0.3c-0.2,0.1-1.2,0.3-2.2,0.4
		c-2.8,0.4-4.2,0.5-4.7,0.8c-0.3,0.1-0.3,0.1-0.2,0C253.9,189.1,253.7,189,253.2,189.1z"/>
	<path class="st0" d="M213.1,215.4c-0.2-0.3-0.1-0.4,0-0.3c0.2,0.1,0.3,0.3,0.3,0.5C213.4,215.8,213.2,215.7,213.1,215.4z"/>
	<path class="st0" d="M265,183.8c0.2-0.1,0.4-0.2,0.4-0.1c0,0.1,0,0.1-0.1,0.2c-0.1,0.1-0.3,0.1-0.4,0.1
		C264.8,184.1,264.8,184,265,183.8z"/>
	<path class="st0" d="M254.1,191.3c0.2,0,0.1,0-0.1,0.2c-0.2,0.1-0.4,0.2-0.5,0.2c0,0,0-0.1,0.1-0.2
		C253.8,191.5,254,191.4,254.1,191.3z"/>
	<path class="st0" d="M223.4,212.9c0,0.2-0.1,0.1-0.4-0.2c-0.2-0.4-0.3-0.6-0.1-0.4C223.2,212.3,223.4,212.6,223.4,212.9z"/>
	<path class="st0" d="M216.3,217.5c0.2,0.1,0.3,0.3,0.3,0.5c0,0.2-0.2,0.1-0.3-0.1C216.1,217.6,216.1,217.5,216.3,217.5z"/>
	<path class="st0" d="M216.1,219.2c-0.2-0.4-0.3-0.6-0.1-0.5c0.2,0.1,0.4,0.4,0.4,0.7C216.5,219.6,216.3,219.6,216.1,219.2z"/>
	<path class="st0" d="M216.9,218.9c-0.2-0.2-0.2-0.4,0-0.3c0.2,0.1,0.3,0.3,0.3,0.5C217.3,219.2,217.1,219.2,216.9,218.9z"/>
	<path class="st0" d="M265.3,187.1c-0.2,0.2-2.1,0.6-2.1,0.5c0-0.1,0.5-0.2,1.1-0.4C265,187,265.4,187,265.3,187.1z"/>
	<path class="st0" d="M250.6,196.4c0.2,0,0.7-0.1,1.2-0.2c0.5-0.1,0.8-0.1,0.7,0c-0.3,0.2-2.1,0.5-2.2,0.4
		C250.3,196.5,250.4,196.4,250.6,196.4z"/>
	<path class="st0" d="M257.6,192.6c-0.2,0.2-1,0.5-1,0.4c0,0,0.2-0.2,0.6-0.3C257.5,192.6,257.7,192.5,257.6,192.6z"/>
	<path class="st0" d="M263.6,188.3c-0.1,0.1-0.3,0.2-0.5,0.2c-0.3,0-0.2,0,0.2-0.2C263.5,188.2,263.7,188.2,263.6,188.3z"/>
	<path class="st0" d="M265.6,187.1c0,0,0.1-0.1,0.4-0.2c0.2-0.1,0.4-0.1,0.5-0.1c0,0-0.1,0.1-0.4,0.2
		C265.8,187.1,265.6,187.1,265.6,187.1z"/>
	<path class="st0" d="M240.2,206.3c0,0,0.3-0.1,0.6-0.3c0.4-0.1,0.7-0.1,0.8-0.1c0.1,0.1-0.2,0.2-0.6,0.3
		C240.6,206.3,240.2,206.3,240.2,206.3z"/>
	<path class="st0" d="M224.2,218.5c0,0.1-0.1,0.3-0.2,0.4c-0.2,0.2-0.4,0.3-0.4,0.2c-0.1-0.1,0-0.3,0.2-0.4
		C224,218.5,224.2,218.5,224.2,218.5z"/>
	<path class="st0" d="M276.4,180.6c0,0,0.1-0.1,0.4-0.2c0.2-0.1,0.4-0.2,0.4-0.1c0,0-0.1,0.1-0.4,0.2
		C276.6,180.6,276.4,180.6,276.4,180.6z"/>
	<path class="st0" d="M270.4,185.3c0,0,0.2-0.1,0.4-0.3c0.4-0.3,1.1-0.5,1.6-0.5c0.2,0-0.1,0.1-0.8,0.4
		C270.9,185.2,270.4,185.3,270.4,185.3z"/>
	<path class="st0" d="M220.7,224.1c-0.2-0.2-0.2-0.4,0-0.3c0.2,0,0.3,0.2,0.3,0.4C221,224.4,220.9,224.4,220.7,224.1z"/>
	<path class="st0" d="M260.5,194.1c-0.1,0.1-0.4,0.2-0.7,0.3c-0.3,0.1-0.4,0.1-0.3,0c0.1-0.1,0.4-0.2,0.7-0.3
		C260.5,194.1,260.6,194,260.5,194.1z"/>
	<path class="st0" d="M221.9,225.6c-0.4-0.4-0.4-0.7-0.2-0.5c0.2,0.2,0.5,0.5,0.6,0.8C222.5,226.2,222.3,226,221.9,225.6z"/>
	<path class="st0" d="M267.3,190.7c-0.4,0.2-2.9,1.2-3.6,1.3c-0.1,0,0,0,0.2-0.2C264.6,191.5,267.8,190.4,267.3,190.7z"/>
	<path class="st0" d="M272.9,185.6c0,0,0.2-0.2,0.6-0.3c0.3-0.1,0.6-0.2,0.7-0.2c0,0-0.2,0.2-0.6,0.3
		C273.2,185.5,272.9,185.6,272.9,185.6z"/>
	<path class="st0" d="M223,226.6c0.2,0.1,0.5,0.5,0.6,0.7c0.1,0.3-0.1,0.2-0.4-0.3C222.8,226.7,222.7,226.5,223,226.6z"/>
	<path class="st0" d="M277.8,183c0.3-0.2,0.4-0.2,0.3-0.1c-0.1,0.1-0.3,0.2-0.5,0.3C277.3,183.3,277.4,183.3,277.8,183z"/>
	<path class="st0" d="M279.8,182.8c0,0,0,0.1-0.1,0.2c-0.1,0.1-0.3,0.2-0.4,0.3c-0.1,0.1-0.1,0,0.1-0.2
		C279.6,182.9,279.8,182.8,279.8,182.8z"/>
	<path class="st0" d="M241.9,218.1c0,0.2-0.1,0.4-0.1,0.4c-0.1,0.1-0.2,0-0.3-0.1c-0.1-0.1,0-0.3,0.1-0.4
		C241.8,217.9,241.9,217.9,241.9,218.1z"/>
	<path class="st0" d="M280,185.8c-1,0.5-2.1,0.9-2.2,0.9c-0.1-0.1,0.1-0.2,1.9-1.1C279.9,185.6,279.9,185.7,280,185.8
		C280,185.8,280,185.8,280,185.8z"/>
	<path class="st0" d="M282.2,184.7c-0.1,0-0.2-0.1-0.3-0.1c0.2-0.1,0.3-0.2,0.5-0.3c0.1,0,0.1,0,0.1-0.1c0.1,0.1,0.1,0.1,0.2,0.2
		C282.5,184.4,282.3,184.5,282.2,184.7z"/>
	<path class="st0" d="M225.9,233.6c0.1-0.1,0.2,0,0.2,0.2c0,0.2-0.1,0.2-0.3,0.1C225.7,233.8,225.7,233.6,225.9,233.6z"/>
	<path class="st0" d="M217.5,242.6c-0.1-0.2-0.1-0.3,0-0.3c0.2,0,0.3,0.1,0.2,0.3C217.8,242.8,217.6,242.8,217.5,242.6z"/>
	<path class="st0" d="M217.6,243.5c-0.2,0.2-0.3,0.2-0.2,0c0.1-0.2,0.2-0.4,0.3-0.4c0.1-0.1,0.2-0.1,0.2,0
		C217.9,243.2,217.8,243.4,217.6,243.5z"/>
	<path class="st0" d="M222.8,244.4c0,0-0.1,0.2-0.2,0.4c-0.1,0.2-0.3,0.3-0.4,0.3c-0.1-0.1,0.1-0.2,0.2-0.4
		C222.6,244.5,222.7,244.4,222.8,244.4z"/>
	<path class="st0" d="M237.9,231.8c-0.1-0.1-0.1-0.2,0.1-0.3c0.1-0.1,0.2,0,0.2,0.1C238.1,231.8,238,231.8,237.9,231.8z"/>
	<path class="st0" d="M250.4,222.8c-1,0.7-1.9,1.5-2.1,1.8c-0.5,0.6-0.8,0.7-0.5,0.2c0.3-0.4,0.7-0.8,2.1-1.8
		C252,221.5,252.2,221.5,250.4,222.8z"/>
	<path class="st0" d="M228.8,244.8c-0.2,0.2-0.4,0.3-0.4,0.2c0,0,0.1-0.2,0.2-0.4c0.2-0.2,0.4-0.3,0.4-0.2
		C229,244.5,228.9,244.7,228.8,244.8z"/>
	<path class="st0" d="M234.9,245.7c0.1-0.1,0.1,0.1,0,0.3c-0.2,0.2-0.3,0.3-0.4,0.3C234.4,246,234.5,245.8,234.9,245.7z"/>
	<path class="st0" d="M233.7,247c0.3-0.2,0.6-0.4,0.6-0.3c0.1,0.1-0.1,0.3-0.4,0.5c-0.3,0.2-0.6,0.4-0.6,0.3
		C233.2,247.4,233.4,247.2,233.7,247z"/>
	<path class="st0" d="M132.4,295.8c-0.1,0-0.2,0-0.4-0.1c0,0,0,0,0.1-0.1c0.1,0,0.2-0.1,0.2-0.1c0.1,0,0.1,0,0.2,0
		C132.5,295.6,132.5,295.7,132.4,295.8z"/>
	<path class="st0" d="M132.4,296.4c0.1,0,0.1,0.1,0.1,0.1c0,0,0,0.1,0,0.1c0,0,0,0,0,0c0,0,0,0-0.1,0c0,0-0.1,0-0.1,0
		C132.3,296.4,132.3,296.4,132.4,296.4z"/>
	<path class="st0" d="M132.5,296.6c0,0.1-0.1,0.1-0.1,0c0,0,0,0,0,0C132.4,296.6,132.4,296.6,132.5,296.6
		C132.5,296.6,132.5,296.6,132.5,296.6z"/>
	<path class="st0" d="M157.8,274.9c-0.6,0.5-0.8,0.6-0.9,0.4c-0.1-0.1,0.1-0.5,0.3-0.9c0.1-0.1,0.2-0.2,0.2-0.3
		c0.3-0.1,0.7-0.3,1.2-0.4c0.2-0.1,0.4-0.1,0.6-0.2c0,0-0.1,0.1-0.1,0.1C158.7,274.2,158.5,274.3,157.8,274.9z"/>
	<path class="st0" d="M158.8,272.9c0.7-0.4,0.9-0.3,0.6,0.3c-0.5,0.1-1,0.3-1.5,0.4C158.2,273.3,158.4,273.1,158.8,272.9z"/>
	<path class="st0" d="M134.3,299.6c0,0-0.1,0.2-0.2,0.3c-0.1,0.1-0.2,0.2-0.2,0.2c0,0,0.1-0.2,0.2-0.3
		C134.2,299.6,134.3,299.6,134.3,299.6z"/>
	<path class="st0" d="M164.6,270.4c0-0.1,0-0.2,0.1-0.2c0.1,0,0.1,0,0.1,0.1C164.7,270.5,164.6,270.5,164.6,270.4z"/>
	<path class="st0" d="M164.7,271.4c0-0.1,0-0.2,0.1-0.2c0.1,0,0.1,0,0.1,0.1C164.8,271.5,164.7,271.5,164.7,271.4z"/>
	<path class="st0" d="M210.9,236.4c0.1-0.1,0.3,0.1,0.3,0.3c0,0.3,0,0.3-0.2,0.1C210.8,236.6,210.7,236.4,210.9,236.4z"/>
	<path class="st0" d="M174.5,272.2c0.1-0.4,0.2-0.5,0.3-0.2c0.1,0.2,0,0.3-0.2,0.4C174.6,272.4,174.5,272.3,174.5,272.2z"/>
	<path class="st0" d="M212.7,238.3c-0.1-0.3-0.1-0.4,0-0.4c0.1,0.1,0.2,0.3,0.2,0.5C212.9,238.6,212.8,238.5,212.7,238.3z"/>
	<path class="st0" d="M213.9,239.7c-0.3-0.3-0.3-0.5-0.1-0.4c0.3,0.1,0.8,0.9,0.7,1C214.3,240.3,214.1,240,213.9,239.7z"/>
	<path class="st0" d="M215.2,240.7c0.1,0,0.1,0,0.1,0.2c0,0.1-0.1,0.2-0.2,0.1C215.1,240.8,215.1,240.7,215.2,240.7z"/>
	<path class="st0" d="M215.9,242.1c-0.1-0.2-0.1-0.4,0-0.3c0.1,0,0.2,0.2,0.2,0.4C216.1,242.3,216,242.3,215.9,242.1z"/>
	<path class="st0" d="M216.3,242.7c-0.1-0.1-0.1-0.2,0-0.3c0.1-0.1,0.2-0.1,0.3,0.1c0.1,0.1,0.1,0.3,0,0.3
		C216.6,242.8,216.5,242.8,216.3,242.7z"/>
	<path class="st0" d="M217.8,244.3c-0.1-0.1-0.3-0.2-0.5-0.1c-0.1,0-0.2,0-0.1-0.1c0.2-0.3,0.6-0.3,0.7,0.1
		C218,244.4,218,244.5,217.8,244.3z"/>
	<path class="st0" d="M221.5,249c-0.1-0.1,0-0.2,0.1-0.2c0.1,0,0.1,0,0.1,0.2C221.6,249.1,221.6,249.1,221.5,249z"/>
	<path class="st0" d="M222.4,249.5c0.1,0.1,0.1,0.2,0,0.2c-0.1,0.1-0.3,0.1-0.3,0C222,249.5,222.2,249.4,222.4,249.5z"/>
	<path class="st0" d="M233.5,262.2c-0.1,0.1-0.3,0-0.4-0.1c-0.1-0.3,0-0.4,0.4-0.2C233.7,262,233.7,262.1,233.5,262.2z"/>
	<path class="st0" d="M234.1,262.6c-0.1,0.1-0.1,0.2-0.2,0.1c0-0.1,0-0.2,0.1-0.2C234.2,262.4,234.2,262.5,234.1,262.6z"/>
	<path class="st0" d="M235,263.1l0.1,0.3l-0.3-0.1c-0.2-0.1-0.3-0.2-0.4-0.3c-0.1-0.2-0.1-0.2,0.2-0.2
		C234.8,262.8,234.9,262.9,235,263.1z"/>
	<path class="st0" d="M235,263.6c-0.2,0.1-0.4,0.2-0.4,0.2c0,0,0.1-0.2,0.4-0.3c0.2-0.2,0.4-0.2,0.4-0.2
		C235.4,263.3,235.2,263.4,235,263.6z"/>
	<path class="st0" d="M239.6,260.2c0-0.1,0-0.2,0.1-0.2c0.1,0,0.1,0.1,0.1,0.2C239.7,260.3,239.6,260.3,239.6,260.2z"/>
	<path class="st0" d="M235.8,263.6c0.2,0,0.3,0.1,0.3,0.2c0.1,0.2,0.1,0.2-0.2,0.2c-0.2,0-0.3-0.1-0.3-0.2
		C235.5,263.6,235.5,263.6,235.8,263.6z"/>
	<path class="st0" d="M240,260.5c0-0.1,0-0.2,0.1-0.2c0.1,0,0.1,0.1,0.1,0.2C240.1,260.6,240,260.6,240,260.5z"/>
	<path class="st0" d="M236.4,264.2c0-0.1,0-0.2,0.1-0.2c0.1,0,0.1,0.1,0.1,0.3C236.5,264.4,236.4,264.4,236.4,264.2z"/>
	<path class="st0" d="M236.1,264.6c0,0-0.1,0.2-0.2,0.3c-0.1,0.1-0.2,0.2-0.3,0.1c0-0.1,0.1-0.2,0.2-0.3
		C236,264.6,236.1,264.6,236.1,264.6z"/>
	<path class="st0" d="M242.2,261.8c-0.1,0.1-0.3,0.1-0.3,0.1c0-0.1-0.2-0.3-0.4-0.4c-0.2-0.2-0.3-0.4-0.2-0.4c0.1-0.1,0.3,0,0.4,0.1
		l0.5,0.4C242.3,261.5,242.3,261.7,242.2,261.8z"/>
	<path class="st0" d="M236.7,264.9c-0.3,0.3-0.6,0.5-0.7,0.3c0,0,0.2-0.2,0.5-0.4C237,264.4,237.2,264.4,236.7,264.9z"/>
	<path class="st0" d="M237.5,265.2c0-0.1,0-0.2,0.1-0.2c0.1,0,0.1,0.1,0.1,0.2C237.6,265.3,237.5,265.3,237.5,265.2z"/>
	<path class="st0" d="M244,263c-0.1,0.3-1.4-0.5-1.5-1c-0.1-0.2,0-0.3,0-0.3C242.8,261.6,244.1,262.7,244,263z"/>
	<path class="st0" d="M238.4,266.5c0,0.1-0.1,0.3-0.2,0.3c-0.1,0.1-0.3,0.1-0.3,0c0-0.1,0.1-0.2,0.2-0.3
		C238.3,266.3,238.4,266.4,238.4,266.5z"/>
	<path class="st0" d="M238.8,266.2c-0.1-0.1-0.1-0.2,0-0.3c0.1-0.1,0.2-0.1,0.3,0c0,0.1,0,0.2,0,0.3
		C239.1,266.2,238.9,266.2,238.8,266.2z"/>
	<path class="st0" d="M244.5,263.4c-0.2,0.2-0.4,0.2-0.4,0.1l0-0.2c0,0,0.3-0.1,0.4-0.1C244.9,263.1,244.9,263.1,244.5,263.4z"/>
	<path class="st0" d="M252.9,268.7c0.2,0.3,0.5,0.5,0.7,0.6c0.2,0.1,0.3,0.3,0.2,0.6l-0.1,0.4l-0.2-0.2c-0.1-0.1-0.8-0.7-1.5-1.2
		c-0.7-0.5-1.3-1.1-1.2-1.2c0.1-0.1,0-0.2-0.1-0.1c-0.1,0.2-1.6-0.6-3.2-1.8c-0.3-0.2-1.1-0.8-1.6-1.1c-0.8-0.5-1-0.8-0.8-1
		c0.1-0.2,0.3-0.3,0.3-0.4c0.1-0.1,1.1,0.5,5.5,3.8c0.7,0.5,1.3,1.1,1.3,1.2c-0.1,0.1,0,0.2,0.1,0.1
		C252.5,268.3,252.7,268.5,252.9,268.7z"/>
	<path class="st0" d="M240.7,267c0,0.1-0.1,0.2-0.2,0.3c-0.1,0.1-0.2,0.1-0.1,0c0.1-0.1,0.2-0.2,0.2-0.3
		C240.6,267,240.6,267,240.7,267z"/>
	<path class="st0" d="M242.1,268.1c0,0.2,0,0.2-0.2,0.1c-0.1-0.1-0.3-0.2-0.3-0.3c0-0.1,0.1-0.1,0.2-0.1
		C241.9,267.9,242.1,268,242.1,268.1z"/>
	<path class="st0" d="M242.6,268.5c0.2-0.1,0.3,0,0.3,0.1c0.1,0.3,0,0.4-0.4,0.1C242.4,268.7,242.4,268.6,242.6,268.5z"/>
	<path class="st0" d="M243.3,268.9c0,0.1,0,0.1-0.1,0.2l-0.3,0.1c-0.1,0-0.1-0.1,0.1-0.2C243.1,268.9,243.3,268.8,243.3,268.9z"/>
	<path class="st0" d="M244.3,269.7c0.1,0,0.1,0.1,0.1,0.2c-0.1,0-0.1,0-0.2,0C244.2,269.8,244.2,269.7,244.3,269.7z"/>
	<path class="st0" d="M254.9,271.3c-0.2-0.1-0.1-0.1,0.1-0.2c0.2,0,0.3,0,0.2,0.1C255.1,271.3,255,271.3,254.9,271.3z"/>
	<path class="st0" d="M255.4,271.6c0-0.1,0-0.3,0.1-0.4c0.3-0.3,0.4-0.2,0.2,0.2C255.4,271.7,255.4,271.8,255.4,271.6z"/>
	<path class="st0" d="M256.5,272.5c0-0.1,0.1-0.3,0.2-0.4c0.1-0.1,0.2,0,0.1,0.1c0,0.2-0.1,0.3-0.2,0.4
		C256.5,272.7,256.5,272.6,256.5,272.5z"/>
	<path class="st0" d="M256.9,273c0-0.1,0.1-0.2,0.2-0.3c0.1-0.1,0.3-0.2,0.4-0.2c0.1,0,0,0.1-0.2,0.3C257.1,273,256.9,273,256.9,273
		z"/>
	<path class="st0" d="M259.9,275.4c0-0.1,0-0.2,0.1-0.2c0.1,0,0.1,0.1,0.1,0.3C260,275.6,259.9,275.6,259.9,275.4z"/>
	<path class="st0" d="M260.2,275.7c0-0.1,0-0.2,0.1-0.2c0.1,0,0.1,0.1,0.1,0.2C260.3,275.8,260.3,275.8,260.2,275.7z"/>
	<path class="st0" d="M248.2,285.8c0-0.1,0.1-0.2,0.2-0.3c0.1-0.1,0.3-0.1,0.3-0.1c0,0.1-0.1,0.2-0.2,0.3
		C248.4,285.9,248.2,285.9,248.2,285.8z"/>
	<path class="st0" d="M248.9,286.5c-0.1,0-0.1-0.1,0.1-0.2c0.1-0.1,0.3-0.1,0.3,0l-0.1,0.2L248.9,286.5z"/>
	<path class="st0" d="M249,286.8c0-0.1,0-0.1,0.1-0.2l0.3-0.1c0.1,0,0.1,0.1-0.1,0.2C249.2,286.8,249.1,286.8,249,286.8z"/>
	<path class="st0" d="M264,278.1c0-0.1-0.1,0-0.2,0.2c-0.2,0.3-0.2,0.3-0.3,0.1c0-0.1,0-0.3,0.1-0.4c0.1-0.1,0.3-0.2,0.4-0.1
		c0.1,0,0.2,0.2,0.1,0.2C264.1,278.2,264,278.2,264,278.1z"/>
	<path class="st0" d="M264.7,278.2c0,0,0.2,0.2,0.3,0.3c0.2,0.2,0.2,0.3-0.1,0.5c-0.2,0.1-0.3,0.1-0.3-0.1c0.1-0.2,0-0.2-0.2-0.1
		c-0.2,0.1-0.2,0.1-0.2-0.1c0.1-0.2,0-0.2-0.2-0.1c-0.2,0.1-0.3,0.1-0.3,0.1C263.8,278.6,264.6,278.1,264.7,278.2z"/>
	<path class="st0" d="M251.9,287.8C251.9,287.8,251.9,287.8,251.9,287.8c0.2,0.2,0.4,0.5,0.6,0.7c0,0-0.1-0.1-0.1-0.1
		C252.2,288.1,251.9,287.9,251.9,287.8z"/>
	<path class="st0" d="M265.5,279.2c0.1-0.2,0.2-0.2,0.2,0c0.1,0.4-0.3,0.8-0.5,0.7c-0.1-0.1-0.2-0.2-0.2-0.3c0-0.1,0-0.2,0.2-0.1
		C265.3,279.5,265.3,279.4,265.5,279.2z"/>
	<path class="st0" d="M265.8,279.8c0.1-0.1,0.2-0.3,0.2-0.3c0.1,0,0.1,0,0.1,0.1c0,0.1-0.1,0.2-0.2,0.3
		C265.8,280,265.7,279.9,265.8,279.8z"/>
	<path class="st0" d="M266.5,279.8c0,0.1,0.1,0.2,0.3,0.4c0.2,0.1,0.1,0.3,0,0.4c-0.2,0.1-0.2,0.1-0.2-0.1c0.1-0.1,0-0.2-0.2-0.1
		c-0.2,0.1-0.3,0-0.4-0.1c0-0.2,0-0.4,0.2-0.5C266.3,279.7,266.5,279.7,266.5,279.8z"/>
	<path class="st0" d="M251.2,290.5c-0.1,0-0.1-0.1,0.1-0.2c0.1-0.1,0.3-0.1,0.3-0.1c0,0.1,0,0.1-0.1,0.2L251.2,290.5z"/>
	<path class="st0" d="M252.6,291.2c0.1,0,0.1,0.1,0.1,0.2c-0.1,0.1-0.1,0.1-0.2,0C252.4,291.3,252.5,291.2,252.6,291.2z"/>
	<path class="st0" d="M254.4,292.8c0.1-0.1,0.3-0.1,0.3,0c0,0.1-0.1,0.1-0.2,0.2c-0.1,0.1-0.3,0.1-0.3,0
		C254.2,293,254.3,292.9,254.4,292.8z"/>
	<path class="st0" d="M255.2,293.3c0.1,0,0.1,0.1-0.1,0.2c-0.1,0.1-0.3,0.1-0.3,0l0.1-0.2L255.2,293.3z"/>
	<path class="st0" d="M267.8,308c-0.1,0.1-0.2,0.1-0.3,0.1c-0.3-0.3-0.5-0.5-0.7-0.8C267.5,307.6,267.9,307.9,267.8,308z"/>
	<path class="st0" d="M263.7,306.1c-0.1-0.1-0.1-0.1,0-0.1c0.2,0,1.1,0.3,2.1,0.8c0.3,0.4,0.6,0.7,0.9,1.1c-0.5-0.2-1.1-0.5-1.7-1
		C264.3,306.5,263.8,306.2,263.7,306.1z"/>
	<path class="st0" d="M297.1,321.3c0,0,0-0.1,0.1-0.2l0.3-0.1c0.1,0,0.1,0.1-0.1,0.2C297.2,321.3,297.1,321.4,297.1,321.3z"/>
	<path class="st0" d="M298,326c0,0.1-0.2,0.2-0.3,0.3c-0.1,0.1-0.3,0.1-0.4,0.1c-0.1,0,0.1-0.2,0.3-0.3C297.9,326,298,325.9,298,326
		z"/>
	<path class="st0" d="M289.8,331.1c0.2-0.1,0.4-0.2,0.4-0.1c0,0-0.2,0.2-0.4,0.3C289.9,331.2,289.8,331.1,289.8,331.1
		C289.8,331.1,289.8,331.1,289.8,331.1z"/>
	<path class="st0" d="M291.2,330.5c0.2-0.3,0.6-0.5,0.8-0.5c0.1,0,0,0.1-0.2,0.3C291.2,330.7,290.9,330.8,291.2,330.5z"/>
	<path class="st0" d="M272.5,119.4c-0.5-0.3-0.5-0.5-0.2-0.7c0.2-0.2,0.6-0.1,0.8,0.2C273.5,119.7,273.3,119.8,272.5,119.4z"/>
	<path class="st0" d="M274.3,118.9c-0.4,0-0.6-0.2-0.3-0.3c0.2-0.1,0.5-0.1,0.7,0.1C274.9,118.8,274.7,118.9,274.3,118.9z"/>
	<path class="st0" d="M275.8,119c-0.4,0-0.6-0.2-0.3-0.3c0.2-0.1,0.5-0.1,0.7,0.1C276.4,118.9,276.2,119,275.8,119z"/>
	<path class="st0" d="M278.6,119.3c-0.3,0-0.5-0.1-0.4-0.3c0.1-0.2,0.4-0.1,0.6,0C279,119.2,278.9,119.3,278.6,119.3z"/>
	<path class="st0" d="M282.6,120c0.2,0.2,0.1,0.3-0.2,0.3c-0.3,0-0.5-0.2-0.4-0.3C282.1,119.8,282.4,119.8,282.6,120z"/>
	<path class="st0" d="M287.5,126c0.2,0.2,0,0.2-0.4,0.2c-0.4,0-0.5-0.2-0.3-0.3C287,125.8,287.3,125.8,287.5,126z"/>
	<path class="st0" d="M289.8,119.8c0.6,0,1.6,0.1,2.2,0.3c0.6,0.2,0.1,0.2-1.1,0C289.6,120,289.1,119.8,289.8,119.8z"/>
	<path class="st0" d="M289.7,128.6c1.2,0.2,1.3,0.3,0.7,0.6c-0.4,0.2-1.1,0.2-1.6,0.2c-0.4,0-0.8-0.3-0.7-0.5
		C288.2,128.5,288.9,128.5,289.7,128.6z"/>
	<path class="st0" d="M289.8,125.8c0.2,0.2,0.1,0.3-0.2,0.3c-0.3,0-0.5-0.2-0.3-0.3C289.4,125.6,289.6,125.6,289.8,125.8z"/>
	<path class="st0" d="M292.9,128.4c1,0,1.1,0.1,0.6,0.5c-0.3,0.3-1,0.5-1.4,0.4C290.9,129.2,291.5,128.5,292.9,128.4z"/>
	<path class="st0" d="M295.2,129c0.2,0.2,0,0.2-0.4,0.2c-0.4-0.1-0.5-0.2-0.3-0.3C294.7,128.8,295.1,128.9,295.2,129z"/>
	<path class="st0" d="M299.9,129.5c-0.3,0-0.5-0.2-0.3-0.3c0.1-0.1,0.4-0.1,0.6,0.1C300.4,129.5,300.3,129.6,299.9,129.5z"/>
	<path class="st0" d="M302.5,129c0.3,0.1,0.6,0.2,0.5,0.3c0,0.1-0.3,0.3-0.6,0.3c-0.3,0.1-0.6,0-0.5-0.3
		C301.9,129.1,302.2,129,302.5,129z"/>
	<path class="st0" d="M306.6,125.6c0,0.1,0.4,0.3,0.9,0.3c0.3,0.1,0.5,0,0.6,0c-0.1-0.1,0-0.1,0.1-0.1c0-0.1,0-0.1-0.1-0.2
		C307.8,125.2,306.7,125.2,306.6,125.6z M307.4,125.4c0.2,0,0.3,0.2,0.2,0.3c-0.1,0.1-0.2,0.1-0.3-0.1
		C307.2,125.5,307.2,125.4,307.4,125.4z"/>
	<path class="st0" d="M307.2,129.5c0.1-0.1,0.4-0.1,0.6,0.1c0.2,0.2,0.1,0.3-0.2,0.3C307.2,129.8,307,129.7,307.2,129.5z"/>
	<path class="st0" d="M311.6,124.1c-1.8-0.3-1.8-0.3-0.5-0.5c0.7-0.1,1.7,0,2.5,0.1c0,0.2,0,0.3,0,0.5c0,0,0,0.1-0.1,0.1
		C312.9,124.2,312.2,124.2,311.6,124.1z"/>
	<path class="st0" d="M310.8,129.9c-0.4-0.1-0.5-0.2-0.3-0.3c0.2-0.1,0.3,0,0.5,0C311,129.7,311,129.8,310.8,129.9
		C310.9,129.9,310.9,129.9,310.8,129.9z"/>
	<path class="st0" d="M311.2,129.7c0.2,0.2,0,0.2-0.3,0.2c0-0.1,0.1-0.2,0.1-0.3C311.1,129.7,311.2,129.7,311.2,129.7z"/>
	<path class="st0" d="M330.5,178.9c0.2,0.2,0.1,0.3-0.2,0.3c-0.3,0-0.4-0.2-0.3-0.3C330.1,178.7,330.3,178.7,330.5,178.9z"/>
	<path class="st0" d="M331.8,179.8L331.8,179.8C331.8,179.9,331.8,179.9,331.8,179.8z"/>
	<path class="st0" d="M308.7,91.1c-0.2,0.1-0.2-0.1,0-0.3c0.1-0.1,0.1-0.1,0.2-0.2c0.1,0,0.2,0,0.3,0c0,0,0,0.1,0,0.1
		C309.1,90.9,308.9,91.1,308.7,91.1z"/>
</g>
</svg>
