<?xml version="1.0" encoding="utf-8"?>
<!-- Generator: Adobe Illustrator 22.0.1, SVG Export Plug-In . SVG Version: 6.00 Build 0)  -->
<svg version="1.1" xmlns="http://www.w3.org/2000/svg" xmlns:xlink="http://www.w3.org/1999/xlink" x="0px" y="0px"
	 viewBox="0 0 380 380" style="enable-background:new 0 0 380 380;" xml:space="preserve">
<style type="text/css">
	.st0{fill:#1B1818;}
</style>
<g id="Layer_1">
</g>
<g id="Layer_2">
	<path class="st0" d="M118.1,291.9c0.3-0.3,0.9-0.8,1.3-1.2c1-0.9,1.9-2.2,1.8-2.4c-0.1-0.2-0.4-0.3-0.6-0.4c-1,1.1-2,2.3-3,3.5
		l2.8-3.6c0,0,0,0,0,0c-3.6,4.4-7.5,9.1-10.9,14.2c-1.6,2.1-5.2,2.3-5.9,6.5c4.5-4.9,9.3-9.9,13.9-14.9
		C117.3,293.3,117.6,292.5,118.1,291.9z"/>
	<path class="st0" d="M99.8,328.1l-0.7,1c-1.2,1.6-2.4,3.2-3.6,4.9c-1,1.5-1.7,3.2-2.3,4.9c1.3-2.2,2.7-4.3,4-6.5
		c-0.3,0.7-0.5,1.4-0.6,2.1l12.5-17.8c-3.2,3.9-6.5,7.7-9.6,11.9L99.8,328.1z"/>
	<path class="st0" d="M96,326.8c2.9-3.6,5.8-7,8.6-10.4l0.8-1.6C101.6,318.2,99.1,322.8,96,326.8z"/>
	<path class="st0" d="M106.7,313.9c-0.7,0.8-1.4,1.7-2.1,2.5c-1,1.9-2.2,3.5-3.9,5.5c1.3-0.8,2.6-2.2,4.1-3.7l4.9-6.2
		c-2.3,3.3-4.5,6.7-6,10c3.7-4,7.1-8.5,10.7-12.6c0.3-0.4,0.6-0.8,0.8-1.1c-1,0.8-1.9,1.5-3,2.2
		C110.3,311.5,108.5,312.7,106.7,313.9z"/>
	<path class="st0" d="M92,339.5c-3.2,3.6-4.8,8.6-8.3,12.8c-0.9,1.1-1.8,2.9-2.5,4.8c-0.4,0.4-0.5,0.7-0.4,1.1l-0.5,1.3l0.5-1.1
		c0.1,0.4,0.2,0.7-0.1,1.3c3.5-6.7,7.8-13.3,12-20C92.8,339,92.7,338.7,92,339.5z"/>
	<path class="st0" d="M57,199.2c0,0-0.1-0.1-0.1-0.1l-0.1-0.2c-0.1,0-0.1,0.1-0.2,0.1c0.1,0.1,0.1,0.2,0.2,0.3
		C56.8,199.3,56.9,199.2,57,199.2z"/>
	<path class="st0" d="M56.4,199.4c-0.1-0.1-0.1-0.1-0.1-0.2c-0.2,0.2-0.5,0.3-0.7,0.5c0,0,0,0,0,0.1
		C55.8,199.7,56.1,199.5,56.4,199.4z"/>
	<path class="st0" d="M55.4,199.8c-0.1,0-0.1,0.1-0.2,0.1C55.3,199.9,55.4,199.9,55.4,199.8C55.4,199.8,55.4,199.8,55.4,199.8z"/>
	<path class="st0" d="M55.6,199.8C55.6,199.8,55.5,199.7,55.6,199.8C55.5,199.7,55.5,199.7,55.6,199.8
		C55.5,199.8,55.5,199.8,55.6,199.8C55.5,199.8,55.5,199.8,55.6,199.8z"/>
	<path class="st0" d="M62.2,197L62.2,197L62.2,197L62.2,197l-0.1-0.3l-0.1-0.5c-0.1-0.2-0.1-0.4-0.2-0.6c-1.5,0.6-2.9,1.7-4.4,2.7
		c0.2,0.1,0.4,0.2,0.6,0.3C60.4,197.8,62.9,196.8,62.2,197z"/>
	<polygon class="st0" points="75,200.1 75,200.1 75,200.1 	"/>
	<path class="st0" d="M72.7,201.6c0.1,0.2,0.5,0,1.5-0.8c0,0,0,0,0,0c-0.8,0.1-1.3,0.3-1.7,0.7C72.5,201.5,72.6,201.5,72.7,201.6z"
		/>
	<path class="st0" d="M57.4,204.8c-0.1,0-0.1,0.1-0.2,0.1l0,0C57.3,204.8,57.3,204.8,57.4,204.8L57.4,204.8z"/>
	<path class="st0" d="M69.9,199.7c-0.1,0.4-0.2,0.7-0.1,0.9c0.6-0.7,1.1-1.4,1.4-2.2C70.3,199,70.1,199.2,69.9,199.7z"/>
	<path class="st0" d="M72.3,201.7c0-0.1,0.1-0.1,0.1-0.1c-0.2,0.2-0.3,0.3-0.5,0.5C72,202,72.2,201.9,72.3,201.7z"/>
	<path class="st0" d="M62.7,198L62.7,198L62.7,198c0.2-0.1,0.5-0.2,0.6-0.2c-0.1-0.5-0.4-1.2-0.7-2.3c-0.2,0.1-0.5,0.2-0.7,0.3
		C62.2,196.4,62.6,197.6,62.7,198L62.7,198z"/>
	<path class="st0" d="M92.4,341.2l0.8-2.3l-0.5,0.8C92.6,340.2,92.4,340.9,92.4,341.2z"/>
	<path class="st0" d="M57.4,204.8c0.1,0,0.1,0,0.2-0.1h0C57.5,204.7,57.5,204.8,57.4,204.8C57.4,204.8,57.4,204.8,57.4,204.8z"/>
	<path class="st0" d="M56.7,203.2c0,0.1,0.3,0.7,0.6,1.4c0,0.1,0.1,0.1,0.1,0.2c0,0,0.1,0,0.2-0.1C57.2,204,56.6,203.1,56.7,203.2z"
		/>
	<path class="st0" d="M76.3,199.4c-0.3,0-0.8,0.4-1.3,0.8c0.3,0.6,0.6,1.2,0.9,1.8c0.1,0.2,0.2,0.4,0.3,0.6c0.3-0.6,0.6-1.3,0.7-2
		C77,199.4,76.9,199.3,76.3,199.4z"/>
	<path class="st0" d="M57.4,204.8C57.4,204.8,57.4,204.8,57.4,204.8L57.4,204.8l-0.1,0.1l0.1,0.3c0.1,0.1,0.2,0.3,0.3,0.3
		C57.9,205.8,57.9,205.7,57.4,204.8z"/>
	<path class="st0" d="M59.4,203.7c-0.2-0.2-0.4-0.4-0.5-0.5c0-0.1,0.1,0,0.3,0.1c0.2,0.2,0.4,0.4,0.4,0.5c0.5-0.2,1.1-0.5,1.8-0.8
		c-1.4-0.7,0.1-2.4,2.1-4.1c0,0,0-0.1,0-0.1c0-0.1-0.1-0.3-0.3-1c-0.2,0.1-1.2,0.5-3.9,1.6c0.4,0.2,0.7,0.5,0.8,0.9
		c0.1,0.3,0.1,0.6-0.1,0.7c-0.2,0.2-1-0.1-2.2-1c-0.6,0.2-1.2,0.5-1.9,0.8v0l0,0l0,0l0,0l0,0c0,0-0.1-0.1-0.1-0.3
		c-0.1-0.2-0.1-0.4-0.2-0.7l0-0.1l0,0l0,0l0,0h0c0,0,0,0-0.1,0c0,0.1,0.1,0.2,0.1,0.3c0,0.1,0,0.2,0,0.1c0-0.1-0.1-0.2-0.1-0.4
		c0,0,0,0-0.1,0c0,0,0,0.1,0,0.1c0.1,0.3,0.2,0.6,0.3,0.9c0.1,0.2,0.2,0.2,0.1,0.1c0.1-0.3,0,0.4,1.9,2.6c0.2,0.3,0.4,0.5,0.6,0.8
		c0.3-0.1,0.7-0.3,1.1-0.5C59.6,203.8,59.5,203.8,59.4,203.7z"/>
	<path class="st0" d="M62.9,188.6c0,0-0.1-0.1-0.1-0.1C62.9,188.6,62.9,188.6,62.9,188.6z"/>
	<path class="st0" d="M51.8,175.1c-1.4,0.8-2.9,2.2-4.5,3.9c-0.6,0.2-0.8,0.5-0.9,0.9l0,0c0,0,0,0.1-0.1,0.1l-0.9,0.9l1-0.9
		c-0.1,0.4-0.2,0.8-0.6,1.2c2.8-2.3,5.6-4.5,8.6-6.6c-0.3-0.1-0.5-0.3-0.8-0.4C53,174.4,52.5,174.8,51.8,175.1z M48,179.2
		c-0.3,0-0.4-0.1-0.2-0.3c0.2-0.2,0.4-0.2,0.5-0.1C48.5,179,48.3,179.1,48,179.2z"/>
	<path class="st0" d="M16.4,225.8c1.8-2.7,3.8-5.4,4.7-8.6c-2.4,3-5,6.1-7.5,8.9c-1.3,1.2-2.4,2-3.4,2.7c0.8,0.2,1.5,1.3,1.8,2
		c0.2-0.2,0.4-0.5,0.7-0.8C13.7,229.1,15.5,227.3,16.4,225.8z"/>
	<path class="st0" d="M9.9,228.8c0.1,0,0.2,0,0.4,0c0,0,0,0,0,0C10.2,228.7,10,228.7,9.9,228.8z"/>
	<path class="st0" d="M60.9,185c-0.1,0-0.2-0.1-0.3-0.1c-0.1,0-0.1,0.1-0.2,0.1c0,0,0,0,0.1,0.1C60.6,185.1,60.7,185.1,60.9,185
		C60.9,185,60.9,185,60.9,185z"/>
	<path class="st0" d="M55.6,173.1c0.1,0.1,0.2,0.2,0.3,0.3l0,0c0.1-0.1,0.3-0.2,0.4-0.3c-0.2-0.1-0.3-0.2-0.5-0.3
		C55.7,173,55.6,173,55.6,173.1z"/>
	<path class="st0" d="M55.1,173.4L55.1,173.4c1.2-1-1.6,1.3,0.4-0.4c0,0-0.1-0.1-0.1-0.1c-0.5,0.3-1,0.7-1.5,1
		c0.3,0.1,0.5,0.3,0.8,0.4c0.3-0.2,0.6-0.4,0.9-0.6C55.4,173.6,55.3,173.5,55.1,173.4L55.1,173.4z"/>
	<path class="st0" d="M61.6,187.3c0,0.1,0.1,0.1,0.1,0.1c0,0,0,0,0,0c0,0,0.1,0.1,0.1,0.2c0.3,0.4,0.6,0.7,1,0.9
		c0-0.1-0.1-0.1-0.1-0.2c-0.1-0.2-0.2-0.4-0.2-0.4c0,0-0.5-0.8-1.2-1.7c-0.3-0.5-0.6-0.8-0.8-1.1c-0.1,0-0.2,0-0.2,0.1
		c0,0-0.1,0.1-0.1,0.1c0.1,0.2,0.1,0.5,0.2,0.9C60.8,186.3,61.1,186.5,61.6,187.3z"/>
	<path class="st0" d="M50.9,171.3c0.1,0,0.1-0.1,0.2-0.1c-0.1,0-0.2-0.1-0.2-0.1C50.8,171.1,50.8,171.2,50.9,171.3z"/>
	<path class="st0" d="M43,183.5c0.8-0.8,1.6-1.8,2.5-2.6C44.6,181.6,43.7,182.5,43,183.5z"/>
	<path class="st0" d="M62.9,188.6c0,0,0.1,0,0.1,0.1C63,188.6,63,188.6,62.9,188.6C63,188.6,63,188.6,62.9,188.6z"/>
	<path class="st0" d="M63.5,188.9c-0.1-0.1-0.3-0.1-0.4-0.2c0.2,0.2,0.8,0.9,1.5,1.7c0.7,0.9,1.3,1.6,1.4,1.8c0.1,0,0.1-0.1,0.2-0.1
		c-0.6-0.7-1-1.4-1.2-1.6C64.6,189.6,64.3,189.3,63.5,188.9z"/>
	<path class="st0" d="M66.6,188.3c0,0-0.1,0-0.2,0c-0.3,0.3-0.6,0.5-0.8,0.7c0.1,0.2,0.1,0.3,0.1,0.3l-0.1-0.1
		c0,0.4-0.1,0.7-0.1,0.9c-0.1,0.4,0,0.6,0.3,1.1c0.2,0.3,0.4,0.5,0.6,0.7c0.8-0.6,1.5-1.2,2.3-1.8c-0.1-0.2-0.2-0.3-0.3-0.4
		C67.6,188.9,67,188.4,66.6,188.3z"/>
	<path class="st0" d="M65.6,188.9C65.6,188.9,65.6,189,65.6,188.9C65.6,189,65.6,189,65.6,188.9C65.6,189,65.7,189,65.6,188.9
		C65.7,189,65.7,189,65.6,188.9z"/>
	<path class="st0" d="M201.2,276.8c-0.3-0.1-0.3-0.1-0.2,0.1c0.2,0.2,0.1,0.3-0.3,0.6l-0.5,0.3l0.5,0.6c0.5,0.6,0.5,0.6,1.4,1
		c0.1,0,0.1,0,0.2,0.1c0.1-0.1,0.1-0.2,0-0.3c-0.1-0.1,0-0.2,0.1-0.2c0.1,0,0.1-0.4-0.1-0.9c-0.2-0.4-0.4-0.9-0.5-1.3
		C201.6,276.8,201.4,276.8,201.2,276.8z"/>
	<path class="st0" d="M104.7,140.6l1-0.4c0,0.1,0.1,0.2,0.1,0.3c0.7-0.2,1.5-0.3,2.2-0.5c0.4-0.3,0.9-0.5,1.3-0.7
		c-0.1,0.2-0.3,0.4-0.4,0.5c1.7-0.4,3.4-0.7,5.2-1.1c1.3-0.8,2.6-1.6,3.9-2.3c-0.1,0-0.2,0.1-0.4,0.1l0.4-0.1c0.1,0,0.1-0.1,0.2-0.1
		c-4.4,1.1-9,2.4-13.5,4.1L104.7,140.6z"/>
	<path class="st0" d="M129,135.5c1.8-0.4,3.5-0.7,5.2-1c1-0.4,2.1-0.8,3.1-1.2c-2.7,0.8-5.5,1.5-8.2,2.1
		C129,135.5,129,135.5,129,135.5z"/>
	<path class="st0" d="M113.6,143.2c0.4,0,0.9,0,1.3,0c-0.7,0.2-1.4,0.4-2.1,0.6c-0.4,0.3-0.7,0.5-1.1,0.8c-1.1,0.8-3.1,0.1-4.3,1.4
		c0.5-0.1,1-0.3,1.5-0.4c0,0,0,0,0,0.1c0,0,0.1-0.1,0.1-0.1c0,0-0.1,0-0.1,0.1c0,0.1,0.1,0.3,0.2,0.4c4-2,8.1-3.8,12-5.8
		c-1.6,0.4-3.3,0.8-4.9,1.2C115.3,141.9,114.4,142.5,113.6,143.2z"/>
	<path class="st0" d="M37.6,73.7c0,0.1,0,0.1,0,0.2c0.2,0,0.4-0.1,0.6-0.1L37.6,73.7z"/>
	<path class="st0" d="M60.9,98.5c0.4,0.7,0.6,0.7,2.9-0.3c-1,0-2,0-3,0C60.8,98.3,60.9,98.4,60.9,98.5z"/>
	<path class="st0" d="M74.1,139.9c0,0-0.2-0.2-0.3-0.5c-0.1-0.3-0.3-0.4-0.3-0.4c0,0.1-0.2,0.2-0.3,0.3c-0.2,0.2-0.2,0.2,0,0.5
		c0.1,0.1,0.3,0.2,0.5,0.2c0.1,0,0.3,0.2,0.5,0.6c0.1,0,0.3-0.1,0.4-0.1C74.3,140.2,74.2,139.9,74.1,139.9z"/>
	<path class="st0" d="M60.7,98.1C60.7,98.2,60.7,98.2,60.7,98.1l3.3,0c0,0,0,0,0,0C62.8,98.2,61.8,98.2,60.7,98.1z"/>
	<path class="st0" d="M119.2,284.2c-1.5,1.7-2.3,2.7-3,3.6c1.2-1.4,2.5-2.8,3.8-4.3C119.7,283.6,119.5,283.8,119.2,284.2z"/>
	<path class="st0" d="M77.6,139.5c0.2-0.1,0.4-0.2,0.6-0.2c0-0.5,0.1-0.5,0.2-0.1c0.8-0.3,1.7-0.6,2.5-0.9c0-1.7,0-2.3,0.3-2.1
		c0.2,0.2,0.2,0.3,0.4,0.8c0.1,0.3,0.1,0.6,0.1,0.7c0,0-0.1,0.2-0.1,0.4c3.1-1.2,6.3-2.5,9.4-3.6c-6.6,0.9-13.2,1.9-19.8,3.1
		c0,0,0,0.1,0.1,0.1c0.1,0.2,0.3,0.3,0.4,0.3c0.1,0,0.3,0.1,0.4,0.3c0.1,0.3,0.4,0.3,0.7,0.2c0.4-0.2,0.6-0.1,0.9,0.3
		c0.3,0.4,0.5,0.4,0.7,0.2c0.2-0.2,0.4-0.2,0.5-0.1c0.2,0.2,0.2,0.2,0.3,0.7c0,0.3,0,0.5,0,0.5c-0.1,0-0.1,0.2,0,0.3c0,0,0,0,0,0
		c0.7-0.2,1.5-0.5,2.2-0.8C77.4,139.1,77.5,139.1,77.6,139.5z"/>
	<path class="st0" d="M16.4,61.4c0.1-0.1,0.2-0.2,0-0.3c-0.1-0.1-0.4-0.1-0.6,0c-0.2,0.1-0.1,0.3,0,0.3l0,0c-3.8,0-7.6-0.1-11.4-0.3
		c-0.2,0-0.4,0.1-0.4,0.2c0,0.1,0.2,0.3,0.4,0.3c5.3,0.3,10.6,0.3,15.8,0.2c0.8-0.2,1.5-0.4,2.2-0.6C20.5,61.3,18.5,61.3,16.4,61.4z
		"/>
	<path class="st0" d="M37.5,95.5c-0.1-0.4-0.1-0.8-0.2-1.2c-2.7,0.3-5.4,0.6-8,1.1C32,95.4,34.7,95.4,37.5,95.5z M36.4,95.1
		c0.1,0.3,0.1,0.4,0,0.3c-0.1-0.1-0.1-0.3-0.1-0.5C36.3,94.7,36.3,94.7,36.4,95.1z"/>
	<path class="st0" d="M122.4,301.4c-2.3,1.9-4.4,4-6.5,6.3c1.1-0.9,2.1-1.7,3.2-2.5C120.2,303.9,121.3,302.6,122.4,301.4z"/>
	<path class="st0" d="M120.5,287.9c0.2,0.1,0.5,0.3,0.6,0.4c0.1,0.2-0.8,1.5-1.8,2.4c-0.4,0.4-1,0.9-1.3,1.2
		c-0.5,0.5-0.8,1.4-0.6,1.6c1.9-2.1,3.8-4.3,5.7-6.4c-0.2-1,1.8-2.7,2.2-4C123.6,284.7,122,286.2,120.5,287.9z"/>
	<path class="st0" d="M279.9,100.6C279.9,100.6,279.9,100.6,279.9,100.6L279.9,100.6C279.9,100.6,279.9,100.6,279.9,100.6z"/>
	<path class="st0" d="M122.6,285.1c-0.7,0.9-1.4,1.8-2.2,2.7c0,0,0,0,0,0L122.6,285.1z"/>
	<path class="st0" d="M35.3,73.7c0.4,0.2,0.8,0.4,1.1,0.7c0,0,0,0,0.1,0c0-0.2,0.1-0.5,0.1-0.6l-0.8-0.1c0.3,0,0.6,0,0.9-0.1
		c0.1-0.2,0.2-0.4,0.3-0.5l0.4-0.4l0.2,0.8c4-0.3,7.8-0.6,12-0.8c4-0.8,7.8-1.4,11.1-1.6c-10.2-1-20.3-0.7-30.4,0.1
		c0.1,0.3,0.1,0.5,0.2,0.7c-0.1,0-0.3,0.1-0.4,0.1c-0.2,0.2-0.4,0.2-0.6,0.2c0,0,0,0,0,0c-2.9,0.9-7.2,1.9-9.3,3
		c4.2-0.3,8.3-0.8,12.6-1.2C33.6,73.8,34.5,73.7,35.3,73.7z M32.9,72.3c0,0,0.1,0.2,0.2,0.4c0.1,0.2,0.1,0.3,0,0.2
		c-0.1-0.1-0.2-0.3-0.2-0.4C32.9,72.4,32.9,72.3,32.9,72.3z"/>
	<path class="st0" d="M278.8,96.1c0,0-0.1,0.4-0.3,0.7c-0.4,0.6-0.4,0.6-0.2,0.1c0.1-0.3,0.1-0.6,0-0.5c-0.3,0.2-0.7,1-0.7,1.3
		c0,0.2,0.2,0.1,0.8-0.5c0.3-0.3,0.6-0.6,0.8-0.6c-0.1-0.3-0.1-0.5-0.2-0.8C278.9,96,278.8,96.1,278.8,96.1z"/>
	<path class="st0" d="M231.5,273.6c0.2-0.1,0.5-0.2,0.7-0.2c0.2-0.1,0.4-0.1,0.5-0.2c0,0,0-0.1,0.1-0.1c-0.1,0-0.4,0-0.8,0
		c-0.1,0-0.3,0-0.4,0c0,0.1,0,0.1,0,0.2C231.6,273.4,231.6,273.5,231.5,273.6z"/>
	<path class="st0" d="M279.6,100.7c0,0,0.1,0,0.1-0.1C279.6,100.7,279.6,100.7,279.6,100.7z"/>
	<path class="st0" d="M113,307.4c-1,0.6-1.7,1.6-2.6,2.4c-0.4,0.4-0.8,0.7-1.2,1.1c-0.8,1-1.7,2-2.5,3c1.8-1.1,3.6-2.3,5.5-3.5
		c1-0.6,2-1.4,3-2.2c1.2-1.6,2.4-3.2,3.6-4.8c-0.8,0.6-1.5,1.2-2.3,1.7C115.3,305.9,114.1,306.6,113,307.4z"/>
	<path class="st0" d="M113.1,303.9c-0.7,1-1.4,1.9-2.1,2.9c0.1-0.1,0.4-0.2,0.6-0.3c0.3-0.1,0.7-0.4,1-0.6c0,0,0,0,0,0
		c0.9-1.1,1.7-2.3,2.6-3.5c-0.2,0.1-0.3,0.2-0.5,0.3C114.2,303.1,113.5,303.6,113.1,303.9z"/>
	<path class="st0" d="M370.4,148.6c-0.1-0.1-0.2-0.2-0.3-0.3c1.4,0.1,2.8,0.3,4.2,0.5c-0.5-1.2-2.1-2.2-3.1-2.9
		c-1.2-0.9-2.5-1.9-3.8-2.7c-1.6-1-2.9-2.2-4.7-3.1c-1.8-0.9-3.7-1.7-5.6-2.4c-3.6-1.4-7.6-2.7-11.4-3.1c-1-0.1-2-0.3-3-0.6
		c-0.3-0.1-0.7-0.1-1-0.1c-0.2-1.4-0.8-2.8-2.1-4c-5.8-5.3-14.5-6.6-22.1-6.9c-4.2-0.2-8.6,0-12.3,2c-3.3,1.7-5.9,4.7-8.5,7.4
		c-2.6,2.7-5.1,5.6-7.6,8.3c-0.9,1-1.9,1.8-2.9,2.5c0.1-2.8-1.1-5.7-1.7-8.3c-1-4.3-1.5-8.7-1.7-13.2c-0.2-3.7-0.4-7.3-0.9-10.9
		c-0.5-3.5-1.2-6.9-1.9-10.3c-0.1,0-0.1,0-0.2,0.1c-0.4,0.2-0.6,0.2-0.7,0.3c0,0,0,0,0,0c0,0,0,0,0,0c-0.1,0-0.5,0.2-1.3,0.6
		c-3.4,1.9-0.8,0.4-1.7,0.8c-0.4,0.2-0.4,0.2-0.1,0c0.2-0.2,1-0.7,1.6-1.3c0.6-0.6,1.3-1.8,1.8-2.5c0.1-0.1,0.1-0.2,0.2-0.2
		c0-0.1-0.1-0.3-0.1-0.4c-0.1-0.3-0.1-0.7-0.2-1c-0.2,0.3-0.8,1-1,1.1c-0.2,0.1-0.2,0.1,0,0.1c0.2,0,0.1,0.2-0.1,0.6
		c-0.3,0.3-0.4,0.6-0.4,0.7c0,0-0.2,0.3-0.6,0.6c-0.6,0.5-0.5,0.5-0.1-0.2c0.3-0.4,0.4-0.7,0.2-0.6c-0.2,0.1-0.2,0,0-0.3
		c0.2-0.3,0.2-0.3-0.1-0.1c-0.2,0.2-0.5,0.5-0.6,0.8c-0.2,0.4-0.2,0.5-0.2,0.1c0.1-1.1-0.1-1.3-0.4-0.9c-0.2,0.3-0.3,0.3-0.4,0
		c0-0.3-0.1-0.3-0.4,0c-0.2,0.3-0.3,0.5-0.2,0.6c0.2,0.2-1,1.9-1.3,2c-0.1,0-0.1-0.1,0.1-0.4c0.1-0.2,0.3-0.6,0.3-0.8
		c0-0.2,0.5-1,1.1-1.8c0.6-0.8,0.9-1.4,0.7-1.3c-0.2,0.1-0.1-0.1,0.2-0.4c0.6-0.6,1.7-3,1.3-2.8c-0.1,0.1-0.5,0.7-0.8,1.3l-0.5,1.1
		l-0.3-0.2c-0.2-0.2-0.1-0.5,0.4-1.1c0.7-0.9,1.1-1.6,1.3-2.2c-1.6-2.2-0.3-1.5-1-2.1c-0.4-0.4-0.4-0.7,0-1c0.3-0.2,0.5-0.5,0.4-0.5
		c-0.1-0.1-0.4,0.1-0.6,0.4c-0.3,0.3-0.5,0.5-0.6,0.4c-0.1-0.1,0.1-0.3,0.3-0.6c0.2-0.2,0.5-0.8,0.6-1.2c0-0.1,0-0.1,0.1-0.2
		c-0.1-0.2-0.2-0.4-0.3-0.6c0,0.1,0,0.3,0,0.4c0.1,0.3-0.1,0.7-0.3,1c-0.4,0.5-0.4,0.5-0.2,0c0.1-0.3,0.2-0.7,0.1-0.7
		c-0.1,0-0.3-0.2-0.4-0.3c-0.2-0.2-0.2-0.3,0.2-0.5c0.2-0.1,0.3-0.2,0.4-0.3c0-0.1-0.1-0.2-0.1-0.2c-1.1-1.6-2.7-2.7-4.4-3.6
		c-0.1,0.1-0.2,0.1-0.3,0c-0.1-0.1-0.1-0.1-0.1-0.2c-0.7-0.4-1.4-0.7-2.1-1.1c-1.7-0.9-3.3-2.1-4.9-3.3c-0.5-0.1-0.9-0.1-1.1-0.1
		c-0.5,0.1-1.1,0.1-1.5,0c-0.3,0-1.2,0.1-1.8,0.4c-1.7,0.7-4,0.9-4.2,0.5c-0.1-0.2-0.3-0.2-0.4,0.1c-0.1,0.3-0.3,0.3-0.5,0
		c-0.1-0.1-0.2-0.3-0.4-0.3c-0.4-0.2,0.5,0.3-1-0.4l-0.3,0c-0.4,0-0.8,0.2-0.9,0.5c-0.1,0.3-0.3,0.3-0.6,0.2
		c-0.3-0.2-1.2-0.4-1.9-0.5c-1.3-0.2-1.3-0.2-0.8-1.1c0.7-1.1,0.7-2.3,0.2-2.6c-0.2-0.1-1.4,0.1-2.8,0.3c-3.1,0.7-5.7,1.3-6.6,1.4
		c-0.4,0.1-1.6,0.3-2.7,0.6c-1.1,0.3-2.6,0.5-3.4,0.6c-0.8,0-2,0.1-2.6,0.2c-0.6,0.1-1.4,0.1-1.7,0c-0.3-0.1-0.9,0.1-1.5,0.4
		c-1.4,0.8-1.6,0.8-0.9,0.2c0.3-0.3,0.6-0.7,0.6-0.9c0-0.2,0.1-0.3,0.3-0.2c0.2,0.1,0.4-0.1,0.5-0.3c0.1-0.3,0.1-0.5,0-0.5
		c-0.1,0-0.1-0.2,0-0.4c0.1-0.2,1-0.5,2.1-0.7c2-0.3,2.4-0.5,2.4-1.1c0-0.2-1.2,0-2.6,0.3c-1.4,0.4-2.8,0.7-3,0.6
		c-0.3,0-0.7,0.2-0.9,0.5c-0.3,0.5-0.4,0.5-0.2,0c0.2-0.6-0.4-0.8-2.8-0.7c-1.3,0.1-1.5-0.1-0.4-0.5c0.4-0.2,0.8-0.5,0.8-0.8
		c0-0.3,0.4-0.6,0.9-0.8c1.2-0.4,2.1-1.2,2-1.8c-0.1-0.3,0.4-0.6,1.5-0.8c1.5-0.3,2.2-0.7,2.1-1.4c0-0.3-3.6-0.2-4.9,0.2
		c-0.4,0.1-0.7,0.1-0.7,0c0-0.2,0.5-0.4,3-1c0.8-0.2,1.7-0.6,1.9-0.8c0.2-0.2,1.1-0.5,2.1-0.5c2.4,0,5.8-1.4,4.6-1.9
		c-1.3-0.5-3.9-0.5-4.8,0.1c-1,0.7-3.1,1.3-3.1,0.9c0-0.2,0.5-0.4,1-0.6c1.1-0.3,2-1,1.8-1.5c0-0.2-1.1-0.1-2.3,0.2
		c-2.2,0.5-3,0.4-1.4-0.3c0.4-0.2,1-0.4,1.3-0.5c0.3-0.1,1.9-0.7,3.7-1.3c0.4-0.1,0.7-0.2,1-0.4c-2.9-0.7-5.8-1.2-8.8-1.5
		c-4,0.8-6.9,1.4-7.5,1.4c-1.8,0.1-0.4-0.4,3.3-1.2c0.6-0.1,1.2-0.3,1.8-0.4c-1.1-0.1-2.2-0.1-3.3-0.1c-7.7,0-14,3.3-20.6,6.6
		c-0.3-0.2-0.7-0.2-1.1-0.2c-0.8-0.3-1.6-0.6-2.5-0.7c-0.3-0.1-0.5-0.3-0.7-0.4h2.7c-0.3-0.2-0.5-0.4-0.5-0.6c0.1-0.3,0.8-0.3,1.6,0
		c0.7,0.2,1.1,0.4,1.3,0.6h0.3c-10.2-4.7-20.8-8.6-31.7-11.4c-11.2-2.9-22.4-5.4-33.8-6.8c-1.1-0.1-2.3-0.3-3.4-0.4
		c-5.7-1.5-11.5-2.9-17.2-3.9c-9.2-1.7-20.5-3.4-30.6-4.9c-10.2-0.4-19.8,0.3-29.3,1.5c-7.9,1.2-13.9,4-20.7,6.2
		c-0.2,0.1-0.2,0.2-0.1,0.3c0.2,0.1,0.4,0.1,0.6,0.1c10.6-1.8,21.7-3,33.6-2.4l4,0.4l0.5,0.1l1.6,0.3c-2.7,0.2-5.5,0.5-8.2,0.8
		c-2.3,0.2-4.4,0.6-6.5,1.4c-2.6-0.4-5.3-0.9-7.9-1.2l-0.8-0.2c-1.1-0.1-2.2,0.1-2.8,0.6c-0.2,0.2-0.3,0.3-0.4,0.5
		c-7.8,0.6-15.6,1.2-22.8,2.8c-0.4,0.1-0.6,0.3-0.5,0.5c-0.1-0.1-0.3-0.1-0.5,0c-0.9,0.3-1.8,0.5-2.8,0.7c-0.2,0.1-0.3,0.2-0.2,0.3
		c0.1,0.1,0.3,0.2,0.5,0.1c1-0.2,2-0.4,3-0.7c0.1,0,0.2-0.1,0.2-0.2c0.2,0.1,0.5,0.2,0.9,0.2c7.4-0.4,14.7-1.7,22.3-1.6
		c-3.8,0.6-7.6,1.1-11.5,1.6c-4.8,0.6-9.2,1.6-14,1.9c-0.2,0-0.4,0.1-0.4,0.3c0,0.1,0.2,0.2,0.5,0.2c9.8-0.4,18.5-3.4,28.8-2.9
		l1.2,0.1c-3.2,0.9-6.4,1.9-9.5,2.9c-9.4,0.1-18.7,0.7-27.8,1.5c-0.4,0-0.8,0.2-0.8,0.5c0,0.3,0.4,0.5,0.8,0.5
		c5.2,0.5,10.4,0.9,15.6,1.4L28,56.9L26.9,57c-3.4,0-6.7,0-10.1,0c-0.2,0-0.5,0-0.7,0c-4-0.1-7.9-0.2-11.9-0.3l10.2,1.8
		c0.2,0.6,1,1,2,1.1l-0.6,0.1c-0.2,0-0.3,0.2-0.3,0.3c0.1,0.1,0.3,0.2,0.5,0.2l2.1-0.5c1.3,0.1,2.6,0.1,3.8,0.2l5.8,1
		c-0.8,0-1.7,0.1-2.5,0.1c0.4,0.2,0.9,0.3,1.3,0.4c1.1-0.1,2.1-0.1,3.2-0.2l3.2,0.6c1-0.1,2-0.4,3-0.7c0.2,0.7,1.1,0.9,2,1
		c2.6-0.2,5.9-1.3,8.5-1.9c-0.8,0.5-1.6,0.7-2.5,0.9c-0.8,0.5,1.9,0.7,1.2,1.2c-1.6,0.7-4.2,0.9-5.9,1.3l0.2,0.7
		c2.5-0.6,4.2-0.9,6.8-1.5c2.6-0.2,3.7,0.7,2.9,1.2c-3.2,1.4-7.5,2-10.9,2.8c0.8-0.2,0.9,0.2,1,0.5c0.8-0.2,2.5-0.6,3.4-0.8
		c-2.7,0.6-5.2,1.2-7.7,1.8c2.2,0.4,4.4,0.7,6.7,1c6.6,0.6,12.8,0.2,18.9,0c2.2,0.3,4.3,0.7,6.5,1.1c-0.1,0.1-0.2,0.2-0.3,0.3
		c2.3,0.1,6.2,0.2,9.4,0.2c3.9,0,5.4,0.2,5.7,0.6c0.1,0.2,0.6,0.4,1.1,0.4c0.5,0,0.8,0.2,0.7,0.3c-0.1,0.3-3.1,0.2-3.6-0.1
		c-0.2-0.1-1.2-0.1-2.3,0.1c-1.1,0.2-2.1,0.3-2.2,0.2c-0.1-0.1-1.4-0.1-2.8,0c-1.5,0.1-3.1,0.2-3.7,0.1c-0.6-0.1-1.9-0.1-3,0
		c-1.1,0-2.2,0.1-2.4,0c-0.9-0.1-2.3,0-2.9,0.2c3.3,0.2,6.5,0.6,9.7,1.1c0.6,0.2,1.3,0.3,2,0.4c0.7,0.1,1.4,0.1,2,0.2
		c0.5,0.1,0.9,0.2,1.4,0.3c-0.1,0.1-0.3,0.2-0.4,0.2c-5.6-0.2-11.1-0.3-16.6-0.4c1.2,0.3,2.4,0.7,3.3,1.3c2.7-1.5,8.3-0.9,13.1-0.7
		c-0.1,0.1-0.3,0.2-0.4,0.2c-0.4,0.2-0.8,0.5-1.2,0.8c-2.9,0.1-5.5,0.2-7.6,0.4c-3.7-0.6-7.5-1.1-11.3-1.6c-0.6,0-1.4,0.1-2.3,0.2
		c4,0.4,8,0.9,11.9,1.5c-0.1,0-0.1,0-0.2,0c-2.2,0.5,2.6,2.7,4.4,4c0.6-0.1,1.3-0.2,2-0.4c1.4-0.3,3.3-0.5,4.3-0.5
		c1,0,2.6-0.1,3.6-0.2c1-0.2,1.8-0.1,1.8,0c0.1,0.7,2.2,0.3,7.3-1.3c3.9-1.2,5.7-1.6,6.9-1.5c0.9,0.1,2.4,0.1,3.2,0
		c1.4-0.2,1.3-0.1-1.1,0.8c-2,0.7-2.6,1-2.3,1.2c0.3,0.2,0.4,0.4,0.4,0.5c0,0.1-0.3,0.1-0.6,0c-0.6-0.3-1.4-0.1-4.1,0.8
		c-0.9,0.3-1.7,0.7-1.7,0.9c0,0.2-0.7,0.4-1.5,0.4c-2.6,0.1-2.7,0.1-8.3,1.2c-1.9,0.3-1.5-0.2,0.5-0.9c1-0.3,1.9-0.8,1.9-1
		c0-0.2-0.9-0.2-2-0.1c-2.2,0.4-2.7,0.4-4.8,0.4c-0.7,0-2.8,0.3-5.3,0.7c-2.5,2.2-6.1,1.9-11,2.4c-1,0.3-1.8,0.5-2.5,0.7
		c-0.5,0.1-1.1,0.3-1.8,0.5c0.6,0.2,1.2,0.3,1.2,0.6c-0.3,0.3-0.7,0.6-1.2,0.8c-1.2,0.1-2.5,0.1-3.7,0.3c0,0,0,0,0,0l0.4,0.6
		l0.5,0.9l-0.1,0.3c0,0.3-0.7,0.6-1.5,0.8h6.2c3.2-1.2,6.2-2.2,7.9-2.9c7-2.9,6.3-2.7,7.9-2.3c1.4,0.3,3.3,0.3,8.4,0.1
		c1.6-0.1,3.7-0.1,4.7-0.1c1.8,0,1.8,0,0.4,0.2c-0.8,0.1-2,0.3-2.7,0.4c-0.7,0.1-1.9,0.3-2.6,0.3c-2.1,0.2-3.4,0.5-7.9,1.6
		c-3.9,1-4.2,1.2-4.1,1.9c0.1,0.8,0.4,0.7,7.8,0.1c1.3-0.1,1.6,0,1.5,0.3c0,0.1-0.5,0.2-1.2,0.3h1.5c0-0.1,0-0.2,0.1-0.3
		c0.1-0.2,0.3-0.4,0.6-0.4c0.5-0.1,0.5-0.1,0,0.4c-0.2,0.2-0.3,0.3-0.4,0.4c0,0.6-0.6,1.7-1.4,2.7c-2.3-0.1-4.6-0.1-6.9-0.2
		c1.8,0.7,4,0.9,6.3,0.9c-0.1,0.1-0.2,0.2-0.3,0.3c-0.2,0.1-0.3,0.3-0.4,0.4c-0.5,0-1.1,0-1.6,0c0,0,0,0,0,0
		c-0.1,0.2-0.3,0.2-0.4,0.1c-0.1,0-0.1-0.1,0-0.2c-0.2,0-0.5,0-0.7,0c-0.5,0.1-1.3,0.1-1.7,0c-0.9,0-1.8,0-2.7,0
		c-0.2,0.2-0.5,0.3-0.7,0.2c-0.2,0-0.1-0.1,0.1-0.3c-2.4,0-4.9-0.1-7.3-0.1c-0.2,0.1-0.3,0.1-0.5,0.2c-4.3,1.4-4.4,1.4-4.3,1.9
		c0.1,0.8,1.3,0.6,4.5-0.4c1.9-0.6,4.1-1,5.4-1c1.2,0,2.2,0,2.3,0c0,0,0.1,0.2,0.1,0.5c0,0.3-0.2,0.5-0.5,0.4c-0.3,0-0.7,0.2-1,0.5
		c-0.2,0.3-0.9,0.6-1.6,0.9c1.1,0.1,2.2,0.1,3.3,0.2c0.8-0.4,1.5-0.7,2-0.9c2.1-1,2.7-0.8,0.8,0.2c-0.6,0.3-0.9,0.6-1.1,0.8
		c1,0.1,2,0.2,2.9,0.2c0.4-0.1,0.5-0.1,0.5,0c0.4,0,0.8,0.1,1.2,0.1c0.2,0,0.3-0.1,0.5-0.1c1.9-0.6,2.3-0.6,2.3,0
		c0.1,0.7-0.2,0.9-1.9,1.5c-0.3,0.1-0.8,0.3-1.5,0.6c0.1,0,0.1,0.1,0.1,0.2c-0.1,0.2-0.2,0.2-0.3,0c0-0.1-0.1-0.1,0-0.2
		c-0.1,0-0.3,0.1-0.4,0.1c0,0,0.1,0.1,0,0.2c-0.1,0.2-0.2,0.2-0.3,0.1c0-0.1,0-0.1,0-0.2c-0.2,0.1-0.5,0.2-0.7,0.3
		c0,0.1,0.1,0.2,0.1,0.4c0,0.3-0.1,0.5-0.2,0.4c-0.1-0.1-0.2-0.3-0.2-0.5c0-0.1,0-0.2,0-0.2c0,0-0.1,0-0.1,0
		c-1.7,0.6-2.5,1.1-2.3,1.3c0.3,0.2,0.1,0.3-0.5,0.3c0,0,0,0,0,0c2.3,0,4.7,0,7,0c-0.1,0.1-0.2,0.2-0.4,0.2
		c-0.5,0.1-0.5,0.4-0.3,0.9c0.2,0.6,0.1,0.8-0.4,0.9l-0.7,0.2l1.2,1.4c1.2,1.4,1.2,1.4,1,2.1c-0.1,0.4-0.6,1-1.1,1.3
		c-1.1,1-0.6,1.1,0.7,0.1c0.6-0.4,1.3-0.7,1.6-0.5c0.8,0.4,1.4,1.3,1.1,1.6c-0.3,0.3-0.3,0.3,0.3,0.3c0.3,0,0.7,0.2,0.9,0.4
		c0.2,0.2,0.2,0.6-0.1,1l-6,0.8c1.9-0.2,3.9-0.4,5.8-0.6c-0.4,0.6-1.2,1.3-2.1,1.9c-0.5,0.3-0.8,0.6-1,0.8c0.1,0,0.1,0,0.2-0.1
		c0.6-0.2,1.1-0.3,1.3-0.2c0.1-0.1,0.2-0.1,0.3-0.2c0.6-0.5,1.7-1,2.6-1.4c-1.3,1.1-2.6,2.1-3.9,3l11.8-4.6c1.6-0.1,3.2-0.3,4.9-0.4
		c-0.2,0.1-0.4,0.1-0.5,0.1c-0.6,0-0.7,0.1-0.5,0.4c0.1,0.2,0.1,0.3,0.1,0.5c-0.5-0.1-1-0.1-1.5-0.2c0.5,0.1,1,0.2,1.5,0.3
		c-0.3,0.5-1.4,1-3.2,1.4c-1.2,0.2-2.6,0.5-3,0.7c-0.4,0.2-0.9,0.2-1.1,0c-0.2-0.2-0.4-0.2-0.6-0.1c-0.1,0.1-0.1,0.3,0.3,0.5
		c0.3,0.2,0.7,0.5,0.9,0.7c0.2,0.2,0.7,0.3,1.1,0.3c1.2-0.1,1.3,0.1,0.5,0.7c-0.5,0.4-0.6,0.6-0.2,0.6c0.3,0,1.3-0.4,2.1-1
		c1.6-1.1,4-1.5,4.6-0.9c0.2,0.2-0.1,0.6-0.7,0.9l-1,0.6l1.8-0.1c0.6-0.1,1.3-0.2,2.1-0.3c0.8,0,2.3-0.1,4.5-0.4
		c2.6-0.2,4-0.5,3.1-0.5c-0.9,0-1.8-0.2-2-0.4c-0.1-0.1-0.2-0.1-0.5-0.1c0.6-0.2,1.2-0.3,1.8-0.5c1.4-0.3,2.8-0.3,3.3-0.2
		c0.1,0,0.3,0.1,0.5,0.1c0,0.1,0.2,0.2,0.3,0.2c0.2,0,0.3-0.1,0.4-0.2c0.1,0,0.2,0,0.2,0c-1.1,0.6-2.3,1.1-3.2,2
		c0.3,0.4,0.7,0.3,1.2,0.4c0.1,0,0.2,0.1,0.3,0.1c-2.1,0.4-4.1,1-6.1,1.7c3.5-0.1,7-0.3,10.7,0.1c-0.7-0.1-1.4,0.1-2.2,0.3
		c1.6-0.2,3.2-0.3,4.8-0.4c0.1,0,0.3,0,0.4,0c-2.5,0.4-5,0.9-7.4,1.8c-3.1,0.9-2,2.7-0.7,3.2c-0.1,0-0.1,0-0.2,0.1
		c-0.8,0.2-1.7,0.5-2,0.7c-0.3,0.1-1.4,0.5-2.4,0.9c-1,0.4-2.3,1.1-2.9,1.6c-0.6,0.5-1.8,1-2.6,1.1c-1.2,0.2-1.4,0.3-0.8,0.5
		l0.8,0.3l-0.7,0.4c-0.4,0.2-1.3,0.4-2,0.3c-0.9-0.1-1,0-0.5,0.2c0.9,0.4,1,0.2-1.6,1.8l-1.3,0.8l1,0.2c0.6,0.1,1.5-0.1,2.2-0.7
		c1.7-1.2,4.1-2.1,5.2-1.9l0.9,0.2l-0.8,0.8c-0.8,0.8-0.8,0.8,0,0.4c0.4-0.2,1.1-0.5,1.4-0.7c0.8-0.5,1,0.7,0.2,1.4
		c-0.4,0.3-0.4,0.5-0.3,0.6c0.5-0.2,1-0.4,1.4-0.5c0.6-0.4,0.9-0.4,1.1,0c0,0.1,0.1,0.2,0.2,0.2c0,0,0.1,0,0.1,0.1
		c0.2,0,0.4-0.1,0.8-0.4c0.5-0.3,1.3-0.7,1.8-0.7l0.9-0.1l-0.8,1c-0.1,0.2-0.3,0.4-0.6,0.6c1.3,0.1,2.7-0.2,4-1.1
		c0.3,0.7,0.9,0.8,1.6,0.9c1.6-0.3,3.3-1.6,4.7-2.3c-0.3,0.6-0.8,0.8-1.2,1c-0.3,0.6,1.4,0.5,1.1,1.1c-0.8,0.8-2.4,1.1-3.3,1.6
		l0.3,0.7c1.4-0.7,2.4-1.1,3.8-1.8c1.6-0.4,2.5,0.4,2.2,1c-0.1,0.1-0.2,0.1-0.2,0.2c4.6-1.1,9.3-2,14.1-2.8c0.5-0.3,1.1-0.5,1.6-0.8
		c0.7-0.4,1.7-0.3,2.3,0.1c2.9-0.5,5.9-1,8.9-1.5c1.7-0.3,3.8,0.2,4,1.1c2.9-1.4,6-2.3,8.9-3.3c0.7-0.2,1.3-0.5,2-0.7
		c-0.7,0.2-1.3,0.5-2,0.7c-0.9,0.3-1.9,0.7-2.8,1c2.4-0.9,4.5-1.4,7.1-1.5c-0.6,0.8-2.3,0.8-2.5,1.7c-3.6,1.1-7.3,2-11,2.8
		c-0.4,0.5-1.5,1-3.5,1.6c-1.2,0.4-2.4,0.7-3.7,1.1c-0.5,0.4-0.9,0.7-1.4,1c0.3-0.1,0.6-0.1,1-0.2c-0.4,0.1-0.8,0.2-1.2,0.3
		c-0.2,0.1-0.4,0.2-0.5,0.4c5.8-0.5,11.5-1.2,17.2-1.8c-7.3,2.1-15.1,3.7-23,5.4c-3.9,2.3-8,4.4-11.9,6.7c0.1,0,0.1,0,0.2,0
		c5.3-1.3,10.6-2.3,16-2.9c-1.3,1-3,1.8-4.3,2.8c1.1-0.4,2.3-0.7,3.5-1l0.6-0.1l-4.2,1.1c-0.3,0.3-0.6,0.5-0.8,0.8
		c0,0.1-0.1,0.2-0.1,0.3c0,0,0.1,0.1,0.1,0.1c0.5-0.4,1-0.8,1.5-1.1l0.3-0.2l-1.8,1.3c0.8,0.3,3.3,0.1,1.5,0.7
		c-0.6,0.3-1.2,0.5-1.7,0.7c0.6,0.1,1.7-0.3,1,0.4c-1.1,1.3-2.3,2.2-3.3,2.9c0.1,0,0.3,0,0.4-0.1c1.1-0.2,2.4-0.3,2.9-0.3
		c0.5,0,0.9-0.2,0.8-0.4c-0.2-0.6,1.6-1.2,2.6-0.8c0.4,0.2,0.7,0.1,0.7-0.2c0-0.3,0.2-0.4,0.5-0.2c0.2,0.1,0.6,0.1,1.2-0.1
		c0.1,0.2,0.3,0.3,0.5,0.5l-1,0.7c-0.7,0.5,0.3,1.1-0.4,1.6c-1.9,2.3-4.2,4-6.6,5.7c0.6,0.3,0.9,0.6,0.6,1c-0.9,0.9-2.6,2.3-4.4,3.7
		c-0.2,0.1-0.5,0.2-0.7,0.4c0.2,0.2,0.4,0.4,0.6,0.2c2-1,3.7-2.9,5.4-3c0.2-0.3,0.4-0.7,0.5-1c0.7,0.2,1.5,0.3,2.2,0.2
		c-0.6,0.3-1.2,0.6-1.7,0.9c0.6,0.2,1.4,0.6,2.3,0l-1,0.7c0.2,0.3,0.6,0.9,0.6,0.9c1.6-0.7,3.5-1.5,5-2.2c0,0,0.4,0.6,0.6,0.9
		l0.7-0.5c2.1,1.6-1.8,3.9-3.3,5.4c0.2,0.3,0.6,0.9,0.8,1.2l0.7-0.5l0.1,0.1c-3.8,2.6-7.5,5.2-11.1,7.8l11.2-7.8l0.3,0.5
		c-1.6,1.1-2.9,2.1-4.4,3.1c0.2,0.3,0.4,0.6,0.8,0.4c-1.3,0.9-3.2,1.8-4.2,3.4c-0.1,0.5,0.8,1.2,2.1,0.8c1-0.7,1.7-1.2,2.7-1.9
		l0.4,0.6c-0.7,0.5-1.9,0.9-2.4,1.7c-0.1,0.5,1.3,0.4,1.2,1c-0.3,0.2-0.7,0.5-0.8,1c0.4-0.3,0.9-0.7,1.4-1.1
		c-1.2,2.1-2.4,4.3-3.5,6.5c-0.1,0-0.3,0-0.3,0.1c-0.1,0.1-0.3,0.1-0.5,0.1c-0.2-0.1-0.5-0.1-0.5,0c-0.1,0.1,0.6,0.2,1.1,0.2
		c-0.5,0.9-0.9,1.8-1.4,2.6c-0.2,0-0.3,0-0.3,0.1c0,0.1-0.2,0-0.4-0.1c-0.2-0.1-0.5-0.2-0.6-0.1c-0.2,0-1.3,0-2.6-0.1
		c-1.3-0.1-4-0.2-6.1-0.4c-5.1-0.4-4.9-0.6-5.8-0.8c-0.6-0.2-1.6-0.3-5.6-1.2c-0.4-0.1-2.5-0.6-4.5-1.3c-1-0.3-2.2-0.7-3.2-1
		c-0.1,0.1-0.1,0.1-0.2,0.2c0,0,0,0,0,0c0,0-0.1,0.1-0.1,0.1c0.2,0.1,0.5,0.2,0.9,0.3c0.7,0.2,2.3,0.7,2.6,0.9
		c0.1,0.1-1.6-0.1-2-0.2c-0.2-0.1-0.2,0,0.1,0.1c0.4,0.2,2.4,0.9,6.5,1.7c1.9,0.5,8.4,1.7,8.4,1.8c0,0-0.8,0-1.7-0.2
		c-0.9-0.1-1.7-0.3-1.7-0.2c-0.1,0.1,1,0.4,2.9,0.7c1.2,0.2,4.2,0.7,6.8,0.9c2.5,0.3,4.7,0.4,4.7,0.3c0.1-0.1,0.1-0.1,0.4,0.2
		c0.2,0.2,0.4,0.3,0.7,0.3c0,0,0,0,0,0c-0.4,0.7-0.8,1.4-1.1,2.1c-0.1,0.3-0.3,0.5-0.5,0.8c-0.6-0.1-1.3-0.1-1.5-0.1
		c-0.2,0,0.2,0.1,0.8,0.2c0.2,0,0.4,0,0.6,0c-0.5,0.8-1,1.6-1.5,2.4c-0.6-0.1-1.3-0.1-1.1,0c0.1,0.1,0.4,0.2,0.7,0.2
		c0.1,0,0.2,0,0.3,0c-0.3,0.5-0.7,1-1,1.5c-1.8-0.3-3.1-0.5-3.1-0.5c0,0.1,1.4,0.4,3,0.6c-4.6,6.8-9.9,12.2-16,18.2l17.8-17.8
		c1.9,0.3,3.7,0.5,3.7,0.4c0.1-0.1-0.8-0.2-3.5-0.6l2.4-2.4c0,0,0,0,0.1,0c0.4,0.1,0.7,0.1,0.7,0c0,0-0.3-0.1-0.6-0.2l5.1-5.1
		c0.7,0,1.5,0.1,2.1,0.1c3.7,0.1,13.2,0.6,13,0.6c-0.2-0.2-5.6-0.8-9.2-0.8c-1.6-0.1-4.8-0.3-5-0.4c-0.1-0.1,0.2-0.1,0.7-0.2
		c0.7-0.1,1.7,0,5.5,0.1c0.4,0,1,0,1.5,0c0.4,0,1,0.1,1.2,0.2c0.2,0.1,0.5,0.1,0.5,0c0-0.1,0.2-0.1,0.4,0c0.5,0.2,3.4,0.5,4.4,0.5
		c0.4,0,0.9,0,1,0.1c0.2,0.1,0.3,0.1,0.3,0.1c-0.1-0.3,2.9,0.2,3.9,0.6c0.4,0.1,0.8,0.2,0.8,0.2c0,0.1-0.1,0.1-0.1,0.2
		c-0.3,0.5,0.3,0.3,0.8,0.5l-2.5,2c0,0-0.1,0-0.1,0c-0.2-0.1-0.4-0.2-0.6-0.2c-0.1,0-0.4,0-0.6,0c-0.2,0-0.1,0,0.4,0.1
		c0.6,0.1,0.7,0.2,0.6,0.3c0,0,0,0,0,0l-1.7,1.4c-0.5,0-0.7,0.1-0.3,0.3l-1.4,1.1c-0.9,0.4-1.8,0.8-2.6,1.3c-0.6,0-1.1,0-1.5,0
		c-1.7,0-3.9,0.1-5,0.2c-1.1,0.2-2.7,0.1-3.7,0.1c-1,0-1.8,0.1-1.7,0.2c0.1,0.1,0.4,0.1,0.6,0.1c0.6,0,6.3,0.2,7.5,0
		c1.1,0,2,0,2.7-0.1c-0.5,0.3-1,0.5-1.5,0.8c1-0.1,1.8-0.3,2.7-0.6l-1.4,1.1c-0.3,0-0.5,0-0.8,0c-0.6,0-2,0.1-3.2,0.1
		c-1-0.3-2.8,0-3.4-0.1c-2.1,0-5.4,0.1-5.2,0.2c0.3,0.3,1.7,0.5,6.8,0.5c2-0.1,3.8,0.1,4.9,0.1l-1,0.8c-1.7,0-4.2,0-7.8-0.1
		c-3.1-0.2-1.9,0.2,1.6,0.4c1.8,0.1,3.6,0.1,4.1,0.1c0.3,0,1,0,1.8,0l-2.5,2c-0.7,0-1.1,0-1.1,0.1c0,0.1,0.3,0.1,0.8,0.1l-2.4,1.9
		c0.9-0.7,1.8-1.3,2.6-1.9c2.7,0.1,9.6,0,10,0.3c0.2,0,0.3-0.1,0.1-0.2c-0.2-0.1-3.3-0.5-9.1-0.3c-0.3,0-0.5,0-0.7,0
		c0.9-0.7,1.9-1.4,2.8-2.1c0.2,0,0.4,0,0.7,0c1,0.4,2.3,0.1,2.5,0.1c0.4-0.1,0.5-0.1,0.6,0.3c0.1,0.2,0.1,0.6,0.1,0.8
		c-0.1,0.3,0,0.3,0.5,0c0.7-0.5,2.4-1.1,3.7-1.3l0.9-0.1l0,0.6c0,0.4,0.1,0.6,0.3,0.6c0.2,0,0.3-0.1,0.3-0.2c-0.1-0.2,0-0.2,0.2-0.1
		c0.2,0.1,0.4,0.1,0.5,0c0.1-0.2,0.9,0.2,0.8,0.5c0,0.1,0,0.1,0.2,0.2c-0.2,0.3-0.3,0.5-0.5,0.8c0.5-0.3,1-0.6,1.5-0.9
		c0.3-0.1,0.6-0.3,0.9-0.5c0.4-0.2,0.9-0.4,1.4-0.6c0,0.1,0,0.1,0,0.2c-0.1,0.1,0,0.4,0.2,0.5c0.2,0.1,0.6,0,1-0.4
		c0.4-0.3,0.8-0.6,1-0.7c0,0,0,0,0,0c-0.6,0.7-1.2,1.5-1.7,2.3c0,0,0,0,0,0c-0.8-0.1-3.5,0-3.6,0.1c-0.1,0.2,2.1,0.1,3,0.1
		c0.2,0,0.3,0,0.4,0c-0.8,1.4,0.4,2.5,1.3,2.7c-0.2,0.4-0.2,0.5,0,0.4c0.2-0.2,0.6-0.3,0.7-0.3c0.1,0.1,0.4-0.3,0.6-0.7
		c0.3-0.3,0.7-0.5,1-0.7c0,0.3-0.1,0.7-0.5,1.4c-0.6,1-0.8,1.8-0.5,1.9c0.2,0.1,0.6-0.1,0.8-0.4c0.2-0.4,0.5-0.5,0.6-0.3
		c0.1,0.2,0.1,0.5-0.6,1.6c-0.2,0.4-0.9,1.6-1.2,1.8c-0.7,1-1.6,2.3-2.7,4c-3.2,4.2-3.2,4.2-2.7,5.1c0.3,0.5,0.5,1.2,0.4,1.5
		c-0.4,1.4-0.7,2-0.9,1.7c-0.1-0.1-0.6-0.3-1.1-0.4c-0.9-0.2-2,0.7-1.4,1.1c0.2,0.2,0.5,0,0.7-0.4c0.3-0.6,0.4-0.6,0.7,0
		c0.2,0.4,0.3,0.8,0.1,1c-0.1,0.2-0.1,0.6,0,0.9c0.2,0.4-0.4,1.5-1.7,3.2c-1.1,1.4-2,2.8-1.9,3.1l0.1,0.6l0.4-0.4
		c0.3-0.2,0.4-0.3,0.5,0c0,0.2,1.2-0.9,2.5-2.6c1.5-1.7,2.6-3,2.8-2.9c0.2,0.1,1.1-0.7,1.9-1.8c0.8-1.1,1.4-2,1.2-1.9
		c-0.2,0.1-0.4,0-0.6-0.1c-0.1-0.1,0.5-1.1,1.5-2.2c1-1.1,3.1-3.9,4.8-6.3c2.5-3.4,4.2-5.7,4.1-4.9c0,0.2,0.1,0.5,0.3,0.6
		c0.1,0.1,0.1,0.5-0.3,1c-0.4,0.5-0.4,0.8-0.1,0.9c0.3,0.1,0.3,0.2-0.1,0.4c-0.9,0.5-1.6,1.5-1.3,2c0.1,0.1,0.1,0.2,0,0.4
		c0.1-0.1-0.3,0.7,0.2-0.2l-0.2,0.5c-0.4,0.7-1,1.7-1.8,3c-1.4,2.2-2.4,3.8-2.1,3.7c0.3,0-0.8,1.6-2.3,3.6c-3.4,4.2-5.5,6.8-5.3,7.4
		c0.2,0.4-0.8,2.4-2.3,4.5c-2.1,3.2-4.1,5.8-4.4,5.9c-0.1,0.1-0.1,0.2,0.1,0.4c0.3,0.3,1.3-0.1,2.1-0.8l0.5-0.5l-0.2,0.6
		c-0.1,0.3-0.1,0.8,0,1.1c0.3,0.6-0.1,3.3-0.6,5.1c-0.2,0.8-0.4,1.5-0.3,1.6c0.2,0.3,0.3,0.1,1.1-2.4c0.4-1.3,1.4-3.3,2-4.1
		c1-1.3,2-3.3,2.3-4.6c0.1-0.3,0.2-0.3,0.3,0c0,0.1,0.1,0.3,0,0.5c-0.2-0.2-0.3-0.2-0.3-0.1c0,0.1,0.1,0.2,0.3,0.4
		c0,0.1-0.1,0.3-0.1,0.4c-0.2,0-0.2,0.1-0.1,0.2c-0.2,0.5-0.5,1.6-0.8,2.5c-0.2,0.9-0.5,1.9-0.8,2.7c-0.1,0-0.1,0-0.2-0.1
		c-0.3-0.3-0.5,0.2-0.2,0.6c0.1,0.1,0.1,0.1,0.2,0.2c-0.2,0.6-0.2,1,0,0.9c0.2-0.1,0.5-0.6,0.7-1.3c0.1-0.2,0.2-0.5,0.4-0.9
		c0.1,0,0.1,0,0.2-0.1c0.1-0.2,0.3-0.4,0.4-0.5c0.2-0.1,0.2-0.3,0.1-0.4c0,0,0.1-0.1,0.1-0.1c0,0,0,0,0.1,0.1
		c0.3,0.1,1.4-0.9,1.5-1.3c0.2-0.5-0.4-0.2-0.9,0.4c-0.1,0.2-0.3,0.4-0.4,0.5c1.1-1.5,2.3-3.2,2.4-2.9c0.1,0.1,0,0.7-0.2,1.3
		c-0.2,0.7-0.2,1.4,0.1,1.7c0.2,0.3,0.3,0.6,0.2,0.8c-0.1,0.1-0.1,0.5,0.1,0.7c0.2,0.3,0.4,0.2,0.5-0.3c0.1-0.4,0.4-1,0.6-1.4
		c0.2-0.4,0.8-1.5,1.3-2.5c0.7-1.5,1.3-2.1,2.2-2.6c0.7-0.4,2.1-1.8,3.6-4c1.3-1.9,2.9-4,3.6-4.7c0.6-0.7,1.6-1.6,2.1-2.2
		c0.3-0.2,2.2-2.9,3.8-5.2c0.1,0.2,0.3,0.4,0.5,0.7c0.4,0.6,0.7,1,1.1,1.5c-1,1.5-2,2.6-2.1,2.5c-0.2,0-0.5,0.3-0.8,0.7
		c-0.3,0.4-1.6,2.2-3.2,4.3c0-0.1,0-0.2-0.1-0.2c-0.1,0-0.1,0-0.1,0.2c0,0.1,0.1,0.1,0.1,0.1c-0.2,0.2-0.4,0.5-0.5,0.7
		c-1.3,1.5-2.3,2.9-2.8,3.6c0,0,0,0,0-0.1c-0.1,0-0.1,0-0.1,0.2c0,0,0,0,0,0.1c-0.1,0.2-0.2,0.3-0.2,0.4c0,0-0.1-0.1-0.1-0.1
		c-0.1-0.1-0.3-0.1-0.3-0.1c0,0.1,0.1,0.2,0.2,0.2c0.1,0.1,0.2,0.1,0.2,0.1c0.1,0.2,0,0.5-0.1,0.8c-0.1,0.1-0.1,0.2-0.2,0.4
		c0,0,0,0,0,0c-0.2-0.2-0.3-0.3-0.3-0.2c0,0.3-0.3,0.3-0.6,0c-0.3-0.3-0.4-0.3-0.5,0.2c-0.1,0.3-0.1,0.4-0.2,0.3
		c-0.1-0.2-0.3-0.1-0.5,0c-0.2,0.2-0.5,0.4-0.6,0.4c-0.2,0.1-0.2,0.2,0,0.4c0.2,0.1,0.2,0.1,0.2,0c0-0.2,0-0.2,0.2,0
		c0.3,0.3,0.2,0.4-0.2,0.7c-0.3,0.1-0.2,0.2,0.1,0.4c0.1,0.1,0.1,0.1,0.2,0.2c0,0-0.1,0.1-0.1,0.1c-0.1,0-0.2-0.1-0.3-0.1
		c-0.5-0.2-0.6-0.3-0.7-0.6c-0.1-0.2-0.2-0.2-0.3,0.1c-0.1,0.3-0.1,0.4,0.1,0.4c0.2,0,0.2,0.1,0.1,0.3c-0.1,0.1-0.3,0.1-0.5,0
		c-0.2-0.1-0.3-0.2-0.4-0.1c-0.1,0.1,0,0.2,0.2,0.2c0.1,0,0.3,0.1,0.4,0.3c0.1,0.1,0,0.2-0.2,0.1c-0.3-0.1-0.3-0.1,0,0.2
		c0.2,0.2,0.2,0.2,0,0.1c-0.4-0.3-0.5-0.1-0.1,0.4c0.3,0.4,0.2,0.4-0.3,0.2c-0.5-0.2-0.5-0.1-0.4,0.2c0.1,0.3,0.1,0.4-0.1,0.2
		c-0.4-0.3-0.2,0.2,0.3,0.6c0.2,0.2,0.4,0.4,0.4,0.5c0,0.1-0.8-0.4-1-0.6c-0.1-0.1-0.2,0-0.2,0.2c0,0.2-0.2,0.3-0.3,0.2
		c-0.4-0.2,0,0.7,0.5,1c0.3,0.2,0.5,0.4,0.5,0.7c0.1,0.4,0.1,0.4,0.5,0.3c0.2,0,0.4,0,0.4,0.1c0,0.1,0.1,0.2,0.2,0.3
		c0.3,0.2,0.3,0.2-0.2,0.2c-0.2,0-0.5-0.1-0.5-0.2c-0.1-0.1-0.1-0.1-0.1,0c-0.1,0.3-0.3,0.4-0.5,0.2c-0.1-0.1-0.4-0.3-0.6-0.3
		c-0.2-0.1-0.3-0.1-0.3-0.2c0.3-0.3,0-0.8-0.6-0.8c-0.5,0-0.7-0.2-0.8-0.6c0-0.2-0.1-0.2-0.2,0c-0.1,0.2,0,0.3,0.2,0.5
		c0.2,0.1,0.3,0.3,0.3,0.4c0,0.1-0.2,0-0.3-0.1c-0.2-0.2-0.3,0-0.4,0.6c-0.1,0.9-0.5,1.2-1.1,0.8c-0.2-0.2-0.2-0.2-0.1-0.2
		c0.2,0,0.1,0-0.1-0.1c-0.4-0.2-0.5,0.3-0.2,0.8c0.2,0.3,0.2,0.6,0,0.8c-0.2,0.2-0.3,0.4-0.4,0.3l-0.1,0c-0.1,0.1-0.5-0.1-0.4-0.2
		c0.1-0.4-0.6,0-1,0.6c-0.3,0.5-0.4,0.7-0.2,0.7c0.3,0.1,0.3,0.1,0.4,0.3c0.1,0.4-0.2,0.7-0.5,0.6c-0.2-0.1-0.3-0.2-0.3-0.5
		c0-0.3-0.1-0.3-0.2,0c-0.1,0.2-0.1,0.5,0,0.6c0.3,0.4,0.1,0.6-0.2,0.3c-0.2-0.1-0.3-0.2-0.4-0.2c0,0.1-0.3,0.4-0.6,0.8
		c-0.3,0.5-0.4,0.8-0.3,0.9c0.1,0.1,0.1,0.5-0.1,0.8c-0.2,0.4-0.3,0.8-0.2,1c0.2,0.4-0.2,0.2-0.7-0.3c-0.2-0.2-0.4-0.3-0.5-0.4
		c-0.2,0-3.9,4.3-4.1,4.9c-0.1,0.3-0.6,0.9-1.1,1.5c-0.9,1-1,1.5-0.4,1.4c0.3,0,0.3,0,0.3,0.3c0,0.2-0.2,0.4-0.3,0.4l-0.3,0.1
		l0.1-0.3c0-0.2,0-0.4-0.1-0.5c-0.2-0.2-0.3-0.1-1.3,1.2c-0.3,0.4-0.8,1-1.1,1.3c-0.3,0.3-0.6,0.8-0.8,1c-0.1,0.3-0.6,0.7-0.9,1
		c-0.5,0.4-0.6,0.7-0.4,0.8c0.2,0.2,0.2,0.2,0,0.1c-0.2-0.1-0.8,0.4-1.6,1.1c1.5-1.2,3.5-1.5,4.7-2.8c4.8-5.5,10.3-10.4,15.1-15
		l-5.8,5.6c2.9-2.7,5.4-5,8.9-7.2c-0.5,1.3-2.8,2.6-2.7,3.7c-7.2,6.5-14.9,12.5-22.2,18.7c0.2-0.6,0.4-1.2,0.7-1.6
		c-0.4,0.3-0.7,0.4-0.9,0.4c-0.5-0.2-0.6-0.1-0.2,0.3c0.3,0.4,0,1-0.3,0.6c-0.3-0.3-0.7-0.3-1,0c-0.2,0.2-0.2,0.4,0.1,0.6
		c0.6,0.5,0.3,0.6-0.5,0.1c-0.8-0.5-1.2-0.4-0.5,0.2c0.2,0.2,0.4,0.3,0.4,0.2c0-0.1,0.2,0,0.4,0.2c0.2,0.2,0.4,0.3,0.5,0.3
		c0.1,0,0.1,0-0.1-0.1c-0.2-0.1-0.3-0.2-0.4-0.3c-0.1-0.1,0.1-0.1,0.3,0c0.2,0.1,0.4,0.1,0.5-0.1c0.1-0.1,0.3-0.3,0.5-0.4l0.4-0.2
		l-0.2,0.5c-0.1,0.2-0.2,0.4-0.3,0.4c0,0-0.1,0-0.2,0.2c-0.3,0.5-0.7,0.8-1.1,0.9l-0.4,0.1l-0.2-0.5c-0.2-0.4-0.2-0.4,0.1-0.1
		c0.2,0.2,0.4,0.3,0.4,0.2c0,0-0.2-0.3-0.4-0.5c-0.5-0.4-1.3-0.7-1.4-0.4c0,0.1-0.3,0.2-0.6,0.3c-0.3,0.1-0.7,0.4-0.8,0.7
		c-0.3,0.7-0.5,0.9-1,0.5c-0.3-0.2-0.3-0.2-0.2,0.1c0.1,0.4,0,0.6-0.4,0.4c0,0,0,0,0,0c0,0.2,0,0.4-0.1,0.7c0.1,0.1,0.1,0.2,0,0.3
		c0,0.2-0.1,0.3-0.2,0.2c-0.2,0.4-0.4,0.8-0.7,1.3c0,0.1,0.1,0.1,0.2,0.1c0.3,0.2,0.3,0.2,0.1,0.4c-0.3,0.3-0.4,0.2-0.6-0.1
		c0,0,0,0,0,0c-0.1,0.1-0.1,0.2-0.2,0.2c0.1,0,0.1,0,0.2,0.1c0.4,0.2,0.3,0.3-0.5,0.8c-0.1,0.1-0.2,0.1-0.3,0.1
		c-2.8,4.4-6.1,8.4-9.4,12.4l0,0.1c2.7-3.4,5.5-6.2,8.2-9.4c-0.8,1-1.5,2.1-2.4,2.9c4.6-4.1,8.8-8.4,13.1-12.6
		c-3.8,5.5-8.2,10.9-12.7,16.2c0.1,0,0.1,0,0.2,0.1c0.1,0.1,0.2,0.2,0.2,0.2c-0.1,0,0.2,0.3,0.5,0.5c0.3,0.2,0.6,0.5,0.7,0.6
		c0,0.1-0.1,0.1-0.2,0c-0.2-0.2-0.2-0.1,0,0.1c0.2,0.3,0.2,0.4-0.1,0.7c-0.2,0.2-0.6,0.5-0.8,0.8c-0.2,0.2-0.5,0.5-0.7,0.6
		c-0.2,0.1-0.4,0.3-0.5,0.5c-0.1,0.2-0.2,0.3-0.3,0.2c-0.1-0.1-0.2,0.1-0.2,0.4c0,0.3-0.1,0.5-0.2,0.5c-0.1,0-0.2,0.2-0.2,0.5
		c0,0.4-0.2,0.5-0.4,0.4c-0.3-0.1-0.3-0.1,0,0.1c0.5,0.3,0.3,0.4-0.3,0.2c-0.4-0.1-0.5-0.1-0.3,0.1c0.1,0.1,0.2,0.3,0.2,0.4
		c-0.1,0.2-0.1,0.2-0.2-0.1c-0.2-0.3-0.2-0.3-0.4-0.2c-0.1,0-0.1,0.1,0,0.2c0.3,0.2-0.1,1.1-0.6,1.4c-0.2,0.1-0.5,0.1-0.7,0
		c-0.2-0.1-0.3-0.2-0.3-0.1c0,0.1,0.2,0.2,0.4,0.4c0.4,0.2,0.4,0.3,0.1,0.1c-0.2-0.1-0.5-0.2-0.6-0.3c-0.1-0.1-0.2-0.1-0.2,0
		c0,0.1,0.1,0.2,0.4,0.4c0.2,0.1,0.4,0.2,0.4,0.1c0-0.1,0.1,0,0.2,0.1c0.1,0.1,0,0.2-0.2,0.2c-0.2,0-1.2,0.4-2.1,0.9
		c-0.1,0-0.1,0-0.1-0.2c0-0.1-0.3,0-0.6,0.2c-0.7,0.5-0.8,0.6-0.4,0.6c0.2,0,0.3,0.1,0.3,0.1c0,0.1-0.2,0.1-0.5,0
		c-0.3-0.1-0.4,0-0.4,0.3c0.1,0.5-0.2,0.7-0.5,0.3c-0.2-0.2-0.7,0.1-1.2,0.8c-0.1,0.2-0.3,0.3-0.3,0.3c-0.1,0,0,0.1,0.1,0.3
		c0.2,0.2,0.1,0.3-0.3,0.2c-0.3-0.1-0.4,0-0.2,0.1c0.2,0.1,0.2,0.3,0.1,0.3c-0.1,0.1-0.2,0.1-0.4-0.2c-0.1-0.2-0.2-0.2-0.2,0
		c0,0.2-0.1,0.3-0.2,0.3c-0.1,0-0.2,0.1-0.5,0.3c-0.6,0.7-1.2,1.5-1.8,2.2c0.3-0.1,0.6-0.3,0.8-0.4c0.3-0.2,0.6-0.3,0.8-0.2
		c0.6-0.6,1.3-1.2,2-1.6c-1.8,2.3-3.7,4.6-5.6,6.9c0.4-0.3,0.8-0.5,1.1-0.7c0.4-0.2,1-0.6,1.3-0.9c0.3-0.3,0.9-0.7,1.3-0.9
		c0.4-0.2,1.1-0.6,1.7-1.1c-0.1,0.2-0.1,0.4-0.2,0.6c-0.1,0.3,0,0.5,0,0.7c4.6-6,9.5-11.8,14.9-17c-0.4,1.5-1.1,3.1-1.4,4.6
		c0.6-0.9,1.3-1.8,2-2.7l0.4-0.4l-2.5,3.2c-0.1,0.5-0.1,0.9-0.1,1.4c0.5,0.3,2.8-2,1.8-0.3c-3.2,6.4-7.5,9.2-6.7,13.5
		c0.4,1,7.8-2.9,6.7-0.5c-1.1,1.8-3.2,4.8-5.5,8.1c-0.8,0.8-1.5,1.7-2.3,2.7c0.1,0.1,0.1,0.2,0.2,0.3c0.5,0.6,2.2,2,3,1.9
		c0.9-0.2,1.4-2.6,1.8-3.4c0.7-1.3,2.1-2.2,2.6-3.6c0.3-1,0.3-2,0.5-3c-2.3,2.7-4.6,5.5-6.8,8.4l-0.1,0c1.9-2.8,5.1-5.9,7-8.7
		c0.1-0.2,0.1-0.5,0.2-0.7c1.1-2.8,3.2-5.7,5.5-7.7c-0.3,1.1-0.7,2.2-0.8,3.3c-0.1,1.3,0.3,2.2,0.5,3.5c0.7-0.3,1-2,1.2-2.8
		c0.4-1.1,0.8-2,1.6-3c0.7-0.8,1.5-1.5,2.3-2.1c0.9-0.7,2-1.1,2.8-1.8c0.4-0.3,0.5-0.5,0.9-0.7c0.5-0.2,0.9-0.2,1.4-0.4
		c0.9-0.3,2.2-0.9,2.9-1.6c1.3-1.4,2.4-3.1,3.8-4.4c1-0.9,2-1.9,2.8-3c-2.3-3.6-3.2-7.3-2.8-9.7c0.2-0.9,0.4-2.5,0.5-3.7
		c0.1-1.5,0.3-2.2,0.7-2.3c0.2,0,0.4-0.2,0.4-0.4c0-0.2,0.2-0.3,0.3-0.3c0.3,0.1,0.1,1.3-0.2,1.4c-0.1,0.1-0.1,0.5,0,0.9
		c0.2,0.4,0.2,0.8,0.1,0.8c-0.1,0-0.1,0.5,0,1.1c0.1,0.6,0.1,1.2,0,1.4c-0.1,0.2-0.1,0.7-0.1,1.2c0,0.4,0,0.8-0.1,0.9
		c-0.2,0.5,0,1.2,0.4,1.2c0.6,0,1.6,1.4,1.6,2.1c-0.1,0.7,0.4,1.8,1,3c0.4-0.4,0.9-0.7,1.2-1.2c0.7-0.8,1.4-1.7,2.1-2.5
		c0.8-0.9,1.7-1.5,2.4-2.5c0.1-0.1,0.2-0.2,0.3-0.3c-0.3-0.6-0.5-1.2-0.5-1.3c0-0.1-0.2-0.7-0.4-1.2c-0.2-0.5-0.4-1.2-0.4-1.6
		c0.1-0.4,0-1-0.1-1.4c-0.1-0.4-0.1-0.7,0.1-0.7c0.7,0,0.2-0.8-1.1-2.8c-1-1.6-1.3-2.3-1.2-2.8c0.1-0.4,0.2-0.9,0.1-1.3
		c-0.1-0.6-0.1-0.5,0.7,0.5c0.6,0.8,0.9,1.1,1.1,1c0.2-0.1,0.4-0.1,0.5-0.1c0.1,0,0.1,0.1-0.1,0.2c-0.3,0.2-0.2,0.6,0.6,1.6
		c0.3,0.4,0.7,0.7,0.9,0.7c0.2,0,0.4,0.3,0.4,0.6c0,1,0,1,0.9,3.1c0.3,0.7-0.3,0.5-0.8-0.2c-0.3-0.4-0.7-0.7-0.9-0.7
		c-0.2,0-0.3,0.3-0.1,0.8c0.3,0.8,0.4,1,0.3,1.8c0,0.4,0.4,1.5,1,2.8c0.4-0.3,0.8-0.6,1.2-1c0.5-0.5,1-0.9,1.4-1.4
		c0.1-0.5,0.1-1.2,0-2.3c0-0.6-0.1-1.4,0-1.7c0.1-0.6,0.1-0.6,0.3-0.1c0.1,0.3,0.2,0.7,0.4,1c0.1,0.3,0.3,0.7,0.3,0.9
		c0.1,0.4,0.2,0.7,0.3,1c0,0,0,0,0,0c0.8-0.8,2.1-0.9,2.7-1.8c0.9-1.1,1.8-2.1,2.9-3.1c0.4-0.3,0.8-0.5,1.2-0.8
		c0-0.1-0.1-0.1-0.1-0.2c-0.4-0.6-0.5-0.8-0.2-0.5c0.2,0.2,0.3,0.4,0.5,0.6c0,0,0.1-0.1,0.1-0.1c0.4-0.4,0.6-1,1-1.4
		c1.6-1.9,4.4-2.5,6.4-4.1l-0.1-0.1c4.2,1.3,8.9,0.8,13.2,0.7c0.1,0,0.3,0,0.4,0c0,0.7,0,1.8-0.1,3.7c0,0.3,0,0.4,0.4,0.6
		c0.6,0.3,0.7,0.4,0.2,0.3c-0.4-0.1-0.5,0-0.6,1.1c-0.1,0.7-0.2,1.6-0.3,2.1c-0.1,0.5-0.1,0.9,0.1,1c0.1,0.1,0.2,0.3,0.1,0.5
		l-0.1,0.4l0.3-0.2c0.6-0.5,0.5,0.5-0.1,1.5c-0.8,1.3-0.8,1.4-0.5,1.8c0.2,0.3,0.3,0.3,0.6,0.1c0.1-0.1,0.4-0.6,0.6-1.2
		c0,0-0.1-0.1-0.1-0.1c-0.2-0.2-0.3-0.4-0.2-0.4c0.1,0,0.2,0,0.5,0.1c0.3-0.8,0.7-1.7,0.7-2c0-0.3,0.2-0.5,0.6-0.6
		c0.5-0.1,0.7-0.1,1.1,0.3c0.4,0.4,0.5,0.4,0.5,0.3c0-0.1,0-0.3-0.2-0.5c-0.2-0.2-0.2-0.2,0-0.1c0.1,0.1,0.2,0.1,0.2-0.1
		c0-0.2,0.1-0.2,0.2-0.1c0.3,0.3,0.4,0.8,0.2,0.7c-0.1,0-0.1,0.1,0.1,0.2s0.1,0.2,0,0.2c-0.1,0-0.1,0.1,0.1,0.2
		c0.2,0.1,0.3,0.3,0.3,0.6c0,0.2,0.1,0.5,0.1,0.6c0,0.1-0.1,0.1-0.2,0c-0.1-0.1-0.2-0.1-0.1,0.1c0.1,0.2-0.2,1.1-0.5,2
		c-0.1,0.3-0.2,0.6-0.3,0.8c0.7,0.6,1.6,1,2.2,1c0.2,0,0.5,0,0.8,0.1c0.5,0.1,1.1,0.1,1.9-0.1c0.7-0.1,1.4-0.2,2.2-0.1
		c0.1,0,0.2,0,0.3,0c0.6-1.9,1-4.3,0.7-4.7c-0.3-0.5-0.3-0.7,0-0.4c0.3,0.3,1.1-1.6,0.9-2.1c-0.2-0.4-0.2-0.4-0.5-0.6
		c-0.3-0.1-0.4-0.2-0.3-0.3c0-0.1,0.3,0,0.5,0.2c0.3,0.2,0.5,0.3,0.5,0.2c0.1-0.3,0.7,1,0.7,1.4c0,0.2,0.2-0.3,0.4-1.1
		c0.4-1.2,0.5-1.4,0.8-1.1c0.2,0.2,0.3,0.6,0.2,1c-0.1,1,0,1.2,0.6,1.8c0.4,0.5,0.5,0.5,0.6,0.2c0.1-0.2,0.1-0.5,0.1-0.8
		c0-0.4,0.2-1.8,0.4-2.5c0.2-0.5,0.5-0.3,1.4,1.1c0.5,0.8,0.6,1.1,0.5,1.8c0,0.6,0.1,1.1,0.3,1.5c0.5,0.8,0.7,0.9,1,0.3
		c0.2-0.4,0.4-0.5,0.7-0.3c0.3,0.1,0.5,0,0.6-0.2c0.1-0.4,0.4-0.3,1.4,0.6c0.6,0.5,0.6,0.5,0.8,0.1c0.1-0.3,0.1-0.5,0.2-0.4
		c0,0,0.1,0.3,0.2,0.7c0.1,0.3,0.3,0.7,0.4,0.8c0.3,0.3,0.3,0.2,0.2-1.2c-0.1-1.1,0-1.5,0.7-3c0.5-1.1,0.8-1.9,0.6-2.1
		c-0.1-0.2-0.1-0.6-0.1-0.9c0.1-0.3,0.2-1,0.3-1.6c1,0.2,2,0.4,3,0.5c0.5,0,0.7-0.1,1.2,0.1c0.4,0.1,0.5,0.4,0.9,0.6
		c0.8,0.3,1.8,0.3,2.5,1c-0.2,0.7-1,1.1-1.6,1.4c-0.3,0.2-0.7,0.3-1,0.4c-0.2,0.1-0.4,0.3-0.6,0.4c1.4-0.1,2.6-0.4,4-0.7
		c-0.8,1.3-2,2.1-2.4,3.6c-0.1,0.5-0.1,1-0.2,1.4c0,0,0.1,0,0.1,0c0.1,0,0.4-0.1,0.6,0c0.2,0,0.4,0,0.6-0.1c0.3-0.5,0.6-1,0.9-1.5
		c0.4-0.6,2-3,2.8-3c0.1,0.5-0.3,1-0.3,1.5c0,0.4,0,0.9,0,1.3c0.2,0,0.3-0.1,0.4-0.1c0.3,0,0.8-0.1,1.1-0.3c0.1-0.1,0.2-0.1,0.4-0.1
		c0.4-0.2,0.9-0.5,1.3-0.7c0,0-0.1,0-0.1,0c-0.2,0-0.3,0-0.3,0c0,0,0-0.1,0.2-0.1c0.2,0,0.3,0,0.3,0c0,0,0,0,0,0
		c0.2-0.1,0.4-0.2,0.5-0.2c1.1-0.4,2.3-0.6,3.4-0.7c-0.3,0.4-0.6,0.8-0.8,1.3c0.5-0.2,1-0.4,1-0.4c0.5,0,0.6,0.1,0.2,0.2
		c-0.2,0-0.9,0.5-1.6,0.9c-0.1,0.2-0.1,0.5-0.2,0.8c0.2,0,0.3-0.1,0.5-0.1c0.2-0.1,0.4-0.1,0.6-0.2c0.4-0.5,0.8-0.9,1.3-1.1
		c0.5-0.2,1,0,1.5,0c0.4,0,1.4-0.3,1.8-0.1c0.2-0.1,0.5-0.1,0.6-0.1c0.2,0,0.6-0.1,1-0.2c0.4-0.1,0.7-0.1,0.8-0.1
		c0.1,0-0.7,0.2-1.6,0.5c-0.2,0-0.3,0.1-0.5,0.1c0.1,0.1,0.1,0.2,0.1,0.3c0.1,0,0.3-0.1,0.5-0.1c0.5-0.1,1.1-0.3,1.3-0.3
		c0.3-0.1,0.5-0.1,0.8-0.1c0.4,0.1,0.4,0.1,0.7,0c0.2,0,0.6-0.1,1-0.2c0.4-0.1,0.9-0.2,1.1-0.2c0.2,0,1.1-0.1,1.9-0.2
		c1.3-0.2,2.4-0.2,1.9-0.2c-0.1,0-0.1,0.1-0.1,0.1c0,0-0.1,0.1-0.3,0.1c-0.7,0-1.5,0.2-1.5,0.3c0,0.1-0.1,0.1-0.3,0.1
		c-0.3,0-2.2,0.6-2.2,0.8c0,0.1-0.4,0.2-0.8,0.4c-0.7,0.3-1,0.6-1,1c0,0.1,0,0.3,0,0.3c0,0-0.3,0.3-0.6,0.5c-0.9,0.6-1,0.8-1.1,1
		c0,0.1-0.2,0.3-0.3,0.4c-0.3,0.1-0.8,0.6-1,0.8c0,0,0.1,0.1,0.3,0.1c0.4,0,1.2-0.4,1.6-0.7c0.1-0.1,0.4-0.2,0.6-0.3
		c0.9-0.1,2.3-0.9,3.5-1.9c0.1-0.1,0.4-0.2,0.6-0.3c0.2-0.1,0.5-0.2,0.5-0.2c0.2-0.2,2.7-1.2,3-1.1c0.3,0,0,0.3-0.5,0.5
		c-0.3,0.1-0.9,0.4-1.3,0.6c-0.8,0.4-0.6,0.6,0.4,0.3c0.6-0.1,1.3-0.2,1.4-0.2c0,0-0.2,0.1-0.4,0.1c-0.8,0.1-1.7,0.4-2.3,0.6
		c-0.3,0.1-0.9,0.3-1.5,0.5c-0.5,0.2-1.1,0.4-1.3,0.5c-1.8,1-4.2,2.8-4.3,3.1c-0.1,0.1-0.1,0.2-0.4,0.3c-0.2,0.3-0.5,0.6-0.7,1
		c-0.2,0.3-0.3,0.6-0.4,1c0.1,0,0.2,0,0.3,0c0.6-0.1,1.1-0.3,1.6-0.9c0.1-0.1,0.5-0.3,0.7-0.3c0.9-0.1,1.4-0.4,2.5-1.4
		c1.3-1,2.6-1.8,3.6-2.3c0.4-0.2,0.8-0.4,0.9-0.4c0.1-0.1,0.3-0.1,0.4-0.1c0.1,0-0.1,0.2-0.4,0.4c-0.3,0.2-0.7,0.4-0.8,0.6
		c-0.2,0.1-0.4,0.3-0.6,0.5c-1.9,1.2-2.3,1.9-2,2c0.1,0,0,0.1-0.2,0.2c-0.2,0.1-0.4,0.2-0.5,0.4c-0.1,0.1-0.2,0.3-0.4,0.4
		c-0.6,0.5-0.8,0.8-0.4,0.9c0.1,0,0.1,0.1,0.1,0.1c0,0,0.1-0.1,0.1-0.1c0.3,0.7-0.1,1.3-0.4,1.9c-0.3,0.8-0.3,1.4-0.3,2.2
		c0,1.5,0.1,3,0,4.5c0,0,0,0,0,0.1c0.4-0.6,0.5-1.5,0.7-2.2c0.1-0.5,0.1-1,0.2-1.5c0.1-0.7,0.5-1.3,0.7-2c0.4-2,1.6-3.5,2.4-5.3
		c-0.1,1-0.5,4.2,0.3,4.8c0.4-1.2,0.4-2.4,0.8-3.5c0.3-0.8,0.5-2.2,1.2-2.8c-0.1,1.2-0.2,2.3,0.7,3.2c0.6-0.2,0.5-1.1,0.7-1.6
		c0.1-0.1,0.1-0.4,0.2-0.6c1.5,1.2,2.8,2.5,4.1,4c1.2,1.3,2.1,2.7,2.7,4.4c0.6,1.6,0.9,4.2,0.4,5.9c-0.4,1.8-3,1.9-4.5,1.7
		c-0.5-0.1-2.5-0.9-3.7-0.8c0,0,0,0,0,0c-0.2,0.1-0.4,0.1-0.5,0.1c-0.1,0-0.2,0.1-0.2,0.1c-0.2,0-0.3,0.1-0.5,0.2
		c-0.3,0.2-0.4,0.7-0.3,1c0,0.1,0.1,0.4,0.2,0.4c0.1,0,0.2-0.2,0.3-0.2c0.1-0.1,0.2-0.2,0.4-0.2c0.8,1.3,4.1,0.9,5.2,0.9
		c1.9,0,3.8,0,5.7-0.3c0.4,2.6,0.9,5.3,1.1,7.9c0.2,2.9-3.8,2.3-5.7,2c-1.1-0.1-1.9-0.5-2.8-1.2c-0.8-0.6-1.6-1.6-2.7-1.7
		c-0.9-0.1-1.3,0.4-1.2,1.1c-0.1,0.1-0.2,0.1-0.2,0.2c0,0,0,0.1,0,0.1c0,0,0,0,0,0c-0.2,0.1-0.4,0.1-0.5,0.3
		c-0.2,0.1-0.1,0.2-0.1,0.4c0,0.1,0,0.3,0,0.4c0.1-0.1,0.1-0.2,0.1-0.2c0.1-0.1,0.1-0.1,0.2-0.2c0.1-0.1,0.2-0.1,0.3-0.1
		c0,0.2,0.1,0.3,0.2,0.4c0.1,0.2,0.3,0.3,0.5,0.4c0.2,0.1,0.3,0.3,0.5,0.3c0.2,0,0.5,0,0.7-0.2c0.3,0.2,0.6,0.3,0.9,0.4
		c2.1,0.8,4.7,1.5,6.9,1.4c2.7-0.1,4.6-1.1,6.7,1.1c1.7,1.7,3.3,3,5.3,4.4c0.2,0.1,0.7,0.5,1.3,0.9c0.2,0.3,0.2,0.7,0.4,1
		c0.3,0.5,0.7,0.7,1.2,0.9c0.4,0.2,0.8,0.4,1.2,0.4c0.2,0.2,0.4,0.4,0.6,0.6c0.1,0.1,0.2,0.4,0.3,0.4c0.2,0,0.2-0.2,0.2-0.3
		c0.1-0.1,0.2-0.2,0.2-0.4c0-0.3-0.1-0.6-0.2-0.9c0,0,0.1-0.1,0.1-0.1c0,0,0-0.1,0-0.1c0.2-0.1,0.3-0.2,0.3-0.5c0-0.5-0.5-1-1.2-1.3
		l-0.1-0.1c0,0,0,0,0,0.1c-0.4-0.2-0.8-0.3-1.2-0.5c-0.1-0.1-0.1-0.2-0.2-0.2c-0.2-0.1-0.3-0.1-0.5-0.2c-0.2-0.1-0.3-0.2-0.5-0.2
		c-0.1,0-0.2-0.1-0.4-0.2c-0.1-0.1-0.3-0.1-0.4-0.2c-0.3-0.1-0.5-0.4-0.8-0.5c-0.5-0.3-0.9-0.7-1.4-1c-0.3-0.1-0.3-0.3-0.4-0.6
		c-0.1-0.3-0.3-0.6-0.6-0.8c-0.1-0.1-0.2-0.3-0.4-0.4c0-0.1,0-0.2,0-0.3c0.2,0,0.3,0,0.5,0c0.5,0,1.1-0.1,1.6-0.1
		c0.3,0.3,0.7,0.5,1,0.8c0.7,0.5,1.4,1.1,2.3,1.1c0.3,0,0.6,0,0.9-0.1c0.3-0.1,0.7,0,1-0.2c0.3-0.1,0.6-0.2,0.8-0.4c0,0,0,0,0,0
		c0.3,0.2,0.6,0.4,0.9,0.5c0.8,0.4,1.7,0.4,2.5,0.8c0.7,0.3,1.3,0.7,2,1c0.5,0.2,2.9,1.1,4.1,0.9c0,0,0,0,0,0
		c0.2,0.1,0.4,0.2,0.6,0.4c0.2,0.1,0.2,0.2,0.3,0.4c0.1,0.1,0.3,0.3,0.2,0.5c0.2-0.4,0.3-0.9,0.1-1.4c-0.1-0.1-0.1-0.3-0.2-0.4
		c0-0.1,0-0.2,0-0.4c0-0.2-0.1-0.3-0.3-0.4c-0.1-0.1-0.2-0.1-0.3-0.1c-0.2-0.2-0.3-0.3-0.6-0.4c-0.4-0.1-0.9-0.2-1.3-0.2
		c-0.6,0-1.3-0.1-1.9-0.2c-0.4-0.1-0.9-0.2-1.3-0.3c-0.1-0.1-0.2-0.3-0.3-0.5c-0.2-0.3-0.7-0.4-1.1-0.4c-0.3,0-0.6,0-0.9,0
		c-0.1-0.1-0.3-0.1-0.4-0.2c-0.1-0.1-0.3-0.2-0.5-0.3c0-0.1,0-0.1,0-0.1c0.2-0.7,1-0.5,1.4-1c0.2,0.2,0.3,0.4,0.4,0.6
		c0.1,0,0.2-0.2,0.2-0.3c0-0.1,0.1-0.1,0.1-0.2c0,0-0.1-0.2-0.1-0.2c0-0.1-0.2-0.3-0.4-0.3c0.1-0.5-0.4-0.6-1-0.4
		c-1.5,0.5-3.1,1-4.8,0.9c0,0,0,0,0,0c-0.1-0.1-0.2-0.1-0.4-0.2c-0.7-0.3-1.4-0.7-2.2-0.8c-0.7-0.1-1.5-0.1-2.2-0.3
		c-0.9-0.2-1.6-0.6-2.4-1c-0.1-0.1-0.3-0.1-0.5-0.2c0-0.3-0.1-0.5-0.1-0.8c-0.1-0.5-0.4-0.9-0.5-1.3c-0.4-1.4-0.9-3.1-0.9-4.4
		c0-1.4-0.3-2.8-0.3-4.2c0.4,0,0.9,0.2,1.3,0.4c0.1,0.1,0.2,0.1,0.3,0.2c1,1.1,2.2,2,3.7,2.2c1.3,0.2,2.5,0.2,3.8,0.5
		c0.5,0.1,1.3,0.3,2,0.3c0.1,0.1,0.2,0.2,0.3,0.2c0.1,0,0.1,0,0.2,0c0.1,0,0.1,0.1,0.1,0.1c0.2,0.1,0.5,0,0.7-0.1
		c0.1-0.1,0.2-0.2,0.2-0.3c0.1,0,0.2,0.1,0.3,0.1c0.2,0.1,0.4,0.3,0.5,0.4c0-0.4,0-0.7-0.3-0.9c0,0-0.1-0.1-0.1-0.1
		c0,0,0-0.1-0.1-0.1c0,0,0-0.1-0.1-0.1c0.2-0.7-1.4-0.7-1.9-0.7c-1.3-0.1-2.6-0.1-3.9-0.1c-1.2,0-2.5,0-3.5-0.8
		c-0.9-0.7-1.4-1.7-2-2.6c3,0.1,6,0.7,9,0.7c2.6,0,5.9,1,8.4-0.2c0.1,0,0.1-0.1,0.2-0.1c0.2,0.1,0.3,0.2,0.4,0.3
		c0.4,0.3,0.8,0.2,1.2,0c0.1,0.1,0.1,0.2,0.2,0.2c0.1,0.1,0,0.3,0.1,0.4c0.1-0.1,0-0.1,0.1-0.2c0.1-0.1,0.1-0.1,0.1-0.2
		c0-0.1,0-0.3,0-0.4c0-0.1,0-0.1-0.1-0.2c0.1-0.1,0.1-0.2,0.1-0.3c0-0.2,0-0.5-0.1-0.8c-0.1-0.2-0.2-0.4-0.3-0.6
		c0-0.1-0.1-0.1-0.1-0.2c0,0,0-0.1,0-0.1c-0.4-0.6-2.7,0.7-3.1,0.8c-2.9,1.1-5.9,0.3-8.9,0.1c0.1-0.1,0.1-0.2,0.1-0.3
		c0.1-0.2,0.3-0.3,0.6-0.4c0.1,0,0.2,0.1,0.3,0.1c0.4,0.2,0.4-0.1,0.3-0.4c0.1,0,0.1-0.1,0.1-0.1c0.1-0.2-0.1-0.4-0.3-0.5
		c-0.2-0.2-0.5-0.3-0.8-0.3c0,0,0,0,0-0.1c0,0,0,0-0.1,0.1c-0.2,0-0.4,0-0.6,0.1c-0.4,0.3-0.7,0.7-1,1c-0.1,0.1-0.3,0.2-0.4,0.3
		c-0.3,0.1-0.6,0.2-0.9,0.2c-0.7,0-1.3-0.1-2-0.1c-0.5,0-1.1,0-1.7,0c-0.3,0-0.6,0-0.9,0c-0.1,0-0.1,0-0.2,0.1
		c-0.8-0.1-1.3-0.6-1.8-1.6c-0.6-1.1-1.3-2.2-1.8-3.4c-1-2.2-2.1-4.4-3.3-6.6c-0.7-1.2-1.4-2.3-2.3-3.4c-0.1-0.1-0.1-0.1-0.2-0.2
		c0.7-3.5,0.7-7.1-0.4-10.7c0.6-0.3,1.3-0.8,1.9-1.4c2.4-2.3,3-5.9,5.3-8.2c1.9-1.9,5.1-2.1,7.5-3c3.8-1.4,7.2-3.8,10.1-6.6
		c2.4-2.3,4.4-5,6.9-7.3c2.3-2,4.9-3.5,7.4-5.2c5.9-4,11-9.1,15.9-14.3c4.8-5.1,8.3-10.8,8.6-18c0.1-3.2-0.3-6.4-0.2-9.5
		c0-3,0.6-5.9,1.3-8.8c1.6-6.1,3.2-12.5,5.9-18.3c1.7-3.7,4-6.7,6.8-9.4c2.9-1.5,6.2-2.7,9.4-3.6c6.7-1.8,14.1-2.7,20.8-0.7
		C371.9,149.8,370.7,149.1,370.4,148.6z M227.5,66.2c0.3-0.1,0.4,0.1,0.3,0.3c-0.1,0.2-0.3,0.4-0.5,0.3c-0.2-0.1-0.3-0.2-0.3-0.3
		C227,66.4,227.2,66.2,227.5,66.2z M225.5,66.9c0.4-0.1,0.5,0,0.2,0.4c-0.3,0.4-0.2,0.5,0.1,0.4c0.7-0.3,3.2-0.3,3.2-0.1
		c0,0.1-0.5,0.4-1.2,0.5C225.4,68.4,223.6,67.5,225.5,66.9z M84,78.3c-1.7,0.2-2.8-0.2-1.2-0.4c0.7-0.1,1.5-0.1,1.8,0.1
		C85.1,78.1,84.9,78.2,84,78.3z M87.3,76.1c-0.1,0.2-0.3,0.2-0.4,0.1c-0.1-0.1,0-0.3,0.2-0.3C87.4,75.8,87.4,75.9,87.3,76.1z
		 M89.7,75.4c-0.4,0.2-1.1,0.4-1.5,0.5c-0.4,0,0-0.2,0.8-0.4C89.8,75.2,90.1,75.1,89.7,75.4z M92.6,72.4c-0.2-0.3-0.2-0.4,0.1-0.5
		c0.2-0.1,0.5,0,0.5,0.3C93.4,72.7,93,72.8,92.6,72.4z M52.9,87.3c-0.6,0-1.3,0-1.9,0c0.8,0,1.6-0.1,2.4-0.2
		C53.2,87.2,53,87.2,52.9,87.3z M73.2,84c-0.1,0.2-0.3,0.2-0.5,0.1c-0.1-0.1,0-0.2,0.2-0.3C73.2,83.8,73.3,83.9,73.2,84z M76.8,83.3
		c-0.1,0.2-0.3,0.2-0.5,0.1c-0.1-0.1,0-0.2,0.2-0.3C76.8,83.1,76.9,83.2,76.8,83.3z M67.1,95.8C67,96,66.8,96,66.7,96
		c-0.1-0.1-0.1-0.2,0.2-0.3C67.1,95.6,67.2,95.6,67.1,95.8z M69.4,101.6c-0.2-0.1-0.3-0.3-0.4-0.4c0-0.1,0-0.2,0.1-0.3
		c0.1,0,0.3,0.1,0.4,0.4C69.6,101.6,69.5,101.7,69.4,101.6z M78.6,89.2c0.2,0,0.3,0,0.1,0.2c-0.1,0.2-0.3,0.2-0.4,0.1
		C78.3,89.3,78.4,89.2,78.6,89.2z M79.2,94c-1.1,0-2.2,0-3.3,0c0.1-0.2,0.3-0.4,0.6-0.7c1.2,0,2.4,0,3.6,0
		C79.8,93.4,79.5,93.7,79.2,94z M80.5,92.8c-1.2-0.1-2.3-0.1-3.5-0.1c0.5-0.6,1-1.2,1.6-1.8c0.4-0.5,0.8-0.8,1-1h1.3
		c0,0.3-0.2,0.7-0.5,1.2c-0.4,0.6-0.6,1-0.4,0.9c0.2-0.1,0.5-0.1,0.8,0.1C80.9,92.1,80.9,92.3,80.5,92.8z M97.6,85.2
		c0.1,0.1,0.2,0.3,0.2,0.4c0,0.1-0.1,0.2-0.2,0.2c-0.1,0-0.2-0.2-0.2-0.4C97.4,85.2,97.5,85.1,97.6,85.2z M89.3,84.9
		c0.2,0,0.3,0,0.1,0.2c-0.1,0.2-0.3,0.2-0.4,0.1C89,85.1,89.1,85,89.3,84.9z M88.5,84.8c0.3-0.1,0.4,0,0.2,0.1
		c-0.1,0.2-0.3,0.2-0.5,0.1C88.1,85,88.2,84.9,88.5,84.8z M86.4,84.6c0.3-0.1,0.8-0.1,1,0l0.5,0.2l-0.5,0.1c-0.3,0.1-0.7,0.1-1,0
		l-0.6-0.2L86.4,84.6z M84.6,89.8C84.4,90,84.2,90,84,89.9c-0.1-0.1,0-0.2,0.3-0.3C84.7,89.6,84.8,89.6,84.6,89.8z M85.5,89.2
		C85,89.1,85,89,85.8,88.6c0.5-0.3,1-0.4,1-0.2C86.9,88.8,86.1,89.3,85.5,89.2z M87.8,90.2c-0.2,0-0.3-0.2-0.3-0.6
		c0-0.4,0.1-0.7,0.2-0.7c0.2,0,0.3,0.2,0.3,0.6C88.1,89.9,88,90.2,87.8,90.2z M90.1,109.9l0.7-0.3c0.2,0,0.4,0.1,0.6,0.1L90.1,109.9
		z M89.2,87.5l-2.3,0.6l1.7-0.7c0.9-0.4,2.2-0.9,2.8-1.2c0.9-0.4,1-0.4,0.5,0.1C91.7,86.7,90.4,87.2,89.2,87.5z M93.7,92.1
		c1.5-0.5,2.1-0.6,1.3-0.3c-0.8,0.3-2,0.7-2.7,0.9C91.6,92.9,92.2,92.6,93.7,92.1z M93.4,93.4c0,0.3-0.2,0.5-0.3,0.5
		c-0.1,0-0.2-0.1-0.2-0.4c0-0.2,0.1-0.5,0.3-0.5C93.4,92.9,93.5,93.1,93.4,93.4z M109.3,106.1c0.9-0.3,2.8-0.6,4.6-0.8
		C113.4,105.8,112.3,106,109.3,106.1z M119.5,102.9c-0.2-0.1-1,0.1-1.8,0.4c-0.6,0.2-1.2,0.5-1.6,0.6c-4.5,0.3-8.3,0.8-8.6,1.1
		c-0.3,0.3-0.2,0.4,0.6,0.3c1,0,1,0,0.4,0.5c-0.2,0.1-0.3,0.2-0.4,0.3c-1.1,0.1-2.3,0.1-3.8,0.2c-1.8,0.1-3.5,0.4-3.8,0.5
		c-0.3,0.1-0.8,0.2-1.1,0.3c-0.3,0.1-0.9,0.3-1.5,0.5c-0.5,0.2-1.4,0.5-1.9,0.7c-0.3,0.1-0.9,0.4-1.4,0.7c-0.8,0-1.6,0-2.4,0
		l15.7-6.1c0.6-0.1,1.3-0.1,2-0.1c0.3,0.1,0.9-0.1,1.3-0.3c1.3-0.1,2.5-0.3,3.5-0.4c-0.4,0.4-0.7,0.7-0.7,1c0.7,0.3,1.2-0.2,1.9-0.3
		c0.7-0.1,1.6-0.3,2.3-0.4c0.5-0.1,0.9-0.1,1.4-0.1c0,0.1,0.1,0.1,0.1,0.2c0,0.1,0,0.1,0.1,0.2C119.6,102.8,119.5,102.9,119.5,102.9
		z M141.6,275.6c-3.2,3-6.3,6.2-9.6,9.4c3.4-3.6,6.4-8.1,10.5-11L141.6,275.6z M157.2,263.2c-3.5,2.5-6.9,5.4-10.2,8.6
		C150.1,268.5,153.6,265.6,157.2,263.2z M144.6,296.2c0-0.3-0.4-0.4-0.5-0.5l3.1-2.1L144.6,296.2z M151.9,289c0.3-0.5,0.5-1,0.7-1.5
		c0.4,0,0.9-0.1,1.3-0.3L151.9,289z M159.4,265.6c-0.3,0.1-0.4,0.1-0.5-0.1c-0.1-0.1,0.1-0.2,0.3-0.2
		C159.7,265.2,159.8,265.4,159.4,265.6z M146,276.5c2-2.2,3.9-4.5,6-6.7c2.9-2.5,5.8-4.9,9-6.9C156,267.4,150.8,271.7,146,276.5z
		 M162.3,267.2c-0.2-0.3-0.2-0.5,0-0.3c0.2,0.2,0.4,0.5,0.4,0.6C162.7,267.7,162.5,267.5,162.3,267.2z M162.9,268.1
		c-0.1,0-0.3,0-0.3-0.1c0-0.1,0.1-0.1,0.2,0C163,268,163.1,268,162.9,268.1z M164.6,269c0.2-0.2,0.3-0.1,0.3,0.2
		c0.1,0.7-0.3,1.1-0.5,0.5C164.4,269.5,164.4,269.2,164.6,269z M166.1,274.8l-2.9,3.1c0.1-0.4,0.1-0.7,0.3-0.8
		C164.3,276.4,165.2,275.6,166.1,274.8z M170,272.3c-0.1,0-0.2,0-0.3-0.1c-0.1-0.1,0-0.1,0.1-0.1C170,272.2,170,272.3,170,272.3z
		 M170.6,273.6c-0.1,0-0.2,0-0.3-0.1c-0.1-0.1,0-0.1,0.1-0.1S170.6,273.6,170.6,273.6z M176.8,228c-0.1,0.1-0.1,0.2-0.1,0.3
		c0,0.2-0.1,0.3-0.3,0.2C176.5,228.3,176.6,228.2,176.8,228z M175.5,229.6c0.3,0.6,0.8,0.8,0.7,0.5c0-0.2,0.1-0.2,0.3,0
		c0.2,0.1,0.3,0.2,0.3,0.3c-0.1,0.1-0.2,0.3-0.3,0.4c-0.3,0-0.8-0.4-1.2-1C175.3,229.8,175.4,229.7,175.5,229.6z M171.6,268.7
		l-0.2,0.2l-0.2-0.2c-0.1-0.1-0.1-0.3,0.1-0.4l0.2-0.2l0.1,0.2C171.8,268.4,171.7,268.5,171.6,268.7z M171.9,268
		c-0.1,0-0.2,0-0.3-0.1c-0.1-0.1,0-0.1,0.2-0.1C171.9,267.9,172,268,171.9,268z M172.1,267.7c-0.1,0-0.3,0-0.3-0.1
		c0-0.1,0.1-0.1,0.2,0C172.2,267.6,172.2,267.7,172.1,267.7z M172.6,264.6c-0.3,0-0.4-0.1-0.2-0.1l0.4,0c0.1,0,0.2,0,0.2,0.1
		C173.1,264.6,172.9,264.6,172.6,264.6z M174.2,268c-0.3-0.4-0.8-0.9-1-1.1c-0.4-0.4-0.3-0.4,0.1-0.2c0.3,0.1,0.8,0.6,1,1.1l0.5,0.8
		L174.2,268z M173,240.8c0.7-0.7,1.4-1.4,2.2-1.9L173,240.8z M175.9,269.2c-0.1,0.2-0.2,0.1-0.6-0.2c-0.2-0.2-0.3-0.4-0.2-0.4
		C175.6,268.7,176,269,175.9,269.2z M176.5,268.5c-0.4,0-0.7-0.1-0.7-0.1c0-0.1,0.2-0.1,0.6-0.1c0.4,0,0.7,0.1,0.7,0.1
		C177.1,268.5,176.8,268.5,176.5,268.5z M177.3,227.4C177.2,227.4,177.2,227.4,177.3,227.4c0.2-0.2,0.4-0.5,0.7-0.9
		c0,0,0-0.1,0.1-0.1C178.1,226.7,178,226.8,177.3,227.4z M192,74.8c0.1-0.2,0.2-0.3,0.3-0.1c0.1,0.2,0.2,0.4,0.1,0.5
		c0,0.1-0.2,0.1-0.3,0.1C192,75.3,191.9,75,192,74.8z M190.6,80.6c0.2-0.1,0.5,0,0.6,0.2c0.1,0.2-0.1,0.2-0.4,0.1
		C190.4,80.8,190.4,80.7,190.6,80.6z M189.3,74.4c0.2-0.2,0.5-0.3,0.5-0.2c0.1,0.1,0,0.4-0.1,0.5c-0.1,0.2-0.4,0.3-0.5,0.2
		C189,74.8,189.1,74.7,189.3,74.4z M189.2,82.2c0.3,0,0.8,0.1,1.1,0.3c0.3,0.2,0,0.2-0.6,0C189.1,82.4,188.9,82.2,189.2,82.2z
		 M187.8,74.1c0.2-0.1,0.3,0,0.4,0.2c0,0.2-0.1,0.2-0.3,0.2C187.6,74.3,187.6,74.2,187.8,74.1z M187.5,81.2c0.1,0.2-0.1,0.2-0.3,0.2
		c-0.3-0.1-0.3-0.2-0.2-0.3C187.2,80.9,187.4,81,187.5,81.2z M186.8,73.8c0.2-0.1,0.3,0,0.4,0.2c0,0.2-0.1,0.2-0.3,0.2
		C186.6,74,186.6,73.9,186.8,73.8z M185,73.7c0.2-0.1,0.5,0,0.6,0.2c0.1,0.2-0.1,0.2-0.4,0.1C184.9,73.9,184.8,73.7,185,73.7z
		 M184.1,79.1c0.3-0.3,2.7,1.2,2.6,1.6c-0.1,0.2-0.6,0-1.1-0.4c-0.5-0.4-1.2-0.8-1.3-0.8C184.1,79.4,184,79.2,184.1,79.1z
		 M183.3,78.3c0.2-0.1,0.5,0,0.6,0.2c0.1,0.2-0.1,0.2-0.4,0.1C183.2,78.5,183.1,78.3,183.3,78.3z M166.6,124.9l-1.7,0.5
		C165.4,125.2,166,124.9,166.6,124.9z M150.5,136.1c-2.7,0.3-5.4,1.1-8.1,2C144.9,137,147.7,136.2,150.5,136.1z M138.9,137.6
		l-0.9,0.8c-2.6,1-5.3,1.9-8,2.9C132.9,140.1,135.7,138.1,138.9,137.6z M134.1,139.9c5.3-0.8,10.8-2.4,16.3-2.3l-1.6,0.6
		c1.4-0.3,2.8-0.5,4.2-0.4c-4,1-8,2.3-12,3.5c1.6-0.9,3.4-1.6,5-2.4c0.8-0.2,1.5-0.4,2.3-0.6C143.6,138.8,138.9,139.3,134.1,139.9z
		 M150.9,155l-2.9,0.2c0.5-0.2,1.1-0.5,1.6-0.8C150,154.7,150.5,154.9,150.9,155z M144.9,153.9l-1.5,0.5c0.2-0.2,0.4-0.5,0.6-0.9
		C144.3,153.7,144.6,153.8,144.9,153.9z M137.2,156.5c0.2-0.3-0.1-0.5-0.1-0.7l0.4,0c0,0,0,0,0,0c0.7-0.1,1.5-0.1,2.3-0.2l-0.7,0.3
		l2,0.1L137.2,156.5z M148.2,184.7c1,0.1,2.9,0.4,6.2,1c0.7,0.1,1.4,0.3,2,0.4c-0.1,0.1-0.2,0.3-0.3,0.4c-0.5-0.1-0.8-0.2-0.8-0.1
		c0-0.1-8.8-1.5-14.2-1.7c-0.5,0-1.1-0.1-1.6-0.1c0.4-0.2,0.8-0.4,1.1-0.6c0.1,0,0-0.2,0-0.4l-1.1,1.1c-1.5-0.1-2.7-0.1-3-0.1
		c-0.1,0-0.2,0-0.3,0l13.4-13.4c1.5-0.7,3-1.5,4.5-2.3c0,0,0,0.1,0,0.1c0,1.1-0.2,2.4,0.1,3.4c0.3-0.2,0.6-0.3,0.9-0.4
		c0.2,0.1,0.3,0.1,0.5,0c0.1-0.1,0.1-0.2,0.2-0.3c0.8-0.2,1.2-0.1,1.7,0.4c0.6,0.5,0.8,1.1,1,1.7c-0.5,0.3-0.9,0.7-1.4,1.1
		c0,0.2,0.1,0.4,0,0.4c-0.4,0.2-0.7,0.4-1.1,0.6c-1,1-1.8,1.9-2.2,2.6c-0.3,1,3.7,2.2,4.1,3c0.6,1.8,0.3,2.5-0.3,3.2c0,0,0,0,0,0
		c-0.3,0-1.1-0.3-1.5-0.5c-0.2-0.1-0.3-0.1-0.1,0c0.1,0.1-0.1,0-0.4-0.2c-0.3-0.2-0.5-0.3-0.4-0.2c0.1,0.1,0,0.1-0.2-0.1
		c-0.2-0.1-0.4-0.2-0.5-0.1c0,0-0.8-0.1-1.6-0.4c-0.9-0.2-1.6-0.3-1.5-0.2c0.1,0.1,0.5,0.2,0.8,0.3c0.4,0.1,1.3,0.3,2,0.5
		c0.7,0.2,1.6,0.5,1.9,0.6c0.3,0.1,0.7,0.2,0.9,0.4c0.1,0.1,0.3,0.2,0.5,0.2c-0.1,0.1-0.2,0.3-0.4,0.4c0,0,0,0,0,0
		c-0.2-0.1-0.4-0.1-0.4-0.1c0,0,0.2,0.1,0.4,0.2c-0.1,0.1-0.1,0.2-0.2,0.2c0,0,0,0,0,0c-1-0.3-1.1-0.4-3.5-0.8
		c-1-0.2-2.3-0.4-2.8-0.5c-0.9-0.1-1.8-0.2-2.5,0C147.5,184.6,147.6,184.6,148.2,184.7z M152.1,151.2c0.1-0.3,0.2-0.5,0.3-0.5
		c0.7-0.2,1.3-0.5,2-0.6L152.1,151.2z M156.1,189.9L156,190L156.1,189.9c0.1,0,0.2-0.1,0.3-0.2c0.2-0.1,0.3-0.2,0.5-0.3
		c0,0.3,0,0.6,0,1c-0.4-0.1-0.8-0.2-1-0.1c-0.1,0-0.2,0-0.3,0.1C155.8,190.1,156,190,156.1,189.9z M145.1,197.6
		c0.4-0.3,0.7-0.5,1.1-0.8c0.1,0,0.2,0,0.3,0c0.5,0,0.9,0.1,1.1,0.3C147.8,197.4,147.4,197.6,145.1,197.6z M162.7,197.7
		C162.6,197.7,162.7,197.6,162.7,197.7L162.7,197.7C162.7,197.6,162.7,197.7,162.7,197.7z M162.3,192.4c-0.8-0.1-1.1-0.1-1.2,0.3
		c-0.2,0.3-0.1,0.5,0.2,0.5c0.3,0,0.4,0.1,0.3,0.4l-0.1,0.2c-0.9,0.7-1.8,1.3-2.7,2.1c-0.1,0-0.2,0-0.3,0c-1-0.1-2.2,0-2.7,0
		c-0.5,0-1,0-1,0c0,0-0.9,0-2,0c-0.7,0-1.6,0-2.5,0c0.5-0.2,0.9-0.5,1.3-0.8c-0.5,0.3-1.1,0.6-1.6,0.8c-0.8,0-1.7,0-2.6,0.1
		c0.7-0.5,1.4-1,2.1-1.5c0.2,0,0.4,0,0.7,0c0.6,0.1,1.4,0.1,1.8,0c0.4-0.1,0.9-0.1,1.1,0c0.2,0,1.3,0,2.3-0.1
		c-0.4,0.2-0.8,0.4-1.2,0.6l-0.3,0.6c1.1-0.1,1.9-0.7,2.6-1.3c0.3,0,0.5,0,0.5-0.1c0,0-0.1-0.1-0.4-0.1c0.3-0.2,0.5-0.4,0.8-0.6
		c0.1,0,0.2,0.1,0.4,0.1c0.2,0,0.5,0,0.5,0c0,0-0.2-0.1-0.4-0.2c-0.1,0-0.3,0-0.4,0c0.2-0.2,0.5-0.3,0.7-0.4
		c-0.8,0.4-1.6,0.7-2.4,1.1c-0.6,0-1.6,0-3,0c-0.9,0-2,0-3,0.1c1.1-0.7,2.1-1.5,3.2-2.2c0,0,0.1,0,0.1,0.1c0.4,0.2,0.4,0.5,0.1,0.8
		c-0.3,0.3,0.7,0.2,1.2-0.1c0.3-0.2,0.8-0.3,1.2-0.3c0.4,0,0.9,0,1.1-0.1c0.3-0.1,0.6-0.1,0.8,0c0.2,0.1,0.4,0.1,0.5,0
		c0-0.1,0.3,0,0.7,0.1c0.4,0.2,0.7,0.2,0.7,0c0.2-0.3-0.6-0.6-2.1-0.7c-0.6-0.1-2.1-0.2-3.2-0.2c-0.2,0-0.3,0-0.4,0
		c0.5-0.3,0.9-0.6,1.4-1c0.3,0.1,0.6,0.2,0.8,0.2c0.2,0.1,0.5,0.1,0.7,0.1c0.1,0,0.2,0,0.3,0c0,0.2,0,0.5,0,0.7
		c0.5-0.2,0.9-0.4,1.4-0.6c0,0,0,0,0,0c0.3,0,0.9,0.1,1.4,0.1c0.5,0,1.1,0.1,1.4,0.3c0.3,0.1,0.6,0.2,0.6,0.2
		c0.1-0.1,1.4,0.2,2.3,0.5c0.1,0,0.1,0,0.2,0.1c-0.1,0.1-0.2,0.1-0.2,0.2c-0.1,0-0.1,0,0,0c-0.2,0.1-0.4,0.3-0.6,0.4
		C163,192.5,162.7,192.5,162.3,192.4z M158.8,190.6c0,0,0.1,0,0.1-0.1C158.9,190.6,158.9,190.6,158.8,190.6z M162.9,188.4
		c0.1,0.2,0.2,0.3,0.3,0.4c0,0,0,0,0,0c-0.2-0.1-0.4-0.2-0.6-0.3c-0.1-0.1-0.3-0.1-0.4-0.2c0.1-0.1,0.2-0.1,0.3-0.2
		C162.6,188.2,162.8,188.3,162.9,188.4z M162.6,188.1c0,0,0.1-0.1,0.1-0.1c0,0.1,0.1,0.1,0.1,0.2
		C162.7,188.2,162.7,188.2,162.6,188.1z M161.6,186.8c0.2-0.1,0.4-0.2,0.6-0.3c0,0.1,0,0.1,0,0.2
		C162.1,186.8,161.9,186.8,161.6,186.8z M161.8,188.7c0.7,0.2,1.4,0.4,1.6,0.6c0.2,0.1,0.4,0.2,0.5,0.2c0,0,0,0,0.1,0
		c0.2,0.2,0.4,0.3,0.7,0.5c-0.3,0.2-0.5,0.3-0.8,0.5c0.5,0.1,1,0.1,1.4-0.1c0.2,0.1,0.4,0.3,0.6,0.5c-0.2,0.1-0.3,0.3-0.5,0.4
		c-0.2-0.1-0.3-0.1-0.3-0.1c0,0,0,0.1,0.2,0.2c-0.2,0.1-0.4,0.3-0.6,0.4c-0.4-0.1-0.7-0.2-1.2-0.3c-1.3-0.4-2.5-0.6-2.5-0.6
		c0,0-0.5-0.1-1.2-0.3c-0.2-0.1-0.4-0.1-0.6-0.1C160.2,189.8,161,189.3,161.8,188.7z M165,153.5c0.3-0.3,0.6-0.5,0.8-0.4
		c1.3-0.1,2.6-0.2,3.8-0.2L165,153.5z M166.1,194.9c-0.7,1.2-0.8,1.3-2.7,1.2c0,0,0,0,0,0c0,0,0,0-0.1,0c0,0-0.1,0-0.1,0
		c0,0,0.1-0.1,0.1-0.1l0,0.1c1-0.7,2-1.3,3.1-1.8C166.3,194.4,166.2,194.6,166.1,194.9z M151.6,141.6l9.6-1.5
		c4.2-0.2,8.2-0.3,12.2,0.1C166.2,140.6,158.9,141,151.6,141.6z M155.7,138.7c4.8-0.7,9.7-0.9,14.4-0.5
		C165.4,138,160.6,138.2,155.7,138.7z M153.9,131.9c3.8-2.4,6.6-0.1,9.4-0.4c7.7-1.3,15.6-1.9,22.7-2.5c-2.8,0.3-5.7,0.5-8.5,0.8
		c4.3-0.5,7.8-0.5,12.2-0.3c-1.3,0.7-4.1,0.4-4.7,1.3C174.7,131.5,164.2,131.4,153.9,131.9z M180,220.2c-0.5-0.7-0.9-1.1-1.2-1.4
		c0.3-0.5,0.6-0.9,0.9-1.3c1.3-2.1,2.5-3.8,3.2-4.9c0.7,0.2,1.3,0.4,2,0.4c0.3,0,0.6,0,0.9,0c-0.6,0.9-1.1,1.7-1.8,2.7
		c-0.5,0.7-1.1,1.7-1.7,2.6c0.1-0.3-1.3,1.8-1.7,2.4c0,0,0,0.1-0.1,0.1C180.4,220.7,180.2,220.5,180,220.2z M181.2,224.6
		c-0.1,0-0.1,0-0.3-0.1c-0.3-0.1-0.5-0.3-0.6-0.4c-0.1-0.1-0.3,0-0.5,0.1c-0.6,0.5-0.6,0.6-0.4,0.8c0.1,0.1,0.2,0.2,0.1,0.4
		c-0.1,0.3-0.7,0.4-0.9,0.2c0.1-0.1,0.2-0.2,0.2-0.3c0,0.1,0.1,0.1,0.1,0c0-0.1,0-0.1,0-0.2c0.5-0.6,0.9-1.2,1.4-1.9
		c0,0.5,0,0.6,0.4,0.8C181,224.3,181.2,224.4,181.2,224.6C181.2,224.5,181.2,224.5,181.2,224.6z M192,214c-0.2,0.3-0.5,0.7-0.7,1
		c-0.4,0.6-0.4,1-0.5,1.7c-0.1,0.5-0.4,0.8-0.6,1.2c-0.5,0.2-1,0.3-1,0.5c-0.1,0.2-0.2,0.2-0.3,0.1c-0.1-0.1-0.2-0.2-0.2-0.1
		c-0.1,0.1-0.3,0.2-1,0.6c-1.9,1.1-2.5,1.4-3,1.8c0.1-0.2,0.3-0.5,0.4-0.8c-0.4,0.4,0.1-0.8-0.4-0.2c0.2-0.8-0.7,1-0.7,1.6
		c-0.1,0-0.1,0.1-0.2,0.1c-0.4,0.3-0.9,0.7-1.2,0.9c-0.2,0.2-0.4,0.4-0.3,0.6c0.2,0.5-0.1,0.5-0.9,0.1c-0.3-0.1-0.5-0.2-0.6-0.2
		c0.1-0.1,0.2-0.3,0.3-0.4c0.8,0.8,0.9,0.6,0.2-0.3c0.6-0.9,1.1-1.7,1.6-2.3c0.4-0.5,2-3,2.2-3.1c0.4-0.4,1.3-1.8,2-2.7
		c0.2-0.3,0.4-0.6,0.6-0.8c0.7,0,1.3-0.1,2-0.3c1.3-0.3,3.2-0.3,4.3-1.1C193.1,212.3,192.5,213.2,192,214z M200.7,82.4
		c0.2-0.1,0.3,0,0.3,0.2c0,0.2-0.1,0.2-0.3,0.2C200.5,82.6,200.5,82.5,200.7,82.4z M196.7,84.9c-0.3-0.1-0.4-0.2-0.2-0.3
		c0.2-0.1,0.5,0,0.6,0.2C197.2,85,197,85,196.7,84.9z M197.8,66.9C197.8,66.9,197.8,66.9,197.8,66.9
		C197.8,66.9,197.8,66.9,197.8,66.9C197.9,66.9,197.8,66.9,197.8,66.9z M198.3,85.2c0.2-0.1,0.5,0,0.6,0.2c0.1,0.2-0.1,0.2-0.4,0.1
		C198.1,85.4,198,85.2,198.3,85.2z M198.2,129.9c1.1-0.1,2.1-0.3,3-0.2L198.2,129.9z M207.1,82.8c-0.2-0.1-0.2-0.2,0-0.3
		c0.2-0.1,0.3,0,0.3,0.2C207.4,82.8,207.2,82.9,207.1,82.8z M207.4,75.4c-0.2,0.1-0.4-0.1-0.3-0.3c0.1-0.2,0.3-0.4,0.5-0.3
		c0.2,0.1,0.3,0.2,0.3,0.3C207.9,75.2,207.7,75.3,207.4,75.4z M208.6,75.5c-0.4,0.1-0.5,0-0.2-0.4c0.2-0.3,0.6-0.3,0.9-0.1
		c0.3,0.2,0.3,0.4,0.2,0.4C209.3,75.4,209,75.4,208.6,75.5z M209.7,274.7c-0.1,0-0.3,0-0.3-0.1C209.3,274.6,209.4,274.6,209.7,274.7
		C209.8,274.6,209.8,274.7,209.7,274.7z M211.2,273.5c-0.2-0.1-0.6-0.4-0.9-0.5l-0.5-0.2l0.7,0.2c0.4,0.1,0.8,0.3,0.9,0.5l0.2,0.3
		L211.2,273.5z M211.7,75.4c-1,0.1-1.8,0-1.6-0.3c0.3-0.4,2.3-0.4,2.1,0C212.3,75.2,212,75.3,211.7,75.4z M218.4,79.9
		c-0.4,0-1.2,0.1-1.6,0.2c-0.4,0.1-0.7,0-0.6-0.2c0.3-0.4,3-0.7,3-0.3C219.2,79.7,218.9,79.8,218.4,79.9z M220.8,75.7
		c-0.4,0.1-1.1,0.3-1.5,0.3c-0.4,0-1,0.1-1.2,0.2c-0.3,0.1-0.3,0,0-0.4c0.3-0.4,0.2-0.5-0.3-0.4c-0.9,0.1-4.2-0.1-4.6-0.3
		c-0.8-0.4,6.2-0.9,7.7-0.5C222,74.8,221.9,75.4,220.8,75.7z M223.8,80c-0.3-0.1-0.2-0.2,0.2-0.5c0.3-0.2,0.6-0.2,0.7-0.1
		c0.2,0.2,0.2,0.3-0.2,0.5C224.3,80,224,80.1,223.8,80z M225.1,80.9c-0.3-0.1-0.3-0.3-0.1-0.3c0.2-0.1,0.5,0,0.5,0.2
		C225.6,81,225.4,81.1,225.1,80.9z M226.1,79.3c-0.1,0.2-0.3,0.4-0.5,0.4c-0.2-0.1-0.2-0.3,0-0.5c0.2-0.2,0.4-0.4,0.5-0.4
		C226.2,78.8,226.2,79.1,226.1,79.3z M229.7,80.8c-0.1,0.2-0.5,0.3-0.8,0.2c-0.7-0.3-0.6-0.5,0.3-0.6
		C229.6,80.3,229.8,80.5,229.7,80.8z M231.2,80.8c-0.1,0-0.4,0-0.6,0.1c-0.4,0.1-0.4,0.1,0.1-0.3c0.3-0.2,0.6-0.3,0.6-0.1
		C231.4,80.7,231.4,80.8,231.2,80.8z M232.3,80.7c-0.2-0.1-0.2-0.2,0-0.3c0.2-0.1,0.3,0,0.3,0.2C232.6,80.7,232.5,80.8,232.3,80.7z
		 M235.1,82.8c-0.2-0.1-0.2-0.2,0-0.3c0.2-0.1,0.3,0,0.3,0.2C235.4,82.9,235.2,82.9,235.1,82.8z M237.2,83.2
		c-0.3-0.1-0.4-0.3-0.2-0.3c0.2,0,0.5,0.1,0.6,0.3C237.7,83.3,237.6,83.3,237.2,83.2z M240,269.7c-0.1,0-0.3,0-0.3-0.1
		C239.6,269.6,239.7,269.6,240,269.7C240.1,269.7,240.1,269.7,240,269.7z M244.5,77.3c-0.1,0.2-0.3,0.4-0.4,0.4
		c-0.1,0,0-0.3,0.1-0.5c0.2-0.2,0.3-0.4,0.4-0.4C244.6,76.9,244.6,77.1,244.5,77.3z M254.3,271c-0.1,0-0.3,0-0.3,0
		C254,271,254.1,271,254.3,271C254.4,271,254.4,271,254.3,271z M255.8,276.9c-0.2,0-0.5,0-0.5,0s0.1,0,0.3-0.1c0.2,0,0.5,0,0.5,0
		C256.1,276.8,256,276.9,255.8,276.9z M275.3,96.8c-0.3,0.7-0.5,0.9-0.6,0.8c0,0,0.1-0.4,0.4-0.7C275.5,96.3,275.5,96.3,275.3,96.8z
		 M274.9,95.8c0.1-0.6,0.4-0.4,0.3,0.3c0,0.4-0.1,0.5-0.2,0.3C274.9,96.3,274.8,96,274.9,95.8z M275.9,94.2l0.2,0
		c0.1,0.1,0.1,0.3-0.1,0.5c-0.2,0.2-0.3,0.2-0.4,0.1c-0.5-0.6,1,0.6-1-1.5C275.2,93.7,273.8,92.3,275.9,94.2z M270.2,85.6
		c0.2,0,0.4,0.1,0.4,0.3c0.1,0.2-0.1,0.2-0.4,0C270,85.8,270,85.6,270.2,85.6z M270.4,87.6c0.6,0.5,0.8,0.9,0.6,1.3
		c-0.3,0.5-0.5,0.4-1-0.3C268.9,87.4,269.2,86.6,270.4,87.6z M269.8,97.6c-0.2,0.2-0.3,0.1-0.4-0.1c0-0.2,0-0.4,0.1-0.5
		c0.1-0.1,0.2,0,0.4,0.1C269.9,97.2,269.9,97.4,269.8,97.6z M268.5,87.2c0.2-0.2,0.3-0.4,0.4-0.3c0.1,0.1,0,0.3-0.2,0.5
		c-0.2,0.2-0.3,0.4-0.4,0.3C268.3,87.7,268.3,87.4,268.5,87.2z M268.3,93.4c-0.1,0.2-0.2,0.2-0.3,0.1c-0.1-0.1-0.1-0.2,0.1-0.3
		C268.3,93.2,268.4,93.3,268.3,93.4z M266.5,86c0.1-1,0.8-1.1,1.3-0.1c0.4,0.8,0.4,1,0,1c-1.2,0.1-2.3-0.1-2.1-0.5
		c0.1-0.2,0.4-0.3,0.5-0.2C266.4,86.4,266.5,86.4,266.5,86z M266,95.2c0.1,0.2,0,0.3-0.1,0.3c-0.1,0-0.4,0.1-0.6,0.4
		c-0.3,0.4-0.3,0.3-0.1-0.1C265.5,95.1,265.9,94.8,266,95.2z M265.6,92.6c0.2-0.1,0.2,0,0.2,0.2c-0.1,0.2-0.2,0.2-0.3,0.1
		C265.4,92.7,265.4,92.6,265.6,92.6z M266.1,85.3c0,0.2-0.1,0.2-0.3,0.1c-0.2-0.1-0.2-0.3,0-0.3C265.9,85,266,85.1,266.1,85.3z
		 M265.6,82.4c0.2,0,0.3,0.2,0.3,0.5c-0.1,0.5-0.2,0.5-0.5,0.2C265,82.6,265,82.5,265.6,82.4z M264.4,81.8c0.1-0.2,0.2-0.3,0.2-0.1
		c0,0.2,0,0.4-0.1,0.5c-0.1,0.1-0.2,0.2-0.2,0.1C264.2,82.3,264.2,82.1,264.4,81.8z M264.3,84.2c0.3,0.1,0.7,0.3,0.8,0.5
		c0.2,0.2-0.1,0.2-0.6-0.1C264.1,84.4,264,84.2,264.3,84.2z M263.9,85.5c0.5-0.6,1.9,0.5,1.4,1.2c-0.3,0.4-0.3,0.4-0.4-0.1
		c-0.1-0.4-0.4-0.7-0.7-0.7C263.7,85.9,263.6,85.8,263.9,85.5z M262.6,85.6c0.2-0.1,0.3,0,0.3,0.2c0,0.2-0.1,0.2-0.3,0.1
		C262.5,85.8,262.5,85.6,262.6,85.6z M262,83c0.2,0,0.4,0.1,0.4,0.2c0,0.2-0.1,0.2-0.4,0.1C261.9,83.2,261.8,83,262,83z M247.1,79.2
		c-0.2,0-0.4-0.1-0.3-0.3c0.1-0.2,0.4-0.4,0.6-0.4c0.2,0,0.4,0.1,0.3,0.3C247.6,79,247.4,79.2,247.1,79.2z M248.1,268.2
		c-0.2,0-0.5-0.1-0.5-0.1c0,0,0.1,0,0.4,0c0.2,0,0.5,0.1,0.5,0.1C248.5,268.2,248.4,268.2,248.1,268.2z M248.7,268.1
		c-0.3,0-0.4,0-0.3-0.1c0,0,0.1-0.1,0-0.1c0,0,0.1,0,0.4,0C249.4,268,249.3,268.1,248.7,268.1z M250.5,101.3
		c-0.2,0.3-0.4,0.7-0.6,0.8c-0.1,0.1-0.1-0.2,0.2-0.7c0.2-0.5,0.5-0.9,0.6-0.8C250.8,100.6,250.7,100.9,250.5,101.3z M254.2,93
		c-0.3,0.3-0.4,0.3-0.2-0.3c0.1-0.4,0.1-0.8-0.1-0.9c-0.3-0.1-0.2-0.2,0.5-0.6c0.4-0.2,0.8-0.3,0.8-0.1
		C255.2,91.6,254.7,92.5,254.2,93z M255.2,89.2c-0.1,0.3-0.5,0.6-0.8,0.8c-0.3,0.1-0.7,0.1-0.7,0c-0.1-0.2-0.1-0.3,0.1-0.2
		c0.2,0,0.6-0.2,1-0.5C255.2,88.9,255.4,88.9,255.2,89.2z M255.3,86.3c-0.3,0-1,0.2-1.6,0.3c-0.9,0.2-2,0.3-2.8,0.2
		c-3-1.1-2.1-0.7-2.6-1.2c-0.1-0.5,0-0.6,0.5-0.3c0.3,0.1,0.9,0,1.3-0.3c2.4,0.6,1.3-0.1,1.8,0.3c0.2,0.5,1.1,0.1,2.3-1.1
		c0.5-0.5,1.1-0.9,1.3-0.8c0.3,0.1,0.2,0.3-0.4,1.2l-0.7,1.1l0.8,0C256.1,85.9,256.2,86.3,255.3,86.3z M256.8,87.4
		c-1,0.3-1.2-0.1-0.7-1c0.5-0.8,1.1-1,0.7-0.2c-0.1,0.2,0,0.6,0.1,0.7l0.3,0.3L256.8,87.4z M257.3,84.4c-0.3-0.3-0.4-0.7-0.2-1.1
		c0.2-0.3,0.4-0.6,0.5-0.5c0.1,0.1,0.1,0.3-0.1,0.5c-0.2,0.2-0.1,0.5,0.2,0.6c0.3,0.1,0.4,0.4,0.3,0.6
		C257.9,84.7,257.6,84.6,257.3,84.4z M258.7,269.3c0,0-0.2,0-0.5,0.1c-0.5,0-0.6,0-0.5,0C257.7,269.2,258.6,269.2,258.7,269.3z
		 M258.8,94.3c0.1-0.2,0.2-0.3,0.2-0.1c0,0.2-0.1,0.4-0.1,0.5c-0.1,0.1-0.2,0.2-0.2,0.1C258.5,94.8,258.6,94.6,258.8,94.3z
		 M259.7,270.3c-0.8,0.2-0.9,0.2-0.7,0.4c0,0,0,0-0.5,0c-0.4-0.1-0.4,0-0.1,0c0.3,0.1,0.3,0.1,0,0c-0.4-0.1-0.5,0-0.8,0.1
		c-0.3,0.1-1.1,0.3-2.1,0.5l-0.4,0.1l0-0.1c0,0,0.3-0.1,0.5-0.2c0.3-0.1,0.6-0.2,0.8-0.3c0.2-0.1,0.5-0.2,0.7-0.2
		c0.2,0,0.8-0.1,1.3-0.2c1-0.2,1.5-0.3,1.8-0.2C260.4,270.1,260.2,270.2,259.7,270.3z M264.3,95.6c-0.1,0.2-0.3,0.5-0.5,0.5
		c-0.2,0.1-0.2,0-0.1-0.2C264.2,95.3,264.6,95.1,264.3,95.6z M264.4,91.6c-0.2,0.2-6.9-4.2-6.8-4.5c0.3-0.3,1.7,0,4.2,0.9
		c0.5,0.2,1.2,0.8,1.5,1.3c0.3,0.5,0.7,1.2,0.9,1.6C264.5,91.2,264.5,91.5,264.4,91.6z M264.7,91.7c0.2-0.6,0.8-0.3,0.6,0.4
		c-0.1,0.4-0.2,0.4-0.5,0.3C264.6,92.3,264.6,92,264.7,91.7z M264.9,96.5c0.2-0.1,0.3-0.2,0.4-0.2c0.1,0.1,0,0.2-0.1,0.4
		c-0.1,0.2-0.3,0.2-0.4,0.2C264.7,96.9,264.8,96.7,264.9,96.5z M270.5,104.7c-0.1,0.1-0.2,0.2-0.2,0.1c0-0.1,0-0.2,0.2-0.2
		C270.6,104.5,270.6,104.6,270.5,104.7z M270.4,104.4c-0.2,0.2-0.3,0.1-0.3-0.1c-0.1-0.2-0.2-0.9-0.4-1.5l-0.2-0.5l-0.1-0.3l0-0.1
		l0,0l0,0l0,0c1.3,1.2-1.4-1.3-1.6-1.5l0,0c0,0,0,0,0,0v0v0l0,0l0,0l-0.1-0.1c-0.2-0.4-0.3-0.7-0.4-1c-0.3-0.9-1.3-1.6-2-1.5
		c-0.3,0-0.3,0,0-0.2c0.4-0.2,0.4-0.3,0.2-0.5c-0.2-0.2,0.2-0.7,0.5-0.6c0.3,0.1,0.4,0,0.5-0.5c0.1-0.3,0.2-0.5,0.3-0.4
		c0.1,0,0,0.4-0.2,0.8c-0.3,0.6-0.3,0.7,0.3,0.4c0.3-0.2,0.6-0.2,0.5,0c0,0.2,0.3,1.2,0.7,2.3l0.2,0.4l0.1,0.2l0,0l0,0l0,0l0,0
		c0.7,0.6-1.6-1.5,1.6,1.5l0,0l0,0l0,0.1l0.3,0.7c0.2,0.5,0.3,0.9,0.4,1.1C270.7,103.8,270.6,104.3,270.4,104.4z M271,90.7
		c-1,1-1.1,1-0.8,0c0.1-0.5,0.3-0.7,0.5-0.9c0.2-0.1,0.2,0,0,0.2c-0.2,0.2-0.3,0.4-0.2,0.5c0.2,0.1,2-2.2,1.8-2.4
		c-0.1-0.3-0.4-0.7-0.9-1.2l-0.4-0.5l0.7,0.1c0.4,0,0.6,0,0.5-0.1c-0.1-0.1-0.1-0.4,0.1-0.6c0.4-0.5,0.8-0.2,0.6,0.5
		c-0.1,0.3,0.2,1.1,0.6,1.7c1.4,2,1.4,2.5,1.3,2.7c-0.1,0.2-0.6-0.3-1.2-1.1c-1-1.2-1.5-1.3-1.8-0.3C272,89.7,271.6,90.2,271,90.7z
		 M273.2,90.8c0.1,0.3,0.1,0.7-0.2,1c-0.3,0.4-0.5,0.4-0.5,0C272.3,90.8,272.8,90,273.2,90.8z M272.4,90.2c-0.1,0,0-0.3,0.1-0.5
		c0.1-0.2,0.2-0.3,0.2-0.1C272.8,90.1,272.6,90.4,272.4,90.2z M271.5,95.3c-0.1-0.1,0-0.4,0.2-0.7c0.4-0.4,0.5-0.4,0.5,0.1
		c0,0.3-0.1,0.8-0.3,1.1c-0.2,0.4-0.3,0.4-0.3,0.1C271.7,95.7,271.6,95.4,271.5,95.3z M272.7,103.6c-0.6,0.8-1.2,1.3-1.3,1.2
		c-0.1,0,0.2-0.3,0.3-0.8c0.1-0.5,0.2-1.1,0.1-1.4c-0.2-0.7-0.3-2.1-0.1-2.3c0.1-0.1,0.3,0.3,0.3,0.7c0.4,2,0.5,2.6,1.2,1.7
		C273.4,102.4,273.4,102.8,272.7,103.6z M273.4,92.2c0.4-0.6,0.6-0.6,0.9-0.3c0.2,0.2,0.2,0.6,0,0.8c-0.2,0.3-0.3,0.3-0.4,0
		c-0.1-0.3-0.3-0.4-0.5-0.1C273,92.7,273.1,92.5,273.4,92.2z M273.7,93.5c0.2,0,0.3,0.1,0.2,0.2c-0.1,0.1-0.2,0.2-0.3,0.1
		C273.4,93.6,273.5,93.5,273.7,93.5z M275.1,102.6c-0.7,0.6-1.3,0.9-1,0.6c0.2-0.4,0.4-0.6,0.9-0.9
		C275.4,102.2,275.4,102.3,275.1,102.6z M275.4,100.8c-0.1,0.5-0.5,0.9-0.9,1c-0.5,0.1-0.5,0.1,0.3-0.7
		C275.4,100.4,275.4,100.4,275.4,100.8z"/>
	<path class="st0" d="M257.8,291.6C257.8,291.6,257.8,291.6,257.8,291.6C257.8,291.6,257.8,291.6,257.8,291.6z"/>
	<path class="st0" d="M27.8,96c-0.4,0.2-0.6,0.4-0.7,0.4C27,96.6,27,96.8,27,96.9c0.7-0.1,1.5-0.3,2.3-0.7
		C28.8,96.1,28.3,96.1,27.8,96z"/>
	<path class="st0" d="M47.7,91.1C47.7,91.1,47.7,91.1,47.7,91.1c0.7,0.1,1.3,0.1,1.9,0.1C49,91.1,48.3,91.1,47.7,91.1z"/>
	<path class="st0" d="M86.3,119.4l-4.6,0.6c3.8-0.5,8.1-0.8,12.3-1.6c1.5-0.2,3.1,2.3,5.1,0.2c-5.6-0.4-11.3-1-17-0.4
		c-0.3,0.9-1.9,0.5-2.5,1.2C82,119.7,84,119.7,86.3,119.4z"/>
	<path class="st0" d="M74.9,118.9l-1.7,0.2C73.8,119.1,74.4,119,74.9,118.9z"/>
	<path class="st0" d="M149.8,204.6l-2,1.7c1.7-1.4,3.6-2.7,5.3-4.5c0.7-0.6,2.8,1.2,2.8-1.1c-3.1,1-6.2,2.1-8.8,3.9
		c0.3,0.8-0.7,0.9-0.6,1.6C147.8,205.9,148.8,205.4,149.8,204.6z"/>
	<path class="st0" d="M143.7,207l-0.7,0.6C143.3,207.5,143.5,207.3,143.7,207z"/>
	<path class="st0" d="M156.2,174.5L156.2,174.5l-5,3.2c0.5,0,1,0.1,1.6,0.4C152.5,176.1,155,175.7,156.2,174.5z"/>
	<path class="st0" d="M148.7,179.2l-1.1,0.6l1.5,0C149,179.6,148.8,179.4,148.7,179.2z"/>
	<path class="st0" d="M145.3,181.6c0-0.3,0.1-0.5,0.2-0.8l-0.9,0.4C144.8,181.2,145,181.4,145.3,181.6z"/>
	<path class="st0" d="M17.8,61.1c0.2-0.1,0.2-0.2,0-0.3c-0.1-0.1-0.4-0.1-0.6,0c-0.1,0.1-0.1,0.3,0,0.3
		C17.4,61.2,17.6,61.2,17.8,61.1z"/>
	<path class="st0" d="M134.2,169c-0.3,0.2-0.7,0.5-1,0.7C133.5,169.5,134,169.2,134.2,169z"/>
	<path class="st0" d="M133.2,169.7c-0.1,0.1-0.2,0.2-0.3,0.2C133,169.9,133.1,169.8,133.2,169.7z"/>
	<path class="st0" d="M156.1,185.3c-0.5-0.3-2.9-0.9-2.7-0.7c0.1,0.1,2.2,0.6,2.9,0.8C156.4,185.4,156.4,185.4,156.1,185.3z"/>
	<path class="st0" d="M165,191.1c0,0-0.3-0.2-0.6-0.3c-0.8-0.3-0.8-0.3,0,0.1C164.7,191,164.9,191.2,165,191.1z"/>
	<path class="st0" d="M150,182.9c0.2,0.1,0.4,0.1,0.5,0.1c0-0.1,0-0.1-0.4-0.2C149.6,182.6,149.5,182.7,150,182.9z"/>
	<path class="st0" d="M152.5,184.5c0.4,0.1,0.7,0.1,0.7,0.1c0,0-0.3-0.1-0.6-0.2c-0.4-0.1-0.7-0.1-0.7-0.1
		C151.9,184.3,152.1,184.4,152.5,184.5z"/>
	<path class="st0" d="M149.5,182.8c0-0.1-0.1-0.1-0.3-0.1c-0.1,0-0.4,0-0.6-0.1c-0.4-0.2-1.5-0.2-1.3-0.1
		C147.6,182.7,149.5,183,149.5,182.8z"/>
	<path class="st0" d="M150.1,184.1c0.6,0.1,1.2,0.2,1.2,0.2c0-0.1-1.7-0.4-2-0.4C149.1,183.8,149.5,183.9,150.1,184.1z"/>
	<path class="st0" d="M146.3,182.2c-0.6-0.1-0.6-0.1-0.1,0.2c0.2,0.1,0.4,0.1,0.5,0.1C146.7,182.3,146.7,182.3,146.3,182.2z"/>
	<path class="st0" d="M153.2,187.3c0,0-0.2-0.1-0.4-0.2c-0.2-0.1-0.5-0.1-0.5,0c0,0,0.2,0.1,0.4,0.2
		C153,187.3,153.2,187.3,153.2,187.3z"/>
	<path class="st0" d="M151.6,186.9c-0.4-0.1-0.7-0.2-0.7-0.1c0,0.1,0.2,0.1,0.8,0.2C152.3,187.1,152.3,187.1,151.6,186.9z"/>
	<path class="st0" d="M150.8,187c0.1-0.1-0.2-0.2-0.6-0.2c-0.2,0-0.1,0.1,0.1,0.2C150.6,187,150.8,187.1,150.8,187z"/>
	<path class="st0" d="M155.6,193.4c-0.2-0.1-0.5-0.1-0.5,0.1c-0.1,0.3,0.1,0.3,0.6,0.2C155.9,193.6,155.9,193.5,155.6,193.4z"/>
	<path class="st0" d="M147.7,191.7c0.4,0.2,2.8,0.3,3.4,0.2c0.7-0.1-0.5-0.5-1.8-0.5C147.8,191.3,147.2,191.4,147.7,191.7z"/>
	<path class="st0" d="M147.2,190c-0.6-0.2-1.9-0.3-1.7-0.1c0.1,0.1,0.4,0.2,0.7,0.2c0.3,0,0.7,0.2,0.9,0.3c0.4,0.3,1,0.3,0.7,0
		C147.7,190.2,147.4,190.1,147.2,190z"/>
	<path class="st0" d="M128.6,181.6c0.8,0,1.6,0,1.7,0c0.1,0,0-0.1-0.3-0.2c-0.2-0.1-0.6-0.1-0.8,0c-0.2,0.1-0.7,0-1-0.1
		c-0.3-0.1-0.7-0.1-0.7,0c0,0.1-0.3,0.1-0.6,0.1c-0.3,0-0.4,0-0.2,0.1C127,181.6,127.8,181.7,128.6,181.6z"/>
	<path class="st0" d="M146,190.4c0,0.1,0.2,0.1,0.4,0.2c0.3,0,0.5,0,0.5,0c0,0-0.2-0.1-0.4-0.2C146.3,190.3,146.1,190.3,146,190.4z"
		/>
	<path class="st0" d="M127.1,182.2c-0.1,0.1,1.6,0.3,2.1,0.1c0.2,0-0.2-0.1-0.9-0.2C127.7,182.1,127.1,182.1,127.1,182.2z"/>
	<path class="st0" d="M145.1,191.7c0.1,0.1,0.4,0.1,0.7,0.1c0.3,0,0.8,0,1,0c0.3,0,0.3,0,0.1-0.2
		C146.5,191.4,144.8,191.4,145.1,191.7z"/>
	<path class="st0" d="M139.9,190.2c-1.5-0.1-1.8,0.1-0.5,0.2c1.3,0.2,4.1,0.2,4.1,0c0-0.1-0.1-0.2-0.4-0.4c-0.2-0.1-0.4-0.1-0.3,0
		C142.9,190.3,142.3,190.3,139.9,190.2z"/>
	<path class="st0" d="M125.8,181.4c0.3,0.2,0.6,0.2,0.6,0.2c0-0.1-0.1-0.2-0.3-0.3c-0.2-0.1-0.5-0.2-0.6-0.2
		C125.3,181.1,125.4,181.2,125.8,181.4z"/>
	<path class="st0" d="M188.2,214.4c0.1,0.2,0.2,0.2,0.3,0.1c0.1-0.1,0-0.2-0.1-0.2C188.2,214.1,188.1,214.2,188.2,214.4z"/>
	<path class="st0" d="M159,199.3c0.1-0.1,0-0.2-0.1-0.2c-0.1,0-0.2,0-0.1,0.2C158.8,199.4,159,199.4,159,199.3z"/>
	<path class="st0" d="M124.3,181.3c0.3,0,0.2,0-0.2-0.2c-0.3-0.1-0.5-0.1-0.3,0C123.8,181.2,124.1,181.3,124.3,181.3z"/>
	<path class="st0" d="M121.3,180.6c-0.6-0.3-0.5-0.2,0.2,0.2c0.3,0.2,0.5,0.3,0.4,0.2C121.8,180.9,121.5,180.7,121.3,180.6z"/>
	<path class="st0" d="M120,180.7c-0.7-0.3-0.9-0.2-0.2,0.2c0.3,0.1,0.4,0.2,0.2,0.1c-0.1-0.1,0.1-0.1,0.4,0c0.3,0.1,0.7,0.1,0.7,0
		l0.1-0.2l-0.3,0.1C120.7,180.9,120.3,180.9,120,180.7z"/>
	<path class="st0" d="M142.9,193.4c0,0.1,0,0.1,0.1,0.2c0.1,0.1,0.3,0.1,0.5,0.1c0.2,0,0.1-0.1-0.1-0.2
		C143.2,193.4,143,193.4,142.9,193.4z"/>
	<path class="st0" d="M141.4,193.5c0,0.1,0.3,0.1,0.6,0.2c0.4,0,0.7,0,0.7,0c0-0.1-0.3-0.1-0.6-0.2
		C141.7,193.4,141.4,193.5,141.4,193.5z"/>
	<path class="st0" d="M118.2,180.5c-1-0.3-1.3-0.4-1-0.2c0.3,0.2,0.3,0.3,0,0.2c-0.6-0.1-0.6,0-0.1,0.2c0.2,0.1,0.4,0.2,0.5,0.1
		c0-0.1,0.2,0,0.4,0.1c0.4,0.2,1.4,0.3,1.5,0.1C119.6,181,119.1,180.8,118.2,180.5z"/>
	<path class="st0" d="M154.8,200.2c-0.3-0.2-2.4,0-2.2,0.1c0.1,0.1,2.3,0.1,2.4,0C154.9,200.3,154.9,200.3,154.8,200.2z"/>
	<path class="st0" d="M160.3,204.4c0.1-0.1,0-0.2-0.1-0.3c-0.2,0-0.2,0.1-0.2,0.2C160.2,204.5,160.3,204.5,160.3,204.4z"/>
	<path class="st0" d="M185.6,218.4c-0.2,0-0.2,0.2-0.2,0.3c0.1,0.2,0.2,0.1,0.3-0.1C185.8,218.5,185.7,218.3,185.6,218.4z"/>
	<path class="st0" d="M140.4,193.6c0.1,0.1,0.4,0.2,0.6,0.2c0.3,0,0.2-0.1-0.2-0.2C140.4,193.5,140.3,193.5,140.4,193.6z"/>
	<path class="st0" d="M115.9,180.3c0-0.1,0-0.2-0.1-0.2c-0.1,0-0.3-0.1-0.4-0.1c-0.2,0-0.1,0.1,0.1,0.2
		C115.7,180.3,115.9,180.3,115.9,180.3z"/>
	<path class="st0" d="M161.5,205.9c0.1-0.2,0.1-0.3-0.1-0.3c-0.1,0-0.2,0.2-0.2,0.3C161.3,206.1,161.4,206.1,161.5,205.9z"/>
	<path class="st0" d="M115.3,180.2c-0.1-0.1-0.3-0.1-0.5-0.2c-0.2,0-0.1,0,0.1,0.2c0.2,0.1,0.4,0.2,0.5,0.2
		C115.4,180.3,115.4,180.2,115.3,180.2z"/>
	<path class="st0" d="M113.7,179.8c-0.7,0.2-1.7-0.1-1.5,0.2c0.2,0.2,1.1,0.3,1.5,0.2C114,179.8,113.8,179.9,113.7,179.8z"/>
	<path class="st0" d="M116.6,181.9c0,0-0.2-0.1-0.4-0.2c-0.2-0.1-0.5-0.1-0.5,0c0,0,0.2,0.1,0.4,0.2
		C116.3,181.9,116.5,181.9,116.6,181.9z"/>
	<path class="st0" d="M115.9,182.1c-0.1,0.1,0.2,0.3,0.8,0.3c0.5,0,0.5,0-0.1-0.2C116.2,182.1,115.9,182.1,115.9,182.1z"/>
	<path class="st0" d="M111.8,179.8c-0.1-0.1-0.3-0.1-0.4-0.2c-0.2,0-0.1,0,0.1,0.2c0.2,0.1,0.4,0.2,0.4,0.2
		C112,180,111.9,179.9,111.8,179.8z"/>
	<path class="st0" d="M113.9,181.9c-0.2-0.1-0.4-0.1-0.5-0.1c0,0,0.2,0.1,0.4,0.2c0.2,0.1,0.4,0.1,0.5,0.1
		C114.4,182.1,114.2,182,113.9,181.9z"/>
	<path class="st0" d="M135.5,194.7c0.1-0.2-0.8-0.4-1.4-0.3c-0.4,0-1.3,0-2.1-0.1c-0.8-0.1-1.4-0.1-1.3,0
		C130.8,194.4,135.4,194.8,135.5,194.7z"/>
	<path class="st0" d="M125.1,189.1c0.4,0,0.8,0,0.8,0c0-0.1-3.8-0.6-5.5-0.8c-2.2-0.3-3.2-0.5-2.8-0.3c0.2,0.1,1.2,0.3,2.2,0.4
		c2.8,0.4,4.2,0.5,4.7,0.8c0.3,0.1,0.3,0.1,0.2,0C124.4,189.1,124.6,189,125.1,189.1z"/>
	<path class="st0" d="M165.2,215.4c0.2-0.3,0.1-0.4,0-0.3c-0.2,0.1-0.3,0.3-0.3,0.5C164.9,215.8,165.1,215.7,165.2,215.4z"/>
	<path class="st0" d="M113.3,183.8c-0.2-0.1-0.4-0.2-0.4-0.1c0,0.1,0,0.1,0.1,0.2c0.1,0.1,0.3,0.1,0.4,0.1
		C113.5,184.1,113.5,184,113.3,183.8z"/>
	<path class="st0" d="M124.2,191.3c-0.2,0-0.1,0,0.1,0.2c0.2,0.1,0.4,0.2,0.5,0.2c0,0,0-0.1-0.1-0.2
		C124.5,191.5,124.3,191.4,124.2,191.3z"/>
	<path class="st0" d="M154.9,212.9c0,0.2,0.1,0.1,0.4-0.2c0.2-0.4,0.3-0.6,0.1-0.4C155.1,212.3,154.9,212.6,154.9,212.9z"/>
	<path class="st0" d="M162,217.5c-0.2,0.1-0.3,0.3-0.3,0.5c0,0.2,0.2,0.1,0.3-0.1C162.2,217.6,162.2,217.5,162,217.5z"/>
	<path class="st0" d="M162.2,219.2c0.2-0.4,0.3-0.6,0.1-0.5c-0.2,0.1-0.4,0.4-0.4,0.7C161.8,219.6,162,219.6,162.2,219.2z"/>
	<path class="st0" d="M161.4,218.9c0.2-0.2,0.2-0.4,0-0.3c-0.2,0.1-0.3,0.3-0.3,0.5C161,219.2,161.2,219.2,161.4,218.9z"/>
	<path class="st0" d="M113,187.1c0.2,0.2,2.1,0.6,2.1,0.5c0-0.1-0.5-0.2-1.1-0.4C113.3,187,112.9,187,113,187.1z"/>
	<path class="st0" d="M127.7,196.4c-0.2,0-0.7-0.1-1.2-0.2c-0.5-0.1-0.8-0.1-0.7,0c0.3,0.2,2.1,0.5,2.2,0.4
		C128,196.5,127.9,196.4,127.7,196.4z"/>
	<path class="st0" d="M120.7,192.6c0.2,0.2,1,0.5,1,0.4c0,0-0.2-0.2-0.6-0.3C120.8,192.6,120.6,192.5,120.7,192.6z"/>
	<path class="st0" d="M114.7,188.3c0.1,0.1,0.3,0.2,0.5,0.2c0.3,0,0.2,0-0.2-0.2C114.8,188.2,114.6,188.2,114.7,188.3z"/>
	<path class="st0" d="M112.7,187.1c0,0-0.1-0.1-0.4-0.2c-0.2-0.1-0.4-0.1-0.5-0.1c0,0,0.1,0.1,0.4,0.2
		C112.5,187.1,112.7,187.1,112.7,187.1z"/>
	<path class="st0" d="M138.1,206.3c0,0-0.3-0.1-0.6-0.3c-0.4-0.1-0.7-0.1-0.8-0.1c-0.1,0.1,0.2,0.2,0.6,0.3
		C137.7,206.3,138.1,206.3,138.1,206.3z"/>
	<path class="st0" d="M154.1,218.5c0,0.1,0.1,0.3,0.2,0.4c0.2,0.2,0.4,0.3,0.4,0.2c0.1-0.1,0-0.3-0.2-0.4
		C154.3,218.5,154.1,218.5,154.1,218.5z"/>
	<path class="st0" d="M101.9,180.6c0,0-0.1-0.1-0.4-0.2c-0.2-0.1-0.4-0.2-0.4-0.1c0,0,0.1,0.1,0.4,0.2
		C101.7,180.6,101.9,180.6,101.9,180.6z"/>
	<path class="st0" d="M107.9,185.3c0,0-0.2-0.1-0.4-0.3c-0.4-0.3-1.1-0.5-1.6-0.5c-0.2,0,0.1,0.1,0.8,0.4
		C107.4,185.2,107.9,185.3,107.9,185.3z"/>
	<path class="st0" d="M157.6,224.1c0.2-0.2,0.2-0.4,0-0.3c-0.2,0-0.3,0.2-0.3,0.4C157.3,224.4,157.4,224.4,157.6,224.1z"/>
	<path class="st0" d="M117.8,194.1c0.1,0.1,0.4,0.2,0.7,0.3c0.3,0.1,0.4,0.1,0.3,0c-0.1-0.1-0.4-0.2-0.7-0.3
		C117.8,194.1,117.7,194,117.8,194.1z"/>
	<path class="st0" d="M156.4,225.6c0.4-0.4,0.4-0.7,0.2-0.5c-0.2,0.2-0.5,0.5-0.6,0.8C155.8,226.2,156,226,156.4,225.6z"/>
	<path class="st0" d="M111,190.7c0.4,0.2,2.9,1.2,3.6,1.3c0.1,0,0,0-0.2-0.2C113.7,191.5,110.5,190.4,111,190.7z"/>
	<path class="st0" d="M105.4,185.6c0,0-0.2-0.2-0.6-0.3c-0.3-0.1-0.6-0.2-0.7-0.2c0,0,0.2,0.2,0.6,0.3
		C105.1,185.5,105.4,185.6,105.4,185.6z"/>
	<path class="st0" d="M155.3,226.6c-0.2,0.1-0.5,0.5-0.6,0.7c-0.1,0.3,0.1,0.2,0.4-0.3C155.5,226.7,155.6,226.5,155.3,226.6z"/>
	<path class="st0" d="M100.5,183c-0.3-0.2-0.4-0.2-0.3-0.1c0.1,0.1,0.3,0.2,0.5,0.3C101,183.3,100.9,183.3,100.5,183z"/>
	<path class="st0" d="M98.5,182.8c0,0,0,0.1,0.1,0.2c0.1,0.1,0.3,0.2,0.4,0.3c0.1,0.1,0.1,0-0.1-0.2
		C98.7,182.9,98.5,182.8,98.5,182.8z"/>
	<path class="st0" d="M136.4,218.1c0,0.2,0.1,0.4,0.1,0.4c0.1,0.1,0.2,0,0.3-0.1c0.1-0.1,0-0.3-0.1-0.4
		C136.5,217.9,136.4,217.9,136.4,218.1z"/>
	<path class="st0" d="M98.3,185.8c1,0.5,2.1,0.9,2.2,0.9c0.1-0.1-0.1-0.2-1.9-1.1C98.4,185.6,98.4,185.7,98.3,185.8
		C98.3,185.8,98.3,185.8,98.3,185.8z"/>
	<path class="st0" d="M96.1,184.7c0.1,0,0.2-0.1,0.3-0.1c-0.2-0.1-0.3-0.2-0.5-0.3c-0.1,0-0.1,0-0.1-0.1c-0.1,0.1-0.1,0.1-0.2,0.2
		C95.8,184.4,96,184.5,96.1,184.7z"/>
	<path class="st0" d="M152.4,233.6c-0.1-0.1-0.2,0-0.2,0.2c0,0.2,0.1,0.2,0.3,0.1C152.6,233.8,152.6,233.6,152.4,233.6z"/>
	<path class="st0" d="M160.8,242.6c0.1-0.2,0.1-0.3,0-0.3c-0.2,0-0.3,0.1-0.2,0.3C160.5,242.8,160.7,242.8,160.8,242.6z"/>
	<path class="st0" d="M160.7,243.5c0.2,0.2,0.3,0.2,0.2,0c-0.1-0.2-0.2-0.4-0.3-0.4c-0.1-0.1-0.2-0.1-0.2,0
		C160.4,243.2,160.5,243.4,160.7,243.5z"/>
	<path class="st0" d="M155.5,244.4c0,0,0.1,0.2,0.2,0.4c0.1,0.2,0.3,0.3,0.4,0.3c0.1-0.1-0.1-0.2-0.2-0.4
		C155.7,244.5,155.6,244.4,155.5,244.4z"/>
	<path class="st0" d="M140.4,231.8c0.1-0.1,0.1-0.2-0.1-0.3c-0.1-0.1-0.2,0-0.2,0.1C140.2,231.8,140.3,231.8,140.4,231.8z"/>
	<path class="st0" d="M127.9,222.8c1,0.7,1.9,1.5,2.1,1.8c0.5,0.6,0.8,0.7,0.5,0.2c-0.3-0.4-0.7-0.8-2.1-1.8
		C126.3,221.5,126.1,221.5,127.9,222.8z"/>
	<path class="st0" d="M149.5,244.8c0.2,0.2,0.4,0.3,0.4,0.2c0,0-0.1-0.2-0.2-0.4c-0.2-0.2-0.4-0.3-0.4-0.2
		C149.3,244.5,149.4,244.7,149.5,244.8z"/>
	<path class="st0" d="M143.4,245.7c-0.1-0.1-0.1,0.1,0,0.3c0.2,0.2,0.3,0.3,0.4,0.3C143.9,246,143.8,245.8,143.4,245.7z"/>
	<path class="st0" d="M144.6,247c-0.3-0.2-0.6-0.4-0.6-0.3c-0.1,0.1,0.1,0.3,0.4,0.5c0.3,0.2,0.6,0.4,0.6,0.3
		C145.1,247.4,144.9,247.2,144.6,247z"/>
	<path class="st0" d="M245.9,295.8c0.1,0,0.2,0,0.4-0.1c0,0,0,0-0.1-0.1c-0.1,0-0.2-0.1-0.2-0.1c-0.1,0-0.1,0-0.2,0
		C245.8,295.6,245.8,295.7,245.9,295.8z"/>
	<path class="st0" d="M245.9,296.4c-0.1,0-0.1,0.1-0.1,0.1c0,0,0,0.1,0,0.1c0,0,0,0,0,0c0,0,0,0,0.1,0c0,0,0.1,0,0.1,0
		C246,296.4,246,296.4,245.9,296.4z"/>
	<path class="st0" d="M245.8,296.6c0,0.1,0.1,0.1,0.1,0c0,0,0,0,0,0C245.9,296.6,245.9,296.6,245.8,296.6
		C245.8,296.6,245.8,296.6,245.8,296.6z"/>
	<path class="st0" d="M220.5,274.9c0.6,0.5,0.8,0.6,0.9,0.4c0.1-0.1-0.1-0.5-0.3-0.9c-0.1-0.1-0.2-0.2-0.2-0.3
		c-0.3-0.1-0.7-0.3-1.2-0.4c-0.2-0.1-0.4-0.1-0.6-0.2c0,0,0.1,0.1,0.1,0.1C219.6,274.2,219.8,274.3,220.5,274.9z"/>
	<path class="st0" d="M219.5,272.9c-0.7-0.4-0.9-0.3-0.6,0.3c0.5,0.1,1,0.3,1.5,0.4C220.1,273.3,219.9,273.1,219.5,272.9z"/>
	<path class="st0" d="M244,299.6c0,0,0.1,0.2,0.2,0.3c0.1,0.1,0.2,0.2,0.2,0.2c0,0-0.1-0.2-0.2-0.3C244.1,299.6,244,299.6,244,299.6
		z"/>
	<path class="st0" d="M213.7,270.4c0-0.1,0-0.2-0.1-0.2c-0.1,0-0.1,0-0.1,0.1C213.6,270.5,213.7,270.5,213.7,270.4z"/>
	<path class="st0" d="M213.6,271.4c0-0.1,0-0.2-0.1-0.2c-0.1,0-0.1,0-0.1,0.1C213.5,271.5,213.6,271.5,213.6,271.4z"/>
	<path class="st0" d="M167.4,236.4c-0.1-0.1-0.3,0.1-0.3,0.3c0,0.3,0,0.3,0.2,0.1C167.5,236.6,167.6,236.4,167.4,236.4z"/>
	<path class="st0" d="M203.8,272.2c-0.1-0.4-0.2-0.5-0.3-0.2c-0.1,0.2,0,0.3,0.2,0.4C203.7,272.4,203.8,272.3,203.8,272.2z"/>
	<path class="st0" d="M165.6,238.3c0.1-0.3,0.1-0.4,0-0.4c-0.1,0.1-0.2,0.3-0.2,0.5C165.4,238.6,165.5,238.5,165.6,238.3z"/>
	<path class="st0" d="M164.4,239.7c0.3-0.3,0.3-0.5,0.1-0.4c-0.3,0.1-0.8,0.9-0.7,1C164,240.3,164.2,240,164.4,239.7z"/>
	<path class="st0" d="M163.1,240.7c-0.1,0-0.1,0-0.1,0.2c0,0.1,0.1,0.2,0.2,0.1C163.2,240.8,163.2,240.7,163.1,240.7z"/>
	<path class="st0" d="M162.4,242.1c0.1-0.2,0.1-0.4,0-0.3c-0.1,0-0.2,0.2-0.2,0.4C162.2,242.3,162.3,242.3,162.4,242.1z"/>
	<path class="st0" d="M162,242.7c0.1-0.1,0.1-0.2,0-0.3c-0.1-0.1-0.2-0.1-0.3,0.1c-0.1,0.1-0.1,0.3,0,0.3
		C161.7,242.8,161.8,242.8,162,242.7z"/>
	<path class="st0" d="M160.5,244.3c0.1-0.1,0.3-0.2,0.5-0.1c0.1,0,0.2,0,0.1-0.1c-0.2-0.3-0.6-0.3-0.7,0.1
		C160.3,244.4,160.3,244.5,160.5,244.3z"/>
	<path class="st0" d="M156.8,249c0.1-0.1,0-0.2-0.1-0.2c-0.1,0-0.1,0-0.1,0.2C156.7,249.1,156.7,249.1,156.8,249z"/>
	<path class="st0" d="M155.9,249.5c-0.1,0.1-0.1,0.2,0,0.2c0.1,0.1,0.3,0.1,0.3,0C156.3,249.5,156.1,249.4,155.9,249.5z"/>
	<path class="st0" d="M144.8,262.2c0.1,0.1,0.3,0,0.4-0.1c0.1-0.3,0-0.4-0.4-0.2C144.6,262,144.6,262.1,144.8,262.2z"/>
	<path class="st0" d="M144.2,262.6c0.1,0.1,0.1,0.2,0.2,0.1c0-0.1,0-0.2-0.1-0.2C144.1,262.4,144.1,262.5,144.2,262.6z"/>
	<path class="st0" d="M143.3,263.1l-0.1,0.3l0.3-0.1c0.2-0.1,0.3-0.2,0.4-0.3c0.1-0.2,0.1-0.2-0.2-0.2
		C143.5,262.8,143.4,262.9,143.3,263.1z"/>
	<path class="st0" d="M143.3,263.6c0.2,0.1,0.4,0.2,0.4,0.2c0,0-0.1-0.2-0.4-0.3c-0.2-0.2-0.4-0.2-0.4-0.2
		C142.9,263.3,143.1,263.4,143.3,263.6z"/>
	<path class="st0" d="M138.7,260.2c0-0.1,0-0.2-0.1-0.2c-0.1,0-0.1,0.1-0.1,0.2C138.6,260.3,138.7,260.3,138.7,260.2z"/>
	<path class="st0" d="M142.5,263.6c-0.2,0-0.3,0.1-0.3,0.2c-0.1,0.2-0.1,0.2,0.2,0.2c0.2,0,0.3-0.1,0.3-0.2
		C142.8,263.6,142.8,263.6,142.5,263.6z"/>
	<path class="st0" d="M138.3,260.5c0-0.1,0-0.2-0.1-0.2c-0.1,0-0.1,0.1-0.1,0.2C138.2,260.6,138.3,260.6,138.3,260.5z"/>
	<path class="st0" d="M141.9,264.2c0-0.1,0-0.2-0.1-0.2c-0.1,0-0.1,0.1-0.1,0.3C141.8,264.4,141.9,264.4,141.9,264.2z"/>
	<path class="st0" d="M142.2,264.6c0,0,0.1,0.2,0.2,0.3c0.1,0.1,0.2,0.2,0.3,0.1c0-0.1-0.1-0.2-0.2-0.3
		C142.3,264.6,142.2,264.6,142.2,264.6z"/>
	<path class="st0" d="M136.1,261.8c0.1,0.1,0.3,0.1,0.3,0.1c0-0.1,0.2-0.3,0.4-0.4c0.2-0.2,0.3-0.4,0.2-0.4c-0.1-0.1-0.3,0-0.4,0.1
		l-0.5,0.4C136,261.5,136,261.7,136.1,261.8z"/>
	<path class="st0" d="M141.6,264.9c0.3,0.3,0.6,0.5,0.7,0.3c0,0-0.2-0.2-0.5-0.4C141.3,264.4,141.1,264.4,141.6,264.9z"/>
	<path class="st0" d="M140.8,265.2c0-0.1,0-0.2-0.1-0.2c-0.1,0-0.1,0.1-0.1,0.2C140.7,265.3,140.8,265.3,140.8,265.2z"/>
	<path class="st0" d="M134.3,263c0.1,0.3,1.4-0.5,1.5-1c0.1-0.2,0-0.3,0-0.3C135.5,261.6,134.2,262.7,134.3,263z"/>
	<path class="st0" d="M139.9,266.5c0,0.1,0.1,0.3,0.2,0.3c0.1,0.1,0.3,0.1,0.3,0c0-0.1-0.1-0.2-0.2-0.3
		C140,266.3,139.9,266.4,139.9,266.5z"/>
	<path class="st0" d="M139.5,266.2c0.1-0.1,0.1-0.2,0-0.3c-0.1-0.1-0.2-0.1-0.3,0c0,0.1,0,0.2,0,0.3
		C139.2,266.2,139.4,266.2,139.5,266.2z"/>
	<path class="st0" d="M133.8,263.4c0.2,0.2,0.4,0.2,0.4,0.1l0-0.2c0,0-0.3-0.1-0.4-0.1C133.4,263.1,133.4,263.1,133.8,263.4z"/>
	<path class="st0" d="M125.4,268.7c-0.2,0.3-0.5,0.5-0.7,0.6c-0.2,0.1-0.3,0.3-0.2,0.6l0.1,0.4l0.2-0.2c0.1-0.1,0.8-0.7,1.5-1.2
		c0.7-0.5,1.3-1.1,1.2-1.2c-0.1-0.1,0-0.2,0.1-0.1c0.1,0.2,1.6-0.6,3.2-1.8c0.3-0.2,1.1-0.8,1.6-1.1c0.8-0.5,1-0.8,0.8-1
		c-0.1-0.2-0.3-0.3-0.3-0.4c-0.1-0.1-1.1,0.5-5.5,3.8c-0.7,0.5-1.3,1.1-1.3,1.2c0.1,0.1,0,0.2-0.1,0.1
		C125.8,268.3,125.6,268.5,125.4,268.7z"/>
	<path class="st0" d="M137.6,267c0,0.1,0.1,0.2,0.2,0.3c0.1,0.1,0.2,0.1,0.1,0c-0.1-0.1-0.2-0.2-0.2-0.3
		C137.7,267,137.7,267,137.6,267z"/>
	<path class="st0" d="M136.2,268.1c0,0.2,0,0.2,0.2,0.1c0.1-0.1,0.3-0.2,0.3-0.3c0-0.1-0.1-0.1-0.2-0.1
		C136.4,267.9,136.2,268,136.2,268.1z"/>
	<path class="st0" d="M135.7,268.5c-0.2-0.1-0.3,0-0.3,0.1c-0.1,0.3,0,0.4,0.4,0.1C135.9,268.7,135.9,268.6,135.7,268.5z"/>
	<path class="st0" d="M135,268.9c0,0.1,0,0.1,0.1,0.2l0.3,0.1c0.1,0,0.1-0.1-0.1-0.2C135.2,268.9,135,268.8,135,268.9z"/>
	<path class="st0" d="M134,269.7c-0.1,0-0.1,0.1-0.1,0.2c0.1,0,0.1,0,0.2,0C134.1,269.8,134.1,269.7,134,269.7z"/>
	<path class="st0" d="M123.4,271.3c0.2-0.1,0.1-0.1-0.1-0.2c-0.2,0-0.3,0-0.2,0.1C123.2,271.3,123.3,271.3,123.4,271.3z"/>
	<path class="st0" d="M122.9,271.6c0-0.1,0-0.3-0.1-0.4c-0.3-0.3-0.4-0.2-0.2,0.2C122.9,271.7,122.9,271.8,122.9,271.6z"/>
	<path class="st0" d="M121.8,272.5c0-0.1-0.1-0.3-0.2-0.4c-0.1-0.1-0.2,0-0.1,0.1s0.1,0.3,0.2,0.4
		C121.8,272.7,121.8,272.6,121.8,272.5z"/>
	<path class="st0" d="M121.4,273c0-0.1-0.1-0.2-0.2-0.3c-0.1-0.1-0.3-0.2-0.4-0.2c-0.1,0,0,0.1,0.2,0.3
		C121.2,273,121.4,273,121.4,273z"/>
	<path class="st0" d="M118.4,275.4c0-0.1,0-0.2-0.1-0.2c-0.1,0-0.1,0.1-0.1,0.3C118.3,275.6,118.4,275.6,118.4,275.4z"/>
	<path class="st0" d="M118.1,275.7c0-0.1,0-0.2-0.1-0.2c-0.1,0-0.1,0.1-0.1,0.2C118,275.8,118,275.8,118.1,275.7z"/>
	<path class="st0" d="M130.1,285.8c0-0.1-0.1-0.2-0.2-0.3c-0.1-0.1-0.3-0.1-0.3-0.1c0,0.1,0.1,0.2,0.2,0.3
		C129.9,285.9,130.1,285.9,130.1,285.8z"/>
	<path class="st0" d="M129.4,286.5c0.1,0,0.1-0.1-0.1-0.2c-0.1-0.1-0.3-0.1-0.3,0l0.1,0.2L129.4,286.5z"/>
	<path class="st0" d="M129.3,286.8c0-0.1,0-0.1-0.1-0.2l-0.3-0.1c-0.1,0-0.1,0.1,0.1,0.2C129.1,286.8,129.2,286.8,129.3,286.8z"/>
	<path class="st0" d="M114.3,278.1c0-0.1,0.1,0,0.2,0.2c0.2,0.3,0.2,0.3,0.3,0.1c0-0.1,0-0.3-0.1-0.4c-0.1-0.1-0.3-0.2-0.4-0.1
		c-0.1,0-0.2,0.2-0.1,0.2C114.2,278.2,114.3,278.2,114.3,278.1z"/>
	<path class="st0" d="M113.6,278.2c0,0-0.2,0.2-0.3,0.3c-0.2,0.2-0.2,0.3,0.1,0.5c0.2,0.1,0.3,0.1,0.3-0.1c-0.1-0.2,0-0.2,0.2-0.1
		c0.2,0.1,0.2,0.1,0.2-0.1c-0.1-0.2,0-0.2,0.2-0.1c0.2,0.1,0.3,0.1,0.3,0.1C114.5,278.6,113.7,278.1,113.6,278.2z"/>
	<path class="st0" d="M126.4,287.8C126.4,287.8,126.4,287.8,126.4,287.8c-0.2,0.2-0.4,0.5-0.6,0.7c0,0,0.1-0.1,0.1-0.1
		C126.1,288.1,126.4,287.9,126.4,287.8z"/>
	<path class="st0" d="M112.8,279.2c-0.1-0.2-0.2-0.2-0.2,0c-0.1,0.4,0.3,0.8,0.5,0.7c0.1-0.1,0.2-0.2,0.2-0.3c0-0.1,0-0.2-0.2-0.1
		C113,279.5,113,279.4,112.8,279.2z"/>
	<path class="st0" d="M112.5,279.8c-0.1-0.1-0.2-0.3-0.2-0.3c-0.1,0-0.1,0-0.1,0.1c0,0.1,0.1,0.2,0.2,0.3
		C112.5,280,112.6,279.9,112.5,279.8z"/>
	<path class="st0" d="M111.8,279.8c0,0.1-0.1,0.2-0.3,0.4c-0.2,0.1-0.1,0.3,0,0.4c0.2,0.1,0.2,0.1,0.2-0.1c-0.1-0.1,0-0.2,0.2-0.1
		c0.2,0.1,0.3,0,0.4-0.1c0-0.2,0-0.4-0.2-0.5C111.9,279.7,111.8,279.7,111.8,279.8z"/>
	<path class="st0" d="M127.1,290.5c0.1,0,0.1-0.1-0.1-0.2c-0.1-0.1-0.3-0.1-0.3-0.1c0,0.1,0,0.1,0.1,0.2L127.1,290.5z"/>
	<path class="st0" d="M125.7,291.2c-0.1,0-0.1,0.1-0.1,0.2c0.1,0.1,0.1,0.1,0.2,0C125.9,291.3,125.8,291.2,125.7,291.2z"/>
	<path class="st0" d="M123.9,292.8c-0.1-0.1-0.3-0.1-0.3,0c0,0.1,0.1,0.1,0.2,0.2c0.1,0.1,0.3,0.1,0.3,0
		C124.1,293,124,292.9,123.9,292.8z"/>
	<path class="st0" d="M123.1,293.3c-0.1,0-0.1,0.1,0.1,0.2c0.1,0.1,0.3,0.1,0.3,0l-0.1-0.2L123.1,293.3z"/>
	<path class="st0" d="M110.5,308c0.1,0.1,0.2,0.1,0.3,0.1c0.3-0.3,0.5-0.5,0.7-0.8C110.8,307.6,110.4,307.9,110.5,308z"/>
	<path class="st0" d="M114.6,306.1c0.1-0.1,0.1-0.1,0-0.1c-0.2,0-1.1,0.3-2.1,0.8c-0.3,0.4-0.6,0.7-0.9,1.1c0.5-0.2,1.1-0.5,1.7-1
		C114,306.5,114.5,306.2,114.6,306.1z"/>
	<path class="st0" d="M81.2,321.3c0,0,0-0.1-0.1-0.2l-0.3-0.1c-0.1,0-0.1,0.1,0.1,0.2C81.1,321.3,81.2,321.4,81.2,321.3z"/>
	<path class="st0" d="M80.3,326c0,0.1,0.2,0.2,0.3,0.3c0.1,0.1,0.3,0.1,0.4,0.1c0.1,0-0.1-0.2-0.3-0.3C80.4,326,80.3,325.9,80.3,326
		z"/>
	<path class="st0" d="M88.5,331.1c-0.2-0.1-0.4-0.2-0.4-0.1c0,0,0.2,0.2,0.4,0.3C88.4,331.2,88.5,331.1,88.5,331.1
		C88.5,331.1,88.5,331.1,88.5,331.1z"/>
	<path class="st0" d="M87.1,330.5c-0.2-0.3-0.6-0.5-0.8-0.5c-0.1,0,0,0.1,0.2,0.3C87.1,330.7,87.4,330.8,87.1,330.5z"/>
	<path class="st0" d="M105.8,119.4c0.5-0.3,0.5-0.5,0.2-0.7c-0.2-0.2-0.6-0.1-0.8,0.2C104.8,119.7,105,119.8,105.8,119.4z"/>
	<path class="st0" d="M104,118.9c0.4,0,0.6-0.2,0.3-0.3c-0.2-0.1-0.5-0.1-0.7,0.1C103.4,118.8,103.6,118.9,104,118.9z"/>
	<path class="st0" d="M102.5,119c0.4,0,0.6-0.2,0.3-0.3c-0.2-0.1-0.5-0.1-0.7,0.1C101.9,118.9,102.1,119,102.5,119z"/>
	<path class="st0" d="M99.7,119.3c0.3,0,0.5-0.1,0.4-0.3c-0.1-0.2-0.4-0.1-0.6,0C99.3,119.2,99.4,119.3,99.7,119.3z"/>
	<path class="st0" d="M95.7,120c-0.2,0.2-0.1,0.3,0.2,0.3c0.3,0,0.5-0.2,0.4-0.3C96.2,119.8,95.9,119.8,95.7,120z"/>
	<path class="st0" d="M90.8,126c-0.2,0.2,0,0.2,0.4,0.2c0.4,0,0.5-0.2,0.3-0.3C91.3,125.8,91,125.8,90.8,126z"/>
	<path class="st0" d="M88.5,119.8c-0.6,0-1.6,0.1-2.2,0.3c-0.6,0.2-0.1,0.2,1.1,0C88.7,120,89.2,119.8,88.5,119.8z"/>
	<path class="st0" d="M88.6,128.6c-1.2,0.2-1.3,0.3-0.7,0.6c0.4,0.2,1.1,0.2,1.6,0.2c0.4,0,0.8-0.3,0.7-0.5
		C90.1,128.5,89.4,128.5,88.6,128.6z"/>
	<path class="st0" d="M88.5,125.8c-0.2,0.2-0.1,0.3,0.2,0.3c0.3,0,0.5-0.2,0.3-0.3C88.9,125.6,88.7,125.6,88.5,125.8z"/>
	<path class="st0" d="M85.4,128.4c-1,0-1.1,0.1-0.6,0.5c0.3,0.3,1,0.5,1.4,0.4C87.4,129.2,86.8,128.5,85.4,128.4z"/>
	<path class="st0" d="M83.1,129c-0.2,0.2,0,0.2,0.4,0.2c0.4-0.1,0.5-0.2,0.3-0.3C83.6,128.8,83.2,128.9,83.1,129z"/>
	<path class="st0" d="M78.4,129.5c0.3,0,0.5-0.2,0.3-0.3c-0.1-0.1-0.4-0.1-0.6,0.1C77.9,129.5,78,129.6,78.4,129.5z"/>
	<path class="st0" d="M75.8,129c-0.3,0.1-0.6,0.2-0.5,0.3c0,0.1,0.3,0.3,0.6,0.3c0.3,0.1,0.6,0,0.5-0.3
		C76.4,129.1,76.1,129,75.8,129z"/>
	<path class="st0" d="M70.2,125.6c-0.1,0.1-0.1,0.2-0.1,0.2c0.1,0,0.2,0,0.1,0.1c0.1,0.1,0.3,0.1,0.6,0c0.5-0.1,0.9-0.2,0.9-0.3
		C71.6,125.2,70.5,125.2,70.2,125.6z M71,125.7c-0.1,0.2-0.3,0.2-0.3,0.1c-0.1-0.1,0-0.3,0.2-0.3C71.1,125.4,71.1,125.5,71,125.7z"
		/>
	<path class="st0" d="M71.1,129.5c-0.1-0.1-0.4-0.1-0.6,0.1c-0.2,0.2-0.1,0.3,0.2,0.3C71.1,129.8,71.3,129.7,71.1,129.5z"/>
	<path class="st0" d="M66.7,124.1c1.8-0.3,1.8-0.3,0.5-0.5c-0.7-0.1-1.7,0-2.5,0.1c0,0.2,0,0.3,0,0.5c0,0,0,0.1,0.1,0.1
		C65.4,124.2,66.1,124.2,66.7,124.1z"/>
	<path class="st0" d="M67.5,129.9c0.4-0.1,0.5-0.2,0.3-0.3c-0.2-0.1-0.3,0-0.5,0C67.3,129.7,67.3,129.8,67.5,129.9
		C67.4,129.9,67.4,129.9,67.5,129.9z"/>
	<path class="st0" d="M67.1,129.7c-0.2,0.2,0,0.2,0.3,0.2c0-0.1-0.1-0.2-0.1-0.3C67.2,129.7,67.1,129.7,67.1,129.7z"/>
	<path class="st0" d="M47.8,178.9c-0.2,0.2-0.1,0.3,0.2,0.3c0.3,0,0.4-0.2,0.3-0.3C48.2,178.7,48,178.7,47.8,178.9z"/>
	<path class="st0" d="M46.5,179.8L46.5,179.8C46.5,179.9,46.5,179.9,46.5,179.8z"/>
	<path class="st0" d="M69.6,91.1c0.2,0.1,0.2-0.1,0-0.3c-0.1-0.1-0.1-0.1-0.2-0.2c-0.1,0-0.2,0-0.3,0c0,0,0,0.1,0,0.1
		C69.2,90.9,69.4,91.1,69.6,91.1z"/>
</g>
</svg>
